<svg width="389" height="266" viewBox="0 0 389 266" fill="none" xmlns="http://www.w3.org/2000/svg">
<rect width="389" height="266" fill="white"/>
<rect width="389" height="246" fill="white"/>
<path d="M228.299 228.468C228.299 228.468 224.173 218.312 236.55 210.695L228.299 228.468Z" fill="#E6E6E6"/>
<path d="M223.224 228.283C223.224 228.283 221.966 221.045 212.224 221.107L223.224 228.283Z" fill="#E6E6E6"/>
<path d="M316.284 228.468C316.284 228.468 310.833 215.051 327.186 204.988L316.284 228.468Z" fill="#E6E6E6"/>
<path d="M309.58 228.224C309.58 228.224 307.918 218.661 295.048 218.743L309.58 228.224Z" fill="#E6E6E6"/>
<path d="M216.334 94.096L210.951 91.2366L211.354 91.0225L216.737 93.8821L216.334 94.096Z" fill="#CBCBCB"/>
<path d="M211.639 94.096L211.236 93.8821L216.619 91.0225L217.022 91.2366L211.639 94.096Z" fill="#CBCBCB"/>
<path d="M171.573 71.9315L171.313 72.4385L172.833 73.2177L173.093 72.7108L171.573 71.9315Z" fill="#CBCBCB"/>
<path d="M203.102 88.728L200.075 87.177L200.335 86.67L203.361 88.221L203.102 88.728ZM197.048 85.6259L194.021 84.0748L194.281 83.5678L197.308 85.1189L197.048 85.6259ZM190.994 82.5238L187.968 80.9728L188.227 80.4658L191.254 82.0168L190.994 82.5238ZM184.941 79.4217L181.914 77.8707L182.174 77.3637L185.201 78.9147L184.941 79.4217ZM178.887 76.3197L175.86 74.7687L176.12 74.2617L179.147 75.8127L178.887 76.3197Z" fill="#CBCBCB"/>
<path d="M206.388 89.7723L206.128 90.2793L207.649 91.0586L207.909 90.5516L206.388 89.7723Z" fill="#CBCBCB"/>
<path d="M91.567 110.063C91.567 110.241 91.5612 110.417 91.5497 110.592C91.4851 111.601 91.2302 112.589 90.7985 113.503C90.7951 113.511 90.7912 113.518 90.7879 113.525C90.7678 113.567 90.7471 113.61 90.726 113.652C90.5976 113.91 90.4551 114.162 90.2993 114.405C89.5875 115.52 88.6118 116.443 87.4586 117.092C86.3053 117.741 85.0099 118.096 83.6869 118.126L83.7667 122.713L84.8068 122.165L84.9926 122.518L83.7745 123.159L83.9234 131.678L83.9251 131.792L83.1208 131.971L83.1225 131.856L83.3757 118.126C82.3108 118.111 81.2596 117.884 80.283 117.459C79.3064 117.035 78.424 116.42 77.6869 115.651C77.6362 115.599 77.586 115.545 77.5369 115.491L77.5313 115.485C76.9172 114.815 76.4206 114.047 76.0623 113.212C76.0701 113.221 76.0785 113.229 76.0863 113.238C75.2766 111.344 75.2216 109.213 75.9328 107.28C76.6439 105.348 78.0672 103.76 79.9111 102.843C79.939 102.829 79.9675 102.816 79.9954 102.802C81.8193 101.923 83.9067 101.762 85.8439 102.35C87.7811 102.938 89.4266 104.233 90.4543 105.977C90.5034 106.059 90.5509 106.144 90.5966 106.228C91.235 107.405 91.5686 108.724 91.567 110.063Z" fill="#E5E5E5"/>
<path d="M90.4815 113.529C96.3197 113.529 101.053 108.796 101.053 102.958C101.053 97.1195 96.3197 92.3867 90.4815 92.3867C84.6432 92.3867 79.9104 97.1195 79.9104 102.958C79.9104 108.796 84.6432 113.529 90.4815 113.529Z" fill="#E5E5E5"/>
<path opacity="0.2" d="M82.6761 95.8975C81.6901 98.204 81.5563 100.786 82.2987 103.182C83.0412 105.578 84.6114 107.632 86.7288 108.977C88.8463 110.322 91.3729 110.87 93.8574 110.524C96.3418 110.177 98.622 108.959 100.291 107.086C99.6883 108.495 98.7868 109.756 97.6485 110.782C96.5103 111.809 95.1626 112.575 93.6987 113.029C92.2348 113.482 90.6899 113.612 89.1708 113.409C87.6518 113.207 86.195 112.676 84.9013 111.854C83.6077 111.033 82.5082 109.94 81.6789 108.651C80.8497 107.362 80.3105 105.908 80.0989 104.39C79.8872 102.873 80.0081 101.327 80.4531 99.8604C80.8981 98.3939 81.6566 97.0417 82.6761 95.8975Z" fill="black"/>
<path d="M91.0532 132.407L89.9736 132.104L89.9759 131.988L90.2994 114.404L90.3156 113.527L90.3159 113.502L90.3725 110.43L90.4544 105.977V105.976L90.51 102.958H90.5398L90.5967 106.228L90.6708 110.484L90.7239 113.504V113.526L90.7262 113.651V113.651L90.8287 119.538L90.8394 120.123L91.0513 132.29L91.0532 132.407Z" fill="#3F3D56"/>
<path d="M92.1918 118.82L90.4443 119.74L90.6879 120.203L92.4353 119.283L92.1918 118.82Z" fill="#3F3D56"/>
<path d="M227.514 68.7467C214.171 67.9579 200.788 68.1636 187.476 69.3621C181.06 69.9421 174.542 70.5685 168.245 71.9681C163.172 73.0954 157.285 75.0007 154.124 79.4385C153.463 80.3327 153.016 81.3678 152.821 82.4631C152.626 83.5583 152.687 84.6838 152.999 85.7517C153.752 88.2815 155.627 90.3873 157.623 92.0366C162.218 95.8327 167.919 98.0416 173.012 101.057C182.31 106.564 190.82 113.986 196.282 123.414C198.686 127.562 200.972 133.079 198.296 137.65C195.674 142.129 189.821 143.672 185.047 144.399C179.064 145.311 172.902 145.064 166.894 144.553C160.307 143.939 153.757 142.98 147.271 141.679C134.565 139.239 121.974 136.136 109.091 134.724C102.631 133.964 96.1169 133.776 89.6241 134.161C83.7604 134.557 77.8464 135.484 72.3378 137.599C68.093 139.228 63.5682 141.693 61.2754 145.804C59.0651 149.767 59.9272 154.337 62.3339 157.993C65.2296 162.392 69.7451 165.407 74.4397 167.61C79.7849 170.119 85.5021 171.745 91.2266 173.128C94.1299 173.829 97.049 174.463 99.9683 175.094C100.577 175.226 100.837 174.29 100.226 174.158C94.3393 172.886 88.4353 171.61 82.6945 169.768C77.382 168.064 71.9453 165.881 67.5948 162.303C64.0753 159.408 60.729 155.18 60.9367 150.373C61.1461 145.527 65.2123 142.143 69.1976 140.06C74.1782 137.457 79.8369 136.189 85.3817 135.527C91.7306 134.819 98.1334 134.732 104.499 135.267C117.352 136.245 129.918 139.172 142.519 141.726C154.761 144.207 167.386 146.504 179.932 145.868C184.905 145.616 190.233 144.903 194.623 142.393C196.634 141.244 198.446 139.623 199.468 137.514C200.389 135.508 200.68 133.269 200.303 131.094C199.591 126.315 196.753 121.884 193.921 118.078C190.817 113.95 187.216 110.22 183.199 106.972C178.791 103.425 174.039 100.329 169.013 97.7303C166.347 96.327 163.644 94.9776 161.104 93.3523C158.669 91.7939 156.266 89.9188 154.779 87.3889C153.493 85.2008 153.257 82.7034 154.597 80.4842C155.952 78.2396 158.286 76.6741 160.589 75.5301C166.136 72.7739 172.585 72.0361 178.654 71.2801C191.686 69.6624 204.819 69.0076 217.947 69.321C221.138 69.396 224.327 69.5281 227.514 69.7173C228.138 69.754 228.135 68.7833 227.514 68.7467V68.7467Z" fill="black"/>
<path d="M219.049 37.6345L221.065 36.0226C219.499 35.8498 218.856 36.7037 218.593 37.3796C217.369 36.8717 216.038 37.5373 216.038 37.5373L220.07 39.0012C219.867 38.4579 219.513 37.9838 219.049 37.6345Z" fill="#3F3D56"/>
<path d="M209.268 42.738L211.284 41.1261C209.718 40.9534 209.075 41.8072 208.812 42.4831C207.588 41.9752 206.257 42.6408 206.257 42.6408L210.289 44.1048C210.086 43.5614 209.732 43.0873 209.268 42.738Z" fill="#3F3D56"/>
<path d="M219.049 50.8171L221.065 49.2052C219.499 49.0325 218.856 49.8863 218.593 50.5622C217.369 50.0543 216.038 50.7199 216.038 50.7199L220.07 52.1838C219.867 51.6405 219.513 51.1664 219.049 50.8171Z" fill="#3F3D56"/>
<path d="M188.835 53.2058C192.189 53.2058 194.907 50.4872 194.907 47.1337C194.907 43.7801 192.189 41.0615 188.835 41.0615C185.482 41.0615 182.763 43.7801 182.763 47.1337C182.763 50.4872 185.482 53.2058 188.835 53.2058Z" fill="#FF6583"/>
<path d="M207.877 65.8452H178.088C178.051 65.8457 178.014 65.8427 177.977 65.8364L192.066 41.4344C192.152 41.2824 192.276 41.1559 192.427 41.068C192.578 40.98 192.75 40.9336 192.924 40.9336C193.099 40.9336 193.27 40.98 193.421 41.068C193.572 41.1559 193.697 41.2824 193.783 41.4344L203.237 57.8095L203.69 58.5929L207.877 65.8452Z" fill="#FB8C00"/>
<path d="M224.461 65.8454H198.698L203.69 58.5937L204.049 58.0711L210.554 48.6208C210.67 48.4762 210.814 48.3575 210.978 48.2723C211.142 48.1871 211.322 48.1374 211.506 48.1264C211.691 48.1154 211.875 48.1433 212.048 48.2084C212.221 48.2734 212.378 48.3742 212.51 48.5041C212.543 48.541 212.575 48.58 212.603 48.6208L224.461 65.8454Z" fill="#FB8C00"/>
<path d="M181.962 121.812C184.786 123.223 186.505 125.087 186.505 127.131C186.505 131.535 178.536 135.105 168.706 135.105C164.432 135.105 160.511 134.429 157.443 133.305C160.702 134.934 165.432 135.959 170.699 135.959C180.529 135.959 188.498 132.389 188.498 127.985C188.498 125.496 185.951 123.274 181.962 121.812Z" fill="#F1F1F1"/>
<path d="M188.243 124.836C191.429 126.428 193.368 128.532 193.368 130.838C193.368 135.808 184.376 139.836 173.284 139.836C168.462 139.836 164.038 139.074 160.575 137.805C164.253 139.643 169.591 140.8 175.534 140.8C186.626 140.8 195.618 136.772 195.618 131.802C195.618 128.994 192.744 126.486 188.243 124.836Z" fill="#F1F1F1"/>
<path d="M179.559 123.144C181.548 124.138 182.759 125.451 182.759 126.891C182.759 129.994 177.145 132.509 170.219 132.509C167.521 132.544 164.837 132.115 162.284 131.241C164.58 132.388 167.913 133.111 171.624 133.111C178.549 133.111 184.164 130.596 184.164 127.493C184.164 125.739 182.369 124.174 179.559 123.144Z" fill="#F1F1F1"/>
<path d="M151.609 122.574C151.609 122.574 152.046 128.964 164.576 128.964C177.107 128.964 180.848 122.574 180.848 122.574H151.609Z" fill="#3F3D56"/>
<path d="M169.395 105.811C167.586 104.436 165.315 103.815 163.059 104.077C165.075 104.564 166.856 105.744 168.089 107.413C169.322 109.081 169.927 111.13 169.8 113.201C169.672 115.271 168.82 117.231 167.391 118.735C165.963 120.24 164.051 121.193 161.99 121.428C163.961 121.904 166.036 121.686 167.866 120.812C169.696 119.938 171.17 118.461 172.039 116.628C172.907 114.796 173.119 112.72 172.637 110.75C172.156 108.78 171.011 107.036 169.395 105.811Z" fill="#3F3D56"/>
<path d="M165.288 102.924H164.434V123.26H165.288V102.924Z" fill="#3F3D56"/>
<path d="M221.436 87.8137L221.431 87.8058L221.42 87.3091L224.096 83.4231L221.423 86.9373L221.413 87.0423L221.322 83.0703L223.634 79.0414L221.315 82.3725L221.339 74.1436L221.339 74.1162L221.339 74.1432L221.185 80.6287L219.078 77.9942L221.178 81.1874L221.132 84.7402L219.193 81.2728L221.125 85.2626L221.099 87.2381L221.029 92.7114L221.023 93.1203C221.202 93.1217 221.379 93.1187 221.554 93.1114L221.432 87.8543L221.436 87.8137Z" fill="#CBCBCB"/>
<path d="M208.621 89.5227L208.616 89.5148L208.604 89.0181L211.281 85.1321L208.608 88.6463L208.598 88.7513L208.507 84.7793L210.818 80.7504L208.5 84.0815L208.524 75.8526L208.524 75.8252L208.523 75.8521L208.37 82.3376L206.263 79.7032L208.363 82.8964L208.317 86.4492L206.378 82.9818L208.31 86.9715L208.284 88.9471L208.213 94.4203L208.208 94.8293C208.387 94.8307 208.564 94.8277 208.739 94.8204L208.617 89.5632L208.621 89.5227Z" fill="#CBCBCB"/>
<path d="M214.886 84.1115L214.881 84.1037L214.87 83.6069L217.546 79.7209L214.873 83.2351L214.863 83.3401L214.772 79.3682L217.084 75.3392L214.765 78.6704L214.789 70.4415L214.789 70.4141L214.789 70.441L214.635 76.9265L212.528 74.2921L214.628 77.4852L214.582 81.0381L212.643 77.5706L214.575 81.5604L214.549 83.536L214.479 89.0092L214.473 89.4182C214.652 89.4195 214.829 89.4165 215.004 89.4092L214.882 84.1521L214.886 84.1115Z" fill="#CBCBCB"/>
<path d="M109.044 178.677C110.931 178.677 112.461 177.147 112.461 175.259C112.461 173.372 110.931 171.842 109.044 171.842C107.156 171.842 105.626 173.372 105.626 175.259C105.626 177.147 107.156 178.677 109.044 178.677Z" fill="#FB8C00"/>
<path d="M289.452 222.342L286.289 223.517L280.249 211.873L284.919 210.139L289.452 222.342Z" fill="#FFB7B7"/>
<path d="M291.399 225.109L281.197 228.899L281.149 228.77C280.758 227.717 280.801 226.551 281.269 225.53C281.737 224.509 282.592 223.715 283.645 223.324L283.645 223.324L289.876 221.009L291.399 225.109Z" fill="#2F2E41"/>
<path d="M258.317 225.627L254.942 225.627L253.336 212.608L258.318 212.609L258.317 225.627Z" fill="#FFB7B7"/>
<path d="M258.903 228.898L248.02 228.898V228.76C248.02 227.637 248.466 226.559 249.261 225.765C250.055 224.971 251.132 224.524 252.256 224.524H252.256L258.903 224.525L258.903 228.898Z" fill="#2F2E41"/>
<path d="M273.769 135.34L272.668 133.138L263.308 137.818L263.583 139.745L261.794 142.085C261.794 142.085 258.766 143.737 259.316 149.243L259.867 154.473L260.555 161.218L255.737 177.874L253.26 199.897L251.47 217.654L260.142 217.241L268.126 188.335L282.166 219.444L291.801 216.966L278.587 186.133L276.935 173.194C276.935 173.194 278.037 166.311 272.806 161.631L273.632 159.153V156.1L276.385 141.534L273.769 135.34Z" fill="#2F2E41"/>
<path opacity="0.2" d="M274.027 166.818L267.97 188.291L268.282 188.379L274.338 166.906L274.027 166.818Z" fill="black"/>
<path d="M273.494 161.218H260.005V162.594H273.494V161.218Z" fill="#3F3D56"/>
<path d="M260.005 163.42C260.309 163.42 260.555 162.804 260.555 162.043C260.555 161.283 260.309 160.667 260.005 160.667C259.701 160.667 259.454 161.283 259.454 162.043C259.454 162.804 259.701 163.42 260.005 163.42Z" fill="#3F3D56"/>
<path d="M269.608 131.779C273.164 129.835 274.471 125.376 272.527 121.82C270.583 118.264 266.124 116.957 262.568 118.901C259.012 120.845 257.705 125.304 259.649 128.86C261.593 132.416 266.052 133.723 269.608 131.779Z" fill="#FFB7B7"/>
<path d="M277.317 122.721C280.902 122.721 283.809 119.815 283.809 116.229C283.809 112.644 280.902 109.737 277.317 109.737C273.732 109.737 270.825 112.644 270.825 116.229C270.825 119.815 273.732 122.721 277.317 122.721Z" fill="#2F2E41"/>
<path d="M285.555 115.533C285.811 116.393 285.886 117.297 285.775 118.188C285.664 119.078 285.37 119.936 284.911 120.707C284.452 121.478 283.838 122.146 283.107 122.668C282.377 123.189 281.547 123.554 280.669 123.739C279.79 123.923 278.883 123.924 278.005 123.74C277.126 123.557 276.295 123.193 275.565 122.672C274.834 122.151 274.219 121.485 273.759 120.714C273.299 119.943 273.003 119.086 272.891 118.195C273.356 119.757 274.392 121.087 275.792 121.921C277.192 122.754 278.855 123.031 280.449 122.696C282.044 122.361 283.454 121.438 284.4 120.111C285.346 118.784 285.758 117.15 285.555 115.533Z" fill="#2F2E41"/>
<path d="M259.909 123.303C259.718 124.981 260.086 126.675 260.956 128.123C261.826 129.57 263.149 130.69 264.721 131.31C266.292 131.929 268.023 132.013 269.647 131.548C271.271 131.083 272.696 130.096 273.701 128.739C274.707 127.382 275.237 125.732 275.21 124.043C275.182 122.355 274.598 120.722 273.549 119.399C272.499 118.076 271.043 117.136 269.405 116.724C267.767 116.313 266.039 116.453 264.489 117.124C263.207 116.09 261.617 116.41 260.325 117.501C258.864 118.735 258.43 119.583 257.297 121.612C258.411 121.768 258.794 123.146 259.909 123.303Z" fill="#2F2E41"/>
<path d="M286.882 145.371C286.8 147.546 286.638 151.826 286.638 152.045C286.638 152.275 283.392 158.994 281.99 161.886V161.888C281.891 162.092 281.801 162.276 281.722 162.439C281.614 162.664 281.443 162.852 281.231 162.983C281.018 163.113 280.773 163.18 280.524 163.175L274.397 163.065C274.06 163.06 273.739 162.924 273.5 162.687C273.261 162.45 273.122 162.129 273.114 161.792L272.431 134.838C272.428 134.749 272.444 134.66 272.476 134.578C272.509 134.495 272.557 134.419 272.619 134.356C272.682 134.292 272.756 134.241 272.838 134.207C272.92 134.172 273.007 134.154 273.096 134.154H280.998C281.331 134.154 281.658 134.249 281.941 134.426C282.224 134.603 282.451 134.857 282.596 135.157L286.388 143.003C286.744 143.74 286.913 144.553 286.882 145.371V145.371Z" fill="#FB8C00"/>
<path d="M273.007 159.942C271.435 158.99 270.023 157.796 268.821 156.405C266.029 153.265 264.332 149.304 263.983 145.117C263.671 141.535 264.382 138.872 266.095 137.203C268.273 135.081 271.238 135.389 271.363 135.403L271.495 135.418L273.504 137.118L272.935 137.789L271.138 136.269C270.588 136.241 268.343 136.235 266.702 137.84C265.192 139.317 264.572 141.74 264.859 145.041C265.191 149.027 266.804 152.799 269.456 155.794C270.6 157.117 271.941 158.257 273.432 159.172L273.007 159.942Z" fill="#FB8C00"/>
<path d="M284.409 149.703L273.703 151.901L273.762 152.189L284.468 149.99L284.409 149.703Z" fill="#3F3D56"/>
<path d="M277.353 134.148L277.06 134.16L277.755 151.194L278.048 151.182L277.353 134.148Z" fill="#3F3D56"/>
<path d="M286.883 145.371C286.8 147.546 286.638 151.827 286.638 152.045C286.638 152.276 283.392 158.995 281.99 161.887L284.604 146.713C284.705 146.13 284.959 145.583 285.341 145.13C285.722 144.677 286.217 144.333 286.775 144.134C286.863 144.54 286.899 144.956 286.883 145.371Z" fill="#3F3D56"/>
<path d="M270.827 177.17C271.058 176.872 271.222 176.527 271.305 176.159C271.389 175.791 271.39 175.409 271.31 175.04C271.23 174.671 271.07 174.325 270.842 174.024C270.613 173.724 270.322 173.477 269.988 173.302L270.519 167.427L267.027 166.233L266.394 174.541C266.136 175.122 266.101 175.777 266.294 176.382C266.487 176.987 266.896 177.501 267.442 177.825C267.989 178.149 268.635 178.261 269.259 178.141C269.883 178.02 270.441 177.675 270.827 177.17Z" fill="#FFB7B7"/>
<path d="M271.283 171.485L265.096 171.261L265.358 141.424C265.354 140.58 265.615 139.756 266.104 139.068C266.594 138.38 267.287 137.863 268.087 137.591C268.833 137.343 269.64 137.342 270.388 137.589C271.235 137.876 271.963 138.437 272.456 139.183C272.95 139.93 273.181 140.819 273.112 141.711L271.283 171.485Z" fill="#CBCBCB"/>
<path d="M325.559 229H202.294C202.208 229 202.126 228.966 202.065 228.905C202.005 228.844 201.971 228.762 201.971 228.676C201.971 228.59 202.005 228.508 202.065 228.447C202.126 228.387 202.208 228.353 202.294 228.353H325.559C325.645 228.353 325.727 228.387 325.788 228.447C325.848 228.508 325.882 228.59 325.882 228.676C325.882 228.762 325.848 228.844 325.788 228.905C325.727 228.966 325.645 229 325.559 229Z" fill="#CBCBCB"/>
</svg>
