<svg width="36" height="36" viewBox="0 0 36 36" fill="none" xmlns="http://www.w3.org/2000/svg">
<path d="M16.293 6.46973H21.9236V9.28504H16.293V6.46973Z" fill="#B3BDC4"/>
<path d="M1.557 19.4074C1.2575 19.7668 1.1377 21.3242 1.1377 21.3242V30.3093H34.0229C34.0229 30.3093 35.9996 24.6787 35.9996 12.3392C35.9996 7.96648 33.2442 7.84668 23.6602 7.84668C14.0762 7.84668 11.6801 8.74518 9.64353 10.662C7.66682 12.3991 3.77331 16.7718 1.557 19.4074Z" fill="#E1E8ED"/>
<path d="M10.4829 11.2615L3.47461 18.5095H15.1552V9.34473C12.9988 9.34473 11.3215 10.363 10.4829 11.2615Z" fill="#3E4347"/>
<path d="M35.9402 31.4477C35.9402 32.0467 35.461 32.5858 34.8021 32.5858H1.13811C0.539102 32.5858 0 32.1066 0 31.4477C0 30.8487 0.479202 30.3096 1.13811 30.3096H34.8021C35.461 30.3096 35.9402 30.8487 35.9402 31.4477Z" fill="#B3BDC4"/>
<path d="M19.1079 2.81543C18.1495 2.81543 17.5505 3.59413 17.4307 4.49264C17.3708 4.97184 16.8916 6.46935 16.8916 6.46935H21.3841C21.3841 6.46935 20.9049 5.03174 20.845 4.49264C20.6653 3.59413 20.0064 2.81543 19.1079 2.81543Z" fill="#F15744"/>
<path d="M17.9697 4.4926C17.9697 5.0916 18.4489 5.6307 19.1078 5.6307V3.35449C18.4489 3.35449 17.9697 3.89359 17.9697 4.4926Z" fill="#FFC7CE"/>
<path d="M22.7621 0L21.0849 2.81531L23.8403 0.838604L22.7621 0ZM15.3944 0L17.1315 2.81531L14.3162 0.838604L15.3944 0ZM21.9235 3.95342L24.6789 2.81531L25.2779 3.95342H21.9235ZM16.2929 3.95342L13.4776 2.81531L12.9385 3.95342H16.2929Z" fill="#F15744"/>
<path d="M35.5809 20.725H18.5093L16.2331 23.0012H2.63574V25.2774H17.4311L19.6474 23.0611H35.3413C35.4611 22.3423 35.521 21.5636 35.5809 20.725ZM30.3097 14.3157C30.3097 14.0162 30.0701 13.7766 29.7706 13.7766H27.7939C27.4944 13.7766 27.2548 13.537 27.2548 13.2375V11.2608C27.2548 10.9613 27.0152 10.7217 26.7157 10.7217H26.1765C25.877 10.7217 25.6374 10.9613 25.6374 11.2608V13.1776C25.6374 13.4771 25.3978 13.7167 25.0983 13.7167H23.1216C22.8221 13.7167 22.5825 13.9563 22.5825 14.2558V14.7949C22.5825 15.0944 22.8221 15.334 23.1216 15.334H25.0983C25.3978 15.334 25.6374 15.5736 25.6374 15.8731V17.9696C25.6374 18.2691 25.877 18.5087 26.1765 18.5087H26.7157C27.0152 18.5087 27.2548 18.2691 27.2548 17.9696V15.9929C27.2548 15.6934 27.4944 15.4538 27.7939 15.4538H29.7706C30.0701 15.4538 30.3097 15.2142 30.3097 14.9147V14.3157Z" fill="#F15744"/>
<path d="M32.5856 31.4476C32.5856 28.9917 30.549 26.9551 28.0931 26.9551C25.6372 26.9551 23.6006 28.9917 23.6006 31.4476C23.6006 33.9035 25.6372 35.9401 28.0931 35.9401C30.549 35.9401 32.5856 33.9035 32.5856 31.4476Z" fill="#3E4347"/>
<path d="M28.0933 28.8721C29.5309 28.8721 30.669 30.0102 30.669 31.4478C30.669 32.8854 29.5309 34.0235 28.0933 34.0235C26.6557 34.0235 25.5176 32.8854 25.5176 31.4478C25.5176 30.0102 26.6557 28.8721 28.0933 28.8721Z" fill="#DAE3EA"/>
<path d="M28.0935 29.5307C28.4574 29.5307 28.7524 29.2357 28.7524 28.8718C28.7524 28.5079 28.4574 28.2129 28.0935 28.2129C27.7296 28.2129 27.4346 28.5079 27.4346 28.8718C27.4346 29.2357 27.7296 29.5307 28.0935 29.5307Z" fill="#3E4347"/>
<path d="M25.8767 30.8491C26.2406 30.8491 26.5356 30.5541 26.5356 30.1902C26.5356 29.8263 26.2406 29.5312 25.8767 29.5312C25.5128 29.5312 25.2178 29.8263 25.2178 30.1902C25.2178 30.5541 25.5128 30.8491 25.8767 30.8491Z" fill="#3E4347"/>
<path d="M25.8767 33.3647C26.2406 33.3647 26.5356 33.0697 26.5356 32.7058C26.5356 32.3419 26.2406 32.0469 25.8767 32.0469C25.5128 32.0469 25.2178 32.3419 25.2178 32.7058C25.2178 33.0697 25.5128 33.3647 25.8767 33.3647Z" fill="#3E4347"/>
<path d="M28.0935 34.6821C28.4574 34.6821 28.7524 34.3871 28.7524 34.0232C28.7524 33.6593 28.4574 33.3643 28.0935 33.3643C27.7296 33.3643 27.4346 33.6593 27.4346 34.0232C27.4346 34.3871 27.7296 34.6821 28.0935 34.6821Z" fill="#3E4347"/>
<path d="M30.3093 33.3647C30.6732 33.3647 30.9682 33.0697 30.9682 32.7058C30.9682 32.3419 30.6732 32.0469 30.3093 32.0469C29.9454 32.0469 29.6504 32.3419 29.6504 32.7058C29.6504 33.0697 29.9454 33.3647 30.3093 33.3647Z" fill="#3E4347"/>
<path d="M30.6089 30.7284C30.3094 30.9081 29.8901 30.7883 29.7104 30.4888C29.5307 30.1893 29.6505 29.77 29.95 29.5903C30.2495 29.4106 30.6688 29.5304 30.8485 29.8299C31.0282 30.1294 30.9084 30.5487 30.6089 30.7284Z" fill="#3E4347"/>
<path d="M28.0929 32.7053C28.7876 32.7053 29.3508 32.1421 29.3508 31.4474C29.3508 30.7526 28.7876 30.1895 28.0929 30.1895C27.3981 30.1895 26.835 30.7526 26.835 31.4474C26.835 32.1421 27.3981 32.7053 28.0929 32.7053Z" fill="#62727A"/>
<path d="M12.3395 31.4476C12.3395 28.9917 10.3029 26.9551 7.84701 26.9551C5.3911 26.9551 3.35449 28.9917 3.35449 31.4476C3.35449 33.9035 5.3911 35.9401 7.84701 35.9401C10.3628 35.9401 12.3395 33.9035 12.3395 31.4476Z" fill="#3E4347"/>
<path d="M10.4229 31.4478C10.4229 30.0102 9.2848 28.8721 7.8472 28.8721C6.40959 28.8721 5.27148 30.0102 5.27148 31.4478C5.27148 32.8854 6.40959 34.0235 7.8472 34.0235C9.2848 34.0235 10.4229 32.8854 10.4229 31.4478Z" fill="#DAE3EA"/>
<path d="M7.84738 29.5307C8.21128 29.5307 8.50628 29.2357 8.50628 28.8718C8.50628 28.5079 8.21128 28.2129 7.84738 28.2129C7.48348 28.2129 7.18848 28.5079 7.18848 28.8718C7.18848 29.2357 7.48348 29.5307 7.84738 29.5307Z" fill="#3E4347"/>
<path d="M5.63058 30.8491C5.99448 30.8491 6.28949 30.5541 6.28949 30.1902C6.28949 29.8263 5.99448 29.5312 5.63058 29.5312C5.26668 29.5312 4.97168 29.8263 4.97168 30.1902C4.97168 30.5541 5.26668 30.8491 5.63058 30.8491Z" fill="#3E4347"/>
<path d="M5.33087 32.1665C5.63037 31.9868 6.04967 32.1066 6.22937 32.4061C6.40907 32.7056 6.28927 33.1249 5.98977 33.3046C5.69027 33.4843 5.27097 33.3645 5.09127 33.065C4.91157 32.7655 5.03137 32.3462 5.33087 32.1665Z" fill="#3E4347"/>
<path d="M7.84738 34.6821C8.21128 34.6821 8.50628 34.3871 8.50628 34.0232C8.50628 33.6593 8.21128 33.3643 7.84738 33.3643C7.48348 33.3643 7.18848 33.6593 7.18848 34.0232C7.18848 34.3871 7.48348 34.6821 7.84738 34.6821Z" fill="#3E4347"/>
<path d="M10.0632 33.3647C10.4271 33.3647 10.7221 33.0697 10.7221 32.7058C10.7221 32.3419 10.4271 32.0469 10.0632 32.0469C9.6993 32.0469 9.4043 32.3419 9.4043 32.7058C9.4043 33.0697 9.6993 33.3647 10.0632 33.3647Z" fill="#3E4347"/>
<path d="M10.0632 30.8491C10.4271 30.8491 10.7221 30.5541 10.7221 30.1902C10.7221 29.8263 10.4271 29.5312 10.0632 29.5312C9.6993 29.5312 9.4043 29.8263 9.4043 30.1902C9.4043 30.5541 9.6993 30.8491 10.0632 30.8491Z" fill="#3E4347"/>
<path d="M7.84677 32.7053C8.5415 32.7053 9.10468 32.1421 9.10468 31.4474C9.10468 30.7526 8.5415 30.1895 7.84677 30.1895C7.15205 30.1895 6.58887 30.7526 6.58887 31.4474C6.58887 32.1421 7.15205 32.7053 7.84677 32.7053Z" fill="#62727A"/>
</svg>
