<svg width="180" height="180" viewBox="0 0 180 180" fill="none" xmlns="http://www.w3.org/2000/svg">
<rect width="180" height="180" fill="#FB8C00"/>
<path fill-rule="evenodd" clip-rule="evenodd" d="M142.84 68.8412L142.748 64.0002H141.4H140.052L140.05 61.4566C140.049 60.0578 139.961 57.9163 139.855 56.6977L139.663 54.4823H138.351H137.039V51.2003V47.9182H135.532H134.026V46.2772V44.6362H132.67H131.314V42.9952V41.3541H129.807H128.301V39.7131V38.0721H126.794H125.288V36.4311V34.7901H123.932H122.576V33.3132V31.8362H121.086H119.596L119.504 30.2773L119.412 28.7183L116.475 28.6244L113.537 28.5306V26.9014V25.2722H110.524H107.511V23.8474V22.423L100.957 22.2074C92.5767 21.9317 82.6492 21.9307 76.8253 22.2054L72.2577 22.4207V23.8464V25.2722H70.1941C69.0591 25.2722 67.093 25.3677 65.8251 25.4845L63.5198 25.6965V27.1255V28.5542H62.0133H60.5068V30.1952V31.8362H57.6443H54.7819V33.4773V35.1183H53.2754H51.7689V36.7593V38.4003H50.2623H48.7558V41.5183V44.6362H47.2493H45.7427V46.2772V47.9182H44.4227H43.1027L42.8881 51.0362L42.6733 54.1541H41.3457H40.0179V58.895L40.0179 63.6359L38.5867 63.736L37.1555 63.8361L37.0777 83.1181L37 102.4H38.3146H39.6295L39.8214 104.615C39.9272 105.834 40.0146 108.714 40.0158 111.015L40.0179 115.2H41.3497H42.6814L42.8951 118.482L43.1087 121.764H44.4143H45.7201L45.8066 124.8L45.8934 127.836H48.7558H51.6182L51.7101 126.277L51.802 124.718H54.6313H57.4606L57.5525 123.159L57.6443 121.6L60.5821 121.506L63.5198 121.412V119.986V118.56L66.3823 118.327L69.2447 118.092V116.646V115.2H72.2577H75.2708V113.559V111.918H78.1167H80.9625L81.0544 110.359L81.1463 108.8L82.5775 108.7L84.0087 108.6V103.695V98.7898H82.6528H81.297V89.436V80.0822H82.6528H84.0087L84.0087 76.8356V73.589L86.992 73.3563C88.6326 73.2283 91.2615 73.229 92.834 73.3573L95.6931 73.5907L95.9052 76.6725L96.1173 79.754H97.4449H98.7728L98.7728 89.436V99.118H97.4612H96.1493L95.9546 101.629C95.8474 103.01 95.7597 105.152 95.7597 106.388V108.636H97.2662H98.7728V110.277V111.918H101.786L104.799 111.918V113.364V114.81L107.661 115.044L110.524 115.278V116.681V118.083L113.537 118.318L116.55 118.553V119.994V121.436H119.412H122.275V123.077V124.718H125.288H128.301V126.359V128H131.127H133.954L134.169 124.882L134.383 121.764H135.711H137.039V118.482V115.2H138.35H139.662L139.857 112.689C139.964 111.308 140.052 108.428 140.052 106.289V102.4H141.36H142.667L142.865 95.2617C143.053 88.4915 143.044 79.6145 142.84 68.8412Z" fill="white"/>
<circle cx="89.8038" cy="71.6506" r="5.51673" fill="#FB8C00"/>
<path fill-rule="evenodd" clip-rule="evenodd" d="M17.7575 138.618C16.6066 138.755 16.1137 138.935 14.1612 139.937C12.9645 140.551 10.6349 142.871 10.6485 143.435C10.654 143.665 10.5259 143.856 10.3638 143.86C10.2017 143.864 10.0754 144.13 10.0832 144.452C10.0909 144.773 9.97843 145.039 9.83343 145.042C9.53605 145.049 9.22877 146.949 9.24016 148.71C9.25038 150.263 9.69699 152.353 10.0171 152.345C10.1576 152.342 10.2792 152.602 10.2869 152.923C10.2947 153.244 10.4336 153.504 10.5957 153.5C10.7578 153.496 10.8944 153.659 10.8993 153.861C10.9115 154.367 13.2975 156.65 13.8015 156.638C14.0261 156.633 14.2126 156.751 14.2162 156.899C14.2198 157.049 14.9732 157.429 15.8903 157.744C18.4751 158.632 24.6955 158.284 25.8566 157.185C26.0074 157.043 26.3124 156.922 26.5346 156.917C27.0722 156.904 27.7635 156.161 27.7503 155.611C27.7358 155.007 24.3181 148.786 24.0048 148.793C23.8663 148.797 23.756 148.931 23.7599 149.092C23.764 149.263 22.746 149.408 21.2933 149.443C18.7044 149.505 18.4589 149.386 18.4267 148.05C18.4093 147.326 19.7401 147.028 22.1243 147.223C24.093 147.385 24.8901 147.041 24.8661 146.041C24.8603 145.802 24.9539 145.56 25.0743 145.504C25.4213 145.341 27.4014 141.105 27.3881 140.554C27.3763 140.063 25.5489 139.111 24.6597 139.132C24.4225 139.138 24.0993 139.03 23.9421 138.891C23.6077 138.598 19.4662 138.415 17.7575 138.618ZM49.9272 138.402C49.629 139.232 50.1571 156.344 50.4995 156.944C50.7885 157.449 51.1614 157.493 54.4918 157.413L58.1655 157.325L57.9301 147.539L57.6947 137.753L53.8949 137.844C50.7018 137.921 50.0682 138.01 49.9272 138.402ZM68.1386 138.177C67.8034 138.537 67.1626 139.104 66.7147 139.436C66.2668 139.768 65.6323 140.313 65.3048 140.647C64.9769 140.981 64.2492 141.549 63.6876 141.909C63.1259 142.271 62.3551 142.91 61.9748 143.331C61.5945 143.752 61.1726 144.1 61.0373 144.103C60.6592 144.112 59.0673 145.778 59.0764 146.155C59.0812 146.355 59.6132 146.475 60.4107 146.456L61.7369 146.424L61.8031 149.175C61.8737 152.111 62.539 154.195 63.7007 155.12C64.0119 155.368 64.5145 155.764 64.8177 156C66.4066 157.238 70.1913 157.375 72.3688 156.274L73.4614 155.721L73.3924 152.85C73.3539 151.252 73.1908 149.903 73.0242 149.806C72.8597 149.711 72.7281 149.757 72.7318 149.908C72.7401 150.252 71.4026 150.555 70.6494 150.379C70.1645 150.266 70.0791 149.967 70.0375 148.236L69.9892 146.226L71.2565 146.195C71.9535 146.179 72.6791 146.003 72.869 145.806C73.0621 145.605 73.1954 144.661 73.1714 143.665C73.1474 142.668 72.9689 141.732 72.7664 141.541C72.5673 141.353 71.834 141.213 71.137 141.229L69.8697 141.26L69.824 139.361C69.7851 137.741 69.7027 137.467 69.263 137.493C68.9794 137.509 68.4734 137.817 68.1386 138.177ZM112.029 140.817L112.134 145.186L114.273 145.221L116.412 145.255L116.579 150.074C116.671 152.724 116.762 155.126 116.781 155.411C116.813 155.887 117.163 155.915 121.014 155.748L125.211 155.566L125.164 150.233L125.116 144.9L127.32 144.847L129.523 144.794L129.418 140.412L129.312 136.03L120.618 136.239L111.924 136.448L112.029 140.817ZM29.0933 142.703C28.7552 143.643 29.174 154.201 29.5752 154.856C30.1771 155.838 31.6893 157.196 32.6034 157.574C34.4743 158.35 37.3752 157.714 38.7499 156.228C39.5003 155.416 39.5411 155.405 39.5556 156.007C39.5639 156.356 39.7143 156.892 39.8894 157.199C40.1773 157.703 40.5497 157.749 43.7241 157.672C46.8986 157.596 47.2683 157.532 47.5316 157.015C47.709 156.667 47.758 153.739 47.657 149.538C47.5224 143.943 47.4091 142.556 47.0597 142.226C46.7338 141.918 45.7623 141.84 43.0765 141.904C38.8481 142.006 39.2309 141.422 39.2795 147.695L39.3136 152.079L38.3153 152.197C37.7148 152.269 37.2146 152.165 37.0601 151.935C36.9188 151.726 36.7539 149.576 36.6931 147.158C36.6174 144.134 36.47 142.655 36.2208 142.42C35.9824 142.195 34.7326 142.105 32.5599 142.157C29.8237 142.223 29.2323 142.316 29.0933 142.703ZM74.9203 141.54C74.5336 142.025 74.8683 152.055 75.3204 153.525C76.3943 157.018 82.0172 157.943 84.7699 155.08C85.1669 154.667 85.5642 154.327 85.6526 154.325C85.741 154.323 85.8259 154.847 85.8414 155.49L85.8695 156.658L89.2346 156.577C91.0855 156.533 92.8077 156.412 93.0617 156.308C93.4662 156.143 93.5016 155.201 93.3467 148.76C93.2184 143.426 93.0701 141.307 92.8076 141.059C92.3082 140.587 85.7388 140.745 85.2627 141.24C85.0224 141.49 84.9523 143.047 85.032 146.361L85.1465 151.122L84.2414 151.144C82.6381 151.183 82.5085 150.822 82.2969 145.739L82.1042 141.112L78.6829 141.112C75.994 141.112 75.1882 141.204 74.9203 141.54ZM96.1746 140.871C95.8898 141.06 95.8656 142.824 96.0677 148.688L96.3286 156.261L100.16 156.168L103.991 156.076L104.082 152.128C104.132 149.957 104.264 147.882 104.374 147.518C104.624 146.697 105.411 146.643 105.995 147.406C106.346 147.866 106.772 147.972 108.137 147.939C109.076 147.916 109.837 147.767 109.833 147.606C109.829 147.445 109.976 147.31 110.16 147.305C110.716 147.292 111.542 146.088 111.715 145.038C112.053 142.98 111.38 141.683 109.449 140.673C108.043 139.938 105.835 140.576 104.732 142.037C104.139 142.822 103.818 142.73 103.795 141.769C103.767 140.622 103.227 140.457 99.7989 140.544C98.0076 140.59 96.3769 140.737 96.1746 140.871ZM134.863 139.989C134.542 140.135 133.948 140.273 133.543 140.295C133.139 140.318 132.218 140.647 131.497 141.025L130.186 141.714L130.155 143.977C130.137 145.222 130.228 146.236 130.356 146.231C130.485 146.225 131.116 146.018 131.758 145.771C133.502 145.101 136.394 145.079 137.02 145.733C137.295 146.02 137.523 146.343 137.525 146.451C137.528 146.559 136.679 146.668 135.639 146.693C133.446 146.745 131.409 147.541 130.748 148.603C130.508 148.989 130.162 149.793 129.981 150.39C129.506 151.95 130.504 154.073 132.109 154.917C133.43 155.612 135.723 155.659 136.832 155.015C137.435 154.664 137.643 154.663 138.195 155.002C138.687 155.305 139.7 155.363 142.344 155.236L145.842 155.07L145.797 149.821C145.745 143.891 145.51 142.929 143.739 141.397C143.177 140.911 141.97 140.304 141.059 140.05C139.325 139.566 135.868 139.532 134.863 139.989ZM148.333 139.723C148.08 139.987 148.046 142.498 148.207 149.201C148.328 154.217 148.512 158.527 148.617 158.779C148.777 159.163 149.414 159.222 152.607 159.145L156.407 159.054L156.35 156.685C156.298 154.541 156.342 154.337 156.814 154.525C157.1 154.639 158.132 154.772 159.106 154.819C162.104 154.965 165.007 153.123 166.099 150.382C166.874 148.435 166.42 143.325 165.357 142.032C164.368 140.829 163.883 140.449 162.515 139.803C160.646 138.921 159.004 138.897 157.371 139.728C156.198 140.325 156.188 140.325 156.025 139.76C155.873 139.235 155.587 139.198 152.269 139.278C149.87 139.335 148.564 139.483 148.333 139.723ZM158.325 145.98C158.562 146.204 158.769 146.922 158.785 147.576L158.813 148.766L157.487 148.798L156.161 148.83L156.132 147.649C156.089 145.854 157.253 144.968 158.325 145.98ZM137.57 150.665C137.69 151.901 137.687 151.904 136.674 151.929C135.823 151.949 135.623 151.829 135.445 151.193C135.191 150.283 135.954 149.304 136.858 149.377C137.33 149.416 137.474 149.676 137.57 150.665Z" fill="white"/>
</svg>
