<svg width="141" height="141" viewBox="0 0 141 141" fill="none" xmlns="http://www.w3.org/2000/svg">
<path d="M141 70.5C141.008 81.5006 138.439 92.3501 133.497 102.178C128.555 112.007 121.379 120.54 112.545 127.094C111.954 127.536 111.352 127.967 110.746 128.386C98.9318 136.598 84.888 141 70.5 141C56.1119 141 42.0682 136.598 30.254 128.386C29.6481 127.967 29.046 127.536 28.4553 127.094C19.6266 120.534 12.4551 112 7.51423 102.173C2.57332 92.3457 0 81.4991 0 70.5C0 59.5008 2.57332 48.6543 7.51423 38.8273C12.4551 29.0004 19.6266 20.4658 28.4553 13.9056C29.046 13.4636 29.6481 13.033 30.254 12.6138C42.0682 4.40154 56.1119 0 70.5 0C84.888 0 98.9317 4.40154 110.746 12.6138C111.352 13.033 111.954 13.4636 112.545 13.9056C121.379 20.46 128.555 28.9935 133.497 38.8217C138.439 48.6499 141.008 59.4994 141 70.5Z" fill="white"/>
<path d="M70.5 134.903C106.069 134.903 134.903 106.069 134.903 70.5004C134.903 34.9317 106.069 6.09766 70.5 6.09766C34.9314 6.09766 6.0973 34.9317 6.0973 70.5004C6.0973 106.069 34.9314 134.903 70.5 134.903Z" fill="#F9A826"/>
<path d="M70.6904 1.52539C70.1348 1.52637 69.6023 1.7475 69.2094 2.14036C68.8166 2.53321 68.5954 3.06576 68.5945 3.62134V12.7673C68.5945 13.3232 68.8153 13.8563 69.2084 14.2493C69.6014 14.6424 70.1345 14.8632 70.6904 14.8632C71.2463 14.8632 71.7794 14.6424 72.1725 14.2493C72.5655 13.8563 72.7864 13.3232 72.7864 12.7673V3.62134C72.7854 3.06576 72.5642 2.53321 72.1714 2.14036C71.7785 1.7475 71.246 1.52637 70.6904 1.52539Z" fill="white"/>
<path d="M112.544 13.9057C111.954 13.4636 111.352 13.033 110.746 12.6138C110.382 12.5901 110.019 12.6617 109.691 12.8214C109.364 12.9811 109.084 13.2235 108.878 13.5246L103.73 21.0814C103.417 21.5408 103.3 22.1056 103.403 22.6516C103.507 23.1976 103.823 23.6801 104.283 23.9929C104.742 24.3057 105.307 24.4232 105.853 24.3196C106.399 24.216 106.881 23.8997 107.194 23.4403L112.342 15.8835C112.538 15.5968 112.659 15.2657 112.695 14.9202C112.73 14.5748 112.678 14.226 112.544 13.9057Z" fill="white"/>
<path d="M135.935 48.362C135.832 48.1072 135.679 47.8753 135.486 47.6796C135.292 47.4838 135.063 47.3281 134.809 47.2212C134.556 47.1143 134.284 47.0584 134.009 47.0567C133.734 47.055 133.461 47.1074 133.206 47.2111L124.731 50.6523C124.217 50.8618 123.807 51.2671 123.591 51.7789C123.375 52.2908 123.371 52.8674 123.58 53.382C123.789 53.8967 124.194 54.3072 124.706 54.5235C125.217 54.7398 125.794 54.7441 126.309 54.5355L134.784 51.0943C135.298 50.8837 135.708 50.4779 135.924 49.9658C136.14 49.4537 136.144 48.877 135.935 48.362Z" fill="white"/>
<path d="M37.2698 21.0814L32.1214 13.5246C31.9163 13.2235 31.6361 12.9811 31.3086 12.8214C30.9812 12.6617 30.6177 12.5901 30.2541 12.6138C29.6482 13.033 29.0461 13.4636 28.4554 13.9057C28.3215 14.226 28.2698 14.5748 28.3051 14.9202C28.3404 15.2657 28.4615 15.5968 28.6574 15.8835L33.8058 23.4403C34.1186 23.8997 34.6011 24.216 35.1471 24.3196C35.6931 24.4232 36.2579 24.3057 36.7172 23.9929C37.1766 23.6801 37.4929 23.1976 37.5965 22.6516C37.7001 22.1056 37.5826 21.5408 37.2698 21.0814Z" fill="white"/>
<path d="M16.268 50.6537L7.79276 47.2126C7.27784 47.0035 6.70095 47.0075 6.18898 47.2237C5.67701 47.4399 5.27187 47.8506 5.06268 48.3655C4.85349 48.8804 4.85739 49.4572 5.0735 49.9693C5.28961 50.4813 5.70025 50.8865 6.21509 51.0958L14.6903 54.5369C15.2052 54.7455 15.7818 54.7412 16.2934 54.5249C16.8051 54.3087 17.2099 53.8981 17.419 53.3834C17.6281 52.8688 17.6243 52.2922 17.4085 51.7804C17.1927 51.2685 16.7825 50.8633 16.268 50.6537V50.6537Z" fill="white"/>
<path d="M70.6904 126.139C70.1348 126.14 69.6023 126.361 69.2094 126.754C68.8166 127.146 68.5954 127.679 68.5945 128.235V137.381C68.5945 137.936 68.8153 138.47 69.2084 138.863C69.6014 139.256 70.1345 139.477 70.6904 139.477C71.2463 139.477 71.7794 139.256 72.1725 138.863C72.5655 138.47 72.7864 137.936 72.7864 137.381V128.235C72.7854 127.679 72.5642 127.146 72.1714 126.754C71.7785 126.361 71.246 126.14 70.6904 126.139Z" fill="white"/>
<path d="M112.343 125.117L107.194 117.561C107.039 117.333 106.841 117.138 106.611 116.988C106.381 116.837 106.123 116.733 105.853 116.681C105.582 116.63 105.305 116.632 105.035 116.688C104.766 116.745 104.51 116.853 104.283 117.008C104.055 117.163 103.86 117.361 103.71 117.591C103.559 117.821 103.455 118.079 103.403 118.349C103.352 118.62 103.354 118.897 103.411 119.167C103.467 119.436 103.575 119.692 103.73 119.919L108.878 127.476C109.084 127.777 109.364 128.02 109.691 128.179C110.019 128.339 110.382 128.411 110.746 128.387C111.352 127.968 111.954 127.537 112.544 127.095C112.678 126.775 112.73 126.426 112.695 126.081C112.659 125.735 112.538 125.404 112.343 125.117Z" fill="white"/>
<path d="M134.784 89.9037L126.309 86.4626C125.794 86.2535 125.217 86.2575 124.705 86.4737C124.193 86.6899 123.788 87.1006 123.579 87.6155C123.37 88.1304 123.374 88.7072 123.59 89.2193C123.806 89.7313 124.217 90.1365 124.731 90.3458L133.207 93.7869C133.722 93.9955 134.298 93.9912 134.81 93.7749C135.321 93.5587 135.726 93.1481 135.935 92.6334C136.144 92.1188 136.141 91.5422 135.925 91.0304C135.709 90.5185 135.299 90.1133 134.784 89.9037V89.9037Z" fill="white"/>
<path d="M36.7172 117.008C36.2578 116.695 35.6931 116.578 35.1471 116.681C34.6011 116.785 34.1187 117.101 33.8058 117.56L28.6574 125.117C28.4615 125.404 28.3404 125.735 28.3051 126.08C28.2698 126.426 28.3215 126.775 28.4554 127.095C29.0461 127.537 29.6482 127.968 30.2541 128.387C30.6177 128.411 30.9812 128.339 31.3086 128.179C31.6361 128.02 31.9163 127.777 32.1214 127.476L37.2698 119.919C37.4247 119.692 37.5333 119.436 37.5894 119.167C37.6454 118.897 37.6479 118.619 37.5966 118.349C37.5453 118.079 37.4412 117.821 37.2903 117.591C37.1394 117.361 36.9447 117.163 36.7172 117.008Z" fill="white"/>
<path d="M17.4187 87.6139C17.3152 87.3592 17.1625 87.1273 16.9693 86.9315C16.7761 86.7358 16.5463 86.58 16.2929 86.4731C16.0395 86.3663 15.7675 86.3104 15.4925 86.3086C15.2175 86.3069 14.9449 86.3594 14.6901 86.4631L6.21489 89.9042C5.70045 90.1138 5.29024 90.519 5.07442 91.0309C4.85859 91.5427 4.85482 92.1193 5.0639 92.634C5.27299 93.1486 5.67784 93.5592 6.18949 93.7755C6.70115 93.9918 7.27774 93.9961 7.79257 93.7875L16.2678 90.3463C16.782 90.1357 17.1918 89.7299 17.4075 89.2178C17.6232 88.7057 17.6272 88.129 17.4187 87.6139Z" fill="white"/>
<path d="M73.4098 69.4593C73.6034 70.605 73.3345 71.7806 72.6624 72.7283C71.9902 73.676 70.9695 74.3184 69.8243 74.5146L32.6315 80.841C32.0642 80.9375 31.4834 80.9213 30.9223 80.7934C30.3612 80.6654 29.8308 80.4282 29.3613 80.0952C28.8919 79.7623 28.4926 79.3401 28.1864 78.8529C27.8801 78.3657 27.6728 77.8229 27.5763 77.2555C27.4798 76.6882 27.496 76.1073 27.6239 75.5462C27.7519 74.9851 27.9891 74.4547 28.322 73.9853C28.655 73.5159 29.0771 73.1166 29.5644 72.8103C30.0516 72.5041 30.5944 72.2968 31.1618 72.2002L68.3546 65.8738C69.5002 65.6803 70.6759 65.9491 71.6236 66.6213C72.5713 67.2934 73.2137 68.3141 73.4098 69.4593Z" fill="#3F3D56"/>
<path d="M112.554 110.667C112.02 111.204 111.294 111.508 110.536 111.511C109.779 111.514 109.051 111.216 108.512 110.683L68.4747 70.9594C67.9374 70.4253 67.6341 69.6998 67.6314 68.9423C67.6288 68.1847 67.927 67.4571 68.4606 66.9193C68.9942 66.3815 69.7194 66.0776 70.477 66.0742C71.2345 66.0709 71.9624 66.3685 72.5007 66.9015L112.538 106.625C113.076 107.159 113.379 107.885 113.382 108.643C113.385 109.4 113.087 110.128 112.554 110.667Z" fill="#3F3D56"/>
<path d="M70.5003 75.453C73.2363 75.453 75.4543 73.235 75.4543 70.499C75.4543 67.7629 73.2363 65.5449 70.5003 65.5449C67.7642 65.5449 65.5462 67.7629 65.5462 70.499C65.5462 73.235 67.7642 75.453 70.5003 75.453Z" fill="#CCCCCC"/>
</svg>
