<svg width="36" height="36" viewBox="0 0 36 36" fill="none" xmlns="http://www.w3.org/2000/svg">
<rect width="35.2" height="35.2" transform="translate(0 0.200195)" fill="white"/>
<path d="M17.6002 2.40027C9.09582 2.40027 2.2002 9.29589 2.2002 17.8003C2.2002 26.3046 9.09582 33.2003 17.6002 33.2003C26.1046 33.2003 33.0002 26.3046 33.0002 17.8003C33.0002 9.29589 26.1046 2.40027 17.6002 2.40027ZM17.6002 30.5878C10.5396 30.5878 4.8127 24.8609 4.8127 17.8003C4.8127 10.7396 10.5396 5.01277 17.6002 5.01277C24.6608 5.01277 30.3877 10.7396 30.3877 17.8003C30.3877 24.8609 24.6608 30.5878 17.6002 30.5878Z" fill="#F5070C"/>
<path d="M23.6053 22.1521L18.7034 18.608V10.1002C18.7034 9.94895 18.5797 9.8252 18.4284 9.8252H16.775C16.6238 9.8252 16.5 9.94895 16.5 10.1002V19.5671C16.5 19.6564 16.5412 19.7389 16.6134 19.7905L22.2991 23.9361C22.4228 24.0255 22.5947 23.998 22.6841 23.8777L23.6672 22.5371C23.7566 22.4099 23.7291 22.238 23.6053 22.1521Z" fill="#FA0101"/>
</svg>
