<svg width="20" height="22" viewBox="0 0 20 22" fill="none" xmlns="http://www.w3.org/2000/svg">
<path d="M3.95996 10.3369C3.95996 7.33829 3.95996 5.83899 4.88726 4.90729C5.81566 3.97559 7.30836 3.97559 10.296 3.97559H13.464C16.4505 3.97559 17.9432 3.97559 18.8716 4.90729C19.8 5.83899 19.8 7.33829 19.8 10.3369V15.6389C19.8 18.6375 19.8 20.1368 18.8716 21.0685C17.9443 22.0002 16.4505 22.0002 13.464 22.0002H10.296C7.30836 22.0002 5.81566 22.0002 4.88726 21.0685C3.95996 20.1368 3.95996 18.6375 3.95996 15.6389V10.3369Z" fill="#FB8C00"/>
<path opacity="0.5" d="M1.2892 1.2892C-1.3113e-07 2.5773 0 4.6519 0 8.8V11C0 15.1481 -1.3113e-07 17.2227 1.2892 18.5108C1.9679 19.1906 2.8655 19.5118 4.1712 19.6636C3.96 18.7396 3.96 17.468 3.96 15.6376V10.3367C3.96 7.3381 3.96 5.8388 4.8873 4.9071C5.8157 3.9754 7.3084 3.9754 10.296 3.9754H13.464C15.2812 3.9754 16.544 3.9754 17.4658 4.1844C17.314 2.8721 16.9928 1.9712 16.3108 1.2892C15.0227 -1.3113e-07 12.9481 0 8.8 0C4.6519 0 2.5773 -1.3113e-07 1.2892 1.2892Z" fill="#FB8C00"/>
</svg>
