<svg width="245" height="125" viewBox="0 0 245 125" fill="none" xmlns="http://www.w3.org/2000/svg">
<path d="M226.682 95.2595C241.141 90.2308 248.048 81.7806 243.724 73.7196C243.617 73.5193 243.503 73.3195 243.384 73.1201C240.517 68.3352 233.426 63.7875 223.09 62.2586C214.412 60.9748 204.939 61.962 195.886 61.4515C178.113 60.4494 164.334 53.8834 154.639 47.0088C144.944 40.1341 137.493 32.4389 124.61 26.7594C103.375 17.3978 68.7349 15.3822 42.4063 21.4759C16.0778 27.5697 -0.693225 41.0892 0.0220096 54.563C0.737283 68.0369 18.2556 80.9188 43.6966 87.7535C53.0426 90.2643 63.8521 92.043 74.6097 91.4206C83.9441 90.8806 92.4254 88.5905 101.716 87.9106C116.322 86.8417 130.836 89.8571 143.469 93.371C156.103 96.8848 168.306 101.05 182.663 102.679C196.603 104.261 213.873 99.7142 226.682 95.2595Z" fill="#F2F2F2"/>
<path d="M129.217 34.9023H62.8699C61.4862 34.904 60.1597 35.4543 59.1812 36.4328C58.2028 37.4112 57.6524 38.7377 57.6508 40.1214V73.1423C57.6524 74.526 58.2028 75.8525 59.1812 76.831C60.1597 77.8094 61.4862 78.3598 62.8699 78.3614H129.217C130.601 78.3602 131.928 77.81 132.906 76.8314C133.885 75.8529 134.435 74.5261 134.436 73.1423V40.1214C134.435 38.7376 133.885 37.4108 132.906 36.4323C131.928 35.4538 130.601 34.9035 129.217 34.9023Z" fill="white"/>
<path d="M129.217 78.6189H62.8711C61.4193 78.6172 60.0275 78.0398 59.001 77.0133C57.9744 75.9867 57.397 74.5949 57.3953 73.1431V40.1213C57.397 38.6695 57.9744 37.2777 59.001 36.2511C60.0275 35.2246 61.4193 34.6471 62.8711 34.6455H129.217C130.669 34.6471 132.061 35.2246 133.087 36.2511C134.114 37.2777 134.691 38.6695 134.693 40.1213V73.1431C134.691 74.5949 134.114 75.9867 133.087 77.0133C132.061 78.0398 130.669 78.6172 129.217 78.6189ZM62.8711 35.1587C61.5554 35.1602 60.294 35.6835 59.3637 36.6139C58.4334 37.5442 57.91 38.8056 57.9085 40.1213V73.1431C57.91 74.4588 58.4334 75.7202 59.3637 76.6505C60.294 77.5809 61.5554 78.1042 62.8711 78.1057H129.217C130.533 78.1042 131.794 77.5809 132.725 76.6505C133.655 75.7202 134.178 74.4588 134.18 73.1431V40.1213C134.178 38.8056 133.655 37.5442 132.725 36.6139C131.794 35.6835 130.533 35.1602 129.217 35.1587H62.8711Z" fill="#CCCCCC"/>
<path d="M132.269 87.7478H68.6885C68.1389 87.7478 67.6119 87.5295 67.2233 87.1409C66.8347 86.7523 66.6163 86.2252 66.6163 85.6757C66.6163 85.1261 66.8347 84.599 67.2233 84.2104C67.6119 83.8218 68.1389 83.6035 68.6885 83.6035H132.269C132.819 83.6035 133.346 83.8218 133.734 84.2104C134.123 84.599 134.341 85.1261 134.341 85.6757C134.341 86.2252 134.123 86.7523 133.734 87.1409C133.346 87.5295 132.819 87.7478 132.269 87.7478Z" fill="#E6E6E6"/>
<path d="M89.0712 67.9882C88.6945 67.9871 88.3243 67.8906 87.9949 67.7079C87.6427 67.5179 87.3488 67.2354 87.145 66.8909C86.9413 66.5464 86.8352 66.1529 86.8383 65.7527V47.3236C86.8383 46.924 86.9457 46.5318 87.1491 46.1878C87.3526 45.8439 87.6446 45.5609 87.9949 45.3685C88.3451 45.1761 88.7405 45.0812 89.1399 45.0939C89.5393 45.1066 89.928 45.2263 90.2653 45.4406L107.747 54.6551C108.064 54.8565 108.325 55.1347 108.506 55.4639C108.687 55.7931 108.782 56.1626 108.782 56.5381C108.782 56.9137 108.687 57.2832 108.506 57.6124C108.325 57.9416 108.064 58.2198 107.747 58.4212L90.2653 67.6357C89.909 67.8647 89.4947 67.987 89.0712 67.9882Z" fill="#F2F2F2"/>
<path d="M191.735 58.8002H164.009C163.431 58.7996 162.877 58.5696 162.468 58.1607C162.059 57.7518 161.829 57.1974 161.828 56.6192V42.8197C161.829 42.2415 162.059 41.6871 162.468 41.2782C162.877 40.8693 163.431 40.6393 164.009 40.6387H191.735C192.313 40.6393 192.867 40.8693 193.276 41.2782C193.685 41.6871 193.915 42.2415 193.916 42.8197V56.6192C193.915 57.1974 193.685 57.7518 193.276 58.1607C192.867 58.5696 192.313 58.7996 191.735 58.8002Z" fill="white"/>
<path d="M191.735 59.0566H164.009C163.363 59.0558 162.744 58.7988 162.287 58.3418C161.83 57.8848 161.573 57.2652 161.572 56.6189V42.8195C161.573 42.1732 161.83 41.5536 162.287 41.0966C162.744 40.6396 163.363 40.3826 164.009 40.3818H191.735C192.381 40.3826 193.001 40.6396 193.458 41.0966C193.915 41.5536 194.172 42.1732 194.172 42.8195V56.6189C194.172 57.2652 193.915 57.8848 193.458 58.3418C193.001 58.7988 192.381 59.0558 191.735 59.0566ZM164.009 40.895C163.499 40.8956 163.01 41.0985 162.649 41.4593C162.288 41.8201 162.086 42.3092 162.085 42.8195V56.6189C162.086 57.1292 162.288 57.6183 162.649 57.9791C163.01 58.3399 163.499 58.5428 164.009 58.5434H191.735C192.245 58.5428 192.734 58.3399 193.095 57.9791C193.456 57.6183 193.659 57.1292 193.659 56.6189V42.8195C193.659 42.3092 193.456 41.8201 193.095 41.4593C192.734 41.0985 192.245 40.8956 191.735 40.895H164.009Z" fill="#CCCCCC"/>
<path d="M187.18 65.5525H168.503C167.954 65.5519 167.427 65.3333 167.039 64.9448C166.651 64.5562 166.433 64.0295 166.433 63.4804C166.433 62.9312 166.651 62.4045 167.039 62.0159C167.427 61.6274 167.954 61.4088 168.503 61.4082H187.18C187.729 61.4082 188.256 61.6265 188.645 62.0151C189.034 62.4037 189.252 62.9308 189.252 63.4804C189.252 64.0299 189.034 64.557 188.645 64.9456C188.256 65.3342 187.729 65.5525 187.18 65.5525Z" fill="#E6E6E6"/>
<path d="M174.891 54.6293C174.733 54.6288 174.579 54.5885 174.441 54.5121C174.294 54.4327 174.171 54.3147 174.086 54.1707C174.001 54.0268 173.956 53.8623 173.958 53.6951V45.9938C173.958 45.8268 174.002 45.6629 174.088 45.5191C174.173 45.3754 174.295 45.2572 174.441 45.1767C174.587 45.0963 174.753 45.0567 174.919 45.062C175.086 45.0673 175.249 45.1173 175.39 45.2069L182.695 49.0575C182.828 49.1417 182.937 49.2579 183.012 49.3955C183.088 49.5331 183.128 49.6875 183.128 49.8444C183.128 50.0014 183.088 50.1558 183.012 50.2933C182.937 50.4309 182.828 50.5472 182.695 50.6313L175.39 54.482C175.241 54.5777 175.068 54.6288 174.891 54.6293Z" fill="#F9A826"/>
<path d="M174.03 118.163H146.305C145.726 118.163 145.172 117.933 144.763 117.524C144.354 117.115 144.124 116.561 144.123 115.982V102.183C144.124 101.605 144.354 101.05 144.763 100.641C145.172 100.233 145.726 100.003 146.305 100.002H174.03C174.608 100.003 175.163 100.233 175.571 100.641C175.98 101.05 176.21 101.605 176.211 102.183V115.982C176.21 116.561 175.98 117.115 175.571 117.524C175.162 117.933 174.608 118.163 174.03 118.163Z" fill="white"/>
<path d="M174.03 118.421H146.305C145.658 118.42 145.039 118.163 144.582 117.706C144.125 117.249 143.868 116.629 143.867 115.983V102.184C143.868 101.537 144.125 100.918 144.582 100.461C145.039 100.004 145.658 99.7468 146.305 99.7461H174.03C174.676 99.7468 175.296 100.004 175.753 100.461C176.21 100.918 176.467 101.537 176.468 102.184V115.983C176.467 116.629 176.21 117.249 175.753 117.706C175.296 118.163 174.676 118.42 174.03 118.421ZM146.305 100.259C145.794 100.26 145.305 100.463 144.944 100.824C144.584 101.184 144.381 101.673 144.38 102.184V115.983C144.381 116.493 144.584 116.983 144.944 117.343C145.305 117.704 145.794 117.907 146.305 117.908H174.03C174.54 117.907 175.029 117.704 175.39 117.343C175.751 116.983 175.954 116.493 175.954 115.983V102.184C175.954 101.673 175.751 101.184 175.39 100.824C175.029 100.463 174.54 100.26 174.03 100.259H146.305Z" fill="#CCCCCC"/>
<path d="M169.475 124.954H150.798C150.249 124.953 149.722 124.735 149.334 124.346C148.946 123.958 148.728 123.431 148.728 122.882C148.728 122.333 148.946 121.806 149.334 121.417C149.722 121.029 150.249 120.81 150.798 120.81H169.475C170.025 120.81 170.552 121.028 170.94 121.416C171.329 121.805 171.547 122.332 171.547 122.882C171.547 123.431 171.329 123.958 170.94 124.347C170.552 124.736 170.025 124.954 169.475 124.954Z" fill="#E6E6E6"/>
<path d="M157.118 114.415C156.961 114.415 156.806 114.375 156.669 114.298C156.521 114.219 156.399 114.101 156.314 113.957C156.228 113.813 156.184 113.648 156.185 113.481V105.78C156.185 105.613 156.23 105.449 156.315 105.305C156.4 105.162 156.522 105.043 156.669 104.963C156.815 104.882 156.98 104.843 157.147 104.848C157.314 104.853 157.477 104.903 157.617 104.993L164.923 108.844C165.055 108.928 165.165 109.044 165.24 109.182C165.316 109.319 165.355 109.474 165.355 109.631C165.355 109.788 165.316 109.942 165.24 110.079C165.165 110.217 165.055 110.333 164.923 110.417L157.617 114.268C157.469 114.364 157.295 114.415 157.118 114.415Z" fill="#F9A826"/>
<path d="M79.8835 70.4214L65.6929 70.5167C65.6929 70.5167 57.6109 67.9113 53.9457 68.4557L52.5443 73.9608L62.6116 77.2964L80.1326 74.7542C80.5259 74.9529 80.9645 75.0444 81.4043 75.0196C81.8442 74.9948 82.2698 74.8546 82.6382 74.6131C83.0066 74.3715 83.305 74.0372 83.5031 73.6437C83.7013 73.2503 83.7923 72.8115 83.767 72.3717C83.7417 71.9319 83.601 71.5065 83.3591 71.1383C83.1171 70.7701 82.7824 70.4722 82.3888 70.2745C81.9951 70.0768 81.5562 69.9863 81.1164 70.0121C80.6766 70.0379 80.2514 70.179 79.8835 70.4214Z" fill="#A0616A"/>
<path d="M62.4914 77.8293L45.6555 72.9872L44.1227 67.2761C43.7234 66.5141 43.5452 65.6556 43.6082 64.7977C43.6712 63.9397 43.9729 63.1165 44.4792 62.421C45.9165 60.4744 47.04 62.408 49.0798 63.7097C52.6556 63.9625 61.5809 67.0165 65.2039 70.5526L64.9185 72.7262L62.4914 77.8293Z" fill="#3F3D56"/>
<path d="M77.1398 73.1679C76.7632 73.1668 76.3929 73.0703 76.0636 72.8876C75.7113 72.6976 75.4175 72.4151 75.2137 72.0706C75.0099 71.7261 74.9039 71.3326 74.907 70.9324V52.5033C74.907 52.1037 75.0143 51.7114 75.2178 51.3675C75.4212 51.0236 75.7133 50.7406 76.0635 50.5482C76.4137 50.3557 76.8092 50.2609 77.2086 50.2736C77.608 50.2863 77.9966 50.406 78.3339 50.6203L95.8158 59.8348C96.1328 60.0362 96.3938 60.3144 96.5747 60.6436C96.7556 60.9727 96.8504 61.3422 96.8504 61.7178C96.8504 62.0934 96.7556 62.4629 96.5747 62.7921C96.3938 63.1213 96.1328 63.3995 95.8158 63.6009L78.3339 72.8154C77.9777 73.0444 77.5633 73.1667 77.1398 73.1679Z" fill="#F9A826"/>
<path d="M43.6804 103.481L43.6431 103.429C41.6527 100.642 44.6463 93.9458 45.0978 92.9751L43.1961 92.358L41.5332 78.2864L40.3171 73.4253C39.8588 71.5876 39.8979 69.6611 40.4302 67.8435C40.9626 66.0259 41.969 64.3827 43.3462 63.0826L46.1574 60.432L49.5738 55.377H55.0832L56.9722 58.9451C58.8036 59.3684 60.4286 60.4208 61.5639 61.9189C62.6992 63.4171 63.273 65.266 63.1853 67.1437L62.7571 76.5019L64.4332 88.1537L64.4342 90.2624L67.344 95.0331L67.9779 97.9909C68.2402 98.337 69.9716 100.646 69.9716 101.277C69.9716 101.371 69.9016 101.463 69.7515 101.565C68.5716 102.364 62.05 103.992 59.1636 102.837C56.089 101.608 43.8671 103.452 43.7439 103.471L43.6804 103.481Z" fill="#3F3D56"/>
<path d="M53.0401 53.7453C57.0699 53.7453 60.3366 50.4785 60.3366 46.4488C60.3366 42.4191 57.0699 39.1523 53.0401 39.1523C49.0104 39.1523 45.7437 42.4191 45.7437 46.4488C45.7437 50.4785 49.0104 53.7453 53.0401 53.7453Z" fill="#A0616A"/>
<path d="M80.1259 52.0507L68.8685 60.6909C68.8685 60.6909 60.852 63.491 58.258 66.1371L60.463 71.3724L70.5033 67.9562L82.9395 55.3551C83.3729 55.2761 83.7779 55.0844 84.1136 54.7992C84.4494 54.5139 84.7041 54.1453 84.8521 53.7304C85.0001 53.3154 85.0362 52.8688 84.9568 52.4355C84.8773 52.0021 84.6851 51.5974 84.3995 51.2619C84.1139 50.9265 83.745 50.6722 83.3298 50.5247C82.9147 50.3772 82.4681 50.3416 82.0348 50.4215C81.6016 50.5015 81.1971 50.6942 80.8619 50.9801C80.5268 51.2661 80.273 51.6354 80.1259 52.0507Z" fill="#A0616A"/>
<path d="M70.7292 68.4532L55.0907 73.0324L49.7138 71.1243C48.9356 70.7577 48.2754 70.1808 47.8079 69.4587C47.3403 68.7366 47.084 67.8981 47.068 67.038C47.0392 64.6184 49.102 65.4821 51.514 65.289C54.5177 63.3325 63.4774 60.3811 68.5004 61.014L69.5846 62.9195L70.7292 68.4532Z" fill="#3F3D56"/>
<path d="M58.0434 38.0242C57.5205 38.0087 57.7 37.023 57.2787 36.7086C57.2766 36.7181 57.2745 36.7276 57.2723 36.7371C57.217 36.95 57.0949 37.1396 56.9238 37.2779C56.7528 37.4162 56.5418 37.4959 56.322 37.5052C56.1023 37.5146 55.8853 37.4532 55.7031 37.33C55.5208 37.2067 55.383 37.0283 55.3098 36.8208C55.24 36.5809 55.1135 36.3612 54.941 36.1803C54.7686 35.9994 54.5552 35.8625 54.3189 35.7812C54.2926 36.6949 53.6015 37.4878 52.7771 37.8824C51.9527 38.277 51.0126 38.3427 50.0987 38.3562C49.1848 38.3697 48.2577 38.3391 47.3715 38.5628C46.4853 38.7864 45.6233 39.3122 45.2446 40.1441C44.866 40.976 45.1361 42.1213 45.9641 42.5085C45.3227 42.5119 44.7784 43.0412 44.5566 43.643C44.3749 44.2604 44.3274 44.9095 44.4176 45.5467C44.5978 47.9061 45.0373 50.4463 46.7554 52.0734C48.0648 53.3135 49.9389 53.8131 51.7424 53.8059C53.5458 53.7987 53.2287 53.6329 54.9724 53.1726C54.9724 53.1726 56.6302 48.4201 56.2127 47.9526C55.7953 47.4851 55.4486 46.8869 55.5241 46.2647C55.5997 45.6425 56.2683 45.0851 56.8486 45.3219C56.751 45.0725 56.6775 45.025 56.6315 45.0377C56.6608 44.9668 56.6864 44.8944 56.7082 44.8208C56.8174 44.446 57.014 44.1024 57.2819 43.8183C57.5498 43.5342 57.8813 43.3178 58.2491 43.1868C58.6206 43.0662 59.0202 43.0622 59.394 43.1754C59.7679 43.2885 60.0982 43.5134 60.3405 43.8197C62.2499 42.029 61.0653 38.114 58.0434 38.0242Z" fill="#2F2E41"/>
<path d="M181.552 8.84801H64.9841C64.8628 8.84543 64.7474 8.79546 64.6626 8.7088C64.5778 8.62215 64.5303 8.50572 64.5303 8.38446C64.5303 8.2632 64.5778 8.14676 64.6626 8.06011C64.7474 7.97345 64.8628 7.92348 64.9841 7.9209H181.552C181.673 7.92348 181.789 7.97345 181.874 8.06011C181.958 8.14676 182.006 8.2632 182.006 8.38446C182.006 8.50572 181.958 8.62215 181.874 8.7088C181.789 8.79546 181.673 8.84543 181.552 8.84801Z" fill="#CACACA"/>
<path d="M72.919 5.55443C74.4194 5.55443 75.6357 4.31103 75.6357 2.77721C75.6357 1.2434 74.4194 0 72.919 0C71.4186 0 70.2023 1.2434 70.2023 2.77721C70.2023 4.31103 71.4186 5.55443 72.919 5.55443Z" fill="#3F3D56"/>
<path d="M82.3039 5.55443C83.8042 5.55443 85.0205 4.31103 85.0205 2.77721C85.0205 1.2434 83.8042 0 82.3039 0C80.8035 0 79.5872 1.2434 79.5872 2.77721C79.5872 4.31103 80.8035 5.55443 82.3039 5.55443Z" fill="#3F3D56"/>
<path d="M91.6887 5.55443C93.1891 5.55443 94.4054 4.31103 94.4054 2.77721C94.4054 1.2434 93.1891 0 91.6887 0C90.1884 0 88.9721 1.2434 88.9721 2.77721C88.9721 4.31103 90.1884 5.55443 91.6887 5.55443Z" fill="#3F3D56"/>
<path d="M175.902 0.688477H169.235C169.103 0.691091 168.977 0.745423 168.885 0.839802C168.792 0.934181 168.74 1.06108 168.74 1.19325C168.74 1.32542 168.792 1.45232 168.885 1.5467C168.977 1.64108 169.103 1.69541 169.235 1.69803H175.902C176.034 1.69541 176.16 1.64108 176.252 1.5467C176.345 1.45232 176.397 1.32542 176.397 1.19325C176.397 1.06108 176.345 0.934181 176.252 0.839802C176.16 0.745423 176.034 0.691091 175.902 0.688477Z" fill="#3F3D56"/>
<path d="M175.902 2.58301H169.235C169.103 2.58562 168.977 2.63995 168.885 2.73433C168.792 2.82871 168.74 2.95561 168.74 3.08778C168.74 3.21995 168.792 3.34685 168.885 3.44123C168.977 3.53561 169.103 3.58994 169.235 3.59256H175.902C176.034 3.58994 176.16 3.53561 176.252 3.44123C176.345 3.34685 176.397 3.21995 176.397 3.08778C176.397 2.95561 176.345 2.82871 176.252 2.73433C176.16 2.63995 176.034 2.58562 175.902 2.58301Z" fill="#3F3D56"/>
<path d="M175.902 4.47559H169.235C169.103 4.4782 168.977 4.53253 168.885 4.62691C168.792 4.72129 168.74 4.84819 168.74 4.98036C168.74 5.11253 168.792 5.23943 168.885 5.33381C168.977 5.42819 169.103 5.48252 169.235 5.48513H175.902C176.034 5.48252 176.16 5.42819 176.252 5.33381C176.345 5.23943 176.397 5.11253 176.397 4.98036C176.397 4.84819 176.345 4.72129 176.252 4.62691C176.16 4.53253 176.034 4.4782 175.902 4.47559Z" fill="#3F3D56"/>
<path d="M119.561 34.9023V41.8714C119.561 42.2178 118.956 42.5077 118.14 42.5873C118.133 42.5869 118.126 42.5877 118.119 42.5898C117.983 42.6001 117.84 42.6078 117.693 42.6078C117.244 42.6161 116.796 42.5431 116.372 42.3923C116.333 42.3769 116.295 42.3589 116.256 42.3435C116.221 42.323 116.182 42.305 116.146 42.2845C115.943 42.1639 115.825 42.0228 115.825 41.8714V34.9023H119.561Z" fill="#CCCCCC"/>
<path d="M176.275 120.638C178.028 120.638 179.449 119.217 179.449 117.464C179.449 115.71 178.028 114.289 176.275 114.289C174.521 114.289 173.1 115.71 173.1 117.464C173.1 119.217 174.521 120.638 176.275 120.638Z" fill="#3F3D56"/>
<path d="M176.037 118.733C176.03 118.733 176.023 118.733 176.017 118.732C175.957 118.73 175.898 118.714 175.845 118.686C175.792 118.659 175.746 118.62 175.709 118.573L175.178 117.89C175.145 117.847 175.12 117.798 175.106 117.746C175.091 117.693 175.087 117.638 175.094 117.584C175.101 117.53 175.118 117.478 175.145 117.43C175.172 117.383 175.208 117.341 175.251 117.308L175.27 117.293C175.313 117.259 175.362 117.234 175.415 117.22C175.468 117.205 175.523 117.202 175.577 117.208C175.631 117.215 175.683 117.232 175.731 117.259C175.778 117.286 175.82 117.322 175.853 117.366C175.88 117.4 175.914 117.428 175.953 117.448C175.991 117.468 176.034 117.48 176.077 117.482C176.121 117.484 176.165 117.477 176.205 117.461C176.245 117.444 176.282 117.42 176.312 117.388L177.389 116.251C177.465 116.171 177.569 116.124 177.68 116.121C177.79 116.118 177.896 116.159 177.976 116.235L177.994 116.252C178.034 116.289 178.066 116.334 178.088 116.384C178.11 116.434 178.122 116.487 178.124 116.542C178.125 116.596 178.116 116.651 178.096 116.702C178.077 116.753 178.047 116.799 178.01 116.839L176.338 118.603C176.299 118.644 176.253 118.677 176.201 118.699C176.149 118.721 176.093 118.733 176.037 118.733Z" fill="white"/>
<path d="M193.723 61.6227C195.476 61.6227 196.897 60.2014 196.897 58.4481C196.897 56.6948 195.476 55.2734 193.723 55.2734C191.97 55.2734 190.548 56.6948 190.548 58.4481C190.548 60.2014 191.97 61.6227 193.723 61.6227Z" fill="#3F3D56"/>
<path d="M193.485 59.7164C193.478 59.7164 193.472 59.7162 193.465 59.7158C193.405 59.7129 193.347 59.6971 193.293 59.6696C193.24 59.642 193.194 59.6032 193.157 59.5559L192.627 58.8739C192.593 58.8308 192.568 58.7816 192.554 58.729C192.539 58.6764 192.535 58.6214 192.542 58.5673C192.549 58.5132 192.566 58.4609 192.593 58.4135C192.62 58.3661 192.656 58.3244 192.699 58.2909L192.718 58.2761C192.761 58.2426 192.811 58.2178 192.863 58.2034C192.916 58.1889 192.971 58.1849 193.025 58.1917C193.079 58.1984 193.131 58.2158 193.179 58.2428C193.226 58.2698 193.268 58.3058 193.301 58.3489C193.328 58.3833 193.362 58.4115 193.401 58.4316C193.44 58.4517 193.482 58.4632 193.526 58.4654C193.569 58.4675 193.613 58.4602 193.653 58.4439C193.694 58.4277 193.73 58.4029 193.76 58.3713L194.837 57.234C194.913 57.1542 195.018 57.1076 195.128 57.1046C195.238 57.1017 195.345 57.1424 195.425 57.2181L195.442 57.2349C195.482 57.2724 195.514 57.3174 195.536 57.3672C195.558 57.417 195.57 57.4707 195.572 57.5252C195.573 57.5798 195.564 57.6341 195.545 57.685C195.525 57.7359 195.496 57.7825 195.458 57.8221L193.787 59.5866C193.748 59.6276 193.701 59.6603 193.649 59.6826C193.597 59.7049 193.542 59.7164 193.485 59.7164Z" fill="white"/>
</svg>
