<svg width="21" height="21" viewBox="0 0 21 21" fill="none" xmlns="http://www.w3.org/2000/svg">
<path d="M18.878 0.903906L19.031 1.04791L19.176 1.20091C19.7822 1.88323 20.1048 2.77137 20.0779 3.68369C20.0509 4.59601 19.6764 5.46356 19.031 6.10891L7.063 18.0769C6.78587 18.354 6.44116 18.554 6.063 18.6569L0.948 20.0519C0.82049 20.0865 0.686104 20.0868 0.558442 20.0528C0.430781 20.0187 0.314373 19.9516 0.221002 19.8581C0.12763 19.7646 0.0606066 19.6482 0.0267153 19.5205C-0.00717602 19.3928 -0.00673264 19.2584 0.0280001 19.1309L1.422 14.0149C1.5251 13.6371 1.72502 13.2928 2.002 13.0159L13.97 1.04791C14.6155 0.402615 15.4831 0.0283082 16.3954 0.00154097C17.3077 -0.0252263 18.1958 0.297569 18.878 0.903906ZM13.001 4.13791L3.063 14.0759C2.9708 14.1682 2.90427 14.283 2.87 14.4089L1.82 18.2589L5.67 17.2089C5.79565 17.1742 5.91007 17.1073 6.002 17.0149L15.94 7.07791L13.001 4.13791ZM4.526 9.07791L3.026 10.5779H0.75C0.551088 10.5779 0.360322 10.4989 0.21967 10.3582C0.0790175 10.2176 0 10.0268 0 9.82791C0 9.62899 0.0790175 9.43823 0.21967 9.29758C0.360322 9.15692 0.551088 9.07791 0.75 9.07791H4.526ZM8.526 5.07791L7.026 6.57791H0.75C0.551088 6.57791 0.360322 6.49889 0.21967 6.35824C0.0790175 6.21758 0 6.02682 0 5.82791C0 5.62899 0.0790175 5.43823 0.21967 5.29758C0.360322 5.15692 0.551088 5.07791 0.75 5.07791H8.525H8.526ZM15.031 2.10791L14.061 3.07791L17 6.01791L17.97 5.04791C18.163 4.85493 18.3162 4.62582 18.4207 4.37366C18.5252 4.12149 18.579 3.85122 18.579 3.57826C18.5791 3.3053 18.5254 3.03501 18.421 2.78281C18.3165 2.53061 18.1635 2.30145 17.9705 2.10841C17.7775 1.91536 17.5484 1.76222 17.2962 1.65772C17.0441 1.55322 16.7738 1.49941 16.5009 1.49937C16.2279 1.49932 15.9576 1.55304 15.7054 1.65745C15.4532 1.76186 15.224 1.91493 15.031 2.10791ZM12.526 1.07791L11.026 2.57791H0.75C0.551088 2.57791 0.360322 2.49889 0.21967 2.35824C0.0790175 2.21758 0 2.02682 0 1.82791C0 1.62899 0.0790175 1.43823 0.21967 1.29758C0.360322 1.15692 0.551088 1.07791 0.75 1.07791H12.525H12.526Z" fill="black"/>
</svg>
