<svg width="193" height="179" viewBox="0 0 193 179" fill="none" xmlns="http://www.w3.org/2000/svg">
<ellipse cx="94.1188" cy="89.3564" rx="93.1188" ry="89.3564" fill="#3F3D56"/>
<path d="M151.218 35.4359C160.727 35.4359 168.436 27.7272 168.436 18.218C168.436 8.70874 160.727 1 151.218 1C141.709 1 134 8.70874 134 18.218C134 27.7272 141.709 35.4359 151.218 35.4359Z" fill="#FF6884"/>
<path d="M191.432 117.068C192.108 116.887 192.362 115.644 192 114.293C191.638 112.941 190.796 111.992 190.12 112.173C189.444 112.354 189.19 113.597 189.552 114.948C189.914 116.3 190.756 117.249 191.432 117.068Z" fill="#E6E6E6"/>
<path d="M109 99.5C109 103.138 108.643 106.694 107.962 110.133C107.75 111.211 107.505 112.277 107.229 113.332C106.684 115.421 106.016 117.46 105.235 119.443C105.129 119.715 105.02 119.986 104.907 120.257C104.63 120.932 104.339 121.599 104.034 122.259C103.873 122.612 103.706 122.964 103.535 123.313C102.894 124.634 102.199 125.926 101.454 127.184C100.608 128.617 99.698 130.01 98.7257 131.354C96.9865 133.766 95.0537 136.03 92.9511 138.121C83.0957 147.936 69.506 154 54.5 154C39.425 154 25.7782 147.879 15.9127 137.986C13.879 135.948 12.0051 133.749 10.3146 131.409C8.36508 128.716 6.65608 125.837 5.21956 122.802C4.98238 122.304 4.75361 121.801 4.53325 121.295C4.50467 121.233 4.47943 121.172 4.45251 121.11C4.11441 120.331 3.79651 119.542 3.49541 118.745C3.22626 118.032 2.97057 117.31 2.73173 116.582C2.37849 115.512 2.05721 114.429 1.77126 113.33C1.53913 112.445 1.32886 111.551 1.14215 110.649C0.462577 107.384 0.075686 104.013 0.0117865 100.563C0.00336756 100.21 0 99.8549 0 99.5C0 97.907 0.0689509 96.3309 0.201843 94.7733C0.248947 94.2317 0.302786 93.6917 0.365002 93.1551C1.053 87.2207 2.69473 81.5772 5.13209 76.3812C5.7595 75.044 6.43908 73.737 7.16911 72.4619C9.87055 67.7436 13.2566 63.4678 17.1927 59.7722C17.7428 59.2541 18.3029 58.7495 18.8748 58.2566C28.4275 49.9958 40.8801 45 54.5 45C84.5995 45 109 69.4005 109 99.5Z" fill="#3F3D56"/>
<path d="M82.3393 84.2012H80.3022V98.6646H82.3393V84.2012Z" fill="#E6E6E6"/>
<path d="M82.3439 84.0182L82.2699 84.2015L81.5769 85.9055L80.3019 85.3874L78.4684 84.6439C67.0888 80.9913 52.7068 79.1223 47.2284 71.9643L46.8718 71.8196C44.5793 73.7218 42.9874 73.833 42.8634 70.1913L42.5068 70.0467C33.1568 71.9691 25.071 66.4796 17.1929 59.7724C17.7429 59.2543 18.3031 58.7497 18.875 58.2568C29.9507 58.5673 39.3957 60.4891 43.0955 68.087L43.4538 68.2334L47.7583 69.9794L48.1183 70.1257C57.6798 68.1094 68.4219 75.3773 79.1748 82.7314L82.3439 84.0182Z" fill="#E6E6E6"/>
<path opacity="0.3" d="M98.7251 131.354C96.9858 133.766 95.0531 136.03 92.9504 138.121C68.7198 138.594 39.5202 138.535 15.912 137.986C13.8783 135.948 12.0045 133.749 10.314 131.409C15.2173 131.273 20.425 131.165 25.8263 131.081C27.9642 131.046 30.1341 131.017 32.3276 130.99C34.5059 130.967 36.7078 130.945 38.9264 130.927H38.9281C59.0881 130.763 80.6526 130.913 98.7251 131.354Z" fill="#D0CDE1"/>
<path d="M107.23 113.332C106.685 115.421 106.017 117.46 105.236 119.443C105.13 119.716 105.021 119.986 104.908 120.257H102.303V113.332H107.23Z" fill="#E6E6E6"/>
<path d="M105.235 119.442C105.129 119.715 105.02 119.986 104.907 120.257C104.63 120.931 104.339 121.599 104.034 122.258C103.873 122.611 103.706 122.963 103.535 123.313C102.894 124.633 102.199 125.925 101.454 127.183C75.4186 130.217 51.3238 130.944 31.0044 127.183V119.442H105.235Z" fill="#E6E6E6"/>
<path d="M104.035 110.238V122.259C103.874 122.612 103.707 122.964 103.535 123.313C96.1408 119.703 89.3808 120.134 83.0525 123.313V96.9331C88.1756 93.8703 93.3867 93.3662 98.7381 96.9331L103.655 109.281L104.035 110.238Z" fill="#D0CDE1"/>
<path d="M86.3116 98.5625H95.2748V107.526C92.3195 109.104 89.331 109.071 86.3116 107.526C84.7545 104.538 84.7545 101.55 86.3116 98.5625Z" fill="white"/>
<path d="M101.998 107.627C100.82 108.953 98.6599 108.479 96.2942 107.627V98.6641H98.7388L101.998 107.627Z" fill="white"/>
<path d="M88.7549 112.618H86.7178V116.489H88.7549V112.618Z" fill="#E6E6E6"/>
<path d="M98.0249 104.368H98.1268C99.1956 104.368 100.062 105.235 100.062 106.303V106.303C100.062 107.372 99.1956 108.239 98.1268 108.239H98.0249V104.368Z" fill="#E6E6E6"/>
<path d="M22.2434 119.442H22.3453C23.4141 119.442 24.2805 120.309 24.2805 121.378V121.378C24.2805 122.446 23.4141 123.313 22.3453 123.313H22.2434V119.442Z" fill="#E6E6E6"/>
<path d="M107.962 110.132C107.751 111.21 107.505 112.277 107.229 113.331C106.684 115.42 106.016 117.459 105.236 119.442C105.13 119.715 105.02 119.986 104.908 120.256C104.63 120.931 104.339 121.599 104.035 122.258C103.873 122.611 103.707 122.963 103.535 123.313H102.608L102.499 120.256L102.47 119.442L102.302 114.7L102.099 108.975L103.655 109.281L107.962 110.132Z" fill="#D0CDE1"/>
<path d="M32.3262 134.619C36.6014 134.619 40.0672 131.153 40.0672 126.878C40.0672 122.602 36.6014 119.137 32.3262 119.137C28.051 119.137 24.5852 122.602 24.5852 126.878C24.5852 131.153 28.051 134.619 32.3262 134.619Z" fill="#E6E6E6"/>
<path d="M32.3262 130.953C34.5763 130.953 36.4004 129.129 36.4004 126.879C36.4004 124.629 34.5763 122.805 32.3262 122.805C30.076 122.805 28.252 124.629 28.252 126.879C28.252 129.129 30.076 130.953 32.3262 130.953Z" fill="#D0CDE1"/>
<path d="M83.6623 118.527H83.6622V93.2666H79.3843C78.5356 94.8663 78.1047 97.299 77.9512 100.285C77.4267 110.489 69.0721 118.527 58.8544 118.527H22.1418V120.36H79.0204C79.141 121.615 79.2636 122.874 79.3843 124.129L83.6622 124.129V120.36H83.6623V118.527Z" fill="#E6E6E6"/>
<path d="M50.5817 110.069L51.7308 109.225L58.7887 118.829L57.6397 119.673C52.3391 119.019 50.0111 115.796 50.5817 110.069Z" fill="#E6E6E6"/>
<path d="M62.3436 77.5957L63.6465 78.1752L49.5514 119.68L48.2485 119.1C49.9954 107.727 55.3625 86.918 62.3436 77.5957Z" fill="#E6E6E6"/>
<path d="M99.2468 108.035H97.2097V108.85H99.2468V108.035Z" fill="#E6E6E6"/>
<path d="M80.9515 96.0721C80.9525 96.0569 80.9532 96.0433 80.9506 96.0292C80.9385 95.9159 80.8382 95.8365 80.7266 95.8489L79.4134 95.9966L33.2918 97.6639L32.8839 97.7088C32.795 97.7185 32.7231 97.786 32.7071 97.8754C32.6872 97.9863 32.7606 98.0917 32.8716 98.1116L79.9657 103.982C80.0781 103.993 80.1767 103.91 80.1883 103.798L80.9515 96.0721ZM34.3226 97.9579L79.3387 96.4138L80.5209 96.282L79.804 103.539L34.3226 97.9579Z" fill="#E6E6E6"/>
<path d="M47.7585 69.9793L46.872 71.8195L34.8585 96.7246L42.8636 70.1912L43.454 68.2333L43.0957 68.0869L42.507 70.0466L34.2479 97.6061L34.1604 98.0064C34.1402 98.0939 34.1806 98.183 34.2613 98.2268C34.3589 98.2823 34.4834 98.2469 34.5372 98.1477L47.2286 71.9641L48.1185 70.1256L47.7585 69.9793Z" fill="#E6E6E6"/>
<path d="M8.54311 98.1762L7.95269 92.6034L7.79122 91.0677L6.95688 83.182L6.45059 78.3897C6.44049 78.2871 6.35302 78.208 6.24873 78.208C6.14444 78.208 6.05697 78.2854 6.04518 78.388L5.49513 83.182L4.48587 91.9962L4.29918 93.6261L3.75924 98.336L3.00732 104.901C3.00564 104.908 3.00564 104.915 3.00564 104.923C3.00395 105.034 3.09479 105.127 3.2075 105.128L5.65663 105.152L9.05616 105.184H9.05785C9.06456 105.184 9.07127 105.182 9.07801 105.182C9.19072 105.17 9.27145 105.069 9.25969 104.958L8.54311 98.1762H8.54311ZM6.52796 104.752L5.55402 104.743L3.43793 104.723L4.05023 99.3772V99.3755L4.72307 93.5084L4.90976 91.8767L5.90726 83.182L6.24033 80.2719L6.54812 83.182L7.39422 91.1787L7.5557 92.7144L8.14443 98.2872L8.83074 104.773L6.52796 104.752H6.52796Z" fill="#E6E6E6"/>
<path d="M38.695 106.224L37.5983 106.822L34.4645 107.699L31.8371 108.436L26.1314 110.032L23.504 110.767C15.3376 109.427 11.214 112.247 7.31545 115.298L4.68801 116.034L2.73173 116.582C2.37849 115.512 2.0572 114.429 1.77126 113.33C1.53913 112.446 1.32886 111.551 1.14215 110.649C0.462577 107.384 0.075686 104.013 0.0117865 100.563C0.00336756 100.21 0 99.8551 0 99.5002C0 97.9072 0.0689509 96.3311 0.201843 94.7735C0.248947 94.2319 0.302786 93.6919 0.365002 93.1553L4.48446 91.9964L4.90835 91.8769L7.39282 91.1788L7.78981 91.0678L14.096 89.2932C18.9443 88.9508 22.6376 91.0563 25.7832 94.3227C25.7832 94.3227 30.261 92.9854 33.5562 95.3454C34.5991 96.0939 35.5226 97.2125 36.1483 98.8627L36.6883 100.419L38.695 106.224H38.695Z" fill="#FB8C00"/>
<path d="M28.8473 114.45C32.0028 114.45 34.5608 111.892 34.5608 108.737C34.5608 105.581 32.0028 103.023 28.8473 103.023C25.6918 103.023 23.1338 105.581 23.1338 108.737C23.1338 111.892 25.6918 114.45 28.8473 114.45Z" fill="#E6E6E6"/>
<path d="M28.847 111.744C30.5077 111.744 31.8541 110.397 31.8541 108.737C31.8541 107.076 30.5077 105.729 28.847 105.729C27.1862 105.729 25.8398 107.076 25.8398 108.737C25.8398 110.397 27.1862 111.744 28.847 111.744Z" fill="#D0CDE1"/>
<path d="M7.40959 116.336C7.40959 118.227 6.49117 119.902 5.07482 120.942C4.90158 121.07 4.71992 121.187 4.53319 121.295C4.5046 121.233 4.47937 121.172 4.45245 121.11C4.11435 120.331 3.79645 119.542 3.49534 118.745C3.22619 118.032 2.97051 117.31 2.73167 116.582C2.37843 115.512 2.05714 114.429 1.77119 113.33C1.53906 112.445 1.3288 111.551 1.14209 110.649C1.32375 110.63 1.50878 110.622 1.69551 110.622C4.49619 110.622 6.82759 112.637 7.31539 115.298C7.37762 115.635 7.40959 115.981 7.40959 116.336Z" fill="#E6E6E6"/>
<path d="M4.70386 116.336C4.70386 117.322 4.22952 118.196 3.49612 118.745C3.22697 118.032 2.97129 117.31 2.73244 116.582C2.37921 115.512 2.05792 114.428 1.77197 113.33C3.29763 113.367 4.53902 114.538 4.68873 116.033C4.69881 116.132 4.70386 116.233 4.70386 116.336H4.70386Z" fill="#D0CDE1"/>
<path d="M21.7443 94.4804L4.06542 99.4288L2.57593 94.1071C4.80189 92.3687 9.18153 91.5951 13.8507 90.9512L21.7443 94.4804V94.4804Z" fill="white"/>
<path d="M1.8991 100.034L0.0117865 100.563C0.00336756 100.209 0 99.8544 0 99.4994C0 97.9065 0.0689509 96.3304 0.201843 94.7727L0.410422 94.7139C2.25416 95.9236 2.72024 97.7097 1.8991 100.034Z" fill="white"/>
<path d="M6.07898 103.146L5.177 103.398L5.65669 105.112L6.55866 104.86L6.07898 103.146Z" fill="#E6E6E6"/>
<path d="M36.6873 100.419C35.1359 101.04 33.3748 100.285 32.7539 98.7339C32.2794 97.5485 32.6002 96.1928 33.5555 95.3457C34.5984 96.0936 35.5232 97.2119 36.1486 98.8625L36.6873 100.419H36.6873Z" fill="#E6E6E6"/>
<path d="M5.13452 76.3822C5.76194 75.0449 6.44152 73.7379 7.17154 72.4629V83.1829H5.13452V76.3822Z" fill="#E6E6E6"/>
<path d="M81.3197 87.4607C82.8948 87.4607 84.1717 86.1839 84.1717 84.6088C84.1717 83.0337 82.8948 81.7568 81.3197 81.7568C79.7446 81.7568 78.4678 83.0337 78.4678 84.6088C78.4678 86.1839 79.7446 87.4607 81.3197 87.4607Z" fill="#E6E6E6"/>
<path d="M47.4517 46.0176V48.4796C47.4517 49.8865 53.431 51.0003 60.7586 51.0003C68.0861 51.0003 74.0655 49.8865 74.0655 48.5383V46.0762L47.4517 46.0176Z" fill="#3E4347"/>
<path d="M49.5034 46.0176V48.4796C49.5034 49.8279 54.5448 50.9417 60.7586 50.9417C66.9724 50.9417 72.0138 49.8279 72.0138 48.4796V46.0176H49.5034Z" fill="#62696D"/>
<path d="M74.0655 46.0175H47.4517L50.3827 31.3037H71.1344L74.0655 46.0175Z" fill="#C94747"/>
<path d="M60.7586 48.4788C68.1078 48.4788 74.0655 47.3765 74.0655 46.0168C74.0655 44.657 68.1078 43.5547 60.7586 43.5547C53.4094 43.5547 47.4517 44.657 47.4517 46.0168C47.4517 47.3765 53.4094 48.4788 60.7586 48.4788Z" fill="#B23838"/>
<path opacity="0.3" d="M72.0138 45.8416L69.5517 31.3037H51.9655L49.5034 45.9003V46.0761C49.5034 47.4244 54.5448 48.5382 60.7586 48.5382C66.9724 48.5382 72.0138 47.4244 72.0138 46.0761V45.8416Z" fill="#FFC7CE"/>
<path d="M60.7587 33.7659C66.4891 33.7659 71.1345 32.6636 71.1345 31.3039C71.1345 29.9441 66.4891 28.8418 60.7587 28.8418C55.0282 28.8418 50.3828 29.9441 50.3828 31.3039C50.3828 32.6636 55.0282 33.7659 60.7587 33.7659Z" fill="#ED4C5C"/>
<path opacity="0.5" d="M52.0828 31.5382C52.0828 31.1279 52.4345 30.8348 52.7862 30.6589C53.1379 30.4244 53.4897 30.3072 53.8414 30.1313C54.6035 29.8968 55.3655 29.721 56.1276 29.5451C57.6517 29.252 59.2345 29.1934 60.7586 29.1348C62.2828 29.1348 63.8655 29.252 65.3897 29.5451C66.1517 29.6624 66.9138 29.8382 67.6759 30.1313C68.0276 30.2486 68.3793 30.4244 68.731 30.6589C69.0241 30.8348 69.4345 31.1279 69.4345 31.5382C69.3759 31.1279 68.9655 30.952 68.6724 30.7761C68.3207 30.6003 67.969 30.483 67.6172 30.4244C66.8552 30.2486 66.1517 30.1313 65.3897 30.0141C63.8655 29.8382 62.3414 29.7796 60.8172 29.7796C59.2931 29.7796 57.769 29.8382 56.2448 30.0141C55.4828 30.0727 54.7207 30.2486 54.0172 30.4244C53.6655 30.5417 53.2552 30.6003 52.9621 30.7761C52.5517 30.952 52.1414 31.1865 52.0828 31.5382Z" fill="#C94747"/>
<path opacity="0.3" d="M60.7585 46.6615C65.1292 46.6615 68.6723 43.1446 68.6723 38.8063C68.6723 34.4681 65.1292 30.9512 60.7585 30.9512C56.3879 30.9512 52.8447 34.4681 52.8447 38.8063C52.8447 43.1446 56.3879 46.6615 60.7585 46.6615Z" fill="#FFC7CE"/>
<path d="M68.2034 38.8071L63.631 37.6347L66.1517 33.414L61.931 35.9933L60.7585 31.3623L59.5861 35.9933L55.3654 33.414L57.8861 37.6347L53.3137 38.8071L57.8861 39.9795L55.3654 44.2002L59.5861 41.6795L60.7585 46.252L61.931 41.6795L66.1517 44.2002L63.631 39.9795L68.2034 38.8071Z" fill="#FFE6EA"/>
<path d="M75.3552 19.931L70.7241 26.9069L78.2276 22.8034L75.3552 19.931ZM46.1621 19.931L50.7931 26.9069L43.2897 22.8034L46.1621 19.931ZM42 28.7828L49.0345 31.1276L42 32.1241V28.7828ZM79.5172 28.7828L72.4828 31.1276L79.5172 32.1241V28.7828ZM52.0828 17.5862L56.831 25.9103L55.8931 17L52.0828 17.5862ZM69.4345 17.5862L64.6862 25.9103L65.6241 17L69.4345 17.5862Z" fill="#F15744"/>
<path d="M134.754 112.196H147.11V118.374H134.754V112.196Z" fill="#B3BDC4"/>
<path d="M102.419 140.588C101.762 141.377 101.499 144.795 101.499 144.795V164.512H173.664C173.664 164.512 178.001 152.156 178.001 125.077C178.001 115.482 171.955 115.219 150.923 115.219C129.892 115.219 124.634 117.19 120.164 121.397C115.827 125.209 107.282 134.804 102.419 140.588Z" fill="#E1E8ED"/>
<path d="M122.004 122.713L106.625 138.618H132.257V118.507C127.525 118.507 123.844 120.741 122.004 122.713Z" fill="#3E4347"/>
<path d="M177.869 167.01C177.869 168.325 176.817 169.508 175.371 169.508H101.498C100.183 169.508 99 168.456 99 167.01C99 165.696 100.052 164.513 101.498 164.513H175.371C176.817 164.513 177.869 165.696 177.869 167.01Z" fill="#B3BDC4"/>
<path d="M140.933 104.177C138.83 104.177 137.516 105.886 137.253 107.857C137.121 108.909 136.07 112.195 136.07 112.195H145.928C145.928 112.195 144.877 109.04 144.745 107.857C144.351 105.886 142.905 104.177 140.933 104.177Z" fill="#F15744"/>
<path d="M138.436 107.858C138.436 109.172 139.487 110.355 140.933 110.355V105.36C139.487 105.36 138.436 106.543 138.436 107.858Z" fill="#FFC7CE"/>
<path d="M148.952 98L145.272 104.178L151.319 99.8403L148.952 98ZM132.784 98L136.596 104.178L130.418 99.8403L132.784 98ZM147.112 106.676L153.159 104.178L154.473 106.676H147.112ZM134.756 106.676L128.578 104.178L127.395 106.676H134.756Z" fill="#F15744"/>
<path d="M177.078 143.481H139.615L134.62 148.476H104.782V153.471H137.249L142.113 148.608H176.552C176.815 147.03 176.947 145.321 177.078 143.481ZM165.511 129.416C165.511 128.759 164.985 128.233 164.328 128.233H159.99C159.333 128.233 158.807 127.707 158.807 127.05V122.712C158.807 122.055 158.281 121.529 157.624 121.529H156.441C155.783 121.529 155.258 122.055 155.258 122.712V126.919C155.258 127.576 154.732 128.102 154.075 128.102H149.737C149.08 128.102 148.554 128.627 148.554 129.285V130.468C148.554 131.125 149.08 131.651 149.737 131.651H154.075C154.732 131.651 155.258 132.177 155.258 132.834V137.434C155.258 138.092 155.783 138.618 156.441 138.618H157.624C158.281 138.618 158.807 138.092 158.807 137.434V133.097C158.807 132.439 159.333 131.914 159.99 131.914H164.328C164.985 131.914 165.511 131.388 165.511 130.731V129.416Z" fill="#F15744"/>
<path d="M170.509 167.01C170.509 161.621 166.04 157.151 160.651 157.151C155.261 157.151 150.792 161.621 150.792 167.01C150.792 172.399 155.261 176.869 160.651 176.869C166.04 176.869 170.509 172.399 170.509 167.01Z" fill="#3E4347"/>
<path d="M160.649 161.357C163.804 161.357 166.301 163.855 166.301 167.01C166.301 170.164 163.804 172.662 160.649 172.662C157.494 172.662 154.997 170.164 154.997 167.01C154.997 163.855 157.494 161.357 160.649 161.357Z" fill="#DAE3EA"/>
<path d="M160.651 162.804C161.45 162.804 162.097 162.157 162.097 161.358C162.097 160.559 161.45 159.912 160.651 159.912C159.853 159.912 159.205 160.559 159.205 161.358C159.205 162.157 159.853 162.804 160.651 162.804Z" fill="#3E4347"/>
<path d="M155.787 165.697C156.585 165.697 157.232 165.049 157.232 164.251C157.232 163.452 156.585 162.805 155.787 162.805C154.988 162.805 154.341 163.452 154.341 164.251C154.341 165.049 154.988 165.697 155.787 165.697Z" fill="#3E4347"/>
<path d="M155.787 171.216C156.585 171.216 157.232 170.569 157.232 169.77C157.232 168.972 156.585 168.324 155.787 168.324C154.988 168.324 154.341 168.972 154.341 169.77C154.341 170.569 154.988 171.216 155.787 171.216Z" fill="#3E4347"/>
<path d="M160.651 174.109C161.45 174.109 162.097 173.461 162.097 172.663C162.097 171.864 161.45 171.217 160.651 171.217C159.853 171.217 159.205 171.864 159.205 172.663C159.205 173.461 159.853 174.109 160.651 174.109Z" fill="#3E4347"/>
<path d="M165.512 171.216C166.31 171.216 166.958 170.569 166.958 169.77C166.958 168.972 166.31 168.324 165.512 168.324C164.713 168.324 164.066 168.972 164.066 169.77C164.066 170.569 164.713 171.216 165.512 171.216Z" fill="#3E4347"/>
<path d="M166.171 165.434C165.514 165.828 164.594 165.565 164.199 164.908C163.805 164.251 164.068 163.331 164.725 162.936C165.382 162.542 166.303 162.805 166.697 163.462C167.091 164.119 166.828 165.039 166.171 165.434Z" fill="#3E4347"/>
<path d="M160.65 169.77C162.175 169.77 163.411 168.534 163.411 167.009C163.411 165.485 162.175 164.249 160.65 164.249C159.126 164.249 157.89 165.485 157.89 167.009C157.89 168.534 159.126 169.77 160.65 169.77Z" fill="#62727A"/>
<path d="M126.08 167.01C126.08 161.621 121.611 157.151 116.222 157.151C110.833 157.151 106.363 161.621 106.363 167.01C106.363 172.399 110.833 176.869 116.222 176.869C121.743 176.869 126.08 172.399 126.08 167.01Z" fill="#3E4347"/>
<path d="M121.872 167.01C121.872 163.855 119.375 161.357 116.22 161.357C113.065 161.357 110.568 163.855 110.568 167.01C110.568 170.164 113.065 172.662 116.22 172.662C119.375 172.662 121.872 170.164 121.872 167.01Z" fill="#DAE3EA"/>
<path d="M116.223 162.803C117.021 162.803 117.669 162.156 117.669 161.357C117.669 160.558 117.021 159.911 116.223 159.911C115.424 159.911 114.777 160.558 114.777 161.357C114.777 162.156 115.424 162.803 116.223 162.803Z" fill="#3E4347"/>
<path d="M111.358 165.697C112.157 165.697 112.804 165.049 112.804 164.251C112.804 163.452 112.157 162.805 111.358 162.805C110.559 162.805 109.912 163.452 109.912 164.251C109.912 165.049 110.559 165.697 111.358 165.697Z" fill="#3E4347"/>
<path d="M110.7 168.587C111.358 168.192 112.278 168.455 112.672 169.112C113.066 169.77 112.803 170.69 112.146 171.084C111.489 171.478 110.569 171.216 110.175 170.558C109.78 169.901 110.043 168.981 110.7 168.587Z" fill="#3E4347"/>
<path d="M116.223 174.108C117.021 174.108 117.669 173.46 117.669 172.662C117.669 171.863 117.021 171.216 116.223 171.216C115.424 171.216 114.777 171.863 114.777 172.662C114.777 173.46 115.424 174.108 116.223 174.108Z" fill="#3E4347"/>
<path d="M121.088 171.215C121.886 171.215 122.533 170.568 122.533 169.769C122.533 168.971 121.886 168.323 121.088 168.323C120.289 168.323 119.642 168.971 119.642 169.769C119.642 170.568 120.289 171.215 121.088 171.215Z" fill="#3E4347"/>
<path d="M121.088 165.697C121.886 165.697 122.533 165.049 122.533 164.251C122.533 163.452 121.886 162.805 121.088 162.805C120.289 162.805 119.642 163.452 119.642 164.251C119.642 165.049 120.289 165.697 121.088 165.697Z" fill="#3E4347"/>
<path d="M116.221 169.77C117.746 169.77 118.982 168.534 118.982 167.009C118.982 165.485 117.746 164.249 116.221 164.249C114.697 164.249 113.461 165.485 113.461 167.009C113.461 168.534 114.697 169.77 116.221 169.77Z" fill="#62727A"/>
<path d="M141.819 61.6397L141.747 61.647C141.647 61.647 141.553 61.6066 141.482 61.5368C141.396 61.4486 141.353 61.32 141.37 61.195L141.711 58.9349C141.72 58.8699 141.746 58.8084 141.785 58.7562C141.823 58.7041 141.875 58.6631 141.934 58.6373C141.992 58.6101 142.057 58.5986 142.121 58.6037C142.185 58.6089 142.246 58.6305 142.3 58.6667L144.822 60.3865C144.952 60.4747 145.016 60.6327 144.984 60.7908C144.955 60.9451 144.833 61.0701 144.679 61.0958L141.819 61.6397ZM155.673 61.647L155.605 61.6397L152.738 61.0958C152.587 61.0664 152.465 60.9451 152.433 60.7908C152.401 60.6327 152.469 60.4747 152.598 60.3865L155.121 58.6667C155.225 58.5932 155.365 58.5821 155.487 58.6373C155.605 58.6887 155.691 58.8026 155.709 58.9349L156.047 61.195C156.055 61.2505 156.052 61.3072 156.037 61.3613C156.022 61.4154 155.996 61.4656 155.961 61.5085C155.926 61.5514 155.882 61.586 155.832 61.6099C155.782 61.6338 155.728 61.6464 155.673 61.647Z" fill="#ED6C30"/>
<path d="M116.629 69.5813H132.791V60.2139L116.629 62.3416V69.5813Z" fill="#FA8C01"/>
<path d="M154.213 50.5247L151.648 45.0439L117.021 62.046L119.586 67.5268L154.213 50.5247Z" fill="#282731"/>
<path d="M119.227 68.5706L155.235 50.8942L152.009 44L116.001 61.6764L119.227 68.5706ZM153.194 50.1555L119.945 66.4758L118.043 62.4114L151.292 46.091L153.194 50.1555Z" fill="#FA8C01"/>
<path d="M154.906 50.1879L152.345 44.709L150.963 45.3866L153.525 50.8656L154.906 50.1879Z" fill="#FA8C01"/>
<path d="M119.585 67.5233L117.023 62.0439L119.585 67.5233Z" fill="white"/>
<path d="M120.278 67.185L117.711 61.709L116.33 62.3877L118.896 67.8641L120.278 67.185Z" fill="#FA8C01"/>
<path d="M125.359 64.6903L122.794 59.2109L125.359 64.6903Z" fill="white"/>
<path d="M126.047 64.3559L123.485 58.877L122.106 59.5531L124.668 65.0317L126.047 64.3559Z" fill="#FA8C01"/>
<path d="M131.131 61.8609L128.565 56.3779L131.131 61.8609Z" fill="white"/>
<path d="M131.819 61.519L129.253 56.043L127.875 56.7203L130.441 62.1966L131.819 61.519Z" fill="#FA8C01"/>
<path d="M136.903 59.0225L134.337 53.5469L136.903 59.0225Z" fill="white"/>
<path d="M137.591 58.6874L135.027 53.21L133.648 53.8869L136.213 59.3644L137.591 58.6874Z" fill="#FA8C01"/>
<path d="M142.672 56.1895L140.106 50.7139L142.672 56.1895Z" fill="white"/>
<path d="M143.363 55.8525L140.798 50.375L139.42 51.0519L141.984 56.5294L143.363 55.8525Z" fill="#FA8C01"/>
<path d="M148.442 53.3599L145.88 47.877L148.442 53.3599Z" fill="white"/>
<path d="M149.139 53.019L146.569 47.54L145.192 48.2181L147.762 53.697L149.139 53.019Z" fill="#FA8C01"/>
<path d="M145.878 47.877L154.213 50.5229L145.878 47.877Z" fill="white"/>
<path d="M154.442 49.7758L146.106 47.1299L145.652 48.6293L153.988 51.2745L154.442 49.7758Z" fill="#FA8C01"/>
<path d="M140.106 50.7139L148.442 53.3598L140.106 50.7139Z" fill="white"/>
<path d="M148.673 52.6098L140.337 49.9639L139.883 51.4632L148.219 54.1084L148.673 52.6098Z" fill="#FA8C01"/>
<path d="M134.337 53.5469L142.672 56.1891L134.337 53.5469Z" fill="white"/>
<path d="M142.898 55.4425L134.563 52.7969L134.109 54.2959L142.444 56.9411L142.898 55.4425Z" fill="#FA8C01"/>
<path d="M128.562 56.3779L136.898 59.0239L128.562 56.3779Z" fill="white"/>
<path d="M137.126 58.2751L128.791 55.6299L128.337 57.1285L136.672 59.7741L137.126 58.2751Z" fill="#FA8C01"/>
<path d="M122.795 59.2109L131.131 61.8606L122.795 59.2109Z" fill="white"/>
<path d="M131.357 61.1055L123.016 58.4658L122.564 59.9652L130.904 62.6045L131.357 61.1055Z" fill="#FA8C01"/>
<path d="M117.022 62.0439L125.354 64.6899L117.022 62.0439Z" fill="white"/>
<path d="M125.585 63.9414L117.249 61.2969L116.796 62.7959L125.131 65.4404L125.585 63.9414Z" fill="#FA8C01"/>
<path d="M151.617 61.8774C151.617 59.5586 150.939 57.6807 148.801 57.6807C146.662 57.6807 145.987 59.5586 145.987 61.8774H151.617Z" fill="#ED6C30"/>
<path d="M146.255 62.7822H151.354C151.881 62.7822 152.315 63.2232 152.315 63.7634V65.634C152.315 66.1779 151.881 66.6188 151.354 66.6188H146.255C145.724 66.6188 145.293 66.1779 145.293 65.634V63.7634C145.293 63.2232 145.724 62.7822 146.255 62.7822Z" fill="#FA8C01"/>
<path d="M137.997 67.8645C138.593 67.8645 139.084 67.3647 139.084 66.7547V65.8984C139.084 65.2847 139.572 64.7849 140.172 64.7849H141.395C141.395 64.7812 141.883 64.7813 142.479 64.7813H153.972C155.034 64.7813 156.585 65.6081 156.825 67.5007C157.177 70.2826 157.772 73.3475 157.772 73.3475C157.891 73.9465 157.988 74.9351 157.988 75.5488C157.988 75.5488 158.002 83.3911 158.002 84.9933C158.002 85.6989 157.155 86.6618 156.516 86.6618H117.713C117.117 86.6618 116.629 86.162 116.629 85.5483V68.9743C116.629 68.3606 117.117 67.8608 117.713 67.8608H137.997V67.8645Z" fill="#ED6C30"/>
<path d="M146.733 86.6664C146.733 88.6619 148.312 90.2752 150.257 90.2752C152.205 90.2752 153.784 88.6619 153.784 86.6664C153.784 84.6709 152.205 83.0576 150.257 83.0576C148.312 83.0576 146.733 84.6709 146.733 86.6664ZM120.819 86.6664C120.819 88.6619 122.397 90.2752 124.342 90.2752C126.291 90.2752 127.87 88.6619 127.87 86.6664C127.87 84.6709 126.291 83.0576 124.342 83.0576C122.397 83.0576 120.819 84.6709 120.819 86.6664Z" fill="#FA8C01"/>
<path d="M125.549 69.1991C128.646 69.1991 131.169 71.7825 131.169 74.954C131.169 76.4056 130.634 77.7322 129.762 78.7465H138.273V80.7052H125.549C122.453 80.7052 119.93 78.1254 119.93 74.954C119.93 71.7825 122.453 69.1991 125.549 69.1991ZM125.549 78.7465C127.591 78.7465 129.253 77.0487 129.253 74.954C129.253 72.863 127.591 71.1615 125.549 71.1615C123.508 71.1615 121.843 72.863 121.843 74.954C121.846 77.045 123.508 78.7465 125.549 78.7465ZM148.568 74.2705C148.569 74.5645 148.684 74.8462 148.887 75.0541C149.09 75.2621 149.365 75.3793 149.652 75.3803H153.9C154.496 75.3803 154.916 74.8878 154.83 74.2815L154.08 68.9822C153.994 68.3759 153.438 67.8798 152.838 67.8798H149.648C149.053 67.8798 148.565 68.3832 148.565 68.9896V74.2705H148.568ZM141.298 68.8058C141.298 68.2803 141.718 67.8467 142.235 67.8467H145.716C145.964 67.8467 146.203 67.9476 146.379 68.1274C146.555 68.3072 146.655 68.5511 146.656 68.8058V72.4955C146.656 73.021 146.232 73.4583 145.716 73.4583H142.235C141.986 73.4573 141.748 73.3555 141.573 73.175C141.397 72.9945 141.298 72.7502 141.298 72.4955V68.8058Z" fill="white"/>
<path d="M55.1091 43.5432C55.9673 43.3132 56.5387 42.663 56.3854 42.0909C56.2321 41.5188 55.4121 41.2414 54.5539 41.4713C53.6957 41.7013 53.1243 42.3515 53.2776 42.9236C53.4309 43.4958 54.2509 43.7732 55.1091 43.5432Z" fill="#E6E6E6"/>
<path d="M141.521 61.4701C142.093 61.3168 142.432 60.7287 142.279 60.1566C142.126 59.5844 141.538 59.2449 140.966 59.3982C140.393 59.5515 140.054 60.1396 140.207 60.7117C140.361 61.2838 140.949 61.6234 141.521 61.4701Z" fill="#E6E6E6"/>
<path d="M170.137 46.03C170.423 45.9533 170.593 45.6593 170.516 45.3732C170.44 45.0871 170.146 44.9174 169.86 44.994C169.573 45.0707 169.404 45.3647 169.48 45.6508C169.557 45.9368 169.851 46.1066 170.137 46.03Z" fill="#E6E6E6"/>
<path d="M97.0107 23.1294C97.8885 23.2667 98.6743 22.9036 98.7658 22.3184C98.8573 21.7332 98.2199 21.1475 97.3421 21.0102C96.4643 20.873 95.6785 21.2361 95.587 21.8213C95.4955 22.4065 96.1329 22.9922 97.0107 23.1294Z" fill="#E6E6E6"/>
<path d="M168.763 74.5114C169.349 74.603 169.897 74.2027 169.989 73.6175C170.08 73.0323 169.68 72.4837 169.095 72.3922C168.51 72.3007 167.961 72.701 167.869 73.2862C167.778 73.8714 168.178 74.4199 168.763 74.5114Z" fill="#E6E6E6"/>
</svg>
