<svg width="32" height="32" viewBox="0 0 32 32" fill="none" xmlns="http://www.w3.org/2000/svg">
<path d="M21.9155 23.6C21.5896 23.2148 21.4266 22.7781 21.4266 22.2898C21.4266 21.8015 21.5896 21.3938 21.9155 21.0667L25.2044 17.7778H12.4488C11.9451 17.7778 11.5226 17.6071 11.1813 17.2658C10.8399 16.9244 10.6699 16.5025 10.6711 16C10.6711 15.4963 10.8417 15.0738 11.1831 14.7324C11.5244 14.3911 11.9463 14.221 12.4488 14.2222H25.2044L21.9155 10.9333C21.5599 10.5778 21.3822 10.1553 21.3822 9.66578C21.3822 9.1763 21.5599 8.75437 21.9155 8.4C22.2414 8.04445 22.6491 7.86667 23.1386 7.86667C23.6281 7.86667 24.0352 8.02963 24.3599 8.35556L30.7599 14.7556C30.9377 14.9333 31.0639 15.1259 31.1386 15.3333C31.2133 15.5407 31.25 15.763 31.2488 16C31.2488 16.237 31.2121 16.4593 31.1386 16.6667C31.0651 16.8741 30.9389 17.0667 30.7599 17.2444L24.3599 23.6444C23.9748 24.0296 23.5522 24.2003 23.0924 24.1564C22.6325 24.1126 22.2402 23.9271 21.9155 23.6ZM3.55995 32C2.58217 32 1.74484 31.6516 1.04795 30.9547C0.351064 30.2578 0.00321236 29.421 0.00439755 28.4444V3.55556C0.00439755 2.57778 0.352842 1.74045 1.04973 1.04356C1.74662 0.346669 2.58336 -0.00118217 3.55995 3.0183e-06H14.2266C14.7303 3.0183e-06 15.1528 0.17067 15.4942 0.512003C15.8355 0.853336 16.0056 1.27526 16.0044 1.77778C16.0044 2.28148 15.8337 2.704 15.4924 3.04534C15.1511 3.38667 14.7291 3.55674 14.2266 3.55556H3.55995V28.4444H14.2266C14.7303 28.4444 15.1528 28.6151 15.4942 28.9564C15.8355 29.2978 16.0056 29.7197 16.0044 30.2222C16.0044 30.7259 15.8337 31.1484 15.4924 31.4898C15.1511 31.8311 14.7291 32.0012 14.2266 32H3.55995Z" fill="black"/>
</svg>
