<svg width="14" height="14" viewBox="0 0 14 14" fill="none" xmlns="http://www.w3.org/2000/svg">
<path fill-rule="evenodd" clip-rule="evenodd" d="M14 7C14 7 11.375 2.1875 7 2.1875C2.625 2.1875 0 7 0 7C0 7 2.625 11.8125 7 11.8125C11.375 11.8125 14 7 14 7ZM1.02637 7C1.44946 7.64301 1.93607 8.2419 2.47887 8.78763C3.605 9.9155 5.145 10.9375 7 10.9375C8.855 10.9375 10.3941 9.9155 11.522 8.78763C12.0648 8.2419 12.5514 7.64301 12.9745 7C12.5514 6.35698 12.0648 5.7581 11.522 5.21237C10.3941 4.0845 8.85412 3.0625 7 3.0625C5.145 3.0625 3.60588 4.0845 2.478 5.21237C1.93519 5.7581 1.44858 6.35698 1.0255 7H1.02637Z" fill="#001B33"/>
<path fill-rule="evenodd" clip-rule="evenodd" d="M7 4.8125C6.41984 4.8125 5.86344 5.04297 5.4532 5.4532C5.04297 5.86344 4.8125 6.41984 4.8125 7C4.8125 7.58016 5.04297 8.13656 5.4532 8.5468C5.86344 8.95703 6.41984 9.1875 7 9.1875C7.58016 9.1875 8.13656 8.95703 8.5468 8.5468C8.95703 8.13656 9.1875 7.58016 9.1875 7C9.1875 6.41984 8.95703 5.86344 8.5468 5.4532C8.13656 5.04297 7.58016 4.8125 7 4.8125ZM3.9375 7C3.9375 6.18777 4.26016 5.40882 4.83449 4.83449C5.40882 4.26016 6.18777 3.9375 7 3.9375C7.81223 3.9375 8.59118 4.26016 9.16551 4.83449C9.73984 5.40882 10.0625 6.18777 10.0625 7C10.0625 7.81223 9.73984 8.59118 9.16551 9.16551C8.59118 9.73984 7.81223 10.0625 7 10.0625C6.18777 10.0625 5.40882 9.73984 4.83449 9.16551C4.26016 8.59118 3.9375 7.81223 3.9375 7Z" fill="#001B33"/>
</svg>
