<svg width="34" height="37" viewBox="0 0 34 37" fill="none" xmlns="http://www.w3.org/2000/svg">
<path d="M12.9642 13.7986L13.0217 13.8044C13.1022 13.8044 13.177 13.7727 13.2345 13.7181C13.3034 13.6491 13.3379 13.5485 13.3236 13.4508L13.0505 11.6829C13.0433 11.632 13.0231 11.5839 12.9919 11.5431C12.9607 11.5023 12.9195 11.4702 12.8722 11.45C12.8254 11.4288 12.774 11.4198 12.7227 11.4238C12.6714 11.4278 12.622 11.4447 12.579 11.473L10.5582 12.8183C10.4547 12.8873 10.4029 13.0109 10.4288 13.1346C10.4518 13.2553 10.5495 13.353 10.6731 13.3732L12.9642 13.7986ZM1.86521 13.8044L1.91983 13.7986L4.21668 13.3732C4.33741 13.3502 4.43515 13.2553 4.46102 13.1346C4.48689 13.0109 4.43227 12.8873 4.32879 12.8183L2.30791 11.473C2.22454 11.4155 2.11243 11.4069 2.01469 11.45C1.91983 11.4903 1.85084 11.5794 1.83647 11.6829L1.56625 13.4508C1.55939 13.4942 1.56196 13.5385 1.57379 13.5809C1.58562 13.6232 1.60643 13.6624 1.6348 13.696C1.66317 13.7295 1.69843 13.7566 1.73819 13.7753C1.77795 13.794 1.82128 13.8039 1.86521 13.8044Z" fill="#ED6C30"/>
<path d="M33.1476 20.0101H20.2002V12.6826L33.1476 14.347V20.0101Z" fill="#2F2F2F"/>
<path d="M3.03516 5.10464L5.09053 0.817383L32.8309 14.117L30.7755 18.4042L3.03516 5.10464Z" fill="white"/>
<path d="M31.0639 19.2199L2.2168 5.39284L4.80111 0L33.6482 13.8271L31.0639 19.2199ZM3.85247 4.81504L30.489 17.5814L32.0126 14.402L5.37604 1.63568L3.85247 4.81504Z" fill="#2F2F2F"/>
<path d="M2.48145 4.83953L4.53337 0.553711L5.6404 1.0838L3.5879 5.36961L2.48145 4.83953Z" fill="#2F2F2F"/>
<path d="M30.7764 18.4004L32.8289 14.1143L30.7764 18.4004Z" fill="white"/>
<path d="M30.2207 18.1351L32.2767 13.8516L33.3834 14.3825L31.3272 18.6663L30.2207 18.1351Z" fill="#2F2F2F"/>
<path d="M26.1504 16.1845L28.2058 11.8984L26.1504 16.1845Z" fill="white"/>
<path d="M25.5996 15.9225L27.6521 11.6367L28.7565 12.1657L26.704 16.4512L25.5996 15.9225Z" fill="#2F2F2F"/>
<path d="M21.5283 13.9706L23.5837 9.68164L21.5283 13.9706Z" fill="white"/>
<path d="M20.9756 13.7034L23.0315 9.41992L24.1354 9.94972L22.0795 14.2335L20.9756 13.7034Z" fill="#2F2F2F"/>
<path d="M16.9033 11.751L18.9587 7.46777L16.9033 11.751Z" fill="white"/>
<path d="M16.3525 11.4888L18.4068 7.2041L19.5109 7.73361L17.4567 12.0183L16.3525 11.4888Z" fill="#2F2F2F"/>
<path d="M12.2803 9.53518L14.3356 5.25195L12.2803 9.53518Z" fill="white"/>
<path d="M11.7285 9.27099L13.7827 4.98633L14.8866 5.51584L12.8327 9.8005L11.7285 9.27099Z" fill="#2F2F2F"/>
<path d="M7.6582 7.32218L9.7107 3.0332L7.6582 7.32218Z" fill="white"/>
<path d="M7.10254 7.05535L9.16136 2.76953L10.2652 3.2999L8.2064 7.58572L7.10254 7.05535Z" fill="#2F2F2F"/>
<path d="M9.71102 3.0332L3.0332 5.10295L9.71102 3.0332Z" fill="white"/>
<path d="M2.85254 4.51799L9.53035 2.44824L9.894 3.6211L3.21618 5.69027L2.85254 4.51799Z" fill="#2F2F2F"/>
<path d="M14.336 5.25195L7.6582 7.3217L14.336 5.25195Z" fill="white"/>
<path d="M7.47461 6.73479L14.1524 4.66504L14.5158 5.8379L7.83797 7.90707L7.47461 6.73479Z" fill="#2F2F2F"/>
<path d="M18.9581 7.46777L12.2803 9.53465L18.9581 7.46777Z" fill="white"/>
<path d="M12.1006 8.95032L18.7784 6.88086L19.142 8.05343L12.4642 10.1226L12.1006 8.95032Z" fill="#2F2F2F"/>
<path d="M23.5841 9.68164L16.9062 11.7514L23.5841 9.68164Z" fill="white"/>
<path d="M16.7256 11.1668L23.4034 9.09766L23.767 10.2699L17.0892 12.3394L16.7256 11.1668Z" fill="#2F2F2F"/>
<path d="M28.2061 11.8984L21.5283 13.9711L28.2061 11.8984Z" fill="white"/>
<path d="M21.3447 13.3813L28.0269 11.3164L28.3891 12.4893L21.7072 14.5538L21.3447 13.3813Z" fill="#2F2F2F"/>
<path d="M32.8283 14.1143L26.1533 16.184L32.8283 14.1143Z" fill="white"/>
<path d="M25.9697 15.5989L32.6475 13.5303L33.0109 14.7028L26.3331 16.7714L25.9697 15.5989Z" fill="#2F2F2F"/>
<path d="M5.11426 13.985C5.11426 12.1711 5.65757 10.7021 7.37086 10.7021C9.08415 10.7021 9.62458 12.1711 9.62458 13.985H5.11426Z" fill="#ED6C30"/>
<path d="M9.41193 14.6924H5.32705C4.90447 14.6924 4.55664 15.0373 4.55664 15.4599V16.9231C4.55664 17.3486 4.90447 17.6935 5.32705 17.6935H9.41193C9.83737 17.6935 10.1823 17.3486 10.1823 16.9231V15.4599C10.1823 15.0373 9.83737 14.6924 9.41193 14.6924Z" fill="#2F2F2F"/>
<path d="M16.0262 18.6677C15.549 18.6677 15.1552 18.2767 15.1552 17.7995V17.1298C15.1552 16.6497 14.7642 16.2587 14.2841 16.2587H13.3039C13.3039 16.2559 12.9129 16.2559 12.4357 16.2559H3.22823C2.37734 16.2559 1.13549 16.9027 0.942885 18.3831C0.66117 20.5592 0.183978 22.9567 0.183978 22.9567C0.0891143 23.4252 0.0114987 24.1985 0.0114987 24.6786C0.0114987 24.6786 0 30.8131 0 32.0664C0 32.6184 0.678418 33.3715 1.19011 33.3715H32.2766C32.7538 33.3715 33.1447 32.9806 33.1447 32.5005V19.5358C33.1447 19.0558 32.7538 18.6648 32.2766 18.6648H16.0262V18.6677Z" fill="#ED6C30"/>
<path d="M9.02662 33.3747C9.02662 34.9356 7.76177 36.1976 6.20371 36.1976C4.64278 36.1976 3.37793 34.9356 3.37793 33.3747C3.37793 31.8137 4.64278 30.5518 6.20371 30.5518C7.76177 30.5518 9.02662 31.8137 9.02662 33.3747ZM29.7873 33.3747C29.7873 34.9356 28.5225 36.1976 26.9644 36.1976C25.4035 36.1976 24.1387 34.9356 24.1387 33.3747C24.1387 31.8137 25.4035 30.5518 26.9644 30.5518C28.5225 30.5518 29.7873 31.8137 29.7873 33.3747Z" fill="#2F2F2F"/>
<path d="M25.9984 19.7112C23.5175 19.7112 21.4967 21.7321 21.4967 24.2129C21.4967 25.3484 21.925 26.3861 22.6235 27.1795H15.8048V28.7117H25.9984C28.4792 28.7117 30.5001 26.6937 30.5001 24.2129C30.5001 21.7321 28.4792 19.7112 25.9984 19.7112ZM25.9984 27.1795C24.3627 27.1795 23.0317 25.8514 23.0317 24.2129C23.0317 22.5772 24.3627 21.2463 25.9984 21.2463C27.634 21.2463 28.9679 22.5772 28.9679 24.2129C28.965 25.8486 27.634 27.1795 25.9984 27.1795ZM7.55747 23.6782C7.55671 23.9082 7.465 24.1286 7.30236 24.2912C7.13971 24.4539 6.91934 24.5456 6.68932 24.5464H3.28574C2.80855 24.5464 2.47221 24.1612 2.5412 23.6868L3.14201 19.5416C3.211 19.0673 3.65657 18.6792 4.13664 18.6792H6.6922C7.16939 18.6792 7.56034 19.073 7.56034 19.5473V23.6782H7.55747ZM13.3815 19.4036C13.3815 18.9925 13.0452 18.6533 12.6312 18.6533H9.84282C9.64356 18.6533 9.45243 18.7323 9.31127 18.8729C9.1701 19.0135 9.09042 19.2044 9.08966 19.4036V22.2898C9.08966 22.7008 9.42887 23.0429 9.84282 23.0429H12.6312C12.8305 23.0422 13.0213 22.9625 13.1619 22.8213C13.3026 22.6801 13.3815 22.489 13.3815 22.2898V19.4036Z" fill="white"/>
</svg>
