<svg width="58" height="57" viewBox="0 0 58 57" fill="none" xmlns="http://www.w3.org/2000/svg">
<ellipse cx="29" cy="28.5" rx="29" ry="28.5" fill="black" fill-opacity="0.13"/>
<path d="M25.45 28.5002C25.45 30.7412 27.259 32.5502 29.5 32.5502C31.741 32.5502 33.55 30.7412 33.55 28.5002C33.55 26.2592 31.741 24.4502 29.5 24.4502C27.259 24.4502 25.45 26.2592 25.45 28.5002ZM30.85 28.5002C30.85 29.2427 30.2425 29.8502 29.5 29.8502C28.7575 29.8502 28.15 29.2427 28.15 28.5002C28.15 27.7577 28.7575 27.1502 29.5 27.1502C30.2425 27.1502 30.85 27.7577 30.85 28.5002Z" fill="white"/>
<path d="M24.1 25.8V23.1H20.1715C22.0345 19.8735 25.5175 17.7 29.5 17.7C34.522 17.7 38.7475 21.156 39.949 25.8H42.73C41.4745 19.644 36.034 15 29.5 15C25.0855 15 21.157 17.133 18.7 20.4135V17.7H16V25.8H24.1ZM34.9 31.2V33.9H38.8285C36.9655 37.1265 33.4825 39.3 29.5 39.3C24.478 39.3 20.2525 35.844 19.051 31.2H16.27C17.5255 37.356 22.966 42 29.5 42C33.9145 42 37.843 39.867 40.3 36.5865V39.3H43V31.2H34.9Z" fill="white"/>
</svg>
