<svg width="14" height="12" viewBox="0 0 14 12" fill="none" xmlns="http://www.w3.org/2000/svg">
<path d="M6.56604 12C7.13208 11.434 7.69811 10.9811 8.15094 10.5283C8.9434 9.84906 9.73585 9.16981 10.4151 8.49057C10.9811 8.03774 11.434 7.58491 11.8868 7.01887C12.3396 6.45283 12.6792 5.88679 12.7925 5.32075C13.0189 4.86792 13.0189 4.5283 13.0189 4.07547C13.0189 3.62264 13.0189 3.28302 13.0189 2.83019C12.9057 2.15094 12.566 1.4717 12.1132 1.01887C11.5472 0.45283 10.7547 0.113208 9.96226 0C9.28302 0 8.71698 0.113208 8.15094 0.339623C7.4717 0.679245 7.01887 1.13208 6.56604 1.81132C6.56604 1.81132 6.56604 1.81132 6.56604 1.92453C6.56604 1.92453 6.56604 1.92453 6.56604 1.81132C6.33962 1.58491 6.11321 1.35849 5.88679 1.13208C4.75472 0.113208 3.50943 -0.226415 2.03774 0.339623C0.792453 0.679245 0.113208 1.92453 0 3.28302C0 3.73585 2.23517e-08 4.07547 0.113208 4.5283C0.226415 4.98113 0.226415 5.43396 0.45283 5.88679C0.679245 6.56604 1.13208 7.01887 1.58491 7.58491C2.03774 8.15094 2.60377 8.60377 3.16981 9.16981C4.07547 9.73585 5.09434 10.6415 6.11321 11.5472C6.22642 11.6604 6.45283 11.8868 6.56604 12Z" fill="#FF0000"/>
</svg>
