<svg width="21" height="24" viewBox="0 0 21 24" fill="none" xmlns="http://www.w3.org/2000/svg">
<path d="M10.2857 0C13.0137 0 15.6299 1.08367 17.5588 3.01262C19.4878 4.94156 20.5714 7.55777 20.5714 10.2857C20.5714 14.544 17.3257 19.0057 10.9714 23.7714C10.7736 23.9198 10.533 24 10.2857 24C10.0384 24 9.79782 23.9198 9.6 23.7714C3.24571 19.0057 0 14.544 0 10.2857C0 7.55777 1.08367 4.94156 3.01262 3.01262C4.94156 1.08367 7.55777 0 10.2857 0ZM10.2857 6.85714C9.3764 6.85714 8.50433 7.21837 7.86135 7.86135C7.21837 8.50433 6.85714 9.3764 6.85714 10.2857C6.85714 11.195 7.21837 12.0671 7.86135 12.7101C8.50433 13.3531 9.3764 13.7143 10.2857 13.7143C11.195 13.7143 12.0671 13.3531 12.7101 12.7101C13.3531 12.0671 13.7143 11.195 13.7143 10.2857C13.7143 9.3764 13.3531 8.50433 12.7101 7.86135C12.0671 7.21837 11.195 6.85714 10.2857 6.85714Z" fill="#FB8C00"/>
</svg>
