<svg width="167" height="87" viewBox="0 0 167 87" fill="none" xmlns="http://www.w3.org/2000/svg">
<path d="M154.745 26.0367C157.903 26.0367 160.462 23.4771 160.462 20.3196C160.462 17.1622 157.903 14.6025 154.745 14.6025C151.588 14.6025 149.028 17.1622 149.028 20.3196C149.028 23.4771 151.588 26.0367 154.745 26.0367Z" fill="#FB8C00"/>
<path d="M133.318 35.3811L128.839 26.5861L133.332 34.2829L133.373 31.1348L130.295 24.7771L133.384 30.3025L133.458 24.641L130.111 19.5527L133.469 23.7507L133.713 13.416L133.714 13.373L133.714 13.4167L133.676 26.5296L137.37 21.2214L133.686 27.6415L133.832 33.9709L133.847 33.8035L138.107 28.2036L133.842 34.396L133.861 35.1876L133.868 35.2001L133.863 35.2647L134.056 43.6421C133.777 43.6537 133.495 43.6584 133.211 43.6563L133.219 43.0046L129.333 36.5898L133.227 42.3815L133.318 35.3811Z" fill="#3F3D56"/>
<path d="M112.45 40.4065L107.97 31.6115L112.463 39.3083L112.504 36.1602L109.426 29.8025L112.516 35.3279L112.589 29.6664L109.242 24.5781L112.6 28.7761L112.844 18.4414L112.846 18.3984L112.846 18.4421L112.807 31.555L116.502 26.2468L112.818 32.6669L112.964 38.9963L112.979 38.8289L117.239 33.229L112.974 39.4214L112.992 40.213L112.999 40.2255L112.994 40.2901L113.187 48.6675C112.908 48.6791 112.627 48.6838 112.342 48.6817L112.351 48.03L108.464 41.6152L112.359 47.4069L112.45 40.4065Z" fill="#CBCBCB"/>
<path d="M151.279 34.0091L146.8 25.214L151.293 32.9108L151.334 29.7628L148.256 23.405L151.345 28.9304L151.419 23.2689L148.072 18.1807L151.43 22.3786L151.674 12.0439L151.675 12.001L151.675 12.0446L151.637 25.1575L155.331 19.8493L151.647 26.2694L151.793 32.5988L151.808 32.4315L156.068 26.8316L151.803 33.0239L151.822 33.8156L151.829 33.828L151.824 33.8927L152.017 42.27C151.738 42.2816 151.456 42.2864 151.172 42.2842L151.18 41.6325L147.294 35.2177L151.188 41.0094L151.279 34.0091Z" fill="#3F3D56"/>
<path d="M74.1705 64.2315C76.7797 62.3081 79.5159 60.5634 82.3605 59.0091C90.3162 54.6191 100.1 50.8653 111.223 47.9574C111.987 47.7569 112.758 47.5609 113.535 47.3695C115.185 46.961 116.863 46.5721 118.568 46.2027C118.989 46.1118 119.411 46.0214 119.835 45.9313C122.208 45.4323 124.628 44.9717 127.096 44.5494C127.145 44.5404 127.195 44.5325 127.246 44.5246C127.825 44.4243 128.407 44.3275 128.991 44.234C140.67 42.3363 153.327 41.2923 166.55 41.2765C166.659 41.2754 166.77 41.2754 166.879 41.2754V87.0006H59.999C59.999 78.7104 65.1549 70.936 74.1705 64.2315Z" fill="#F1F1F1"/>
<path d="M95.4072 69.4477C99.9617 66.0611 105.793 63.0281 112.622 60.4705C113.38 60.1855 114.15 59.9073 114.933 59.6359C115.042 59.5976 115.152 59.5593 115.263 59.521C116.259 59.1787 117.275 58.8453 118.31 58.5209C120.059 57.9743 121.858 57.4578 123.706 56.9712C125.029 56.6217 126.375 56.2887 127.745 55.9723C128.185 55.8694 128.627 55.7695 129.07 55.6727C130.079 55.4482 131.1 55.2335 132.133 55.0285C142.691 52.9247 154.465 51.75 166.879 51.75V87.0012H84.4816C84.4816 80.6098 88.4572 74.616 95.4072 69.4477Z" fill="white"/>
<path d="M116.872 74.7189C126.823 67.3184 145.492 62.3359 166.879 62.3359V87.0005H109.227C109.227 82.5294 112.009 78.3353 116.872 74.7189Z" fill="#F1F1F1"/>
<path opacity="0.2" d="M74.1705 64.2314L95.4068 69.4471L116.872 74.719L166.879 87.0006H59.999C59.999 78.7104 65.1549 70.9359 74.1705 64.2314Z" fill="black"/>
<path d="M12.3969 80.6403C12.4511 82.6623 12.7898 84.6666 13.4031 86.5941C13.4167 86.6389 13.4318 86.6829 13.4465 86.7277H17.2013C17.1973 86.6876 17.1933 86.6428 17.1893 86.5941C16.939 83.716 18.3692 66.4077 20.095 63.4121C19.9438 63.6551 12.1058 71.4952 12.3969 80.6403Z" fill="#128807"/>
<path d="M12.6789 86.5941C12.7103 86.6388 12.743 86.6836 12.7764 86.7276H15.5934C15.572 86.6896 15.5473 86.6448 15.5186 86.5941C15.0533 85.7543 13.6759 83.2433 12.3975 80.6403C11.0241 77.8429 9.76301 74.9395 9.86921 73.8887C9.8363 74.1255 8.88554 81.3506 12.6789 86.5941Z" fill="#128807"/>
<path d="M58.3374 83.6348C58.3649 84.6621 58.537 85.6804 58.8486 86.6597C58.8555 86.6824 58.8632 86.7048 58.8707 86.7275H60.7783C60.7763 86.7072 60.7742 86.6844 60.7722 86.6597C60.6451 85.1974 61.3717 76.4038 62.2485 74.8818C62.1717 75.0053 58.1895 78.9885 58.3374 83.6348Z" fill="#E6E6E6"/>
<path d="M58.4804 86.6602C58.4964 86.6829 58.5129 86.7057 58.5299 86.728H59.9611C59.9503 86.7087 59.9377 86.686 59.9231 86.6602C59.6867 86.2335 58.9869 84.9578 58.3374 83.6353C57.6396 82.2141 56.9989 80.739 57.0529 80.2051C57.0362 80.3254 56.5531 83.9962 58.4804 86.6602Z" fill="#E6E6E6"/>
<path d="M47.0438 25.0693L42.188 28.5232L45.2094 28.8468L49.418 25.2855L47.0438 25.0693Z" fill="#3F3D56"/>
<path d="M28.046 84.0415L30.9666 84.0414L32.356 72.7764L28.0455 72.7765L28.046 84.0415Z" fill="#9F616A"/>
<path d="M27.301 83.0881L33.0527 83.0879H33.0529C34.025 83.0879 34.9573 83.4741 35.6447 84.1615C36.332 84.8489 36.7182 85.7811 36.7183 86.7532V86.8723L27.3012 86.8727L27.301 83.0881Z" fill="#2F2E41"/>
<path d="M26.2098 43.8057C26.2098 43.8057 24.944 45.2364 27.0399 50.8138L26.6707 81.3957L33.4628 81.2632L34.9558 66.3456L37.6741 44.5766L26.2098 43.8057Z" fill="#2F2E41"/>
<path d="M19.4282 38.9777C19.0269 38.9766 18.6418 38.8192 18.3547 38.5388C18.0676 38.2585 17.901 37.8773 17.8903 37.4761L17.5716 25.4641L23.0255 15.1171C23.1493 14.8841 23.3305 14.6865 23.552 14.543C23.7734 14.3996 24.0278 14.3149 24.2911 14.2971L28.4475 14.0303L28.0886 38.2433L19.5634 38.9719C19.5181 38.9758 19.4731 38.9777 19.4282 38.9777Z" fill="#F9A826"/>
<path d="M40.0039 48.0331L39.9295 48.0217C31.2405 46.6965 24.6837 45.4261 24.6184 45.4134L24.537 45.3976L26.8147 39.8576C26.7968 39.2787 26.3037 23.0223 27.2476 18.3517C28.1613 13.8303 32.4683 13.0893 32.9591 13.0196L33.4519 11.3867L39.678 14.6265L40.7639 18.3637L40.9844 28.6065L40.0039 48.0331Z" fill="#3F3D56"/>
<path d="M31.4476 32.527C27.4363 32.527 24.1728 28.1655 24.1728 22.8045C24.1728 17.4435 27.4363 13.082 31.4476 13.082C35.459 13.082 38.7225 17.4435 38.7225 22.8045C38.7225 28.1655 35.459 32.527 31.4476 32.527ZM31.4476 14.0339C27.9611 14.0339 25.1246 17.9684 25.1246 22.8045C25.1246 27.6406 27.9611 31.5751 31.4476 31.5751C34.9341 31.5751 37.7706 27.6406 37.7706 22.8045C37.7706 17.9684 34.9342 14.0339 31.4476 14.0339Z" fill="#F9A826"/>
<path d="M43.7536 26.9512C43.4732 26.9511 43.1958 27.0091 42.9389 27.1214C42.6821 27.2338 42.4512 27.3981 42.2609 27.604H31.7959L27.9626 28.4199L28.592 33.2742L42.228 30.3416C42.4538 30.5965 42.7398 30.7909 43.06 30.9069C43.3802 31.0229 43.7244 31.0568 44.0611 31.0056C44.3977 30.9544 44.7162 30.8196 44.9874 30.6137C45.2587 30.4077 45.474 30.1371 45.6137 29.8265C45.7534 29.516 45.8131 29.1754 45.7874 28.8358C45.7616 28.4962 45.6512 28.1685 45.4663 27.8826C45.2813 27.5966 45.0276 27.3616 44.7284 27.1989C44.4293 27.0362 44.0941 26.951 43.7536 26.9512Z" fill="#9F616A"/>
<path d="M42.9856 10.6992C44.9553 8.72952 44.9553 5.5361 42.9856 3.56646C41.016 1.59682 37.8226 1.59682 35.8529 3.56646C33.8833 5.5361 33.8833 8.72952 35.8529 10.6992C37.8226 12.6688 41.016 12.6688 42.9856 10.6992Z" fill="#9F616A"/>
<path d="M34.675 3.10095L34.4305 2.60882L35.6608 1.99755C35.6608 1.99755 37.018 -0.210818 39.474 0.409782C41.9299 1.03038 43.0349 1.4018 43.0349 1.4018L44.2621 2.01928L43.6462 2.63211L44.7512 3.00354L44.013 3.3703L44.8719 3.86398L44.4095 6.39473C44.4095 6.39473 43.6415 4.47525 42.1652 5.20878C40.6888 5.9423 37.9883 4.82959 37.9883 4.82959L35.6422 9.37011C35.6422 9.37011 35.1582 7.77843 34.2952 8.20285C34.2952 8.20285 32.0906 4.69181 34.675 3.10095Z" fill="#2F2E41"/>
<path d="M78.4998 34.1507L78.2842 30.1076L76.1085 28.3398L74.8481 32.0838L67.7987 41.4858C67.4654 41.5392 67.1543 41.687 66.9024 41.9116C66.6505 42.1362 66.4681 42.4283 66.377 42.7533C66.2858 43.0783 66.2897 43.4226 66.3881 43.7455C66.4865 44.0684 66.6753 44.3563 66.9322 44.5752C67.1892 44.7941 67.5034 44.9349 67.8378 44.9808C68.1722 45.0267 68.5128 44.9759 68.8192 44.8343C69.1256 44.6927 69.385 44.4664 69.5668 44.182C69.7486 43.8976 69.8451 43.567 69.845 43.2295C69.845 43.2057 69.8423 43.1826 69.8414 43.159L78.4998 34.1507Z" fill="#FFB7B7"/>
<path d="M82.689 85.107L81.022 85.1069L80.2289 78.6768L82.6893 78.6769L82.689 85.107Z" fill="#FFB7B7"/>
<path d="M83.1139 86.7229L77.7386 86.7227V86.6547C77.7386 86.0998 77.9591 85.5677 78.3514 85.1753C78.7438 84.783 79.2759 84.5625 79.8308 84.5625H79.8309L83.114 84.5626L83.1139 86.7229Z" fill="#2F2E41"/>
<path d="M90.44 85.107L88.773 85.1069L87.9799 78.6768L90.4403 78.6769L90.44 85.107Z" fill="#FFB7B7"/>
<path d="M90.8648 86.7229L85.4895 86.7227V86.6547C85.4895 86.0998 85.71 85.5677 86.1023 85.1753C86.4947 84.783 87.0269 84.5625 87.5817 84.5625H87.5819L90.8649 84.5626L90.8648 86.7229Z" fill="#2F2E41"/>
<path d="M88.6779 17.2607C89.3837 14.3465 89.9816 11.0596 88.6505 8.3756C87.727 6.5133 84.3104 5.88616 82.3518 6.55707C80.3933 7.22799 78.9772 9.04823 78.3545 11.0329C77.7317 13.0175 77.804 15.1561 78.0755 17.2192C81.6775 17.1501 85.2796 17.0809 88.6779 17.2607Z" fill="#2F2E41"/>
<path d="M84.6138 16.7452C86.6493 15.6325 87.3974 13.0803 86.2847 11.0448C85.172 9.0093 82.6198 8.26122 80.5843 9.37393C78.5488 10.4866 77.8007 13.0388 78.9134 15.0743C80.0261 17.1098 82.5783 17.8579 84.6138 16.7452Z" fill="#FFB8B8"/>
<path d="M87.7342 12.1948C87.7475 11.4878 87.6186 10.7854 87.3552 10.1293C87.0917 9.47313 86.6991 8.87664 86.2005 8.37524C85.702 7.87384 85.1077 7.47778 84.4531 7.21057C83.7985 6.94337 83.0968 6.81047 82.3898 6.81979C81.6828 6.82911 80.9849 6.98046 80.3375 7.26483C79.6901 7.5492 79.1065 7.96079 78.6214 8.47515C78.1362 8.98952 77.7594 9.59615 77.5134 10.259C77.2673 10.9219 77.1569 11.6274 77.1889 12.3338C80.7841 12.3414 84.3793 12.3491 87.7342 12.1948Z" fill="#2F2E41"/>
<path d="M75.8536 38.3664C75.8536 38.3664 75.17 48.2944 75.541 51.3229C75.9119 54.3514 79.9507 80.8279 79.9507 80.8279L82.9972 80.8225L83.9017 49.6215L87.5043 81.1257L90.6549 80.7981L92.4421 49.9813C92.4421 49.9813 92.1619 38.444 89.884 37.2871L75.8536 38.3664Z" fill="#2F2E41"/>
<path d="M80.633 48.2072C78.3952 48.2065 76.1899 47.6724 74.1998 46.6494L74.1562 46.6271L75.8401 35.4535L75.7309 22.1367C75.7279 21.7711 75.7977 21.4087 75.9363 21.0705C76.0749 20.7322 76.2795 20.425 76.538 20.1666C76.7966 19.9083 77.1041 19.7041 77.4425 19.5658C77.7809 19.4276 78.1434 19.3581 78.5089 19.3614L87.5448 19.4444C87.9448 19.448 88.3398 19.534 88.7053 19.6969C89.0707 19.8598 89.3987 20.0961 89.6688 20.3912C89.939 20.6863 90.1455 21.0339 90.2756 21.4122C90.4056 21.7906 90.4565 22.1916 90.4249 22.5905L89.5793 33.2662L92.3756 41.9312L91.8896 42.5774C90.5793 44.3253 88.8798 45.7441 86.926 46.7213C84.9721 47.6985 82.8175 48.2072 80.633 48.2072V48.2072Z" fill="#3F3D56"/>
<path d="M74.8228 30.8504L75.7696 21.1889L76.0739 20.7558C76.2824 20.4592 76.5474 20.2068 76.8537 20.0129C77.16 19.819 77.5015 19.6875 77.8588 19.6259C78.216 19.5644 78.5819 19.574 78.9354 19.6542C79.289 19.7344 79.6232 19.8837 79.9189 20.0934L80.1797 20.2784L79.9222 30.0696L74.8228 30.8504Z" fill="#3F3D56"/>
<path d="M113.62 78.0525C116.068 77.3764 117.113 81.0935 114.671 81.7912C112.224 82.4673 111.179 78.7502 113.62 78.0525Z" fill="#3F3D56"/>
<path d="M100.049 82.8367C102.497 82.1605 103.541 85.8776 101.1 86.5754C98.6521 87.2515 97.6075 83.5344 100.049 82.8367Z" fill="#3F3D56"/>
<path d="M94.5568 43.633L94.5946 43.6223L100.899 60.7396L101.731 60.5059L95.3806 43.2659C95.3669 43.0002 95.2627 42.7472 95.0853 42.5489C94.9079 42.3506 94.6681 42.2189 94.4055 42.1757C91.2525 41.6771 89.9744 44.4761 89.9744 44.4761L89.987 44.4947L96.433 61.995L97.2642 61.7614L91.0079 44.7759C92.9126 42.8921 94.5568 43.633 94.5568 43.633Z" fill="#3F3D56"/>
<path d="M101.783 83.7994C100.883 83.7916 100.01 83.4968 99.2892 82.9579C98.5689 82.419 98.0394 81.6642 97.7779 80.8034C96.5747 76.8648 93.7354 67.4278 93.3592 64.8668C92.8694 61.5323 95.6294 60.584 95.6909 60.5637C95.7652 60.5387 96.8749 60.2281 98.4107 59.7983C101.021 59.0677 104.967 57.9635 105.112 57.8983C105.723 57.6858 106.372 57.6018 107.017 57.6516C107.662 57.7015 108.29 57.8841 108.862 58.1879C109.45 58.4977 109.97 58.9241 110.389 59.441C110.808 59.958 111.118 60.5547 111.299 61.195L115.36 75.6431C115.611 76.5288 115.54 77.4746 115.162 78.3136C114.783 79.1525 114.12 79.8308 113.29 80.2287C110.157 81.7341 105.561 83.7423 101.844 83.799C101.824 83.7993 101.803 83.7994 101.783 83.7994Z" fill="#F9A826"/>
<path d="M93.8859 43.0414L91.8444 31.1164L91.6166 27.0918L88.3162 28.1728L91.0997 43.7879C90.9873 44.0917 90.9607 44.4207 91.0227 44.7387C91.0847 45.0567 91.2329 45.3515 91.4512 45.591C91.6695 45.8304 91.9494 46.0052 92.2603 46.0963C92.5713 46.1873 92.9013 46.1912 93.2142 46.1073C93.5272 46.0235 93.811 45.8552 94.0348 45.6209C94.2586 45.3865 94.4136 45.0952 94.4829 44.7787C94.5523 44.4622 94.5332 44.1328 94.4279 43.8264C94.3226 43.5199 94.1351 43.2484 93.8859 43.0414V43.0414Z" fill="#FFB7B7"/>
<path d="M92.4026 30.3679L87.2513 30.0877L86.041 20.3681L86.1588 20.266C86.4489 20.0144 86.7858 19.8225 87.1502 19.7015C87.5146 19.5804 87.8993 19.5325 88.2823 19.5605C88.6653 19.5885 89.0389 19.6919 89.3818 19.8647C89.7247 20.0375 90.0301 20.2763 90.2805 20.5675L90.5187 20.8446L90.5222 20.8621L92.4026 30.3679Z" fill="#3F3D56"/>
<path d="M113.38 77.8455L108.115 60.0252L95.7344 63.5241L95.6604 63.2624L108.3 59.6904L108.338 59.8193L113.641 77.7685L113.38 77.8455Z" fill="#3F3D56"/>
<path d="M19.8217 37.7002L19.261 25.4756L25.0037 14.25L25.2457 14.3739L19.5361 25.5351L20.0934 37.6877L19.8217 37.7002Z" fill="#3F3D56"/>
<path d="M125.372 87.0005H0.135979C0.0999148 87.0005 0.065328 86.9861 0.0398271 86.9606C0.0143262 86.9351 0 86.9006 0 86.8645C0 86.8284 0.0143262 86.7938 0.0398271 86.7683C0.065328 86.7428 0.0999148 86.7285 0.135979 86.7285H125.372C125.408 86.7285 125.443 86.7428 125.468 86.7683C125.494 86.7938 125.508 86.8284 125.508 86.8645C125.508 86.9006 125.494 86.9351 125.468 86.9606C125.443 86.9861 125.408 87.0005 125.372 87.0005Z" fill="#CCCCCC"/>
<path d="M28.6591 34.184L27.4623 30.6241L27.1729 18.7575L27.6828 17.0738C27.8663 16.4678 28.1703 15.9051 28.5765 15.4194C28.9827 14.9338 29.4828 14.5351 30.0468 14.2473C30.6108 13.9595 31.2271 13.7886 31.8587 13.7447C32.4904 13.7008 33.1244 13.7849 33.7228 13.9919C34.3211 14.199 34.8715 14.5246 35.341 14.9495C35.8105 15.3743 36.1894 15.8896 36.455 16.4644C36.7205 17.0391 36.8673 17.6616 36.8866 18.2945C36.9058 18.9274 36.7971 19.5576 36.5669 20.1475L33.8338 27.1512L33.9727 27.4208L39.894 27.3728L41.9973 31.1589L28.6591 34.184Z" fill="#3F3D56"/>
<path d="M66.3803 59.5168L66.3761 59.5176L59.8132 60.8315L54.1675 63.1051C54.0945 63.1344 54.0165 63.1492 53.9378 63.1484C53.8591 63.1476 53.7813 63.1314 53.7089 63.1005C53.6365 63.0697 53.5709 63.0249 53.5158 62.9687C53.4608 62.9126 53.4173 62.8461 53.3879 62.7731C53.381 62.7559 53.3749 62.7385 53.3696 62.7207L49.2452 48.9104C49.2018 48.7674 49.2138 48.6132 49.2786 48.4786C49.3435 48.3439 49.4566 48.2385 49.5955 48.1832L55.3444 45.868L55.3486 45.8672L61.9116 44.5533L67.5573 42.2797C67.7047 42.2203 67.8696 42.222 68.0158 42.2842C68.162 42.3465 68.2775 42.4643 68.3369 42.6117C68.3438 42.6288 68.3499 42.6463 68.3552 42.664L72.4796 56.4743C72.5229 56.6174 72.511 56.7715 72.4461 56.9062C72.3813 57.0409 72.2682 57.1463 72.1293 57.2016L66.3803 59.5168Z" fill="#E5E5E5"/>
<path d="M59.3371 50.2403C57.8321 49.7092 56.2766 49.2439 54.714 48.8575L54.6356 48.8381L55.4289 51.4945L59.4707 50.2875L59.3371 50.2403ZM55.4909 51.3798L54.7702 48.9665C56.2574 49.3367 57.7374 49.7784 59.1728 50.2802L55.4909 51.3798ZM67.2234 53.8312C66.5228 53.4351 65.8122 53.0557 65.0915 52.6932C64.8927 52.5931 64.6934 52.4944 64.4935 52.3972C63.2731 51.8035 62.034 51.2623 60.7763 50.7735L60.7616 50.7678L55.6663 52.2895L57.0578 56.9486L67.3177 53.8846L67.2234 53.8312ZM57.1197 56.8339L55.7811 52.3514L60.7578 50.8651C61.9706 51.3368 63.1695 51.8592 64.3546 52.4324C64.5604 52.5319 64.7654 52.6329 64.9696 52.7353C65.6834 53.0927 66.388 53.467 67.0835 53.8583L57.1197 56.8339ZM67.2234 53.8312C66.5228 53.4351 65.8122 53.0557 65.0915 52.6932C64.8927 52.5931 64.6934 52.4944 64.4935 52.3972C63.2731 51.8035 62.034 51.2623 60.7763 50.7735L60.7616 50.7678L55.6663 52.2895L57.0578 56.9486L67.3177 53.8846L67.2234 53.8312ZM57.1197 56.8339L55.7811 52.3514L60.7578 50.8651C61.9706 51.3368 63.1695 51.8592 64.3546 52.4324C64.5604 52.5319 64.7654 52.6329 64.9696 52.7353C65.6834 53.0927 66.388 53.467 67.0835 53.8583L57.1197 56.8339ZM59.3371 50.2403C57.8321 49.7092 56.2766 49.2439 54.714 48.8575L54.6356 48.8381L55.4289 51.4945L59.4707 50.2875L59.3371 50.2403ZM55.4909 51.3798L54.7702 48.9665C56.2574 49.3367 57.7374 49.7784 59.1728 50.2802L55.4909 51.3798ZM59.3371 50.2403C57.8321 49.7092 56.2766 49.2439 54.714 48.8575L54.6356 48.8381L55.4289 51.4945L59.4707 50.2875L59.3371 50.2403ZM55.4909 51.3798L54.7702 48.9665C56.2574 49.3367 57.7374 49.7784 59.1728 50.2802L55.4909 51.3798ZM67.2234 53.8312C66.5228 53.4351 65.8122 53.0557 65.0915 52.6932C64.8927 52.5931 64.6934 52.4944 64.4935 52.3972C63.2731 51.8035 62.034 51.2623 60.7763 50.7735L60.7616 50.7678L55.6663 52.2895L57.0578 56.9486L67.3177 53.8846L67.2234 53.8312ZM57.1197 56.8339L55.7811 52.3514L60.7578 50.8651C61.9706 51.3368 63.1695 51.8592 64.3546 52.4324C64.5604 52.5319 64.7654 52.6329 64.9696 52.7353C65.6834 53.0927 66.388 53.467 67.0835 53.8583L57.1197 56.8339ZM52.9235 59.0491L52.9499 59.1375L56.4383 58.0957L56.8208 59.3764L53.3324 60.4182L53.3587 60.5065L56.9355 59.4383L56.5003 57.981L52.9235 59.0491ZM57.9678 59.9959L58.2351 60.8908L58.321 60.8563L58.0825 60.0578L71.6847 55.9956L71.6583 55.9073L57.9678 59.9959ZM71.0121 53.7433L70.9857 53.655L57.2952 57.7436L57.7304 59.2009L71.4209 55.1123L71.3945 55.024L57.7924 59.0862L57.4099 57.8055L71.0121 53.7433ZM60.8445 49.781C58.7597 48.9799 56.618 48.3352 54.4374 47.8523L54.1703 46.958L54.0845 46.9926L54.3536 47.8938L54.4439 47.9482C56.6161 48.4306 58.7494 49.0738 60.8262 49.8726L60.8409 49.8783L69.1194 47.4059L69.093 47.3176L60.8445 49.781ZM54.5193 51.67L51.0309 52.7118L51.0573 52.8001L54.634 51.7319L53.3116 47.3037L53.2257 47.3383L54.5193 51.67ZM69.3568 48.2009L62.079 50.3743L62.1975 50.4241C63.3138 50.8938 64.4271 51.413 65.5375 51.9818C65.6954 52.0626 65.8531 52.1445 66.0106 52.2275C66.7945 52.6391 67.5723 53.0737 68.344 53.5312L68.4297 53.5525L70.7483 52.86L70.7219 52.7717L68.4089 53.4625C67.6453 53.0094 66.8747 52.5781 66.097 52.1687C65.9414 52.0868 65.7857 52.0057 65.6297 51.9256C64.5428 51.3673 63.45 50.8552 62.3514 50.3892L69.3832 48.2892L69.3568 48.2009ZM53.5962 61.3015L53.6225 61.3898L57.111 60.348L57.3763 61.2365L57.4622 61.202L57.1729 60.2333L53.5962 61.3015ZM51.2947 53.595L51.321 53.6834L54.8095 52.6416L56.1482 57.1241L52.6597 58.1659L52.6861 58.2542L56.2629 57.186L54.8714 52.5269L51.2947 53.595ZM59.3371 50.2403C57.8321 49.7092 56.2766 49.2439 54.714 48.8575L54.6356 48.8381L55.4289 51.4945L59.4707 50.2875L59.3371 50.2403ZM55.4909 51.3798L54.7702 48.9665C56.2574 49.3367 57.7374 49.7784 59.1728 50.2802L55.4909 51.3798ZM67.2234 53.8312C66.5228 53.4351 65.8122 53.0557 65.0915 52.6932C64.8927 52.5931 64.6934 52.4944 64.4935 52.3972C63.2731 51.8035 62.034 51.2623 60.7763 50.7735L60.7616 50.7678L55.6663 52.2895L57.0578 56.9486L67.3177 53.8846L67.2234 53.8312ZM57.1197 56.8339L55.7811 52.3514L60.7578 50.8651C61.9706 51.3368 63.1695 51.8592 64.3546 52.4324C64.5604 52.5319 64.7654 52.6329 64.9696 52.7353C65.6834 53.0927 66.388 53.467 67.0835 53.8583L57.1197 56.8339ZM59.3371 50.2403C57.8321 49.7092 56.2766 49.2439 54.714 48.8575L54.6356 48.8381L55.4289 51.4945L59.4707 50.2875L59.3371 50.2403ZM55.4909 51.3798L54.7702 48.9665C56.2574 49.3367 57.7374 49.7784 59.1728 50.2802L55.4909 51.3798ZM67.2234 53.8312C66.5228 53.4351 65.8122 53.0557 65.0915 52.6932C64.8927 52.5931 64.6934 52.4944 64.4935 52.3972C63.2731 51.8035 62.034 51.2623 60.7763 50.7735L60.7616 50.7678L55.6663 52.2895L57.0578 56.9486L67.3177 53.8846L67.2234 53.8312ZM57.1197 56.8339L55.7811 52.3514L60.7578 50.8651C61.9706 51.3368 63.1695 51.8592 64.3546 52.4324C64.5604 52.5319 64.7654 52.6329 64.9696 52.7353C65.6834 53.0927 66.388 53.467 67.0835 53.8583L57.1197 56.8339Z" fill="white"/>
<path d="M60.5096 50.6562C60.8437 51.7747 59.5626 54.8711 59.5626 54.8711C59.5626 54.8711 56.7933 52.9843 56.4593 51.8658C56.2989 51.3287 56.3584 50.7499 56.6248 50.2567C56.8912 49.7635 57.3425 49.3963 57.8797 49.2358C58.4168 49.0754 58.9956 49.135 59.4888 49.4013C59.982 49.6677 60.3492 50.1191 60.5096 50.6562H60.5096Z" fill="#F9A826"/>
<path d="M59.3834 50.8969C59.4381 51.08 59.4372 51.2752 59.381 51.4578C59.3247 51.6404 59.2156 51.8023 59.0673 51.9229C58.9191 52.0435 58.7384 52.1174 58.5482 52.1353C58.3579 52.1532 58.1666 52.1143 57.9985 52.0235C57.8303 51.9327 57.6929 51.794 57.6035 51.6251C57.5142 51.4562 57.4769 51.2646 57.4965 51.0745C57.516 50.8844 57.5915 50.7044 57.7134 50.5572C57.8352 50.41 57.998 50.3022 58.1811 50.2475C58.3027 50.2112 58.4302 50.1991 58.5565 50.2121C58.6827 50.225 58.8052 50.2627 58.9168 50.323C59.0285 50.3833 59.1272 50.4651 59.2072 50.5635C59.2873 50.662 59.3471 50.7752 59.3834 50.8969Z" fill="white"/>
<path d="M59.8363 56.3573C60.1509 56.3573 60.406 56.1022 60.406 55.7875C60.406 55.4729 60.1509 55.2178 59.8363 55.2178C59.5216 55.2178 59.2665 55.4729 59.2665 55.7875C59.2665 56.1022 59.5216 56.3573 59.8363 56.3573Z" fill="#F9A826"/>
<path d="M66.0526 48.2959L62.093 49.4784C62.0881 49.48 62.083 49.4811 62.0779 49.4817L62.9818 45.6786C62.9872 45.655 62.9988 45.6333 63.0154 45.6156C63.0319 45.5979 63.0529 45.5849 63.0761 45.578C63.0993 45.5711 63.1239 45.5704 63.1475 45.5761C63.171 45.5818 63.1926 45.5937 63.2101 45.6105L65.117 47.4119L65.2083 47.4981L66.0526 48.2959Z" fill="white"/>
<path opacity="0.2" d="M66.0531 48.2961L64.7012 48.6998L65.0771 47.5378L65.104 47.454L65.1176 47.4121L65.2088 47.4983L66.0531 48.2961Z" fill="black"/>
<path d="M68.2576 47.6382L64.8329 48.6609L65.2086 47.4988L65.2357 47.4151L65.7253 45.9006C65.7348 45.8768 65.7493 45.8553 65.7677 45.8375C65.7861 45.8197 65.808 45.806 65.8321 45.7972C65.8561 45.7884 65.8818 45.7848 65.9073 45.7866C65.9329 45.7883 65.9578 45.7955 65.9804 45.8075C65.9863 45.8111 65.992 45.815 65.9975 45.8193L68.2576 47.6382Z" fill="white"/>
</svg>
