<svg width="15" height="15" viewBox="0 0 15 15" fill="none" xmlns="http://www.w3.org/2000/svg">
<path fill-rule="evenodd" clip-rule="evenodd" d="M0 7.5C0 3.35775 3.35775 0 7.5 0C11.6423 0 15 3.35775 15 7.5C15 11.6423 11.6423 15 7.5 15C3.35775 15 0 11.6423 0 7.5ZM1.5 7.5C1.5 9.0913 2.13214 10.6174 3.25736 11.7426C4.38258 12.8679 5.9087 13.5 7.5 13.5C9.0913 13.5 10.6174 12.8679 11.7426 11.7426C12.8679 10.6174 13.5 9.0913 13.5 7.5C13.5 5.9087 12.8679 4.38258 11.7426 3.25736C10.6174 2.13214 9.0913 1.5 7.5 1.5C5.9087 1.5 4.38258 2.13214 3.25736 3.25736C2.13214 4.38258 1.5 5.9087 1.5 7.5ZM4.689 6.336C4.87125 5.955 5.17125 4.875 5.388 4.875C5.604 4.875 5.52525 5.41725 5.71875 5.4645C5.8815 5.50425 5.75625 5.22225 6.2085 5.172C6.66075 5.12175 7.1535 5.3985 7.1535 5.3985C7.1535 5.3985 7.6875 5.53125 8.18025 5.3985C8.18025 5.3985 7.92 5.004 8.23875 4.875C8.55675 4.746 8.99025 5.223 9.006 5.53125C9.02175 5.8395 8.298 6.0465 8.298 6.0465L9.006 6.47175C9.006 6.47175 9.21375 5.81325 9.65625 5.8065C10.05 5.799 10.5435 6.519 10.3125 6.84375C10.0815 7.1685 9.933 6.945 9.933 6.945C9.933 6.945 9.228 7.659 9.006 7.78725C8.78475 7.91475 8.475 7.78725 8.475 7.78725C8.475 7.78725 8.34375 8.03025 8.475 8.142C8.74125 8.4165 9.43275 8.6895 9.43275 8.6895C9.43275 8.6895 11.559 9.03525 11.625 9.46875C11.691 9.90225 9.933 12.0938 9.65625 12.0938H9C8.73225 11.6213 9.43275 10.1108 9.43275 10.1108C9.43275 10.1108 9.07275 9.71175 9 9.46875C8.928 9.22575 9.1395 8.79825 9.1395 8.79825L8.18025 8.3565C8.18025 8.3565 7.67025 8.3565 7.4175 8.15625C7.16475 7.956 7.03125 6.84375 7.03125 6.84375L6.11625 6.17325C6.11625 6.17325 5.32125 7.18275 5.0625 7.05375C4.803 6.92475 4.5075 6.71625 4.689 6.336ZM9.6165 4.7625C8.9835 4.7625 7.46025 3.957 7.716 3.525C7.716 2.9055 9.31725 2.9985 9.66075 2.9985C10.0042 2.9985 10.8457 3.264 11.313 3.636C11.7802 4.00725 11.1157 4.53825 10.884 4.7625C10.6515 4.9875 10.2502 4.7625 9.6165 4.7625Z" fill="white"/>
</svg>
