<svg width="19" height="18" viewBox="0 0 19 18" fill="none" xmlns="http://www.w3.org/2000/svg">
<path d="M12.825 13.275C12.6417 13.0583 12.55 12.8127 12.55 12.538C12.55 12.2633 12.6417 12.034 12.825 11.85L14.675 10H7.5C7.21667 10 6.979 9.904 6.787 9.712C6.595 9.52 6.49934 9.28267 6.5 9C6.5 8.71667 6.596 8.479 6.788 8.287C6.98 8.095 7.21734 7.99934 7.5 8H14.675L12.825 6.15C12.625 5.95 12.525 5.71234 12.525 5.437C12.525 5.16167 12.625 4.92434 12.825 4.725C13.0083 4.525 13.2377 4.425 13.513 4.425C13.7883 4.425 14.0173 4.51667 14.2 4.7L17.8 8.3C17.9 8.4 17.971 8.50834 18.013 8.625C18.055 8.74167 18.0757 8.86667 18.075 9C18.075 9.13334 18.0543 9.25834 18.013 9.375C17.9717 9.49167 17.9007 9.6 17.8 9.7L14.2 13.3C13.9833 13.5167 13.7457 13.6127 13.487 13.588C13.2283 13.5633 13.0077 13.459 12.825 13.275ZM2.5 18C1.95 18 1.479 17.804 1.087 17.412C0.695002 17.02 0.499335 16.5493 0.500002 16V2C0.500002 1.45 0.696002 0.979002 1.088 0.587002C1.48 0.195002 1.95067 -0.000664969 2.5 1.69779e-06H8.5C8.78334 1.69779e-06 9.021 0.0960018 9.213 0.288002C9.405 0.480002 9.50067 0.717335 9.5 1C9.5 1.28333 9.404 1.521 9.212 1.713C9.02 1.905 8.78267 2.00067 8.5 2H2.5V16H8.5C8.78334 16 9.021 16.096 9.213 16.288C9.405 16.48 9.50067 16.7173 9.5 17C9.5 17.2833 9.404 17.521 9.212 17.713C9.02 17.905 8.78267 18.0007 8.5 18H2.5Z" fill="black"/>
</svg>
