<svg width="38" height="34" viewBox="0 0 38 34" fill="none" xmlns="http://www.w3.org/2000/svg">
<path d="M5.45215 29.0176V31.4796C5.45215 32.8865 11.4315 34.0003 18.759 34.0003C26.0866 34.0003 32.0659 32.8865 32.0659 31.5383V29.0762L5.45215 29.0176Z" fill="#3E4347"/>
<path d="M7.50391 29.0176V31.4796C7.50391 32.8279 12.5453 33.9417 18.7591 33.9417C24.9729 33.9417 30.0143 32.8279 30.0143 31.4796V29.0176H7.50391Z" fill="#62696D"/>
<path d="M32.0659 29.0175H5.45215L8.38318 14.3037H29.1349L32.0659 29.0175Z" fill="#C94747"/>
<path d="M18.759 31.4788C26.1082 31.4788 32.0659 30.3765 32.0659 29.0168C32.0659 27.657 26.1082 26.5547 18.759 26.5547C11.4098 26.5547 5.45215 27.657 5.45215 29.0168C5.45215 30.3765 11.4098 31.4788 18.759 31.4788Z" fill="#B23838"/>
<path opacity="0.3" d="M30.0143 28.8416L27.5522 14.3037H9.96598L7.50391 28.9003V29.0761C7.50391 30.4244 12.5453 31.5382 18.7591 31.5382C24.9729 31.5382 30.0143 30.4244 30.0143 29.0761V28.8416Z" fill="#FFC7CE"/>
<path d="M18.7587 16.7659C24.4891 16.7659 29.1345 15.6636 29.1345 14.3039C29.1345 12.9441 24.4891 11.8418 18.7587 11.8418C13.0282 11.8418 8.38281 12.9441 8.38281 14.3039C8.38281 15.6636 13.0282 16.7659 18.7587 16.7659Z" fill="#ED4C5C"/>
<path opacity="0.5" d="M10.083 14.5382C10.083 14.1279 10.4347 13.8348 10.7865 13.6589C11.1382 13.4244 11.4899 13.3072 11.8416 13.1313C12.6037 12.8968 13.3658 12.721 14.1278 12.5451C15.652 12.252 17.2347 12.1934 18.7589 12.1348C20.283 12.1348 21.8658 12.252 23.3899 12.5451C24.152 12.6624 24.914 12.8382 25.6761 13.1313C26.0278 13.2486 26.3796 13.4244 26.7313 13.6589C27.0244 13.8348 27.4347 14.1279 27.4347 14.5382C27.3761 14.1279 26.9658 13.952 26.6727 13.7761C26.3209 13.6003 25.9692 13.483 25.6175 13.4244C24.8554 13.2486 24.152 13.1313 23.3899 13.0141C21.8658 12.8382 20.3416 12.7796 18.8175 12.7796C17.2934 12.7796 15.7692 12.8382 14.2451 13.0141C13.483 13.0727 12.7209 13.2486 12.0175 13.4244C11.6658 13.5417 11.2554 13.6003 10.9623 13.7761C10.552 13.952 10.1416 14.1865 10.083 14.5382Z" fill="#C94747"/>
<path opacity="0.3" d="M18.7585 29.6615C23.1292 29.6615 26.6723 26.1446 26.6723 21.8063C26.6723 17.4681 23.1292 13.9512 18.7585 13.9512C14.3879 13.9512 10.8447 17.4681 10.8447 21.8063C10.8447 26.1446 14.3879 29.6615 18.7585 29.6615Z" fill="#FFC7CE"/>
<path d="M26.2031 21.8071L21.6307 20.6347L24.1514 16.414L19.9307 18.9933L18.7583 14.3623L17.5859 18.9933L13.3652 16.414L15.8859 20.6347L11.3135 21.8071L15.8859 22.9795L13.3652 27.2002L17.5859 24.6795L18.7583 29.252L19.9307 24.6795L24.1514 27.2002L21.6307 22.9795L26.2031 21.8071Z" fill="#FFE6EA"/>
<path d="M33.3552 2.93103L28.7241 9.9069L36.2276 5.80345L33.3552 2.93103ZM4.16207 2.93103L8.7931 9.9069L1.28966 5.80345L4.16207 2.93103ZM0 11.7828L7.03448 14.1276L0 15.1241V11.7828ZM37.5172 11.7828L30.4828 14.1276L37.5172 15.1241V11.7828ZM10.0828 0.586207L14.831 8.91035L13.8931 0L10.0828 0.586207ZM27.4345 0.586207L22.6862 8.91035L23.6241 0L27.4345 0.586207Z" fill="#F15744"/>
</svg>
