<svg width="14" height="14" viewBox="0 0 14 14" fill="none" xmlns="http://www.w3.org/2000/svg">
<path d="M0.0920496 12.7679C0.980729 11.1512 2.3684 9.89141 4.03168 9.19146C3.20455 8.54842 2.59357 7.65191 2.28529 6.62892C1.97701 5.60593 1.98706 4.50833 2.31401 3.49159C2.64096 2.47485 3.26824 1.59052 4.10699 0.963867C4.94575 0.337211 5.95345 0 6.98737 0C8.02128 0 9.02899 0.337211 9.86774 0.963867C10.7065 1.59052 11.3338 2.47485 11.6607 3.49159C11.9877 4.50833 11.9977 5.60593 11.6894 6.62892C11.3812 7.65191 10.7702 8.54842 9.94306 9.19146C11.6063 9.89141 12.994 11.1512 13.8827 12.7679C13.9378 12.8597 13.9745 12.962 13.9906 13.0688C14.0068 13.1756 14.002 13.2847 13.9767 13.3895C13.9514 13.4943 13.906 13.5929 13.8432 13.6792C13.7805 13.7655 13.7016 13.8378 13.6113 13.8919C13.521 13.9459 13.4212 13.9806 13.3177 13.9939C13.2142 14.0072 13.1092 13.9987 13.0089 13.9691C12.9087 13.9395 12.8152 13.8892 12.734 13.8214C12.6528 13.7536 12.5856 13.6695 12.5364 13.5742C11.3619 11.4698 9.28775 10.2147 6.98737 10.2147C4.68698 10.2147 2.61281 11.4705 1.43832 13.5742C1.33168 13.7519 1.16255 13.8797 0.966674 13.9305C0.770801 13.9814 0.563538 13.9512 0.388703 13.8465C0.213869 13.7418 0.0851669 13.5707 0.0298071 13.3695C-0.0255537 13.1682 -0.00323296 12.9525 0.0920496 12.7679ZM10.3579 5.10838C10.3579 4.41737 10.1602 3.74187 9.78986 3.16731C9.4195 2.59276 8.8931 2.14494 8.27721 1.8805C7.66133 1.61606 6.98363 1.54688 6.32981 1.68169C5.67599 1.8165 5.07542 2.14925 4.60405 2.63787C4.13267 3.12649 3.81166 3.74903 3.68161 4.42677C3.55155 5.10451 3.6183 5.807 3.87341 6.44541C4.12852 7.08383 4.56052 7.62949 5.1148 8.0134C5.66908 8.3973 6.32074 8.60221 6.98737 8.60221C7.88097 8.60115 8.73768 8.2327 9.36955 7.57771C10.0014 6.92273 10.3569 6.03468 10.3579 5.10838Z" fill="#263238"/>
</svg>
