<svg width="23" height="22" viewBox="0 0 23 22" fill="none" xmlns="http://www.w3.org/2000/svg">
<path d="M11.5 1C5.977 1 1.5 5.477 1.5 11C1.5 16.523 5.977 21 11.5 21C17.023 21 21.5 16.523 21.5 11C21.5 5.477 17.023 1 11.5 1Z" stroke="#2E2C43" stroke-width="2" stroke-linecap="round" stroke-linejoin="round"/>
<path d="M3.77063 17.346C3.77063 17.346 5.99963 14.5 11.4996 14.5C16.9996 14.5 19.2296 17.346 19.2296 17.346M11.4996 11C12.2953 11 13.0583 10.6839 13.621 10.1213C14.1836 9.55871 14.4996 8.79565 14.4996 8C14.4996 7.20435 14.1836 6.44129 13.621 5.87868C13.0583 5.31607 12.2953 5 11.4996 5C10.704 5 9.94092 5.31607 9.37831 5.87868C8.8157 6.44129 8.49963 7.20435 8.49963 8C8.49963 8.79565 8.8157 9.55871 9.37831 10.1213C9.94092 10.6839 10.704 11 11.4996 11V11Z" stroke="#2E2C43" stroke-width="2" stroke-linecap="round" stroke-linejoin="round"/>
</svg>
