<svg width="29" height="29" viewBox="0 0 29 29" fill="none" xmlns="http://www.w3.org/2000/svg">
<path d="M14.5 1C7.04395 1 1 7.04395 1 14.5C1 21.9561 7.04395 28 14.5 28C21.9561 28 28 21.9561 28 14.5C28 7.04395 21.9561 1 14.5 1Z" stroke="#001B33" stroke-width="2" stroke-linecap="round" stroke-linejoin="round"/>
<path d="M4.06543 23.0675C4.06543 23.0675 7.07458 19.2254 14.4996 19.2254C21.9246 19.2254 24.9351 23.0675 24.9351 23.0675M14.4996 14.5004C15.5737 14.5004 16.6038 14.0737 17.3634 13.3142C18.1229 12.5547 18.5496 11.5245 18.5496 10.4504C18.5496 9.37626 18.1229 8.34613 17.3634 7.58661C16.6038 6.82709 15.5737 6.40039 14.4996 6.40039C13.4255 6.40039 12.3953 6.82709 11.6358 7.58661C10.8763 8.34613 10.4496 9.37626 10.4496 10.4504C10.4496 11.5245 10.8763 12.5547 11.6358 13.3142C12.3953 14.0737 13.4255 14.5004 14.4996 14.5004V14.5004Z" stroke="#001B33" stroke-width="2" stroke-linecap="round" stroke-linejoin="round"/>
</svg>
