<svg width="174" height="91" viewBox="0 0 174 91" fill="none" xmlns="http://www.w3.org/2000/svg">
<g filter="url(#filter0_d_63_10264)">
<path d="M43.0512 72.121C42.6252 75.4779 41.1386 78.573 39.4812 81.5505C39.3992 81.6992 39.3171 81.8456 39.2328 81.9943H17.7602C17.3786 81.8589 17.0035 81.7103 16.6309 81.5505C15.2569 80.973 13.9523 80.2429 12.7414 79.374C5.75695 74.342 3.06797 64.8326 4.28382 56.3128C5.03588 51.0168 7.36107 45.612 11.885 42.761C14.3416 41.2662 17.2714 40.7528 20.0898 41.3233C20.163 41.3366 20.2363 41.3521 20.3095 41.3698C22.6746 41.9023 24.7823 43.2247 25.9827 45.3569C28.1393 49.1886 26.8547 53.9343 25.7941 58.1987C24.7357 62.4653 24.1634 67.5683 27.2318 70.7144C26.7817 69.3991 26.69 67.9876 26.9662 66.6252C27.2423 65.2627 27.8764 63.9984 28.8033 62.9622C29.7301 61.9261 30.9161 61.1555 32.2395 60.7296C33.5629 60.3038 34.9757 60.2382 36.3329 60.5394C36.5548 60.586 36.7745 60.6393 36.9919 60.7058C37.513 60.8585 38.0154 61.0691 38.4895 61.3337C42.1082 63.3549 43.5725 68.0098 43.0512 72.121Z" fill="#F2F2F2"/>
<path d="M29.0514 81.5507C29.5307 81.7126 30.0143 81.8591 30.5002 81.9944H28.3991C28.0086 81.8568 27.621 81.7089 27.2365 81.5507C27.1522 81.5174 27.0656 81.4819 26.9813 81.4464C23.8108 80.1174 20.8911 78.1205 18.6834 75.4625C17.6016 74.1765 16.7191 72.7353 16.0654 71.1871C15.3544 69.4384 14.903 67.5951 14.7253 65.7158C14.3259 61.8597 14.7319 57.8971 15.4951 54.1098C16.2824 50.1841 17.5538 46.3714 19.2803 42.7589C19.4888 42.3263 19.7033 41.8958 19.9237 41.4676C19.9392 41.4329 19.9621 41.402 19.9909 41.3771C20.0196 41.3522 20.0535 41.3339 20.0901 41.3234C20.1279 41.3163 20.1669 41.3167 20.2046 41.3247C20.2423 41.3327 20.278 41.3481 20.3098 41.37C20.386 41.4137 20.4426 41.485 20.4678 41.5693C20.493 41.6535 20.4849 41.7442 20.4451 41.8226C18.6657 45.2922 17.3171 48.9662 16.4292 52.763C15.5595 56.4683 15.0647 60.3443 15.2356 64.1516C15.3952 67.7104 16.325 71.2093 18.4349 74.1202C20.4 76.7652 22.9852 78.8864 25.963 80.2971C26.9638 80.7825 27.9955 81.2012 29.0514 81.5507Z" fill="white"/>
<path d="M37.5201 81.9939H36.7058C36.5905 81.8475 36.4795 81.6988 36.3708 81.5502C34.769 79.3733 33.6771 76.8642 33.1758 74.2085C32.493 70.489 33.0251 66.6485 34.6935 63.2548C35.1595 62.3033 35.7081 61.3945 36.3331 60.5391C36.5549 60.5857 36.7746 60.6389 36.9921 60.7055C35.346 62.8855 34.2391 65.4241 33.7616 68.1137C33.364 70.4666 33.4609 72.8765 34.0461 75.1899C34.6314 77.5033 35.692 79.6693 37.1606 81.5502C37.2783 81.701 37.3981 81.8497 37.5201 81.9939Z" fill="white"/>
<path d="M79.1454 41.3248C79.2321 40.9873 79.2436 40.6349 79.1794 40.2924C79.1151 39.95 78.9765 39.6258 78.7733 39.3427C78.5702 39.0596 78.3074 38.8244 78.0036 38.6539C77.6997 38.4833 77.3622 38.3814 77.0147 38.3554L63.455 21.4023L60.0999 24.5295L74.4242 40.7236C74.4192 41.3102 74.6295 41.8783 75.0154 42.3202C75.4013 42.7621 75.9358 43.0471 76.5178 43.1212C77.0997 43.1954 77.6887 43.0534 78.1729 42.7223C78.6572 42.3912 79.0033 41.894 79.1454 41.3248Z" fill="#FFB8B8"/>
<path d="M66.0564 24.0956L61.7711 27.3774C61.6492 27.4707 61.5085 27.5367 61.3588 27.5709C61.2091 27.605 61.0537 27.6065 60.9034 27.5751C60.753 27.5438 60.6112 27.4805 60.4875 27.3894C60.3639 27.2983 60.2613 27.1817 60.1868 27.0474L57.5763 22.3417C57.1022 21.7151 56.8958 20.9261 57.0025 20.1477C57.1091 19.3692 57.5201 18.6648 58.1453 18.1889C58.7706 17.713 59.559 17.5044 60.3377 17.6089C61.1165 17.7134 61.8221 18.1224 62.2997 18.7463L66.1508 22.48C66.261 22.587 66.3469 22.7164 66.4026 22.8595C66.4583 23.0026 66.4825 23.1561 66.4735 23.3094C66.4645 23.4627 66.4227 23.6123 66.3507 23.748C66.2787 23.8836 66.1783 24.0022 66.0564 24.0956Z" fill="#CCCCCC"/>
<path d="M58.8596 13.8616C61.8692 13.8616 64.309 11.4218 64.309 8.41225C64.309 5.40265 61.8692 2.96289 58.8596 2.96289C55.85 2.96289 53.4103 5.40265 53.4103 8.41225C53.4103 11.4218 55.85 13.8616 58.8596 13.8616Z" fill="#FFB8B8"/>
<path d="M70.4916 79.0979H73.2118L72.9526 74.0068L68.9381 74.0071L70.4916 79.0979Z" fill="#FFB8B8"/>
<path d="M69.798 78.2102L75.1548 78.21H75.155C75.6033 78.2099 76.0472 78.2982 76.4614 78.4698C76.8756 78.6413 77.2519 78.8928 77.5689 79.2098C77.8859 79.5268 78.1374 79.9031 78.3089 80.3173C78.4805 80.7315 78.5688 81.1754 78.5688 81.6237V81.7346L69.7981 81.735L69.798 78.2102Z" fill="#2F2E41"/>
<path d="M41.4907 75.2468L43.8048 76.6763L46.2603 72.2089L43.4598 70.457L41.4907 75.2468Z" fill="#FFB8B8"/>
<path d="M41.3667 74.1265L45.9241 76.9416C46.3055 77.1772 46.6369 77.4858 46.8991 77.8494C47.1613 78.213 47.3493 78.6247 47.4524 79.061C47.5555 79.4973 47.5717 79.9497 47.4999 80.3922C47.4282 80.8347 47.27 81.2588 47.0344 81.6402L46.9761 81.7345L39.5143 77.1253L41.3667 74.1265Z" fill="#2F2E41"/>
<path d="M70.2949 77.6056C70.0927 77.6055 69.8953 77.5439 69.7289 77.4289C69.5626 77.3139 69.4351 77.1511 69.3635 76.9619L59.5245 53.4378C59.5033 53.3804 59.4667 53.3299 59.4187 53.2919C59.3706 53.2539 59.3131 53.2299 59.2523 53.2225C59.1915 53.2151 59.1298 53.2246 59.0741 53.25C59.0184 53.2754 58.9707 53.3156 58.9364 53.3663L45.4194 74.6596C45.2872 74.8579 45.0881 75.0021 44.8586 75.066C44.629 75.1299 44.3841 75.1092 44.1684 75.0078L42.3189 74.1446C42.082 74.0329 41.8982 73.8329 41.8068 73.5874C41.7155 73.342 41.7238 73.0705 41.8301 72.8311L52.9042 48.1461C52.6624 47.5579 50.3038 41.5175 53.9276 38.5333L53.953 38.5175L63.7795 34.1343L64.0272 41.6722L73.8215 75.655C73.8584 75.7828 73.8694 75.9168 73.8537 76.049C73.8381 76.1811 73.7962 76.3088 73.7304 76.4246C73.6647 76.5403 73.5765 76.6417 73.4711 76.7229C73.3656 76.804 73.2449 76.8633 73.1162 76.8971L70.5507 77.5723C70.4673 77.5944 70.3813 77.6056 70.2949 77.6056Z" fill="#FB8C00"/>
<path d="M63.9282 23.1072C63.554 21.6055 63.0236 20.0918 62.3128 19.393C62.0514 19.1382 61.8059 18.8677 61.5774 18.5831C61.0993 17.9809 60.4978 17.488 59.8133 17.1376C60.0638 16.9982 60.2106 16.832 60.2106 16.6531C60.2106 16.163 59.1179 15.7656 57.77 15.7656C56.4221 15.7656 55.3294 16.163 55.3294 16.6531C55.3327 16.71 55.3472 16.7658 55.3721 16.8171C55.397 16.8684 55.4318 16.9143 55.4745 16.9521C54.5943 17.3109 53.8295 17.9043 53.2633 18.6678C52.6971 19.4313 52.3513 20.3355 52.2636 21.2819C51.9484 24.6578 51.8564 28.9731 52.961 31.7027C53.8876 33.9599 53.9613 36.4771 53.1683 38.7845C53.1146 38.9452 53.108 39.118 53.1494 39.2823C53.1908 39.4466 53.2784 39.5956 53.4019 39.7116C53.5254 39.8276 53.6796 39.9058 53.8461 39.9369C54.0127 39.968 54.1847 39.9507 54.3417 39.8871L64.0922 35.9579C64.2564 35.8917 64.397 35.778 64.496 35.6313C64.595 35.4847 64.648 35.3117 64.648 35.1347V29.1671C64.6558 27.1253 64.4141 25.0903 63.9282 23.1072Z" fill="#CCCCCC"/>
<path d="M45.2724 47.6865C45.6119 47.6077 45.9299 47.4554 46.2041 47.2404C46.4783 47.0254 46.702 46.7528 46.8594 46.442C47.0169 46.1312 47.1043 45.7896 47.1155 45.4413C47.1267 45.093 47.0614 44.7466 46.9242 44.4263L54.5531 24.3079L50.6844 23.3091L43.628 43.2202C43.1052 43.4864 42.6982 43.9351 42.4841 44.4813C42.27 45.0275 42.2637 45.6333 42.4664 46.1838C42.6691 46.7343 43.0667 47.1914 43.5839 47.4683C44.1011 47.7453 44.7019 47.8229 45.2724 47.6865Z" fill="#FFB8B8"/>
<path d="M54.5215 28.125L49.633 25.8367C49.4939 25.7716 49.3704 25.6772 49.2711 25.5601C49.1717 25.443 49.0988 25.3059 49.0572 25.158C49.0157 25.0102 49.0064 24.8551 49.0302 24.7034C49.054 24.5517 49.1101 24.4068 49.1949 24.2788L52.1659 19.792C52.5033 19.0827 53.1082 18.5361 53.8479 18.272C54.5876 18.0079 55.4018 18.0477 56.1122 18.3827C56.8226 18.7178 57.3712 19.3208 57.6378 20.0596C57.9044 20.7984 57.8674 21.6128 57.5347 22.3243L55.9984 27.4634C55.9544 27.6106 55.8792 27.7465 55.7779 27.8619C55.6766 27.9773 55.5516 28.0696 55.4115 28.1324C55.2713 28.1951 55.1192 28.227 54.9657 28.2257C54.8121 28.2244 54.6606 28.1901 54.5215 28.125Z" fill="#CCCCCC"/>
<path d="M63.8648 7.07102C64.1106 7.10013 64.3595 7.05514 64.5796 6.94181C64.9816 6.67876 64.942 6.08081 64.806 5.62006C64.467 4.5156 63.8554 3.5143 63.0274 2.70858C62.1994 1.90286 61.1818 1.31868 60.0685 1.00994C59.2927 0.803756 58.3111 0.811725 57.8673 1.48062C56.752 0.737656 55.4074 0.418965 54.0773 0.582339C52.7472 0.745714 51.5196 1.38034 50.6173 2.37113C49.7072 3.37046 49.1855 4.67318 48.9152 5.99755C48.4495 8.27887 46.4554 12.9848 47.56 15.0344C48.2951 16.3983 51.678 15.3356 53.109 15.9297C54.54 16.5238 56.2792 16.4572 57.5503 15.5712C58.8214 14.6852 59.489 12.9358 58.9441 11.4854C58.7334 10.9245 58.368 10.4374 58.0798 9.91206C57.7915 9.38675 57.5759 8.7795 57.7045 8.19429C57.9048 7.28297 62.2059 7.03687 63.8648 7.07102Z" fill="#2F2E41"/>
<path d="M109.832 81.7727C109.832 81.8018 109.826 81.8307 109.815 81.8577C109.804 81.8846 109.788 81.9092 109.767 81.9298C109.747 81.9504 109.722 81.9667 109.695 81.9779C109.668 81.989 109.639 81.9946 109.61 81.9945H4.22187C4.16303 81.9945 4.10659 81.9712 4.06498 81.9295C4.02338 81.8879 4 81.8315 4 81.7727C4 81.7138 4.02338 81.6574 4.06498 81.6158C4.10659 81.5742 4.16303 81.5508 4.22187 81.5508H109.61C109.639 81.5507 109.668 81.5564 109.695 81.5675C109.722 81.5786 109.747 81.5949 109.767 81.6155C109.788 81.6362 109.804 81.6607 109.815 81.6876C109.826 81.7146 109.832 81.7435 109.832 81.7727Z" fill="white"/>
<path d="M125.774 82.8817C130.062 82.8817 133.539 82.2857 133.539 81.5505C133.539 80.8152 130.062 80.2192 125.774 80.2192C121.485 80.2192 118.008 80.8152 118.008 81.5505C118.008 82.2857 121.485 82.8817 125.774 82.8817Z" fill="#F9A826"/>
<path d="M169.778 82.0922H140.047C139.989 82.0922 139.932 82.0688 139.891 82.0272C139.849 81.9856 139.826 81.9292 139.826 81.8703C139.826 81.8115 139.849 81.755 139.891 81.7134C139.932 81.6718 139.989 81.6484 140.047 81.6484H169.778C169.837 81.6484 169.893 81.6718 169.935 81.7134C169.977 81.755 170 81.8115 170 81.8703C170 81.9292 169.977 81.9856 169.935 82.0272C169.893 82.0688 169.837 82.0922 169.778 82.0922Z" fill="white"/>
<path d="M120.001 23.7991C120.002 21.3819 120.831 19.0379 122.35 17.1578C123.869 15.2777 125.987 13.9751 128.35 13.4672C126.809 13.1365 125.214 13.1547 123.681 13.5203C122.148 13.8859 120.716 14.5898 119.49 15.5803C118.265 16.5709 117.276 17.8231 116.597 19.2451C115.918 20.6672 115.565 22.2232 115.565 23.7991C115.565 25.375 115.918 26.931 116.597 28.353C117.276 29.7751 118.265 31.0272 119.49 32.0178C120.716 33.0084 122.148 33.7122 123.681 34.0779C125.214 34.4435 126.809 34.4616 128.35 34.131C125.987 33.623 123.869 32.3204 122.35 30.4403C120.831 28.5602 120.002 26.2162 120.001 23.7991Z" fill="#F9A826"/>
<path d="M108.501 23.7994C108.502 18.0343 110.61 12.4683 114.43 8.14997C118.249 3.83162 123.516 1.05896 129.238 0.354298C125.917 -0.0527303 122.549 0.24981 119.354 1.24191C116.16 2.234 113.212 3.89305 110.707 6.1093C108.201 8.32556 106.195 11.0485 104.82 14.0981C103.445 17.1477 102.734 20.4543 102.733 23.7994C102.733 34.3949 118.315 64.274 124.167 75.1223C124.38 75.5171 124.695 75.8469 125.08 76.0768C125.465 76.3068 125.905 76.4282 126.353 76.4282C126.802 76.4282 127.242 76.3068 127.627 76.0768C128.011 75.8469 128.327 75.5171 128.539 75.1223C128.758 74.7163 128.993 74.2805 129.238 73.8232C122.937 62.0613 108.501 33.9984 108.501 23.7994Z" fill="#F9A826"/>
<path d="M126.373 76.6932C125.884 76.6971 125.403 76.5665 124.983 76.3157C124.563 76.0648 124.22 75.7033 123.992 75.2707C117.539 63.3095 102.531 34.3538 102.531 23.8426C102.531 17.5191 105.043 11.4547 109.514 6.98333C113.985 2.51198 120.05 0 126.373 0C132.697 0 138.761 2.51198 143.232 6.98333C147.704 11.4547 150.216 17.5191 150.216 23.8426C150.216 34.3548 135.207 63.3097 128.754 75.2708C128.526 75.7034 128.183 76.0649 127.763 76.3157C127.343 76.5666 126.862 76.6972 126.373 76.6932ZM126.373 0.44374C120.17 0.450737 114.222 2.91821 109.835 7.30483C105.449 11.6915 102.981 17.639 102.974 23.8426C102.974 34.2527 117.946 63.1283 124.382 75.0601C124.576 75.4197 124.863 75.7201 125.214 75.9295C125.564 76.1389 125.965 76.2494 126.373 76.2494C126.781 76.2494 127.182 76.1389 127.533 75.9295C127.883 75.7201 128.17 75.4197 128.364 75.0601C134.801 63.1288 149.772 34.2537 149.772 23.8426C149.765 17.639 147.298 11.6915 142.911 7.30483C138.524 2.91822 132.577 0.450739 126.373 0.44374Z" fill="white"/>
<path d="M126.373 34.6313C124.239 34.6313 122.153 33.9986 120.379 32.8131C118.605 31.6276 117.222 29.9426 116.405 27.9711C115.589 25.9997 115.375 23.8304 115.791 21.7375C116.208 19.6446 117.235 17.7222 118.744 16.2133C120.253 14.7044 122.175 13.6768 124.268 13.2605C126.361 12.8442 128.53 13.0579 130.502 13.8745C132.473 14.6911 134.158 16.074 135.344 17.8482C136.529 19.6225 137.162 21.7084 137.162 23.8423C137.159 26.7027 136.021 29.445 133.998 31.4677C131.976 33.4903 129.234 34.628 126.373 34.6313ZM126.373 13.497C124.327 13.4969 122.327 14.1036 120.626 15.2404C118.924 16.3771 117.598 17.9928 116.815 19.8832C116.032 21.7735 115.827 23.8536 116.226 25.8604C116.626 27.8672 117.611 29.7106 119.058 31.1574C120.505 32.6042 122.348 33.5896 124.355 33.9887C126.361 34.3879 128.442 34.1831 130.332 33.4001C132.222 32.6171 133.838 31.2911 134.975 29.5898C136.112 27.8886 136.718 25.8884 136.718 23.8423C136.715 21.0995 135.624 18.47 133.685 16.5305C131.745 14.5911 129.116 13.5001 126.373 13.497Z" fill="white"/>
</g>
<defs>
<filter id="filter0_d_63_10264" x="0" y="0" width="174" height="90.8818" filterUnits="userSpaceOnUse" color-interpolation-filters="sRGB">
<feFlood flood-opacity="0" result="BackgroundImageFix"/>
<feColorMatrix in="SourceAlpha" type="matrix" values="0 0 0 0 0 0 0 0 0 0 0 0 0 0 0 0 0 0 127 0" result="hardAlpha"/>
<feOffset dy="4"/>
<feGaussianBlur stdDeviation="2"/>
<feComposite in2="hardAlpha" operator="out"/>
<feColorMatrix type="matrix" values="0 0 0 0 0 0 0 0 0 0 0 0 0 0 0 0 0 0 0.25 0"/>
<feBlend mode="normal" in2="BackgroundImageFix" result="effect1_dropShadow_63_10264"/>
<feBlend mode="normal" in="SourceGraphic" in2="effect1_dropShadow_63_10264" result="shape"/>
</filter>
</defs>
</svg>
