<svg width="76" height="76" viewBox="0 0 76 76" fill="none" xmlns="http://www.w3.org/2000/svg">
<path d="M71.4526 3.42149L72.0317 3.96656L72.5805 4.5457C74.875 7.12844 76.0961 10.4903 75.9941 13.9436C75.8921 17.3969 74.4746 20.6808 72.0317 23.1236L26.7332 68.4251C25.6843 69.4741 24.3796 70.2309 22.9483 70.6206L3.58815 75.901C3.10553 76.0319 2.59688 76.033 2.11369 75.9042C1.63049 75.7754 1.18989 75.5212 0.836484 75.1674C0.483074 74.8136 0.229394 74.3727 0.101116 73.8893C-0.027161 73.4059 -0.0254828 72.8973 0.10598 72.4148L5.38222 53.0496C5.77245 51.6195 6.52915 50.3161 7.5775 49.2681L52.876 3.96656C55.3191 1.52399 58.603 0.107153 62.0561 0.00583293C65.5092 -0.095487 68.8705 1.12636 71.4526 3.42149ZM49.2084 15.6629L11.5934 53.2805C11.2444 53.6299 10.9926 54.0644 10.8629 54.5409L6.88864 69.114L21.4608 65.1396C21.9363 65.0081 22.3694 64.7551 22.7174 64.4052L60.3324 26.7915L49.2084 15.6629ZM17.1308 34.3619L11.4533 40.0397H2.83873C2.08585 40.0397 1.36381 39.7406 0.831443 39.2082C0.299079 38.6758 0 37.9538 0 37.2008C0 36.4479 0.299079 35.7258 0.831443 35.1934C1.36381 34.661 2.08585 34.3619 2.83873 34.3619H17.1308ZM32.2706 19.221L26.5932 24.8988H2.83873C2.08585 24.8988 1.36381 24.5997 0.831443 24.0673C0.299079 23.5349 0 22.8129 0 22.0599C0 21.307 0.299079 20.5849 0.831443 20.0525C1.36381 19.5201 2.08585 19.221 2.83873 19.221H32.2668H32.2706ZM56.8918 7.9789L53.2204 11.6506L64.3444 22.7791L68.0159 19.1075C68.7465 18.377 69.3262 17.5098 69.7217 16.5553C70.1172 15.6008 70.3209 14.5777 70.3211 13.5445C70.3212 12.5113 70.1179 11.4882 69.7227 10.5336C69.3275 9.57893 68.7482 8.7115 68.0178 7.98079C67.2873 7.25008 66.4202 6.67039 65.4657 6.27484C64.5113 5.87929 63.4883 5.67561 62.4552 5.67543C61.4221 5.67526 60.399 5.87859 59.4444 6.27382C58.4899 6.66905 57.6225 7.24843 56.8918 7.9789ZM47.4105 4.08011L41.733 9.75795H2.83873C2.08585 9.75795 1.36381 9.45885 0.831443 8.92645C0.299079 8.39405 0 7.67196 0 6.91903C0 6.1661 0.299079 5.44401 0.831443 4.91161C1.36381 4.37921 2.08585 4.08011 2.83873 4.08011H47.4067H47.4105Z" fill="white"/>
</svg>
