<?xml version="1.0" encoding="UTF-8"?>
<!-- Generator: visioncortex VTracer 0.6.3 -->
<svg version="1.1" xmlns="http://www.w3.org/2000/svg" width="1280" height="1280">
<path d="M0 0 C0.83 -0.02 1.66 -0.04 2.51 -0.06 C8.05 -0.1 11.75 0.74 16.69 3.25 C19.62 4.5 22.26 5.39 25.38 6.12 C28.69 7.25 28.69 7.25 29.75 9.25 C30.06 9.91 30.37 10.57 30.69 11.25 C32.68 11.93 34.68 12.6 36.69 13.25 C37.73 14.55 38.73 15.88 39.69 17.25 C40.55 17.75 41.42 18.24 42.31 18.75 C44.69 20.25 44.69 20.25 45.19 22.31 C45.35 22.95 45.52 23.59 45.69 24.25 C46.51 24.58 47.34 24.91 48.19 25.25 C49.01 25.58 49.84 25.91 50.69 26.25 C51.02 27.58 51.35 28.92 51.69 30.25 C53.35 30.93 55.02 31.6 56.69 32.25 C57.37 33.57 58.04 34.91 58.69 36.25 C59.53 36.75 60.38 37.24 61.25 37.75 C63.69 39.25 63.69 39.25 64.19 41.31 C64.35 41.95 64.52 42.59 64.69 43.25 C66.35 43.93 68.02 44.6 69.69 45.25 C70.37 46.57 71.04 47.91 71.69 49.25 C72.53 49.75 73.38 50.24 74.25 50.75 C76.69 52.25 76.69 52.25 77.19 54.31 C77.35 54.95 77.52 55.59 77.69 56.25 C78.51 56.58 79.34 56.91 80.19 57.25 C81.01 57.58 81.84 57.91 82.69 58.25 C83.02 59.58 83.35 60.92 83.69 62.25 C85.35 62.93 87.02 63.6 88.69 64.25 C89.37 65.57 90.04 66.91 90.69 68.25 C91.53 68.75 92.38 69.24 93.25 69.75 C95.69 71.25 95.69 71.25 96.19 73.31 C96.35 73.95 96.52 74.59 96.69 75.25 C98.35 75.93 100.02 76.6 101.69 77.25 C102.37 78.57 103.04 79.91 103.69 81.25 C104.53 81.75 105.38 82.24 106.25 82.75 C108.69 84.25 108.69 84.25 109.19 86.31 C109.35 86.95 109.52 87.59 109.69 88.25 C110.51 88.58 111.34 88.91 112.19 89.25 C113.01 89.58 113.84 89.91 114.69 90.25 C115.02 91.58 115.35 92.92 115.69 94.25 C117.35 94.93 119.02 95.6 120.69 96.25 C121.37 97.57 122.04 98.91 122.69 100.25 C123.53 100.75 124.38 101.24 125.25 101.75 C127.69 103.25 127.69 103.25 128.19 105.31 C128.35 105.95 128.52 106.59 128.69 107.25 C130.35 107.93 132.02 108.6 133.69 109.25 C134.37 110.57 135.04 111.91 135.69 113.25 C136.53 113.75 137.38 114.24 138.25 114.75 C140.69 116.25 140.69 116.25 141.19 118.31 C141.35 118.95 141.52 119.59 141.69 120.25 C142.51 120.58 143.34 120.91 144.19 121.25 C145.01 121.58 145.84 121.91 146.69 122.25 C147.02 123.58 147.35 124.92 147.69 126.25 C149.35 126.93 151.02 127.6 152.69 128.25 C153.37 129.57 154.04 130.91 154.69 132.25 C155.53 132.75 156.38 133.24 157.25 133.75 C159.69 135.25 159.69 135.25 160.19 137.31 C160.35 137.95 160.52 138.59 160.69 139.25 C162.35 139.93 164.02 140.6 165.69 141.25 C166.37 142.57 167.04 143.91 167.69 145.25 C168.53 145.75 169.38 146.24 170.25 146.75 C172.69 148.25 172.69 148.25 173.19 150.31 C173.35 150.95 173.52 151.59 173.69 152.25 C174.51 152.58 175.34 152.91 176.19 153.25 C177.01 153.58 177.84 153.91 178.69 154.25 C179.02 155.58 179.35 156.92 179.69 158.25 C181.35 158.93 183.02 159.6 184.69 160.25 C185.37 161.57 186.04 162.91 186.69 164.25 C187.53 164.75 188.38 165.24 189.25 165.75 C191.69 167.25 191.69 167.25 192.19 169.31 C192.35 169.95 192.52 170.59 192.69 171.25 C194.35 171.93 196.02 172.6 197.69 173.25 C198.37 174.57 199.04 175.91 199.69 177.25 C200.53 177.75 201.38 178.24 202.25 178.75 C204.69 180.25 204.69 180.25 205.19 182.31 C205.35 182.95 205.52 183.59 205.69 184.25 C206.51 184.58 207.34 184.91 208.19 185.25 C209.01 185.58 209.84 185.91 210.69 186.25 C211.02 187.58 211.35 188.92 211.69 190.25 C213.35 190.93 215.02 191.6 216.69 192.25 C217.37 193.57 218.04 194.91 218.69 196.25 C219.53 196.75 220.38 197.24 221.25 197.75 C223.69 199.25 223.69 199.25 224.19 201.31 C224.35 201.95 224.52 202.59 224.69 203.25 C226.35 203.93 228.02 204.6 229.69 205.25 C230.37 206.57 231.04 207.91 231.69 209.25 C232.53 209.75 233.38 210.24 234.25 210.75 C236.69 212.25 236.69 212.25 237.19 214.31 C237.35 214.95 237.52 215.59 237.69 216.25 C238.51 216.58 239.34 216.91 240.19 217.25 C241.01 217.58 241.84 217.91 242.69 218.25 C243.02 219.58 243.35 220.92 243.69 222.25 C245.35 222.93 247.02 223.6 248.69 224.25 C249.37 225.57 250.04 226.91 250.69 228.25 C251.53 228.75 252.38 229.24 253.25 229.75 C255.69 231.25 255.69 231.25 256.19 233.31 C256.35 233.95 256.52 234.59 256.69 235.25 C257.51 235.58 258.34 235.91 259.19 236.25 C260.01 236.58 260.84 236.91 261.69 237.25 C262.5 239.38 262.5 239.38 262.69 241.25 C265.33 241.25 267.97 241.25 270.69 241.25 C270.75 240.63 270.81 240.01 270.88 239.38 C271.14 238.67 271.41 237.97 271.69 237.25 C272.49 236.94 273.3 236.63 274.12 236.31 C276.94 235.5 276.94 235.5 277.75 232.69 C278.06 231.88 278.37 231.08 278.69 230.25 C280.02 229.92 281.35 229.58 282.69 229.25 C283 228.45 283.31 227.64 283.62 226.81 C284.69 224.25 284.69 224.25 287.25 223.19 C288.05 222.88 288.86 222.57 289.69 222.25 C290.43 220.28 290.43 220.28 290.69 218.25 C291.35 217.59 292.01 216.93 292.69 216.25 C293.68 216.25 294.67 216.25 295.69 216.25 C296.03 215.07 296.03 215.07 296.38 213.88 C298.03 210.57 299.35 210.53 302.69 209.25 C302.85 208.59 303.02 207.93 303.19 207.25 C303.35 206.59 303.52 205.93 303.69 205.25 C304.49 204.94 305.3 204.63 306.12 204.31 C308.94 203.5 308.94 203.5 309.75 200.69 C310.06 199.88 310.37 199.08 310.69 198.25 C312.02 197.92 313.35 197.58 314.69 197.25 C315 196.45 315.31 195.64 315.62 194.81 C316.69 192.25 316.69 192.25 319.25 191.19 C320.05 190.88 320.86 190.57 321.69 190.25 C322.43 188.28 322.43 188.28 322.69 186.25 C323.35 185.59 324.01 184.93 324.69 184.25 C325.68 184.25 326.67 184.25 327.69 184.25 C328.03 183.07 328.03 183.07 328.38 181.88 C330.03 178.57 331.35 178.53 334.69 177.25 C334.85 176.59 335.02 175.93 335.19 175.25 C335.35 174.59 335.52 173.93 335.69 173.25 C336.49 172.94 337.3 172.63 338.12 172.31 C340.94 171.5 340.94 171.5 341.75 168.69 C342.06 167.88 342.37 167.08 342.69 166.25 C344.02 165.92 345.35 165.58 346.69 165.25 C347 164.45 347.31 163.64 347.62 162.81 C348.69 160.25 348.69 160.25 351.25 159.19 C352.05 158.88 352.86 158.57 353.69 158.25 C354.43 156.28 354.43 156.28 354.69 154.25 C355.35 153.59 356.01 152.93 356.69 152.25 C357.68 152.25 358.67 152.25 359.69 152.25 C360.03 151.07 360.03 151.07 360.38 149.88 C362.03 146.57 363.35 146.53 366.69 145.25 C366.85 144.59 367.02 143.93 367.19 143.25 C367.35 142.59 367.52 141.93 367.69 141.25 C368.49 140.94 369.3 140.63 370.12 140.31 C372.94 139.5 372.94 139.5 373.75 136.69 C374.06 135.88 374.37 135.08 374.69 134.25 C376.02 133.92 377.35 133.58 378.69 133.25 C379 132.45 379.31 131.64 379.62 130.81 C380.69 128.25 380.69 128.25 383.25 127.19 C384.05 126.88 384.86 126.57 385.69 126.25 C386.43 124.28 386.43 124.28 386.69 122.25 C387.35 121.59 388.01 120.93 388.69 120.25 C389.68 120.25 390.67 120.25 391.69 120.25 C392.03 119.07 392.03 119.07 392.38 117.88 C394.03 114.57 395.35 114.53 398.69 113.25 C398.85 112.59 399.02 111.93 399.19 111.25 C399.35 110.59 399.52 109.93 399.69 109.25 C400.49 108.94 401.3 108.63 402.12 108.31 C404.94 107.5 404.94 107.5 405.75 104.69 C406.21 103.48 406.21 103.48 406.69 102.25 C408.02 101.92 409.35 101.58 410.69 101.25 C411.15 100.04 411.15 100.04 411.62 98.81 C412.69 96.25 412.69 96.25 415.25 95.19 C416.05 94.88 416.86 94.57 417.69 94.25 C418.43 92.28 418.43 92.28 418.69 90.25 C419.35 89.59 420.01 88.93 420.69 88.25 C421.68 88.25 422.67 88.25 423.69 88.25 C424.03 87.07 424.03 87.07 424.38 85.88 C426.03 82.57 427.35 82.53 430.69 81.25 C430.85 80.59 431.02 79.93 431.19 79.25 C431.35 78.59 431.52 77.93 431.69 77.25 C432.49 76.94 433.3 76.63 434.12 76.31 C436.94 75.5 436.94 75.5 437.75 72.69 C438.21 71.48 438.21 71.48 438.69 70.25 C440.02 69.92 441.35 69.58 442.69 69.25 C443.15 68.04 443.15 68.04 443.62 66.81 C444.69 64.25 444.69 64.25 447.25 63.19 C448.05 62.88 448.86 62.57 449.69 62.25 C450.43 60.28 450.43 60.28 450.69 58.25 C451.35 57.59 452.01 56.93 452.69 56.25 C453.68 56.25 454.67 56.25 455.69 56.25 C455.91 55.47 456.14 54.68 456.38 53.88 C458.03 50.57 459.35 50.53 462.69 49.25 C462.85 48.59 463.02 47.93 463.19 47.25 C463.35 46.59 463.52 45.93 463.69 45.25 C464.49 44.94 465.3 44.63 466.12 44.31 C468.94 43.5 468.94 43.5 469.75 40.69 C470.06 39.88 470.37 39.08 470.69 38.25 C472.02 37.92 473.35 37.58 474.69 37.25 C475 36.45 475.31 35.64 475.62 34.81 C476.69 32.25 476.69 32.25 479.25 31.19 C480.05 30.88 480.86 30.57 481.69 30.25 C482.43 28.28 482.43 28.28 482.69 26.25 C483.35 25.59 484.01 24.93 484.69 24.25 C485.68 24.25 486.67 24.25 487.69 24.25 C487.93 23.47 488.18 22.68 488.44 21.88 C489.9 18.81 490.74 18.63 493.69 17.25 C493.98 16.61 494.26 15.97 494.56 15.31 C496.21 12.29 498.62 11.69 501.69 10.25 C502.45 9.57 503.21 8.89 504 8.19 C507.2 5.88 509.79 5.46 513.61 4.75 C516.17 4.13 517.7 2.94 519.69 1.25 C524.07 -0.13 528.45 0.03 533 0 C533.83 -0.02 534.66 -0.04 535.51 -0.06 C541.05 -0.1 544.74 0.77 549.69 3.25 C550.68 3.58 551.67 3.91 552.69 4.25 C556.17 5.41 559.39 6.63 562.69 8.25 C563.02 9.24 563.35 10.23 563.69 11.25 C564.8 11.4 564.8 11.4 565.94 11.56 C574.34 13.67 580.17 23.12 584.44 30.12 C585.06 31.18 585.06 31.18 585.69 32.25 C586.35 32.91 587.01 33.57 587.69 34.25 C588.26 36.53 588.75 38.82 589.19 41.12 C589.99 45.83 589.99 45.83 591.76 50.2 C593.21 53.41 593.02 56.67 593 60.12 C593.02 60.82 593.03 61.51 593.05 62.23 C593.05 67.06 591.96 70.06 589.69 74.25 C589.06 77.04 589.06 77.04 588.75 79.81 C587.99 84.44 586.96 86.79 583.69 90.25 C582.39 92.27 581.16 94.32 579.93 96.38 C578.68 98.27 577.33 99.7 575.69 101.25 C575.01 101.95 574.33 102.65 573.62 103.38 C571.69 105.25 571.69 105.25 569.69 106.25 C568.98 107.49 568.98 107.49 568.25 108.75 C566.69 111.25 566.69 111.25 563.69 112.25 C563.21 113.05 562.74 113.86 562.25 114.69 C560.53 117.51 559.55 117.86 556.69 119.25 C556.36 119.91 556.03 120.57 555.69 121.25 C554.69 123.25 554.69 123.25 552.75 124.19 C549.98 125.61 549.25 127.61 547.69 130.25 C546.7 130.58 545.71 130.91 544.69 131.25 C543.98 132.46 543.98 132.46 543.25 133.69 C541.51 136.54 540.56 136.81 537.69 138.25 C536.68 139.91 535.67 141.58 534.69 143.25 C533.7 143.58 532.71 143.91 531.69 144.25 C530.98 145.46 530.98 145.46 530.25 146.69 C528.53 149.51 527.55 149.86 524.69 151.25 C524.36 151.91 524.03 152.57 523.69 153.25 C522.69 155.25 522.69 155.25 520.75 156.19 C517.98 157.61 517.25 159.61 515.69 162.25 C514.7 162.58 513.71 162.91 512.69 163.25 C511.98 164.46 511.98 164.46 511.25 165.69 C509.51 168.54 508.56 168.81 505.69 170.25 C504.68 171.91 503.67 173.58 502.69 175.25 C501.7 175.58 500.71 175.91 499.69 176.25 C498.98 177.46 498.98 177.46 498.25 178.69 C496.53 181.51 495.55 181.86 492.69 183.25 C492.36 183.91 492.03 184.57 491.69 185.25 C490.69 187.25 490.69 187.25 488.75 188.19 C485.98 189.61 485.25 191.61 483.69 194.25 C482.7 194.58 481.71 194.91 480.69 195.25 C479.98 196.46 479.98 196.46 479.25 197.69 C477.51 200.54 476.56 200.81 473.69 202.25 C472.68 203.91 471.67 205.58 470.69 207.25 C469.7 207.58 468.71 207.91 467.69 208.25 C466.98 209.46 466.98 209.46 466.25 210.69 C464.53 213.51 463.55 213.86 460.69 215.25 C460.36 215.91 460.03 216.57 459.69 217.25 C458.69 219.25 458.69 219.25 456.75 220.19 C453.98 221.61 453.25 223.61 451.69 226.25 C450.7 226.58 449.71 226.91 448.69 227.25 C447.98 228.46 447.98 228.46 447.25 229.69 C445.51 232.54 444.56 232.81 441.69 234.25 C440.68 235.91 439.67 237.58 438.69 239.25 C437.7 239.58 436.71 239.91 435.69 240.25 C434.98 241.46 434.98 241.46 434.25 242.69 C432.53 245.51 431.55 245.86 428.69 247.25 C428.36 247.91 428.03 248.57 427.69 249.25 C426.69 251.25 426.69 251.25 424.75 252.19 C421.98 253.61 421.25 255.61 419.69 258.25 C418.7 258.58 417.71 258.91 416.69 259.25 C415.98 260.46 415.98 260.46 415.25 261.69 C413.51 264.54 412.56 264.81 409.69 266.25 C408.68 267.91 407.67 269.58 406.69 271.25 C405.7 271.58 404.71 271.91 403.69 272.25 C402.98 273.46 402.98 273.46 402.25 274.69 C400.53 277.51 399.55 277.86 396.69 279.25 C396.36 279.91 396.03 280.57 395.69 281.25 C394.69 283.25 394.69 283.25 392.75 284.19 C389.98 285.61 389.25 287.61 387.69 290.25 C386.7 290.58 385.71 290.91 384.69 291.25 C383.98 292.46 383.98 292.46 383.25 293.69 C381.51 296.54 380.56 296.81 377.69 298.25 C376.68 299.91 375.67 301.58 374.69 303.25 C373.7 303.58 372.71 303.91 371.69 304.25 C370.98 305.46 370.98 305.46 370.25 306.69 C368.53 309.51 367.55 309.86 364.69 311.25 C364.36 311.91 364.03 312.57 363.69 313.25 C362.69 315.25 362.69 315.25 360.75 316.19 C357.98 317.61 357.25 319.61 355.69 322.25 C354.7 322.58 353.71 322.91 352.69 323.25 C351.98 324.46 351.98 324.46 351.25 325.69 C349.51 328.54 348.56 328.81 345.69 330.25 C344.68 331.91 343.67 333.58 342.69 335.25 C341.7 335.58 340.71 335.91 339.69 336.25 C338.98 337.46 338.98 337.46 338.25 338.69 C336.53 341.51 335.55 341.86 332.69 343.25 C332.36 343.91 332.03 344.57 331.69 345.25 C330.69 347.25 330.69 347.25 328.75 348.19 C325.98 349.61 325.25 351.61 323.69 354.25 C322.7 354.58 321.71 354.91 320.69 355.25 C319.98 356.46 319.98 356.46 319.25 357.69 C317.51 360.54 316.56 360.81 313.69 362.25 C312.68 363.91 311.67 365.58 310.69 367.25 C309.7 367.58 308.71 367.91 307.69 368.25 C307.13 368.99 306.57 369.74 306 370.5 C300.1 377.52 291.16 380.43 282.69 383.25 C281.66 383.76 280.62 384.27 279.56 384.79 C275.27 386.64 271.3 386.69 266.69 386.62 C265.92 386.64 265.15 386.65 264.36 386.66 C259.12 386.63 255.47 385.55 250.69 383.25 C247.59 382.19 244.48 381.2 241.36 380.21 C238.69 379.25 238.69 379.25 235.69 377.25 C235.69 376.59 235.69 375.93 235.69 375.25 C234.78 375.02 233.87 374.8 232.94 374.56 C229.17 373.04 228.1 371.44 225.69 368.25 C224.02 367.24 222.36 366.24 220.69 365.25 C220.36 364.26 220.03 363.27 219.69 362.25 C218.45 361.54 218.45 361.54 217.19 360.81 C214.69 359.25 214.69 359.25 214.19 357.19 C214.02 356.55 213.86 355.91 213.69 355.25 C212.03 354.57 210.36 353.9 208.69 353.25 C208 351.93 207.34 350.59 206.69 349.25 C205.84 348.75 205 348.26 204.12 347.75 C201.69 346.25 201.69 346.25 201.19 344.19 C201.02 343.55 200.86 342.91 200.69 342.25 C199.03 341.57 197.36 340.9 195.69 340.25 C195 338.93 194.34 337.59 193.69 336.25 C192.03 335.24 190.36 334.24 188.69 333.25 C188.36 332.26 188.03 331.27 187.69 330.25 C186.86 329.78 186.04 329.3 185.19 328.81 C182.69 327.25 182.69 327.25 182.19 325.19 C182.02 324.55 181.86 323.91 181.69 323.25 C180.03 322.57 178.36 321.9 176.69 321.25 C176 319.93 175.34 318.59 174.69 317.25 C173.84 316.75 173 316.26 172.12 315.75 C169.69 314.25 169.69 314.25 169.19 312.19 C169.02 311.55 168.86 310.91 168.69 310.25 C167.03 309.57 165.36 308.9 163.69 308.25 C163 306.93 162.34 305.59 161.69 304.25 C160.03 303.24 158.36 302.24 156.69 301.25 C156.36 300.26 156.03 299.27 155.69 298.25 C154.86 297.78 154.04 297.3 153.19 296.81 C150.69 295.25 150.69 295.25 150.19 293.19 C150.02 292.55 149.86 291.91 149.69 291.25 C148.03 290.57 146.36 289.9 144.69 289.25 C144 287.93 143.34 286.59 142.69 285.25 C141.84 284.75 141 284.26 140.12 283.75 C137.69 282.25 137.69 282.25 137.19 280.19 C137.02 279.55 136.86 278.91 136.69 278.25 C135.03 277.57 133.36 276.9 131.69 276.25 C131 274.93 130.34 273.59 129.69 272.25 C128.03 271.24 126.36 270.24 124.69 269.25 C124.36 268.26 124.03 267.27 123.69 266.25 C122.86 265.78 122.04 265.3 121.19 264.81 C118.69 263.25 118.69 263.25 118.19 261.19 C118.02 260.55 117.86 259.91 117.69 259.25 C116.03 258.57 114.36 257.9 112.69 257.25 C112 255.93 111.34 254.59 110.69 253.25 C109.84 252.75 109 252.26 108.12 251.75 C105.69 250.25 105.69 250.25 105.19 248.19 C105.02 247.55 104.86 246.91 104.69 246.25 C103.03 245.57 101.36 244.9 99.69 244.25 C99 242.93 98.34 241.59 97.69 240.25 C96.03 239.24 94.36 238.24 92.69 237.25 C92.36 236.26 92.03 235.27 91.69 234.25 C90.86 233.78 90.04 233.3 89.19 232.81 C86.69 231.25 86.69 231.25 86.19 229.19 C86.02 228.55 85.86 227.91 85.69 227.25 C84.03 226.57 82.36 225.9 80.69 225.25 C80 223.93 79.34 222.59 78.69 221.25 C77.84 220.75 77 220.26 76.12 219.75 C73.69 218.25 73.69 218.25 73.19 216.19 C73.02 215.55 72.86 214.91 72.69 214.25 C71.03 213.57 69.36 212.9 67.69 212.25 C67 210.93 66.34 209.59 65.69 208.25 C64.03 207.24 62.36 206.24 60.69 205.25 C60.36 204.26 60.03 203.27 59.69 202.25 C58.86 201.78 58.04 201.3 57.19 200.81 C54.69 199.25 54.69 199.25 54.19 197.19 C54.02 196.55 53.86 195.91 53.69 195.25 C52.03 194.57 50.36 193.9 48.69 193.25 C48 191.93 47.34 190.59 46.69 189.25 C45.42 188.51 45.42 188.51 44.12 187.75 C41.69 186.25 41.69 186.25 41.19 184.19 C41.02 183.55 40.86 182.91 40.69 182.25 C39.03 181.57 37.36 180.9 35.69 180.25 C35 178.93 34.34 177.59 33.69 176.25 C32.03 175.24 30.36 174.24 28.69 173.25 C28.36 172.26 28.03 171.27 27.69 170.25 C26.86 169.78 26.04 169.3 25.19 168.81 C22.69 167.25 22.69 167.25 22.19 165.19 C22.02 164.55 21.86 163.91 21.69 163.25 C20.03 162.57 18.36 161.9 16.69 161.25 C16 159.93 15.34 158.59 14.69 157.25 C13.42 156.51 13.42 156.51 12.12 155.75 C9.69 154.25 9.69 154.25 9.19 152.19 C9.02 151.55 8.86 150.91 8.69 150.25 C7.03 149.57 5.36 148.9 3.69 148.25 C3 146.93 2.34 145.59 1.69 144.25 C0.03 143.24 -1.64 142.24 -3.31 141.25 C-3.64 140.26 -3.97 139.27 -4.31 138.25 C-5.14 137.78 -5.96 137.3 -6.81 136.81 C-9.31 135.25 -9.31 135.25 -9.81 133.19 C-10.06 132.23 -10.06 132.23 -10.31 131.25 C-11.97 130.57 -13.64 129.9 -15.31 129.25 C-16 127.93 -16.66 126.59 -17.31 125.25 C-18.16 124.75 -19 124.26 -19.88 123.75 C-22.31 122.25 -22.31 122.25 -22.81 120.19 C-23.06 119.23 -23.06 119.23 -23.31 118.25 C-24.97 117.57 -26.64 116.9 -28.31 116.25 C-29 114.93 -29.66 113.59 -30.31 112.25 C-31.97 111.24 -33.64 110.24 -35.31 109.25 C-35.64 108.26 -35.97 107.27 -36.31 106.25 C-37.12 105.78 -37.92 105.3 -38.75 104.81 C-41.62 103.06 -41.93 102.19 -43.31 99.25 C-44.08 98.51 -44.84 97.76 -45.62 97 C-51.99 90.49 -55.06 83.17 -56.75 74.34 C-57.27 71.97 -57.27 71.97 -59.31 69.25 C-60.57 62.44 -60.91 56.24 -58.27 49.79 C-56.74 45.74 -55.82 41.51 -54.85 37.3 C-53.64 32.47 -53.64 32.47 -50.31 30.25 C-49.19 28.22 -48.3 26.15 -47.38 24.03 C-46.31 22.25 -46.31 22.25 -43.31 21.25 C-42.64 19.92 -41.97 18.59 -41.31 17.25 C-39.47 15.55 -39.47 15.55 -37.38 14 C-36.69 13.48 -36 12.96 -35.29 12.42 C-33.31 11.25 -33.31 11.25 -30.31 11.25 C-30.09 10.62 -29.87 9.99 -29.65 9.35 C-28.31 7.25 -28.31 7.25 -25.85 6.31 C-24.41 6 -24.41 6 -22.94 5.69 C-18.9 4.81 -16.55 3.76 -13.31 1.25 C-8.93 -0.12 -4.55 0.03 0 0 Z " fill="#000000" transform="translate(373.3125,606.75)"/>
<path d="M0 0 C0.83 -0.02 1.66 -0.04 2.51 -0.06 C8.05 -0.1 11.75 0.74 16.69 3.25 C19.62 4.5 22.26 5.39 25.38 6.12 C28.69 7.25 28.69 7.25 29.75 9.25 C30.06 9.91 30.37 10.57 30.69 11.25 C32.68 11.93 34.68 12.6 36.69 13.25 C37.73 14.55 38.73 15.88 39.69 17.25 C40.55 17.75 41.42 18.24 42.31 18.75 C44.69 20.25 44.69 20.25 45.19 22.31 C45.35 22.95 45.52 23.59 45.69 24.25 C46.51 24.58 47.34 24.91 48.19 25.25 C49.01 25.58 49.84 25.91 50.69 26.25 C51.02 27.58 51.35 28.92 51.69 30.25 C53.35 30.93 55.02 31.6 56.69 32.25 C57.37 33.57 58.04 34.91 58.69 36.25 C59.53 36.75 60.38 37.24 61.25 37.75 C63.69 39.25 63.69 39.25 64.19 41.31 C64.35 41.95 64.52 42.59 64.69 43.25 C66.35 43.93 68.02 44.6 69.69 45.25 C70.37 46.57 71.04 47.91 71.69 49.25 C72.53 49.75 73.38 50.24 74.25 50.75 C76.69 52.25 76.69 52.25 77.19 54.31 C77.35 54.95 77.52 55.59 77.69 56.25 C78.51 56.58 79.34 56.91 80.19 57.25 C81.01 57.58 81.84 57.91 82.69 58.25 C83.02 59.58 83.35 60.92 83.69 62.25 C85.35 62.93 87.02 63.6 88.69 64.25 C89.37 65.57 90.04 66.91 90.69 68.25 C91.53 68.75 92.38 69.24 93.25 69.75 C95.69 71.25 95.69 71.25 96.19 73.31 C96.35 73.95 96.52 74.59 96.69 75.25 C98.35 75.93 100.02 76.6 101.69 77.25 C102.37 78.57 103.04 79.91 103.69 81.25 C104.53 81.75 105.38 82.24 106.25 82.75 C108.69 84.25 108.69 84.25 109.19 86.31 C109.35 86.95 109.52 87.59 109.69 88.25 C110.51 88.58 111.34 88.91 112.19 89.25 C113.01 89.58 113.84 89.91 114.69 90.25 C115.02 91.58 115.35 92.92 115.69 94.25 C117.35 94.93 119.02 95.6 120.69 96.25 C121.37 97.57 122.04 98.91 122.69 100.25 C123.53 100.75 124.38 101.24 125.25 101.75 C127.69 103.25 127.69 103.25 128.19 105.31 C128.35 105.95 128.52 106.59 128.69 107.25 C130.35 107.93 132.02 108.6 133.69 109.25 C134.37 110.57 135.04 111.91 135.69 113.25 C136.53 113.75 137.38 114.24 138.25 114.75 C140.69 116.25 140.69 116.25 141.19 118.31 C141.35 118.95 141.52 119.59 141.69 120.25 C142.51 120.58 143.34 120.91 144.19 121.25 C145.01 121.58 145.84 121.91 146.69 122.25 C147.02 123.58 147.35 124.92 147.69 126.25 C149.35 126.93 151.02 127.6 152.69 128.25 C153.37 129.57 154.04 130.91 154.69 132.25 C155.53 132.75 156.38 133.24 157.25 133.75 C159.69 135.25 159.69 135.25 160.19 137.31 C160.35 137.95 160.52 138.59 160.69 139.25 C162.35 139.93 164.02 140.6 165.69 141.25 C166.37 142.57 167.04 143.91 167.69 145.25 C168.53 145.75 169.38 146.24 170.25 146.75 C172.69 148.25 172.69 148.25 173.19 150.31 C173.35 150.95 173.52 151.59 173.69 152.25 C174.51 152.58 175.34 152.91 176.19 153.25 C177.01 153.58 177.84 153.91 178.69 154.25 C179.02 155.58 179.35 156.92 179.69 158.25 C181.35 158.93 183.02 159.6 184.69 160.25 C185.37 161.57 186.04 162.91 186.69 164.25 C187.53 164.75 188.38 165.24 189.25 165.75 C191.69 167.25 191.69 167.25 192.19 169.31 C192.35 169.95 192.52 170.59 192.69 171.25 C194.35 171.93 196.02 172.6 197.69 173.25 C198.37 174.57 199.04 175.91 199.69 177.25 C200.53 177.75 201.38 178.24 202.25 178.75 C204.69 180.25 204.69 180.25 205.19 182.31 C205.35 182.95 205.52 183.59 205.69 184.25 C206.51 184.58 207.34 184.91 208.19 185.25 C209.01 185.58 209.84 185.91 210.69 186.25 C211.02 187.58 211.35 188.92 211.69 190.25 C213.35 190.93 215.02 191.6 216.69 192.25 C217.37 193.57 218.04 194.91 218.69 196.25 C219.53 196.75 220.38 197.24 221.25 197.75 C223.69 199.25 223.69 199.25 224.19 201.31 C224.35 201.95 224.52 202.59 224.69 203.25 C226.35 203.93 228.02 204.6 229.69 205.25 C230.37 206.57 231.04 207.91 231.69 209.25 C232.53 209.75 233.38 210.24 234.25 210.75 C236.69 212.25 236.69 212.25 237.19 214.31 C237.35 214.95 237.52 215.59 237.69 216.25 C238.51 216.58 239.34 216.91 240.19 217.25 C241.01 217.58 241.84 217.91 242.69 218.25 C243.02 219.58 243.35 220.92 243.69 222.25 C245.35 222.93 247.02 223.6 248.69 224.25 C249.37 225.57 250.04 226.91 250.69 228.25 C251.53 228.75 252.38 229.24 253.25 229.75 C255.69 231.25 255.69 231.25 256.19 233.31 C256.35 233.95 256.52 234.59 256.69 235.25 C257.51 235.58 258.34 235.91 259.19 236.25 C260.01 236.58 260.84 236.91 261.69 237.25 C262.5 239.38 262.5 239.38 262.69 241.25 C265.33 241.25 267.97 241.25 270.69 241.25 C270.75 240.63 270.81 240.01 270.88 239.38 C271.14 238.67 271.41 237.97 271.69 237.25 C272.49 236.94 273.3 236.63 274.12 236.31 C276.94 235.5 276.94 235.5 277.75 232.69 C278.06 231.88 278.37 231.08 278.69 230.25 C280.02 229.92 281.35 229.58 282.69 229.25 C283 228.45 283.31 227.64 283.62 226.81 C284.69 224.25 284.69 224.25 287.25 223.19 C288.05 222.88 288.86 222.57 289.69 222.25 C290.43 220.28 290.43 220.28 290.69 218.25 C291.35 217.59 292.01 216.93 292.69 216.25 C293.68 216.25 294.67 216.25 295.69 216.25 C296.03 215.07 296.03 215.07 296.38 213.88 C298.03 210.57 299.35 210.53 302.69 209.25 C302.85 208.59 303.02 207.93 303.19 207.25 C303.35 206.59 303.52 205.93 303.69 205.25 C304.49 204.94 305.3 204.63 306.12 204.31 C308.94 203.5 308.94 203.5 309.75 200.69 C310.06 199.88 310.37 199.08 310.69 198.25 C312.02 197.92 313.35 197.58 314.69 197.25 C315 196.45 315.31 195.64 315.62 194.81 C316.69 192.25 316.69 192.25 319.25 191.19 C320.05 190.88 320.86 190.57 321.69 190.25 C322.43 188.28 322.43 188.28 322.69 186.25 C323.35 185.59 324.01 184.93 324.69 184.25 C325.68 184.25 326.67 184.25 327.69 184.25 C328.03 183.07 328.03 183.07 328.38 181.88 C330.03 178.57 331.35 178.53 334.69 177.25 C334.85 176.59 335.02 175.93 335.19 175.25 C335.35 174.59 335.52 173.93 335.69 173.25 C336.49 172.94 337.3 172.63 338.12 172.31 C340.94 171.5 340.94 171.5 341.75 168.69 C342.06 167.88 342.37 167.08 342.69 166.25 C344.02 165.92 345.35 165.58 346.69 165.25 C347 164.45 347.31 163.64 347.62 162.81 C348.69 160.25 348.69 160.25 351.25 159.19 C352.05 158.88 352.86 158.57 353.69 158.25 C354.43 156.28 354.43 156.28 354.69 154.25 C355.35 153.59 356.01 152.93 356.69 152.25 C357.68 152.25 358.67 152.25 359.69 152.25 C360.03 151.07 360.03 151.07 360.38 149.88 C362.03 146.57 363.35 146.53 366.69 145.25 C366.85 144.59 367.02 143.93 367.19 143.25 C367.35 142.59 367.52 141.93 367.69 141.25 C368.49 140.94 369.3 140.63 370.12 140.31 C372.94 139.5 372.94 139.5 373.75 136.69 C374.06 135.88 374.37 135.08 374.69 134.25 C376.02 133.92 377.35 133.58 378.69 133.25 C379 132.45 379.31 131.64 379.62 130.81 C380.69 128.25 380.69 128.25 383.25 127.19 C384.05 126.88 384.86 126.57 385.69 126.25 C386.43 124.28 386.43 124.28 386.69 122.25 C387.35 121.59 388.01 120.93 388.69 120.25 C389.68 120.25 390.67 120.25 391.69 120.25 C392.03 119.07 392.03 119.07 392.38 117.88 C394.03 114.57 395.35 114.53 398.69 113.25 C398.85 112.59 399.02 111.93 399.19 111.25 C399.35 110.59 399.52 109.93 399.69 109.25 C400.49 108.94 401.3 108.63 402.12 108.31 C404.94 107.5 404.94 107.5 405.75 104.69 C406.21 103.48 406.21 103.48 406.69 102.25 C408.02 101.92 409.35 101.58 410.69 101.25 C411.15 100.04 411.15 100.04 411.62 98.81 C412.69 96.25 412.69 96.25 415.25 95.19 C416.05 94.88 416.86 94.57 417.69 94.25 C418.43 92.28 418.43 92.28 418.69 90.25 C419.35 89.59 420.01 88.93 420.69 88.25 C421.68 88.25 422.67 88.25 423.69 88.25 C424.03 87.07 424.03 87.07 424.38 85.88 C426.03 82.57 427.35 82.53 430.69 81.25 C430.85 80.59 431.02 79.93 431.19 79.25 C431.35 78.59 431.52 77.93 431.69 77.25 C432.49 76.94 433.3 76.63 434.12 76.31 C436.94 75.5 436.94 75.5 437.75 72.69 C438.21 71.48 438.21 71.48 438.69 70.25 C440.02 69.92 441.35 69.58 442.69 69.25 C443.15 68.04 443.15 68.04 443.62 66.81 C444.69 64.25 444.69 64.25 447.25 63.19 C448.05 62.88 448.86 62.57 449.69 62.25 C450.43 60.28 450.43 60.28 450.69 58.25 C451.35 57.59 452.01 56.93 452.69 56.25 C453.68 56.25 454.67 56.25 455.69 56.25 C455.91 55.47 456.14 54.68 456.38 53.88 C458.03 50.57 459.35 50.53 462.69 49.25 C462.85 48.59 463.02 47.93 463.19 47.25 C463.35 46.59 463.52 45.93 463.69 45.25 C464.49 44.94 465.3 44.63 466.12 44.31 C468.94 43.5 468.94 43.5 469.75 40.69 C470.06 39.88 470.37 39.08 470.69 38.25 C472.02 37.92 473.35 37.58 474.69 37.25 C475 36.45 475.31 35.64 475.62 34.81 C476.69 32.25 476.69 32.25 479.25 31.19 C480.05 30.88 480.86 30.57 481.69 30.25 C482.43 28.28 482.43 28.28 482.69 26.25 C483.35 25.59 484.01 24.93 484.69 24.25 C485.68 24.25 486.67 24.25 487.69 24.25 C487.93 23.47 488.18 22.68 488.44 21.88 C489.9 18.81 490.74 18.63 493.69 17.25 C493.98 16.61 494.26 15.97 494.56 15.31 C496.21 12.29 498.62 11.69 501.69 10.25 C502.45 9.57 503.21 8.89 504 8.19 C507.2 5.88 509.79 5.46 513.61 4.75 C516.17 4.13 517.7 2.94 519.69 1.25 C524.07 -0.13 528.45 0.03 533 0 C533.83 -0.02 534.66 -0.04 535.51 -0.06 C541.05 -0.1 544.74 0.77 549.69 3.25 C550.68 3.58 551.67 3.91 552.69 4.25 C556.17 5.41 559.39 6.63 562.69 8.25 C563.02 9.24 563.35 10.23 563.69 11.25 C564.8 11.4 564.8 11.4 565.94 11.56 C574.34 13.67 580.17 23.12 584.44 30.12 C585.06 31.18 585.06 31.18 585.69 32.25 C586.35 32.91 587.01 33.57 587.69 34.25 C588.26 36.53 588.75 38.82 589.19 41.12 C589.99 45.83 589.99 45.83 591.76 50.2 C593.21 53.41 593.02 56.67 593 60.12 C593.02 60.82 593.03 61.51 593.05 62.23 C593.05 67.06 591.96 70.06 589.69 74.25 C589.06 77.04 589.06 77.04 588.75 79.81 C587.99 84.44 586.96 86.79 583.69 90.25 C582.39 92.27 581.16 94.32 579.93 96.38 C578.68 98.27 577.33 99.7 575.69 101.25 C575.01 101.95 574.33 102.65 573.62 103.38 C571.69 105.25 571.69 105.25 569.69 106.25 C568.98 107.49 568.98 107.49 568.25 108.75 C566.69 111.25 566.69 111.25 563.69 112.25 C563.21 113.05 562.74 113.86 562.25 114.69 C560.53 117.51 559.55 117.86 556.69 119.25 C556.36 119.91 556.03 120.57 555.69 121.25 C554.69 123.25 554.69 123.25 552.75 124.19 C549.98 125.61 549.25 127.61 547.69 130.25 C546.7 130.58 545.71 130.91 544.69 131.25 C543.98 132.46 543.98 132.46 543.25 133.69 C541.51 136.54 540.56 136.81 537.69 138.25 C536.68 139.91 535.67 141.58 534.69 143.25 C533.7 143.58 532.71 143.91 531.69 144.25 C530.98 145.46 530.98 145.46 530.25 146.69 C528.53 149.51 527.55 149.86 524.69 151.25 C524.36 151.91 524.03 152.57 523.69 153.25 C522.69 155.25 522.69 155.25 520.75 156.19 C517.98 157.61 517.25 159.61 515.69 162.25 C514.7 162.58 513.71 162.91 512.69 163.25 C511.98 164.46 511.98 164.46 511.25 165.69 C509.51 168.54 508.56 168.81 505.69 170.25 C504.68 171.91 503.67 173.58 502.69 175.25 C501.7 175.58 500.71 175.91 499.69 176.25 C498.98 177.46 498.98 177.46 498.25 178.69 C496.53 181.51 495.55 181.86 492.69 183.25 C492.36 183.91 492.03 184.57 491.69 185.25 C490.69 187.25 490.69 187.25 488.75 188.19 C485.98 189.61 485.25 191.61 483.69 194.25 C482.7 194.58 481.71 194.91 480.69 195.25 C479.98 196.46 479.98 196.46 479.25 197.69 C477.51 200.54 476.56 200.81 473.69 202.25 C472.68 203.91 471.67 205.58 470.69 207.25 C469.7 207.58 468.71 207.91 467.69 208.25 C466.98 209.46 466.98 209.46 466.25 210.69 C464.53 213.51 463.55 213.86 460.69 215.25 C460.36 215.91 460.03 216.57 459.69 217.25 C458.69 219.25 458.69 219.25 456.75 220.19 C453.98 221.61 453.25 223.61 451.69 226.25 C450.7 226.58 449.71 226.91 448.69 227.25 C447.98 228.46 447.98 228.46 447.25 229.69 C445.51 232.54 444.56 232.81 441.69 234.25 C440.68 235.91 439.67 237.58 438.69 239.25 C437.7 239.58 436.71 239.91 435.69 240.25 C434.98 241.46 434.98 241.46 434.25 242.69 C432.53 245.51 431.55 245.86 428.69 247.25 C428.36 247.91 428.03 248.57 427.69 249.25 C426.69 251.25 426.69 251.25 424.75 252.19 C421.98 253.61 421.25 255.61 419.69 258.25 C418.7 258.58 417.71 258.91 416.69 259.25 C415.98 260.46 415.98 260.46 415.25 261.69 C413.51 264.54 412.56 264.81 409.69 266.25 C408.68 267.91 407.67 269.58 406.69 271.25 C405.7 271.58 404.71 271.91 403.69 272.25 C402.98 273.46 402.98 273.46 402.25 274.69 C400.53 277.51 399.55 277.86 396.69 279.25 C396.36 279.91 396.03 280.57 395.69 281.25 C394.69 283.25 394.69 283.25 392.75 284.19 C389.98 285.61 389.25 287.61 387.69 290.25 C386.7 290.58 385.71 290.91 384.69 291.25 C383.98 292.46 383.98 292.46 383.25 293.69 C381.51 296.54 380.56 296.81 377.69 298.25 C376.68 299.91 375.67 301.58 374.69 303.25 C373.7 303.58 372.71 303.91 371.69 304.25 C370.98 305.46 370.98 305.46 370.25 306.69 C368.53 309.51 367.55 309.86 364.69 311.25 C364.36 311.91 364.03 312.57 363.69 313.25 C362.69 315.25 362.69 315.25 360.75 316.19 C357.98 317.61 357.25 319.61 355.69 322.25 C354.7 322.58 353.71 322.91 352.69 323.25 C351.98 324.46 351.98 324.46 351.25 325.69 C349.51 328.54 348.56 328.81 345.69 330.25 C344.68 331.91 343.67 333.58 342.69 335.25 C341.7 335.58 340.71 335.91 339.69 336.25 C338.98 337.46 338.98 337.46 338.25 338.69 C336.53 341.51 335.55 341.86 332.69 343.25 C332.36 343.91 332.03 344.57 331.69 345.25 C330.69 347.25 330.69 347.25 328.75 348.19 C325.98 349.61 325.25 351.61 323.69 354.25 C322.7 354.58 321.71 354.91 320.69 355.25 C319.98 356.46 319.98 356.46 319.25 357.69 C317.51 360.54 316.56 360.81 313.69 362.25 C312.68 363.91 311.67 365.58 310.69 367.25 C309.7 367.58 308.71 367.91 307.69 368.25 C307.13 368.99 306.57 369.74 306 370.5 C300.12 377.49 291.15 380.49 282.69 383.25 C281.59 383.79 280.5 384.32 279.38 384.88 C275.02 386.53 270.73 386.58 266.12 386.62 C265.4 386.64 264.68 386.65 263.94 386.67 C258.88 386.62 255.31 385.46 250.69 383.25 C247.59 382.19 244.48 381.2 241.36 380.21 C238.69 379.25 238.69 379.25 235.69 377.25 C235.69 376.59 235.69 375.93 235.69 375.25 C234.78 375.02 233.87 374.8 232.94 374.56 C229.17 373.04 228.1 371.44 225.69 368.25 C224.02 367.24 222.36 366.24 220.69 365.25 C220.36 364.26 220.03 363.27 219.69 362.25 C218.45 361.54 218.45 361.54 217.19 360.81 C214.69 359.25 214.69 359.25 214.19 357.19 C214.02 356.55 213.86 355.91 213.69 355.25 C212.03 354.57 210.36 353.9 208.69 353.25 C208 351.93 207.34 350.59 206.69 349.25 C205.84 348.75 205 348.26 204.12 347.75 C201.69 346.25 201.69 346.25 201.19 344.19 C201.02 343.55 200.86 342.91 200.69 342.25 C199.03 341.57 197.36 340.9 195.69 340.25 C195 338.93 194.34 337.59 193.69 336.25 C192.03 335.24 190.36 334.24 188.69 333.25 C188.36 332.26 188.03 331.27 187.69 330.25 C186.86 329.78 186.04 329.3 185.19 328.81 C182.69 327.25 182.69 327.25 182.19 325.19 C182.02 324.55 181.86 323.91 181.69 323.25 C180.03 322.57 178.36 321.9 176.69 321.25 C176 319.93 175.34 318.59 174.69 317.25 C173.84 316.75 173 316.26 172.12 315.75 C169.69 314.25 169.69 314.25 169.19 312.19 C169.02 311.55 168.86 310.91 168.69 310.25 C167.03 309.57 165.36 308.9 163.69 308.25 C163 306.93 162.34 305.59 161.69 304.25 C160.03 303.24 158.36 302.24 156.69 301.25 C156.36 300.26 156.03 299.27 155.69 298.25 C154.86 297.78 154.04 297.3 153.19 296.81 C150.69 295.25 150.69 295.25 150.19 293.19 C150.02 292.55 149.86 291.91 149.69 291.25 C148.03 290.57 146.36 289.9 144.69 289.25 C144 287.93 143.34 286.59 142.69 285.25 C141.84 284.75 141 284.26 140.12 283.75 C137.69 282.25 137.69 282.25 137.19 280.19 C137.02 279.55 136.86 278.91 136.69 278.25 C135.03 277.57 133.36 276.9 131.69 276.25 C131 274.93 130.34 273.59 129.69 272.25 C128.03 271.24 126.36 270.24 124.69 269.25 C124.36 268.26 124.03 267.27 123.69 266.25 C122.86 265.78 122.04 265.3 121.19 264.81 C118.69 263.25 118.69 263.25 118.19 261.19 C118.02 260.55 117.86 259.91 117.69 259.25 C116.03 258.57 114.36 257.9 112.69 257.25 C112 255.93 111.34 254.59 110.69 253.25 C109.84 252.75 109 252.26 108.12 251.75 C105.69 250.25 105.69 250.25 105.19 248.19 C105.02 247.55 104.86 246.91 104.69 246.25 C103.03 245.57 101.36 244.9 99.69 244.25 C99 242.93 98.34 241.59 97.69 240.25 C96.03 239.24 94.36 238.24 92.69 237.25 C92.36 236.26 92.03 235.27 91.69 234.25 C90.86 233.78 90.04 233.3 89.19 232.81 C86.69 231.25 86.69 231.25 86.19 229.19 C86.02 228.55 85.86 227.91 85.69 227.25 C84.03 226.57 82.36 225.9 80.69 225.25 C80 223.93 79.34 222.59 78.69 221.25 C77.84 220.75 77 220.26 76.12 219.75 C73.69 218.25 73.69 218.25 73.19 216.19 C73.02 215.55 72.86 214.91 72.69 214.25 C71.03 213.57 69.36 212.9 67.69 212.25 C67 210.93 66.34 209.59 65.69 208.25 C64.03 207.24 62.36 206.24 60.69 205.25 C60.36 204.26 60.03 203.27 59.69 202.25 C58.86 201.78 58.04 201.3 57.19 200.81 C54.69 199.25 54.69 199.25 54.19 197.19 C54.02 196.55 53.86 195.91 53.69 195.25 C52.03 194.57 50.36 193.9 48.69 193.25 C48 191.93 47.34 190.59 46.69 189.25 C45.42 188.51 45.42 188.51 44.12 187.75 C41.69 186.25 41.69 186.25 41.19 184.19 C41.02 183.55 40.86 182.91 40.69 182.25 C39.03 181.57 37.36 180.9 35.69 180.25 C35 178.93 34.34 177.59 33.69 176.25 C32.03 175.24 30.36 174.24 28.69 173.25 C28.36 172.26 28.03 171.27 27.69 170.25 C26.86 169.78 26.04 169.3 25.19 168.81 C22.69 167.25 22.69 167.25 22.19 165.19 C22.02 164.55 21.86 163.91 21.69 163.25 C20.03 162.57 18.36 161.9 16.69 161.25 C16 159.93 15.34 158.59 14.69 157.25 C13.42 156.51 13.42 156.51 12.12 155.75 C9.69 154.25 9.69 154.25 9.19 152.19 C9.02 151.55 8.86 150.91 8.69 150.25 C7.03 149.57 5.36 148.9 3.69 148.25 C3 146.93 2.34 145.59 1.69 144.25 C0.03 143.24 -1.64 142.24 -3.31 141.25 C-3.64 140.26 -3.97 139.27 -4.31 138.25 C-5.14 137.78 -5.96 137.3 -6.81 136.81 C-9.31 135.25 -9.31 135.25 -9.81 133.19 C-10.06 132.23 -10.06 132.23 -10.31 131.25 C-11.97 130.57 -13.64 129.9 -15.31 129.25 C-16 127.93 -16.66 126.59 -17.31 125.25 C-18.16 124.75 -19 124.26 -19.88 123.75 C-22.31 122.25 -22.31 122.25 -22.81 120.19 C-23.06 119.23 -23.06 119.23 -23.31 118.25 C-24.97 117.57 -26.64 116.9 -28.31 116.25 C-29 114.93 -29.66 113.59 -30.31 112.25 C-31.97 111.24 -33.64 110.24 -35.31 109.25 C-35.64 108.26 -35.97 107.27 -36.31 106.25 C-37.12 105.78 -37.92 105.3 -38.75 104.81 C-41.62 103.06 -41.93 102.19 -43.31 99.25 C-44.08 98.51 -44.84 97.76 -45.62 97 C-51.99 90.49 -55.06 83.17 -56.75 74.34 C-57.27 71.97 -57.27 71.97 -59.31 69.25 C-60.57 62.44 -60.91 56.24 -58.27 49.79 C-56.74 45.74 -55.82 41.51 -54.85 37.3 C-53.64 32.47 -53.64 32.47 -50.31 30.25 C-49.19 28.22 -48.3 26.15 -47.38 24.03 C-46.31 22.25 -46.31 22.25 -43.31 21.25 C-42.64 19.92 -41.97 18.59 -41.31 17.25 C-39.47 15.55 -39.47 15.55 -37.38 14 C-36.69 13.48 -36 12.96 -35.29 12.42 C-33.31 11.25 -33.31 11.25 -30.31 11.25 C-30.09 10.62 -29.87 9.99 -29.65 9.35 C-28.31 7.25 -28.31 7.25 -25.85 6.31 C-24.41 6 -24.41 6 -22.94 5.69 C-18.9 4.81 -16.55 3.76 -13.31 1.25 C-8.93 -0.12 -4.55 0.03 0 0 Z " fill="#000000" transform="translate(373.3125,286.75)"/>
</svg>
