<svg width="20" height="20" viewBox="0 0 20 20" fill="none" xmlns="http://www.w3.org/2000/svg">
<path d="M6.61418 20C6.12621 19.9971 5.6524 19.8357 5.26419 19.54L3.19419 18C2.7165 17.6276 2.39954 17.0863 2.30841 16.4875C2.21729 15.8887 2.35891 15.2777 2.70419 14.78C2.88687 14.5102 3.00298 14.201 3.04296 13.8777C3.08294 13.5543 3.04566 13.2261 2.93419 12.92L2.87419 12.76C2.79656 12.4829 2.65469 12.228 2.46009 12.0161C2.26549 11.8041 2.02364 11.641 1.75419 11.54H1.59419C1.01006 11.3436 0.526995 10.9247 0.249894 10.3742C-0.0272063 9.82374 -0.0759726 9.1862 0.114185 8.6L0.934185 6C1.00967 5.69876 1.14864 5.41713 1.3418 5.17396C1.53496 4.93078 1.77784 4.73169 2.05419 4.59C2.31154 4.4574 2.59312 4.3784 2.88188 4.35777C3.17065 4.33715 3.4606 4.37533 3.73419 4.47C4.03207 4.57025 4.34993 4.59624 4.66014 4.5457C4.97035 4.49516 5.26353 4.36962 5.51419 4.18L5.64419 4.08C5.87108 3.89895 6.05446 3.6693 6.1808 3.40796C6.30714 3.14663 6.37322 2.86027 6.37419 2.57V2.33C6.3715 1.71813 6.61064 1.12997 7.03953 0.693583C7.46843 0.257192 8.05236 0.00790627 8.66419 0H11.2142C11.5119 0.000802192 11.8064 0.0604042 12.081 0.175383C12.3556 0.290362 12.6048 0.458452 12.8142 0.67C13.2545 1.11779 13.4991 1.72202 13.4942 2.35V2.63C13.4891 2.90575 13.5489 3.17884 13.6688 3.42723C13.7886 3.67562 13.9652 3.89237 14.1842 4.06L14.2942 4.14C14.5186 4.3083 14.7804 4.41984 15.0573 4.46511C15.3341 4.51039 15.6178 4.48805 15.8842 4.4L16.2242 4.29C16.5122 4.19451 16.8166 4.15802 17.1191 4.1827C17.4215 4.20737 17.7159 4.29272 17.9847 4.43364C18.2535 4.57456 18.4911 4.76817 18.6835 5.00292C18.8758 5.23767 19.0189 5.50876 19.1042 5.8L19.8942 8.32C20.077 8.90239 20.027 9.53296 19.7548 10.0793C19.4825 10.6256 19.0092 11.0452 18.4342 11.25L18.2342 11.32C17.94 11.4163 17.674 11.5834 17.4596 11.8066C17.2451 12.0298 17.0887 12.3022 17.0042 12.6C16.9246 12.8768 16.9057 13.1675 16.9489 13.4523C16.992 13.7371 17.0962 14.0092 17.2542 14.25L17.5142 14.63C17.859 15.1304 17.9993 15.7438 17.9063 16.3444C17.8133 16.945 17.4942 17.4872 17.0142 17.86L15.0042 19.41C14.7614 19.5957 14.4831 19.7297 14.1865 19.8039C13.8899 19.878 13.5813 19.8906 13.2796 19.8409C12.978 19.7913 12.6897 19.6804 12.4325 19.5152C12.1753 19.3499 11.9547 19.1337 11.7842 18.88L11.6642 18.71C11.5004 18.4639 11.2769 18.2632 11.0146 18.1268C10.7523 17.9904 10.4597 17.9227 10.1642 17.93C9.88216 17.9373 9.6058 18.0108 9.3574 18.1445C9.10901 18.2783 8.89553 18.4686 8.73419 18.7L8.50419 19.03C8.33363 19.2855 8.11255 19.5034 7.85457 19.6702C7.5966 19.8371 7.30719 19.9493 7.00419 20C6.8745 20.0127 6.74387 20.0127 6.61418 20ZM6 10.5C6.56469 10.7014 8.08663 11.5658 8.5 12C8.91337 12.4342 12.489 10.8515 12.6624 11.4254L12.5 15C12.7159 15.5966 7.57998 16.8706 7.5 17.5C7.42002 18.1294 7.35829 16.9763 7 17.5C6.97204 17.5409 6.56933 16.8667 6.56933 16.9609C6.56933 17.0552 7 17.5 7 17.5L6.47419 18C6.50224 18.022 7 16.3444 6.56933 18.0463C6.60398 18.0547 6.46495 17.0066 6.5 17C6.53505 16.9934 6.74335 18.0284 6.77252 18.0078C6.80169 17.9873 5.88862 16.0897 5.90669 16.0589L7 17C7.34689 16.4988 7.88433 16.6891 8.42424 16.4062C8.96416 16.1232 9.56463 15.9754 10.1742 15.9754C10.7837 15.9754 11.8926 11.2796 12.4325 11.5625C12.9724 11.8454 12.9273 17.0988 13.2742 17.6L13.3942 17.78C13.4372 17.841 12.9272 13.4838 13 13.5C13.0334 13.5049 13.6416 17.903 13.6743 17.8944C13.707 17.8859 13.7375 17.8707 13.7642 17.85V15.6797C13.8363 15.6225 12.876 14.0911 12.8891 14C12.9021 13.9089 15.9474 15.8751 15.8942 15.8L13.6016 18.7C13.2628 18.206 12.0917 15.0919 12 14.5C11.9083 13.9081 12.3266 11.5734 12.5 11C12.6757 10.3974 15.5978 10.8458 16.0311 10.3916C16.4644 9.93738 17.0005 9.59389 17.5942 9.39L17.7942 9.32C17.8775 9.28661 17.9443 9.2216 17.9799 9.13917C18.0155 9.05674 18.017 8.96357 17.9842 8.88L15.8942 10.7623C12.6624 12.0919 12.0344 8.91266 12 8.88C11.9656 8.84734 17.0487 6.21647 17.0042 6.2C16.9747 6.18507 15.8572 8.32 15.8242 8.32C15.7912 8.32 16.8436 6.18507 16.8142 6.2L18.4342 9.62C17.859 9.80982 13.4117 8.09929 12.8142 8C12.2167 7.90071 13.527 6.10564 13.0442 5.74L13.0042 5.65C12.5409 5.29912 12.1652 4.84561 11.9067 4.32509C11.6481 3.80456 13.4996 6.08119 13.5 5.5L15 7C15.0018 6.90362 16.5659 7.57033 16.5 7.5C17.3046 11.09 7.51 6.24071 7.5 8L8.66419 2C8.62345 2.00254 8.875 2.19178 8.83835 2.20976C8.80171 2.22773 9.02695 2.46934 9 2.5C8.97305 2.53066 8.40307 2.1711 8.38995 2.20976C8.96627 2.44819 8.76498 2.35393 8.76769 2.39465L9.1875 2.63C9.18756 3.22704 9.26353 3.96427 9 4.5C8.73647 5.03573 9.97298 6.13565 9.5 6.5L7.5 9C6.98973 9.38851 8.13303 12.8971 7.5 13C6.86697 13.1029 3.70123 6.5669 3.09419 6.36C3.04876 6.34476 2.99961 6.34476 2.95419 6.36C2.89775 6.39429 3.83356 6.29741 3.8125 6.36L5 8C4.97107 8.08889 4.95894 8.41602 5 8.5C5.04106 8.58398 5.91208 8.96824 6 9V10.5Z" fill="#FB8C00"/>
<mask id="path-2-inside-1_63_10154" fill="white">
<path d="M10.0042 13.5C9.31192 13.5 8.63523 13.2947 8.05966 12.9101C7.48408 12.5256 7.03548 11.9789 6.77057 11.3394C6.50567 10.6999 6.43636 9.99612 6.5714 9.31719C6.70645 8.63825 7.03979 8.01461 7.52928 7.52513C8.01876 7.03564 8.6424 6.7023 9.32134 6.56725C10.0003 6.4322 10.704 6.50152 11.3435 6.76642C11.9831 7.03133 12.5297 7.47993 12.9143 8.05551C13.2989 8.63108 13.5042 9.30777 13.5042 10C13.5042 10.9283 13.1354 11.8185 12.479 12.4749C11.8226 13.1313 10.9324 13.5 10.0042 13.5ZM10.0042 8.5C9.70748 8.5 9.41747 8.58798 9.1708 8.7528C8.92412 8.91762 8.73186 9.15189 8.61833 9.42598C8.5048 9.70007 8.4751 10.0017 8.53297 10.2926C8.59085 10.5836 8.73371 10.8509 8.94349 11.0607C9.15327 11.2704 9.42054 11.4133 9.71152 11.4712C10.0025 11.5291 10.3041 11.4994 10.5782 11.3858C10.8523 11.2723 11.0865 11.08 11.2514 10.8334C11.4162 10.5867 11.5042 10.2967 11.5042 10C11.5042 9.60218 11.3461 9.22065 11.0648 8.93934C10.7835 8.65804 10.402 8.5 10.0042 8.5Z"/>
</mask>
<path d="M10.0042 13.5C9.31192 13.5 8.63523 13.2947 8.05966 12.9101C7.48408 12.5256 7.03548 11.9789 6.77057 11.3394C6.50567 10.6999 6.43636 9.99612 6.5714 9.31719C6.70645 8.63825 7.03979 8.01461 7.52928 7.52513C8.01876 7.03564 8.6424 6.7023 9.32134 6.56725C10.0003 6.4322 10.704 6.50152 11.3435 6.76642C11.9831 7.03133 12.5297 7.47993 12.9143 8.05551C13.2989 8.63108 13.5042 9.30777 13.5042 10C13.5042 10.9283 13.1354 11.8185 12.479 12.4749C11.8226 13.1313 10.9324 13.5 10.0042 13.5ZM10.0042 8.5C9.70748 8.5 9.41747 8.58798 9.1708 8.7528C8.92412 8.91762 8.73186 9.15189 8.61833 9.42598C8.5048 9.70007 8.4751 10.0017 8.53297 10.2926C8.59085 10.5836 8.73371 10.8509 8.94349 11.0607C9.15327 11.2704 9.42054 11.4133 9.71152 11.4712C10.0025 11.5291 10.3041 11.4994 10.5782 11.3858C10.8523 11.2723 11.0865 11.08 11.2514 10.8334C11.4162 10.5867 11.5042 10.2967 11.5042 10C11.5042 9.60218 11.3461 9.22065 11.0648 8.93934C10.7835 8.65804 10.402 8.5 10.0042 8.5Z" fill="#FB8C00"/>
<path d="M10.0042 13.5V10.3V13.5ZM10.0042 8.5V5.3V8.5ZM11.5042 10H14.7042H11.5042ZM10.0042 10.3C9.94482 10.3 9.88681 10.2824 9.83748 10.2494L6.28183 15.5708C7.38364 16.3071 8.67902 16.7 10.0042 16.7V10.3ZM9.83748 10.2494C9.78815 10.2165 9.74969 10.1696 9.72699 10.1148L3.81416 12.564C4.32127 13.7882 5.18002 14.8346 6.28183 15.5708L9.83748 10.2494ZM9.72699 10.1148C9.70428 10.06 9.69834 9.99967 9.70992 9.94147L3.43289 8.6929C3.17437 9.99257 3.30705 11.3397 3.81416 12.564L9.72699 10.1148ZM9.70992 9.94147C9.72149 9.88328 9.75006 9.82983 9.79202 9.78787L5.26654 5.26239C4.32953 6.1994 3.69141 7.39322 3.43289 8.6929L9.70992 9.94147ZM9.79202 9.78787C9.83398 9.74591 9.88743 9.71734 9.94562 9.70577L8.69705 3.42874C7.39737 3.68726 6.20355 4.32538 5.26654 5.26239L9.79202 9.78787ZM9.94562 9.70577C10.0038 9.69419 10.0641 9.70013 10.119 9.72284L12.5681 3.81001C11.3439 3.3029 9.99672 3.17022 8.69705 3.42874L9.94562 9.70577ZM10.119 9.72284C10.1738 9.74554 10.2206 9.784 10.2536 9.83333L15.575 6.27768C14.8388 5.17587 13.7924 4.31712 12.5681 3.81001L10.119 9.72284ZM10.2536 9.83333C10.2866 9.88266 10.3042 9.94067 10.3042 10H16.7042C16.7042 8.67487 16.3112 7.37949 15.575 6.27768L10.2536 9.83333ZM10.3042 10C10.3042 10.0796 10.2725 10.1559 10.2163 10.2121L14.7418 14.7376C15.9983 13.4811 16.7042 11.777 16.7042 10H10.3042ZM10.2163 10.2121C10.16 10.2684 10.0837 10.3 10.0042 10.3V16.7C11.7811 16.7 13.4853 15.9941 14.7418 14.7376L10.2163 10.2121ZM10.0042 5.3C9.07458 5.3 8.16589 5.57565 7.39297 6.09209L10.9486 11.4135C10.6691 11.6003 10.3404 11.7 10.0042 11.7V5.3ZM7.39297 6.09209C6.62006 6.60854 6.01765 7.34258 5.66192 8.20139L11.5747 10.6506C11.4461 10.9612 11.2282 11.2267 10.9486 11.4135L7.39297 6.09209ZM5.66192 8.20139C5.30619 9.0602 5.21311 10.0052 5.39446 10.9169L11.6715 9.66835C11.7371 9.99812 11.7034 10.3399 11.5747 10.6506L5.66192 8.20139ZM5.39446 10.9169C5.57581 11.8286 6.02344 12.6661 6.68075 13.3234L11.2062 8.79792C11.444 9.03567 11.6059 9.33858 11.6715 9.66835L5.39446 10.9169ZM6.68075 13.3234C7.33806 13.9807 8.17552 14.4283 9.08723 14.6097L10.3358 8.33267C10.6656 8.39826 10.9685 8.56017 11.2062 8.79792L6.68075 13.3234ZM9.08723 14.6097C9.99894 14.791 10.944 14.698 11.8028 14.3422L9.35359 8.42941C9.66423 8.30074 10.006 8.26707 10.3358 8.33267L9.08723 14.6097ZM11.8028 14.3422C12.6616 13.9865 13.3956 13.3841 13.9121 12.6112L8.59065 9.05553C8.77745 8.77597 9.04295 8.55808 9.35359 8.42941L11.8028 14.3422ZM13.9121 12.6112C14.4285 11.8383 14.7042 10.9296 14.7042 10H8.30415C8.30415 9.66378 8.40385 9.3351 8.59065 9.05553L13.9121 12.6112ZM14.7042 10C14.7042 8.75349 14.209 7.55802 13.3276 6.6766L8.80207 11.2021C8.48326 10.8833 8.30415 10.4509 8.30415 10H14.7042ZM13.3276 6.6766C12.4461 5.79518 11.2507 5.3 10.0042 5.3V11.7C9.55329 11.7 9.12088 11.5209 8.80207 11.2021L13.3276 6.6766Z" fill="#F2F2F2" mask="url(#path-2-inside-1_63_10154)"/>
</svg>
