<svg width="96" height="64" viewBox="0 0 96 64" fill="none" xmlns="http://www.w3.org/2000/svg">
<path d="M77.4 24.16C76.0564 17.3509 72.3904 11.2194 67.0283 6.81298C61.6661 2.40653 54.9404 -0.00156897 48 7.66947e-07C36.44 7.66947e-07 26.4 6.56 21.4 16.16C15.5209 16.7953 10.084 19.5808 6.13396 23.9813C2.18388 28.3817 -0.000686807 34.0867 1.61971e-07 40C1.61971e-07 53.24 10.76 64 24 64H76C87.04 64 96 55.04 96 44C96 33.44 87.8 24.88 77.4 24.16ZM76 56H24C15.16 56 8 48.84 8 40C8 31.8 14.12 24.96 22.24 24.12L26.52 23.68L28.52 19.88C30.3595 16.2991 33.1515 13.2953 36.5885 11.1992C40.0255 9.1031 43.9743 7.99607 48 8C58.48 8 67.52 15.44 69.56 25.72L70.76 31.72L76.88 32.16C79.8869 32.3622 82.7057 33.696 84.7689 35.8927C86.8321 38.0895 87.9866 40.9863 88 44C88 50.6 82.6 56 76 56ZM32 36H42.2V48H53.8V36H64L48 20L32 36Z" fill="white"/>
</svg>
