<svg width="17" height="17" viewBox="0 0 17 17" fill="none" xmlns="http://www.w3.org/2000/svg">
<path d="M16.5 4.9C13.8 4.9 11.1 5.1 8.4 5.1C8.3 5.1 8.2 5.1 8.2 5.1C8.2 5.1 8.2 4.9 8.2 4.8C8.3 4.8 8.4 4.7 8.5 4.6C11.2 4.1 13.9 3.5 16.6 3C16.8 3 16.8 2.9 16.8 2.7C16.4 1.9 16.2 1 16 0.1C16 0 16 0 15.8 0C14.1 0.3 12.4 0.7 10.6 1C7.5 1.7 4.4 2.3 1.3 2.9C0.5 3 0 3.7 0 4.4C0 7.7 0 10.7 0 14C0 15.3 1.1 16.1 2.3 16.1C6.3 16.1 10.3 16.1 14.3 16.1C15.6 16.1 16.6 15.3 16.6 14C16.6 10.9 16.6 8 16.6 4.9C16.7 4.7 16.6 4.9 16.5 4.9ZM8.5 6.6C8.8 6.3 9.2 5.9 9.5 5.6C9.6 5.5 9.6 5.5 9.7 5.5C10.4 5.5 11 5.5 11.7 5.5C11.2 6 10.8 6.4 10.3 6.9L10.2 7C9.5 7 8.9 7 8.2 7C8.3 6.8 8.4 6.7 8.5 6.6ZM13.9 1.2C14 1.2 14 1.2 14.1 1.2C14.6 1.5 15.1 1.9 15.6 2.2C15.6 2.2 15.6 2.2 15.6 2.3C14.9 2.4 14.3 2.6 13.7 2.7C13.6 2.7 13.6 2.7 13.5 2.7C13 2.4 12.5 2 12 1.7C12.6 1.5 13.2 1.4 13.9 1.2ZM9.8 2C9.9 2 9.9 2 10 2C10.5 2.3 11 2.7 11.6 3.1C10.9 3.2 10.3 3.4 9.6 3.5H9.5C8.9 3.2 8.4 2.8 7.8 2.4C8.5 2.3 9.1 2.2 9.8 2ZM7.5 5.5C7.1 6 6.6 6.4 6.2 6.9L6.1 7C5.4 7 4.8 7 4.1 7C4.4 6.6 4.7 6.3 5 5.9C5.3 5.6 5.6 5.5 6 5.5C6.5 5.5 7 5.5 7.5 5.5ZM5.7 2.9C5.8 2.9 5.8 2.9 5.9 2.9C6.4 3.2 6.9 3.6 7.5 4C7.1 4 6.8 4.1 6.5 4.1C6.2 4.2 5.9 4.2 5.5 4.3C5.4 4.3 5.4 4.3 5.3 4.3C4.8 4 4.3 3.6 3.7 3.2C4.4 3.1 5 3 5.7 2.9ZM15.1 14.1C15.1 14.8 14.8 15 14.2 15C10.3 15 6.5 15 2.6 15C2.2 15 1.9 14.9 1.8 14.6C1.7 14.5 1.7 14.3 1.7 14.2C1.7 12.4 1.7 10.6 1.7 8.8C1.7 8.6 1.8 8.6 1.9 8.6C4.1 8.6 6.2 8.6 8.4 8.6C10.6 8.6 12.7 8.6 14.9 8.6C15.1 8.6 15.1 8.6 15.1 8.8C15.1 10.5 15.1 12.3 15.1 14.1ZM15.8 5.4C15.4 5.8 15 6.3 14.6 6.7C14.5 6.8 14.5 6.8 14.4 6.8C13.8 6.8 13.1 6.8 12.4 6.8C12.9 6.3 13.3 5.7 13.8 5.3L13.9 5.1C14.6 5.1 15.2 5.1 15.9 5.1L15.8 5.4Z" fill="#263238"/>
<path d="M7.3999 13.9C7.3999 12.4 7.3999 11 7.3999 9.5C8.3999 10.2 9.7999 11 10.9999 11.7C9.7999 12.4 8.3999 13.1 7.3999 13.9Z" fill="#263238"/>
</svg>
