<?xml version="1.0" encoding="UTF-8"?>
<svg version="1.1" viewBox="0 0 1600 880" width="1280" height="1280" xmlns="http://www.w3.org/2000/svg">
<path transform="translate(0)" d="m0 0h1600v880h-1600v-880z" fill="#FEFEFE"/>
<path transform="translate(1034 365)" d="m0 0c22 23.7 24.9 61.3 24.1 92.3-1.3 30.3-4.02 62.1-26.8 84.4-12.3 11.3-29.2 15.8-45.7 15.2-18.8-1.02-18.8-1.02-25.6-2.49-0.73-0.13-1.46-0.26-2.21-0.4-1.85 1.85-1.23 4.88-1.3 7.36-0.03 0.99-0.03 0.99-0.06 2.01l-0.18 6.6c-0.04 1.53-0.08 3.05-0.13 4.57-0.11 4.02-0.22 8.03-0.33 12-0.11 4.1-0.22 8.19-0.34 12.3-0.23 8.04-0.45 16.1-0.66 24.1-7.97 0.15-15.9 0.3-23.9 0.44l-11.1 0.21c-3.57 0.07-7.14 0.13-10.7 0.19-1.36 0.03-2.72 0.05-4.08 0.08-1.91 0.04-3.82 0.07-5.74 0.1-1.63 0.03-1.63 0.03-3.29 0.06-9.35-0.24-9.35-0.24-11.2-2.08-0.13-1.73-0.18-3.46-0.21-5.18-0.02-1.15-0.04-2.3-0.06-3.48-0.01-1.29-0.03-2.59-0.05-3.92-0.02-1.4-0.04-2.81-0.06-4.21-0.06-3.97-0.11-7.94-0.15-11.9-0.03-2.55-0.07-5.11-0.1-7.66-0.46-38.2-0.48-76.4-0.49-115-0.01-4.99-0.01-9.98-0.01-15-0.01-8.83-0.01-17.7-0.01-26.5v-8.9c-0.01-15.1 0.09-30.2 0.47-45.4 0.03-1.52 0.07-3.05 0.1-4.57 0.04-2.11 0.1-4.21 0.16-6.32 0.03-1.2 0.06-2.41 0.09-3.65 0.32-2.82 0.32-2.82 2.32-4.82 2.08-0.24 2.08-0.24 4.68-0.23h2.96c1.07 0.02 2.13 0.03 3.23 0.04s2.2 0.02 3.33 0.03c3.6 0.04 7.2 0.1 10.8 0.16 1.27 0.02 2.53 0.04 3.84 0.06 3.8 0.06 7.61 0.15 11.4 0.25 1.19 0.02 2.39 0.05 3.62 0.07 1.68 0.05 1.68 0.05 3.39 0.11 0.99 0.02 1.98 0.05 3 0.08 3.22 0.51 5.14 1.48 7.74 3.43 0.49 1.49 0.49 1.49 1 3h2c1.7 1.63 3.37 3.29 5 5 3.52-1.65 6.68-3.71 9.94-5.81 21.2-13.3 51.7-15.3 71.2 2.81z" fill="#000100"/>
<path transform="translate(1214 368)" d="m0 0c14.1 13.7 21.9 29.3 24.6 48.6 0.17 1.17 0.34 2.33 0.51 3.53 1.85 13.8 2.69 27.7 3.54 41.6 0.09 1.37 0.09 1.37 0.18 2.77 0.1 1.74 0.21 3.47 0.31 5.21 0.16 4.17 0.16 4.17 1.46 8.07-1.07-0.01-2.14-0.01-3.24-0.02-17-0.05-33.9 0.17-50.9 0.39-4.31 0.06-8.61 0.11-12.9 0.15-3.33 0.04-6.66 0.09-10 0.13-1.59 0.02-3.18 0.04-4.77 0.06-2.2 0.02-4.39 0.05-6.59 0.08-1.88 0.03-1.88 0.03-3.79 0.05-2.69-0.16-2.69-0.16-3.79 1.16-0.97 6.23 0.3 10.8 3.58 16.1 2.78 3.67 6.04 5.03 10.4 5.89 19 1.01 38.8-0.51 57.4-4.42 3.99-0.65 7.53-0.75 11.6-0.58 1.57 1.56 1.15 3.11 1.17 5.29 0.01 0.91 0.02 1.82 0.03 2.76 0 1.48 0 1.48 0.01 3 0 1.01 0.01 2.03 0.02 3.07 0 2.15 0.01 4.29 0.02 6.44 0 3.29 0.04 6.58 0.07 9.87 0 2.08 0.01 4.17 0.01 6.25 0.02 0.98 0.03 1.97 0.04 2.99 0 0.92-0.01 1.83-0.01 2.78 0.01 1.21 0.01 1.21 0.01 2.45-0.46 2.64-1.29 3.45-3.37 5.1-27.2 14.2-70.1 13.7-99 4.7-10.6-3.72-20.4-9.58-29-16.7-0.96-0.78-0.96-0.78-1.94-1.57-8.61-7.7-13.7-19.6-17.1-30.4-0.34-1.07-0.69-2.13-1.05-3.23-2.73-8.83-4.12-17.6-4.95-26.8-0.06-0.69-0.13-1.38-0.2-2.09-2.85-29.7 2.07-66.6 20.6-91 14.8-17.8 35.4-25.4 58-27.6 20.9-1.2 42.7 1.97 59 16.1z" fill="#000100"/>
<path transform="translate(595,298)" d="m0 0-1 58c11.4-0.04 11.4-0.04 22.9-0.09 1.43 0 2.86-0.01 4.29-0.01 0.74 0 1.49-0.01 2.26-0.01 5.36 0 5.36 0 7.59 1.11-1.34 9.3-3.01 18.5-4.94 27.7-0.25 1.26-0.5 2.52-0.76 3.82-0.25 1.19-0.51 2.39-0.76 3.63-0.23 1.08-0.45 2.16-0.68 3.27-0.86 2.59-0.86 2.59-3.86 4.59-2.53 0.3-2.53 0.3-5.51 0.38-1.07 0.03-2.14 0.07-3.24 0.1-1.11 0.03-2.23 0.06-3.37 0.08-2.22 0.06-4.43 0.13-6.64 0.19-0.98 0.03-1.96 0.05-2.97 0.08-2.24-0.08-2.24-0.08-3.27 1.17-0.11 2.75-0.15 5.48-0.15 8.23 0 0.87 0 1.73-0.01 2.62 0 2.87-0.01 5.75-0.01 8.62 0 1.99 0 3.99-0.01 5.98 0 4.2-0.01 8.39-0.01 12.6 0 5.36-0.01 10.7-0.03 16.1-0.01 4.13-0.01 8.25-0.01 12.4 0 1.97 0 3.95-0.01 5.92-0.01 2.78-0.01 5.55 0 8.32-0.01 0.81-0.01 1.62-0.02 2.45-0.16 9.01-0.16 9.01 3.26 16.8 8.52 0.48 17.1-0.25 25.6-0.73 0.94-0.05 1.88-0.1 2.85-0.15 0.84-0.05 1.69-0.09 2.56-0.14 1.96 0.02 1.96 0.02 2.96 1.02 0.09 1.53 0.12 3.07 0.11 4.61v2.97c0 1.07-0.01 2.14-0.01 3.24 0 1.63 0 1.63-0.01 3.29 0 3.48-0.01 6.97-0.03 10.4 0 2.36-0.01 4.71-0.01 7.07-0.01 5.79-0.03 11.6-0.05 17.4-13.3 6.65-35.5 5.41-50.2 5.44-1.3 0.01-2.6 0.02-3.95 0.03-16.2-0.15-30.7-4.54-42.7-15.9-13.2-15.4-11.3-36.5-11.5-55.5-0.02-1.89-0.04-3.79-0.06-5.69l-0.15-14.9c-0.04-4.02-0.09-8.04-0.13-12.1-0.05-4.84-0.11-9.69-0.16-14.5-0.01-0.91-0.02-1.81-0.03-2.75-0.05-4.98-0.09-9.96-0.13-14.9-0.01-1.46-0.03-2.92-0.04-4.38-0.03-1.97-0.04-3.93-0.05-5.9-0.01-1.08-0.02-2.17-0.03-3.28 0.1-2.66 0.1-2.66 1.1-5.66-1.13-0.04-1.13-0.04-2.28-0.08-3.39-0.11-6.77-0.23-10.2-0.36-1.18-0.04-2.37-0.08-3.59-0.12-1.12-0.04-2.24-0.08-3.4-0.12-1.05-0.04-2.09-0.08-3.16-0.11-2.41-0.21-2.41-0.21-3.41-1.21-0.11-2.93-0.16-5.84-0.17-8.78 0-0.88 0-1.76-0.01-2.67 0-1.87-0.01-3.74-0.01-5.61 0-2.86-0.02-5.73-0.03-8.59-0.01-1.82-0.01-3.63-0.01-5.44-0.01-0.86-0.01-1.72-0.02-2.61 0.02-6.07 0.02-6.07 2.25-8.3 2.52-0.32 2.52-0.32 5.66-0.41 1.13-0.04 2.25-0.08 3.4-0.12 1.18-0.03 2.35-0.06 3.56-0.09 1.19-0.04 2.37-0.08 3.59-0.12 2.93-0.1 5.86-0.18 8.79-0.26 0.03-0.74 0.05-1.48 0.08-2.25 0.33-8.07 1.78-15.8 3.36-23.8 0.32-1.65 0.32-1.65 0.66-3.33 2.1-10.3 2.1-10.3 3.9-13.7 2.05-1.22 2.05-1.22 4.64-2.06 0.99-0.32 1.98-0.64 2.99-0.98 6.36-1.82 12.8-3.42 19.2-4.96 2.74-0.66 5.47-1.33 8.21-2 0.67-0.16 1.33-0.32 2.02-0.49 5.73-1.41 11.4-3.09 17-4.87 2.98-0.64 2.98-0.64 7.98 0.36z" fill="#000100"/>
<path transform="translate(428 353)" d="m0 0h2.29c13.6 0.04 26.3 0.86 39.3 5.31 2.61 0.72 5.22 1.43 7.83 2.12 2.17 0.88 2.17 0.88 4.17 3.88 0.24 2.11 0.24 2.11 0.23 4.57v2.79c-0.01 0.99-0.02 1.98-0.03 3-0.01 1.01-0.01 2.03-0.01 3.08-0.01 3.25-0.04 6.5-0.06 9.75-0.01 2.2-0.02 4.4-0.03 6.61-0.02 5.4-0.06 10.8-0.1 16.2-4.92-0.51-9.8-1.07-14.7-1.93-19.3-4.85-19.3-4.85-37.8-1.3-2.33 1.88-3.52 3.4-4.53 6.23-0.47 2.99-0.47 2.99 1 6 5.39 6.18 13.3 9.18 20.6 12.5 5.41 2.49 10.6 5.17 15.8 8.23 0.6 0.35 1.2 0.71 1.81 1.07 3.8 2.32 6.78 4.94 9.81 8.18 0.6 0.6 1.2 1.2 1.81 1.82 13.3 14.2 13.9 31.4 13.3 49.9-0.74 15.8-6.97 29.9-18.6 40.6-10.6 8.92-23 12.1-36.5 14.6-0.72 0.14-1.43 0.27-2.17 0.41-20.1 3.1-56.6 1.06-73.8-10.4-1.02-5.21-0.89-10.7-1-16-0.02-1.24-0.05-2.48-0.08-3.76-0.07-3.49-0.12-6.98-0.15-10.5-0.01-1.42-0.03-2.85-0.05-4.27-0.03-2.02-0.04-4.05-0.05-6.07 0-1.19-0.01-2.38-0.02-3.6 0.11-0.93 0.23-1.86 0.35-2.82 3-2 3-2 6.35-1.42 1.38 0.36 2.77 0.73 4.15 1.11 24.2 6.88 24.2 6.88 47.8 3.43 2.84-2.25 4.31-3.76 5.67-7.12-0.19-3.55-0.38-5.38-2.93-7.94-0.83-0.53-1.65-1.07-2.51-1.62-0.91-0.59-1.83-1.19-2.77-1.8-3.21-1.88-6.47-3.53-9.83-5.14-20.6-10.4-38.9-22.3-47.1-44.8-4.75-15.7-1.44-33.8 5.31-48.4 5.04-9.01 11.7-16.4 20.9-21.3 1.44-0.78 1.44-0.78 2.92-1.58 14.3-7.44 27.6-9.8 43.5-9.73z" fill="#000100"/>
<path transform="translate(747 352)" d="m0 0c0.73-0.01 1.46-0.02 2.21-0.02 4.76 0.01 9 0.32 13.4 2.27 5.65 6.26 4.49 14.1 4.32 22.1-0.02 1.43-0.04 2.86-0.05 4.29-0.14 11.2-0.59 22.4-1.27 33.6-1.57-0.02-1.57-0.02-3.17-0.05-3.92-0.05-7.84-0.09-11.8-0.11-1.69-0.02-3.38-0.04-5.07-0.07-2.44-0.03-4.89-0.05-7.33-0.06-0.74-0.02-1.49-0.03-2.26-0.05-5.42 0-9.45 1.09-14.4 3.34-5.28 6.31-4.16 15.3-4.2 23.1-0.01 1.21-0.02 2.42-0.03 3.67-0.03 3.31-0.05 6.61-0.07 9.92-0.02 3.46-0.05 6.92-0.07 10.4-0.05 6.54-0.1 13.1-0.14 19.6-0.05 7.45-0.11 14.9-0.16 22.4-0.12 15.3-0.22 30.6-0.33 46-9.1 0.02-18.2 0.04-27.3 0.05-4.23 0.01-8.46 0.01-12.7 0.03-4.08 0.01-8.16 0.01-12.2 0.01-1.56 0.01-3.12 0.01-4.68 0.02h-6.53c-1.86 0.01-1.86 0.01-3.76 0.01-2.78-0.12-2.78-0.12-3.78-1.12-0.1-2.07-0.12-4.15-0.12-6.22-0.01-0.66-0.01-1.32-0.01-2v-6.71-4.84c-0.01-4.43 0-8.87 0.01-13.3v-8.37c0.03-31.7 0.2-63.3 0.44-95 0.04-4.84 0.08-9.68 0.11-14.5 0.03-5.74 0.08-11.5 0.13-17.2 0.02-2.13 0.04-4.26 0.05-6.39 0.02-2.91 0.04-5.83 0.08-8.74v-2.61c0.09-5.86 0.09-5.86 2.31-8.09 2.04-0.4 2.04-0.4 4.51-0.59 0.9-0.08 1.8-0.15 2.73-0.23 7-0.46 14-0.72 21-0.86 1.92-0.05 3.83-0.12 5.75-0.2 16-0.74 16-0.74 21 3.25 2.05 2.81 3.56 5.47 4.99 8.63 2.59 4.54 2.59 4.54 7 7 0.23-0.68 0.46-1.36 0.69-2.06 4.04-9.04 11-14.6 19.6-19.2 3.68-1.08 7.25-1.08 11-1.04z" fill="#000100"/>
<path transform="translate(789 357)" d="m0 0h3.58 1.98c2.16-0.01 4.32 0.01 6.48 0.02h4.49c3.14 0 6.28 0.01 9.41 0.02 4.04 0.02 8.07 0.02 12.1 0.02 3.09 0 6.18 0.01 9.27 0.01 1.49 0.01 2.97 0.01 4.46 0.01 2.07 0 4.15 0.01 6.22 0.02 1.18 0.01 2.36 0.01 3.58 0.01 2.65 0.14 2.65 0.14 3.65 1.14 0.26 3.04 0.43 6.05 0.56 9.1 0.04 1.01 0.09 2.02 0.13 3.06 0.58 15.8 0.42 31.6 0.38 47.4-0.01 4.7-0.01 9.4-0.02 14.1-0.01 11.9-0.03 23.8-0.05 35.6-0.02 12.9-0.04 25.8-0.05 38.7l-0.03 16.7c-0.01 3.45-0.01 6.9-0.01 10.4 0 1.61-0.01 3.21-0.01 4.81-0.01 2.19-0.01 4.37-0.01 6.55 0 1.22-0.01 2.44-0.01 3.7-0.07 2.79-0.07 2.79 1.12 4.84-9.24-0.11-18.5-0.22-27.7-0.34-4.29-0.06-8.58-0.11-12.9-0.16-4.13-0.05-8.27-0.1-12.4-0.16-1.58-0.02-3.16-0.03-4.74-0.05l-6.63-0.09c-1.26-0.01-2.51-0.03-3.81-0.04-2.82-0.16-2.82-0.16-3.82-1.16-0.1-2.48-0.14-4.92-0.13-7.4 0-1.17 0-1.17-0.01-2.37v-7.94c-0.01-1.89-0.01-3.78-0.01-5.67-0.01-5.14-0.01-10.3-0.01-15.4-0.01-4.29-0.01-8.57-0.01-12.9-0.01-10.1-0.01-20.2-0.01-30.3 0-10.4-0.01-20.9-0.03-31.3-0.01-8.95-0.02-17.9-0.02-26.9 0-5.36 0-10.7-0.01-16.1-0.01-5.04-0.01-10.1 0-15.1 0-1.85 0-3.7-0.01-5.55-0.01-2.52 0-5.04 0.01-7.56-0.01-0.74-0.01-1.48-0.02-2.24 0.05-7.09 0.05-7.09 5.04-7.53z" fill="#000100"/>
<path transform="translate(841,268)" d="m0 0c7.53 6.96 13.4 15.4 14.3 25.8 0.16 7.48 0.23 14-4.34 20.2-0.76 1.11-0.76 1.11-1.53 2.25-2.81 3.97-2.81 3.97-4.47 5.75h-2l-1 3c-8.35 5.79-17.2 7.79-27.2 6.77-7.89-1.62-15.5-5.67-20.8-11.8-0.5-0.54-1.01-1.07-1.52-1.62-6.08-6.64-8.93-13.9-8.75-23 1.41-12.2 8.02-21.2 17.2-28.9 11.7-8.26 28.7-6.47 40 1.56z" fill="#000100"/>
<path transform="translate(979,405)" d="m0 0c4.22 2.68 5.91 7.29 7 12 0.93 6.91 1.16 13.8 1.17 20.7 0 1.49 0 1.49 0.01 3.01 0 2.09 0.01 4.18 0.01 6.27 0 3.15 0.02 6.3 0.03 9.45 0.1 34.7 0.1 34.7-8.35 47.8-3.08 2.89-4.62 3.41-8.8 3.37-0.7-0.03-1.41-0.07-2.13-0.11h-2.15c-4.24-0.11-6.76-0.56-9.79-3.56-0.54-2.32-0.54-2.32-0.6-5.1-0.03-1.05-0.07-2.1-0.1-3.17-0.02-1.72-0.02-1.72-0.04-3.46-0.03-1.2-0.05-2.39-0.08-3.63-0.09-3.88-0.14-7.76-0.18-11.6-0.02-1.28-0.03-2.55-0.05-3.87-0.1-7.81-0.14-15.6-0.14-23.4 0-3.35-0.01-6.71-0.03-10.1-0.01-3.27-0.01-6.53-0.01-9.79-0.01-1.19-0.01-2.38-0.02-3.61 0.01-5.78 0.11-10.8 2.25-16.2 5.84-5.3 14.5-6.57 22-5z" fill="#FEFEFE"/>
<path transform="translate(1165 394)" d="m0 0c4.83 1.64 6.49 3.54 8.82 8.03 2.13 5.12 2.56 10.5 3.18 16 0.13 1.04 0.26 2.08 0.39 3.14 0.72 6.04 1.06 11.9 0.92 18-4.25 0.03-8.51 0.05-12.8 0.06-1.45 0-2.9 0.01-4.34 0.02-2.08 0.01-4.16 0.02-6.24 0.02-1.25 0.01-2.5 0.01-3.79 0.02-2.87-0.12-2.87-0.12-3.87-1.12-0.2-4.3-0.12-8.61-0.03-12.9 0.03-1.95 0.04-3.91 0.05-5.87 0.24-8.03 1.54-13.2 6.98-19.2 0.57-0.63 1.13-1.26 1.71-1.91 3.1-3.06 4.51-4.06 8.98-4.21z" fill="#FEFEFE"/>
</svg>
