<svg width="161" height="90" viewBox="0 0 161 90" fill="none" xmlns="http://www.w3.org/2000/svg">
<path d="M42.7119 89.6084H8.13195C3.91552 89.6084 0.485172 86.178 0.485172 81.9615V7.64677C0.48517 3.43035 3.91552 0 8.13195 0H42.7119C46.9283 0 50.3586 3.43035 50.3586 7.64677V81.9615C50.3586 86.178 46.9283 89.6084 42.7119 89.6084Z" fill="#3F3D56"/>
<path d="M50.3583 27.335C50.1798 27.335 50.0348 27.48 50.0348 27.6585V38.0103C50.0348 38.1887 50.1798 38.3338 50.3583 38.3338C50.5367 38.3338 50.6817 38.1887 50.6817 38.0103V27.6585C50.6817 27.48 50.5367 27.335 50.3583 27.335Z" fill="#3F3D56"/>
<path d="M49.6306 7.64711V81.9605C49.6306 85.6306 46.7742 88.6327 43.1623 88.8656H43.1607C43.1074 88.8688 43.054 88.872 42.999 88.8737C42.9035 88.8785 42.8081 88.8801 42.7111 88.8801C42.7111 88.8801 42.3552 88.8542 41.705 88.8057C41.0483 88.7572 40.0924 88.6844 38.9003 88.589C38.5428 88.5615 38.166 88.5307 37.768 88.4984C36.9755 88.4337 36.1053 88.3625 35.172 88.2817C34.8 88.2509 34.415 88.217 34.022 88.183C32.0131 88.0099 29.7632 87.8077 27.3903 87.5781C26.9892 87.5408 26.5848 87.502 26.1772 87.4616C26.0705 87.4503 25.9621 87.4406 25.8537 87.4292C24.1618 87.2626 1.21293 82.8275 1.21293 81.9605V7.64711C1.21293 3.82501 4.3104 0.727539 8.13251 0.727539H12.2635C12.9235 0.727539 13.454 1.2419 13.5106 1.90021C13.5155 1.94389 13.5203 1.98755 13.5284 2.03123C13.6481 2.69278 14.2547 3.15376 14.9275 3.15376H35.916C36.5889 3.15376 37.1955 2.69278 37.3152 2.03123C37.3232 1.98755 37.3281 1.94389 37.333 1.90021C37.3896 1.2419 37.9201 0.727539 38.58 0.727539H42.7111C46.5332 0.727539 49.6306 3.82501 49.6306 7.64711H49.6306Z" fill="white"/>
<path d="M0.323495 19.5713C0.145082 19.5713 0 19.7164 0 19.8948V22.4827C0 22.6612 0.145084 22.8062 0.323495 22.8062C0.501906 22.8062 0.64699 22.6612 0.64699 22.4827V19.8948C0.64699 19.7164 0.501906 19.5713 0.323495 19.5713Z" fill="#3F3D56"/>
<path d="M0.323495 27.335C0.145082 27.335 0 27.48 0 27.6585V32.6726C0 32.8511 0.145084 32.9961 0.323495 32.9961C0.501906 32.9961 0.64699 32.851 0.64699 32.6726V27.6585C0.64699 27.48 0.501906 27.335 0.323495 27.335Z" fill="#3F3D56"/>
<path d="M0.323495 34.4521C0.145082 34.4521 0 34.5972 0 34.7756V39.7898C0 39.9682 0.145084 40.1133 0.323495 40.1133C0.501906 40.1133 0.64699 39.9682 0.64699 39.7898V34.7756C0.64699 34.5972 0.501906 34.4521 0.323495 34.4521Z" fill="#3F3D56"/>
<path d="M12.1514 1.86035H5.96484C5.93126 1.86035 5.90403 1.88757 5.90403 1.92115V2.60829C5.90403 2.64187 5.93126 2.66909 5.96484 2.66909H12.1514C12.185 2.66909 12.2122 2.64187 12.2122 2.60829V1.92115C12.2122 1.88757 12.185 1.86035 12.1514 1.86035Z" fill="#E6E6E6"/>
<path d="M39.6036 2.66898C39.961 2.66898 40.2506 2.37932 40.2506 2.02199C40.2506 1.66467 39.961 1.375 39.6036 1.375C39.2463 1.375 38.9567 1.66467 38.9567 2.02199C38.9567 2.37932 39.2463 2.66898 39.6036 2.66898Z" fill="#E6E6E6"/>
<path d="M41.3815 2.66898C41.7388 2.66898 42.0285 2.37932 42.0285 2.02199C42.0285 1.66467 41.7388 1.375 41.3815 1.375C41.0242 1.375 40.7345 1.66467 40.7345 2.02199C40.7345 2.37932 41.0242 2.66898 41.3815 2.66898Z" fill="#E6E6E6"/>
<path d="M43.1605 2.66898C43.5178 2.66898 43.8075 2.37932 43.8075 2.02199C43.8075 1.66467 43.5178 1.375 43.1605 1.375C42.8032 1.375 42.5135 1.66467 42.5135 2.02199C42.5135 2.37932 42.8032 2.66898 43.1605 2.66898Z" fill="#E6E6E6"/>
<path d="M34.2435 86.0543L35.6996 86.1405L36.7255 80.5654L34.5764 80.4381L34.2435 86.0543Z" fill="#FFB6B6"/>
<path d="M39.2341 86.3174C39.2749 86.3964 39.2842 86.6443 39.279 86.733C39.2628 87.006 39.0284 87.2141 38.7554 87.1979L34.2459 86.9304C34.0597 86.9193 33.9177 86.7595 33.9288 86.5733L33.9399 86.3855C33.9399 86.3855 33.7503 85.8081 34.2508 85.1399C34.2508 85.1399 34.7894 85.7183 35.6929 84.916L35.9715 84.4753L37.7132 85.9148L38.7151 86.0989C38.9343 86.1391 39.1319 86.1194 39.2341 86.3174Z" fill="#2F2E41"/>
<path d="M40.8654 86.4469L42.3215 86.5331L43.3474 80.958L41.1982 80.8307L40.8654 86.4469Z" fill="#FFB6B6"/>
<path d="M45.856 86.7099C45.8968 86.789 45.9061 87.0368 45.9008 87.1256C45.8847 87.3986 45.6503 87.6067 45.3773 87.5905L40.8678 87.323C40.6816 87.3119 40.5396 87.152 40.5506 86.9658L40.5618 86.7781C40.5618 86.7781 40.3722 86.2006 40.8727 85.5325C40.8727 85.5325 41.4112 86.1109 42.3148 85.3086L42.5934 84.8679L44.3351 86.3074L45.337 86.4914C45.5562 86.5317 45.7538 86.5119 45.856 86.7099Z" fill="#2F2E41"/>
<path d="M33.9865 50.8534L44.1039 51.7248L44.9927 54.2179L45.3188 70.0997L43.4124 83.951L40.257 83.7638L41.0361 70.6303L39.1311 62.4115L36.9511 83.161L33.6695 83.3731L33.1828 68.973L32.7762 55.2557L33.9865 50.8534Z" fill="#2F2E41"/>
<path d="M38.6616 32.9629L42.1666 33.3064L42.4757 34.9517C42.4757 34.9517 46.7272 36.4241 46.3608 38.0292C45.9944 39.6344 44.2185 46.7147 44.2185 46.7147C44.2185 46.7147 45.4322 51.3963 44.4544 51.8806C43.4765 52.3649 33.7624 51.2463 33.7624 51.2463C33.7624 51.2463 33.0901 49.1728 33.5114 48.9266C33.9328 48.6804 33.0808 35.6145 33.3671 35.3604C33.6533 35.1062 38.1922 34.0197 38.1922 34.0197L38.6616 32.9629Z" fill="#FB8C00"/>
<path d="M30.9676 46.0635L30.5852 47.9388L33.1569 54.8702L34.6912 54.1478L33.4466 47.7019L33.3206 45.254L30.9676 46.0635Z" fill="#FFB6B6"/>
<path d="M34.4366 35.5591C34.4366 35.5591 32.9905 34.7955 31.7653 37.1632C30.5402 39.5309 30.4978 44.8158 30.4978 44.8158C30.4978 44.8158 30.0684 45.1971 30.3226 45.4833C30.5768 45.7696 31.1281 45.1642 30.5636 45.993C30.2665 46.429 29.4639 46.2459 30.2665 46.429C31.0692 46.6122 30.8075 46.2178 30.5207 46.7153C30.3696 46.9775 29.8291 46.9454 30.3616 47.1126C30.894 47.2797 33.6271 47.2091 33.6271 47.2091C33.6271 47.2091 34.5821 46.8206 34.0577 46.5184C33.5333 46.2161 33.2662 46.1469 33.5429 46.0544C33.8195 45.9619 34.4951 46.002 34.1138 45.5727C33.7325 45.1433 33.4623 45.1273 33.7325 45.1433C34.0027 45.1593 34.3455 44.5263 34.3455 44.5263L34.4366 35.5591Z" fill="#FB8C00"/>
<path d="M33.258 56.0145C32.9872 55.0096 33.2515 54.0646 33.8482 53.9039C34.4449 53.7431 35.1481 54.4274 35.4189 55.4324C35.6897 56.4373 35.4254 57.3823 34.8287 57.543C34.232 57.7038 33.5288 57.0194 33.258 56.0145Z" fill="#FFB6B6"/>
<path d="M49.8297 46.5415L50.8108 48.1849L57.3817 51.5742L58.0287 50.0066L52.7655 46.082L51.023 44.358L49.8297 46.5415Z" fill="#FFB6B6"/>
<path d="M45.3163 36.4409C45.3163 36.4409 43.7331 36.8509 44.4233 39.4259C45.1134 42.0009 48.6433 45.9347 48.6433 45.9347C48.6433 45.9347 48.5829 46.5057 48.9636 46.546C49.3443 46.5862 49.3438 45.7675 49.4851 46.7603C49.5594 47.2826 48.8429 47.688 49.5594 47.2826C50.276 46.8772 49.8168 46.7621 49.9401 47.3229C50.0051 47.6184 49.5842 47.9589 50.0902 47.7237C50.5963 47.4885 52.5683 45.595 52.5683 45.595C52.5683 45.595 53.0122 44.6645 52.421 44.7944C51.8298 44.9244 51.5858 45.0532 51.728 44.7984C51.8701 44.5437 52.3963 44.1182 51.8252 44.0578C51.2542 43.9974 51.0437 44.1676 51.2542 43.9974C51.4646 43.8272 51.2913 43.1286 51.2913 43.1286L45.3163 36.4409Z" fill="#FB8C00"/>
<path d="M58.2272 52.3503C57.3499 51.7901 56.9084 50.9138 57.2411 50.393C57.5737 49.8722 58.5545 49.9041 59.4317 50.4642C60.3089 51.0244 60.7504 51.9007 60.4178 52.4215C60.0852 52.9423 59.1044 52.9104 58.2272 52.3503Z" fill="#FFB6B6"/>
<path d="M40.3036 32.3981C38.5115 32.2918 37.145 30.753 37.2513 28.9611C37.3576 27.1692 38.8965 25.8028 40.6885 25.9091C42.4806 26.0154 43.8471 27.5542 43.7408 29.3461C43.6345 31.138 42.0956 32.5044 40.3036 32.3981Z" fill="#FFB6B6"/>
<path d="M43.2433 26.6968C43.106 26.2188 42.6648 25.9076 42.1677 25.8892C42.1466 25.8884 42.1256 25.8869 42.1049 25.8849C41.8555 25.8598 41.6206 25.7602 41.3784 25.6956C40.9271 25.5751 40.4435 25.5778 39.9936 25.7032C39.8537 25.7422 39.713 25.7933 39.568 25.7848C39.4231 25.7762 39.2699 25.6873 39.2429 25.5447C39.227 25.6714 39.211 25.7982 39.1951 25.9249C39.1541 25.8192 39.113 25.7134 39.0719 25.6076L38.9531 26.0127L38.6709 25.6515C38.689 25.8044 38.5917 25.9516 38.4665 26.0413C38.3413 26.1309 38.1907 26.1757 38.0457 26.2276C37.4199 26.4515 36.8196 26.878 36.6058 27.5073C36.4707 27.9048 36.5034 28.3371 36.5376 28.7556C36.5679 29.1255 36.602 29.5084 36.7829 29.8325C36.8988 30.0403 37.0731 30.2197 37.1376 30.4487C37.1978 30.6622 37.1561 30.9 37.2477 31.102C37.3397 31.3049 37.5471 31.4289 37.7521 31.5161C37.9571 31.6033 38.1766 31.6693 38.3492 31.8101C38.5219 31.9509 38.709 32.3381 39.1032 32.3413L39.2441 32.1105C39.3809 32.012 38.8931 32.0676 38.898 31.8991C38.9029 31.7306 39.4951 31.6614 39.4207 31.5101C39.3067 31.2781 39.146 31.0726 39.0151 30.8496C38.8622 30.5888 38.7476 30.2878 38.8236 29.9851C38.8532 29.8674 38.9156 29.7582 39.0057 29.6767C39.2653 29.4418 39.5317 29.5676 39.7948 29.619C39.9762 29.6545 40.1962 29.639 40.3005 29.4865C40.4225 29.3081 40.3127 29.0653 40.3406 28.851C40.3702 28.6238 40.5541 28.447 40.7499 28.3281C40.9457 28.2093 41.1649 28.1272 41.3433 27.9834C41.5216 27.8396 41.4901 27.9178 41.4292 27.697C42.6312 28.7151 42.542 27.0751 43.3745 27.3288C43.3468 27.1152 43.3027 26.9038 43.2433 26.6968L43.2433 26.6968Z" fill="#2F2E41"/>
<path d="M148.746 28.0357C151.904 28.0357 154.463 25.4761 154.463 22.3186C154.463 19.1612 151.904 16.6016 148.746 16.6016C145.589 16.6016 143.029 19.1612 143.029 22.3186C143.029 25.4761 145.589 28.0357 148.746 28.0357Z" fill="#FB8C00"/>
<path d="M127.319 37.3802L122.84 28.5851L127.333 36.2819L127.374 33.1339L124.296 26.7761L127.385 32.3015L127.459 26.64L124.112 21.5517L127.47 25.7497L127.714 15.415L127.715 15.3721L127.715 15.4157L127.677 28.5286L131.371 23.2204L127.687 29.6405L127.833 35.9699L127.848 35.8026L132.108 30.2026L127.843 36.395L127.862 37.1867L127.869 37.1991L127.864 37.2638L128.057 45.6411C127.778 45.6527 127.496 45.6575 127.212 45.6553L127.22 45.0036L123.334 38.5888L127.228 44.3805L127.319 37.3802Z" fill="#3F3D56"/>
<path d="M106.451 42.4056L101.971 33.6105L106.464 41.3073L106.505 38.1593L103.427 31.8015L106.517 37.3269L106.59 31.6654L103.243 26.5771L106.601 30.7751L106.845 20.4404L106.847 20.3975L106.847 20.4411L106.808 33.554L110.502 28.2458L106.819 34.6659L106.964 40.9953L106.98 40.828L111.24 35.228L106.975 41.4204L106.993 42.212L107 42.2245L106.995 42.2892L107.188 50.6665C106.909 50.6781 106.628 50.6829 106.343 50.6807L106.352 50.029L102.465 43.6142L106.359 49.4059L106.451 42.4056Z" fill="#CBCBCB"/>
<path d="M145.28 36.0081L140.801 27.213L145.294 34.9099L145.335 31.7618L142.257 25.404L145.346 30.9295L145.42 25.268L142.073 20.1797L145.43 24.3776L145.675 14.0429L145.676 14L145.676 14.0436L145.638 27.1565L149.332 21.8483L145.648 28.2684L145.794 34.5978L145.809 34.4305L150.069 28.8306L145.804 35.023L145.823 35.8146L145.83 35.8271L145.825 35.8917L146.018 44.269C145.739 44.2807 145.457 44.2854 145.173 44.2832L145.181 43.6315L141.295 37.2167L145.189 43.0084L145.28 36.0081Z" fill="#3F3D56"/>
<path d="M68.1714 66.2305C70.7806 64.3071 73.5169 62.5624 76.3614 61.0081C84.3172 56.6181 94.1008 52.8643 105.224 49.9564C105.988 49.7559 106.759 49.5599 107.536 49.3685C109.186 48.96 110.864 48.5711 112.569 48.2017C112.99 48.1109 113.412 48.0204 113.836 47.9303C116.209 47.4314 118.629 46.9707 121.097 46.5484C121.146 46.5394 121.196 46.5315 121.246 46.5236C121.826 46.4234 122.408 46.3265 122.992 46.233C134.671 44.3353 147.328 43.2913 160.551 43.2755C160.66 43.2744 160.771 43.2744 160.88 43.2744V88.9996H54C54 80.7094 59.1559 72.935 68.1714 66.2305Z" fill="#F1F1F1"/>
<path d="M89.4082 71.4467C93.9627 68.0601 99.7943 65.0272 106.623 62.4695C107.381 62.1845 108.151 61.9064 108.934 61.6349C109.043 61.5966 109.153 61.5584 109.264 61.5201C110.26 61.1777 111.276 60.8443 112.311 60.52C114.06 59.9734 115.859 59.4568 117.707 58.9703C119.03 58.6208 120.376 58.2878 121.746 57.9713C122.186 57.8684 122.628 57.7686 123.071 57.6717C124.08 57.4472 125.101 57.2325 126.134 57.0275C136.692 54.9237 148.466 53.749 160.88 53.749V89.0002H78.4825C78.4825 82.6089 82.4581 76.615 89.4082 71.4467Z" fill="white"/>
<path d="M110.873 76.7179C120.824 69.3174 139.493 64.335 160.88 64.335V88.9996H103.228C103.228 84.5284 106.01 80.3343 110.873 76.7179Z" fill="#F1F1F1"/>
<path opacity="0.2" d="M68.1714 66.2305L89.4078 71.4461L110.873 76.718L160.88 88.9996H54C54 80.7094 59.1559 72.935 68.1714 66.2305Z" fill="black"/>
<path d="M72.17 84.8375L70.7043 84.8372L70.0068 79.1836H72.1703L72.17 84.8375Z" fill="#FFB7B7"/>
<path d="M72.5438 86.258L67.8174 86.2578V86.198C67.8174 85.7101 68.0113 85.2422 68.3562 84.8972C68.7012 84.5522 69.1691 84.3584 69.657 84.3584H69.6572L72.5439 84.3585L72.5438 86.258Z" fill="#2F2E41"/>
<path d="M85.1207 83.7574L83.7049 84.1376L81.5654 78.8577L83.655 78.2969L85.1207 83.7574Z" fill="#FFB7B7"/>
<path d="M85.8493 85.0328L81.2844 86.258L81.2689 86.2003C81.1425 85.7291 81.2084 85.2269 81.4521 84.8043C81.6959 84.3816 82.0975 84.0731 82.5687 83.9466L82.5688 83.9466L85.3569 83.1982L85.8493 85.0328Z" fill="#2F2E41"/>
<path d="M66.0665 58.6163C65.2193 59.7056 67.882 68.7828 68.003 68.9038C68.124 69.0249 67.882 69.751 67.882 69.751C67.8814 69.8821 67.9239 70.0096 68.003 70.1141C68.124 70.2351 68.003 70.3562 68.003 70.5982C68.003 70.8403 68.003 70.8403 68.2451 71.3244C68.39 71.6681 68.4321 72.0465 68.3661 72.4137L69.9395 81.6119C69.8231 81.662 69.7255 81.7473 69.6603 81.8559C69.5952 81.9645 69.5658 82.0909 69.5764 82.2171C69.5764 82.7012 71.997 82.9433 72.8442 82.8222C73.6914 82.7012 72.239 71.9295 72.239 71.9295C72.239 71.9295 72.239 69.1459 72.4811 68.9038C72.7232 68.6617 72.4811 68.6618 72.4811 68.1776C72.4811 67.6935 72.118 66.9673 72.239 66.6042C72.3601 66.2412 72.4811 61.0369 72.4811 61.0369C72.4811 61.0369 75.2648 66.2412 75.2648 66.9673C75.2648 67.6935 76.112 68.9038 76.112 68.9038L81.6793 80.2612C81.6793 80.2612 81.3163 80.9874 81.6793 81.5925C82.0424 82.1977 83.6158 81.7136 85.1892 81.1084C86.7626 80.5033 84.584 79.535 84.584 79.535L81.1952 69.872C81.2032 69.5061 81.2437 69.1415 81.3162 68.7828C81.4373 68.1776 80.9531 68.4197 80.5901 68.1776C80.227 67.9356 80.348 67.9356 80.5901 67.4514C80.8321 66.9673 80.227 65.878 80.227 65.878L78.6536 56.9219C78.6536 56.9219 66.9137 57.527 66.0665 58.6163Z" fill="#2F2E41"/>
<path d="M69.9661 36.7994C71.704 36.7994 73.1129 35.3905 73.1129 33.6526C73.1129 31.9147 71.704 30.5059 69.9661 30.5059C68.2282 30.5059 66.8193 31.9147 66.8193 33.6526C66.8193 35.3905 68.2282 36.7994 69.9661 36.7994Z" fill="#FFB8B8"/>
<path d="M68.7937 37.7595C68.7937 37.7595 64.5007 39.7266 64.1377 40.6948C63.7746 41.6631 66.4275 50.629 66.4275 50.629C66.4275 50.629 66.5885 54.3988 66.1044 55.8512C65.6203 57.3035 65.7013 57.5276 65.7013 57.5276V58.6169C65.7013 59.2221 69.5743 58.7379 71.5108 58.1328C73.4472 57.5276 78.4095 57.6487 78.8936 57.5276C79.3777 57.4066 78.084 55.8512 78.084 55.8512C79.7784 55.7301 78.084 52.1839 78.084 52.1839C78.084 52.1839 77.9108 40.7045 77.4267 39.1312C76.9426 37.5578 72.4609 37.2705 72.4609 37.2705L70.1794 38.0419L68.7937 37.7595Z" fill="#FF6584"/>
<path d="M73.7795 32.825C73.9414 32.0376 73.7875 31.2181 73.351 30.5431C73.0917 30.147 72.7527 29.8092 72.3557 29.5513C71.9586 29.2934 71.5122 29.121 71.0449 29.0451C70.1203 28.913 69.1774 29.0727 68.3479 29.5019C67.8457 29.7483 67.3023 30.0788 66.7765 29.8984L66.931 30.1755L66.5398 30.1801L66.6827 30.5043L66.3093 30.5576L66.5981 30.7309C66.2121 31.4184 65.9519 32.1694 65.8298 32.9484C65.7563 33.2563 65.7804 33.5796 65.8988 33.8732C66.0402 34.1494 66.4048 34.3107 66.6383 34.1203C66.7847 34.0007 66.8345 33.7911 66.9373 33.627C67.04 33.4629 67.276 33.3485 67.3984 33.4961L67.7141 32.865L67.9668 33.0708C68.5753 32.5353 69.2776 32.117 70.0383 31.837C70.1307 31.7887 70.2329 31.7622 70.3372 31.7593C70.4414 31.7565 70.5449 31.7775 70.6398 31.8206C70.9218 32.0013 70.881 32.4638 71.0763 32.7478C71.394 33.2095 72.1764 33.0178 72.4773 33.4924C72.5656 33.6811 72.6254 33.8818 72.6546 34.0881C72.7083 34.2897 72.838 34.5015 73.0323 34.5146C73.4422 34.0918 73.5988 33.5056 73.7795 32.825Z" fill="#2F2E41"/>
<path d="M81.3741 57.8138C81.2134 57.705 81.0785 57.5623 80.9789 57.3957C80.8793 57.2292 80.8175 57.0428 80.7977 56.8497C80.778 56.6566 80.8008 56.4616 80.8645 56.2783C80.9283 56.095 81.0315 55.9279 81.1669 55.7888L79.0508 51.5723L81.4853 51.8605L83.1215 55.8204C83.3402 56.0633 83.4621 56.3779 83.4643 56.7046C83.4664 57.0314 83.3486 57.3476 83.1333 57.5933C82.9179 57.839 82.6198 57.9972 82.2956 58.0378C81.9714 58.0785 81.6435 57.9988 81.3741 57.8138L81.3741 57.8138Z" fill="#FFB8B8"/>
<path d="M79.6313 54.7876L77.1644 46.8021L74.3489 40.6971C74.2301 40.4394 74.1713 40.158 74.1772 39.8743C74.183 39.5905 74.2532 39.3118 74.3825 39.0592C74.5118 38.8066 74.6968 38.5866 74.9236 38.416C75.1504 38.2453 75.4129 38.1284 75.6915 38.0741C76.133 37.9902 76.5901 38.067 76.9799 38.2906C77.3698 38.5142 77.6669 38.8699 77.8175 39.2934L82.952 53.9483C82.9799 54.0279 82.9905 54.1125 82.9831 54.1966C82.9757 54.2806 82.9505 54.3621 82.9092 54.4356C82.8679 54.5092 82.8114 54.5731 82.7435 54.6231C82.6755 54.6731 82.5977 54.7081 82.5152 54.7257L80.3229 55.1932C80.2813 55.202 80.2389 55.2065 80.1965 55.2066C80.0698 55.2066 79.9465 55.1658 79.8447 55.0904C79.7429 55.0149 79.6681 54.9088 79.6313 54.7876Z" fill="#FF6584"/>
<path d="M64.3863 60.5717C64.5194 60.4305 64.6199 60.2617 64.6807 60.0775C64.7416 59.8932 64.7613 59.6978 64.7384 59.505C64.7156 59.3123 64.6508 59.1269 64.5486 58.962C64.4463 58.797 64.3092 58.6564 64.1467 58.5502L65.292 53.9736L62.979 54.7861L62.246 59.0075C62.0857 59.2922 62.0353 59.6258 62.1045 59.9452C62.1737 60.2645 62.3576 60.5474 62.6214 60.7402C62.8852 60.933 63.2106 61.0224 63.5358 60.9913C63.8611 60.9602 64.1637 60.8109 64.3863 60.5717V60.5717Z" fill="#FFB8B8"/>
<path d="M64.9677 57.7697C64.9262 57.7789 64.8839 57.7838 64.8414 57.7842L62.5999 57.8062C62.5156 57.8071 62.432 57.7899 62.3548 57.7559C62.2776 57.7219 62.2085 57.6719 62.1521 57.6091C62.0957 57.5464 62.0534 57.4723 62.0278 57.3919C62.0023 57.3115 61.9942 57.2266 62.0041 57.1428L63.8178 41.7208C63.8724 41.2747 64.0847 40.8627 64.4164 40.5595C64.7481 40.2562 65.1774 40.0816 65.6266 40.0671C65.9103 40.0593 66.1921 40.1161 66.4506 40.2332C66.7091 40.3503 66.9377 40.5246 67.119 40.7429C67.3003 40.9612 67.4296 41.2179 67.4972 41.4935C67.5648 41.7692 67.5688 42.0566 67.5091 42.334L66.0932 48.9062L65.4278 57.2375C65.4183 57.3638 65.3685 57.4837 65.2856 57.5796C65.2028 57.6754 65.0913 57.742 64.9677 57.7697Z" fill="#FF6584"/>
</svg>
