<svg width="369" height="222" viewBox="0 0 369 222" fill="none" xmlns="http://www.w3.org/2000/svg">
<path d="M120.403 221.205H66.9023C60.3787 221.205 55.0714 215.898 55.0714 209.374V94.3963C55.0714 87.8728 60.3787 82.5654 66.9023 82.5654H120.403C126.927 82.5654 132.234 87.8728 132.234 94.3963V209.374C132.234 215.898 126.927 221.205 120.403 221.205Z" fill="#3F3D56"/>
<path d="M132.234 124.857C131.957 124.857 131.733 125.082 131.733 125.358V141.374C131.733 141.65 131.957 141.875 132.234 141.875C132.51 141.875 132.734 141.65 132.734 141.374V125.358C132.734 125.082 132.51 124.857 132.234 124.857Z" fill="#3F3D56"/>
<path d="M131.108 94.3972V209.373C131.108 215.051 126.688 219.696 121.1 220.056H121.098C121.015 220.061 120.932 220.066 120.847 220.068C120.7 220.076 120.552 220.078 120.402 220.078C120.402 220.078 119.851 220.038 118.845 219.963C117.829 219.888 116.35 219.776 114.506 219.628C113.953 219.585 113.37 219.538 112.754 219.488C111.528 219.388 110.182 219.278 108.738 219.152C108.162 219.105 107.567 219.052 106.958 219C103.85 218.732 100.369 218.419 96.6981 218.064C96.0775 218.006 95.4519 217.946 94.8212 217.884C94.6561 217.866 94.4884 217.851 94.3207 217.834C91.7031 217.576 56.1973 210.714 56.1973 209.373V94.3972C56.1973 88.4837 60.9896 83.6914 66.903 83.6914H73.2944C74.3155 83.6914 75.1363 84.4872 75.2239 85.5057C75.2314 85.5733 75.2389 85.6409 75.2514 85.7084C75.4366 86.732 76.375 87.4452 77.4161 87.4452H109.889C110.93 87.4452 111.868 86.732 112.054 85.7084C112.066 85.6409 112.074 85.5733 112.081 85.5057C112.169 84.4872 112.989 83.6914 114.01 83.6914H120.402C126.315 83.6914 131.108 88.4837 131.108 94.3972H131.108Z" fill="white"/>
<path d="M54.8212 112.846C54.5451 112.846 54.3207 113.07 54.3207 113.346V117.35C54.3207 117.626 54.5451 117.851 54.8212 117.851C55.0972 117.851 55.3217 117.626 55.3217 117.35V113.346C55.3217 113.07 55.0972 112.846 54.8212 112.846Z" fill="#3F3D56"/>
<path d="M54.8212 124.857C54.5451 124.857 54.3207 125.082 54.3207 125.358V133.116C54.3207 133.392 54.5451 133.616 54.8212 133.616C55.0972 133.616 55.3217 133.392 55.3217 133.116V125.358C55.3217 125.082 55.0972 124.857 54.8212 124.857Z" fill="#3F3D56"/>
<path d="M54.8212 135.869C54.5451 135.869 54.3207 136.094 54.3207 136.37V144.127C54.3207 144.403 54.5451 144.628 54.8212 144.628C55.0972 144.628 55.3217 144.403 55.3217 144.127V136.37C55.3217 136.094 55.0972 135.869 54.8212 135.869Z" fill="#3F3D56"/>
<path d="M73.1209 85.4434H63.5493C63.4973 85.4434 63.4552 85.4855 63.4552 85.5374V86.6005C63.4552 86.6525 63.4973 86.6946 63.5493 86.6946H73.1209C73.1729 86.6946 73.215 86.6525 73.215 86.6005V85.5374C73.215 85.4855 73.1729 85.4434 73.1209 85.4434Z" fill="#E6E6E6"/>
<path d="M115.594 86.6944C116.147 86.6944 116.595 86.2462 116.595 85.6934C116.595 85.1405 116.147 84.6924 115.594 84.6924C115.041 84.6924 114.593 85.1405 114.593 85.6934C114.593 86.2462 115.041 86.6944 115.594 86.6944Z" fill="#E6E6E6"/>
<path d="M118.345 86.6944C118.898 86.6944 119.346 86.2462 119.346 85.6934C119.346 85.1405 118.898 84.6924 118.345 84.6924C117.792 84.6924 117.344 85.1405 117.344 85.6934C117.344 86.2462 117.792 86.6944 118.345 86.6944Z" fill="#E6E6E6"/>
<path d="M121.097 86.6944C121.65 86.6944 122.098 86.2462 122.098 85.6934C122.098 85.1405 121.65 84.6924 121.097 84.6924C120.544 84.6924 120.096 85.1405 120.096 85.6934C120.096 86.2462 120.544 86.6944 121.097 86.6944Z" fill="#E6E6E6"/>
<path d="M107.301 215.707L109.554 215.84L111.141 207.215L107.816 207.018L107.301 215.707Z" fill="#FFB6B6"/>
<path d="M115.023 216.113C115.086 216.236 115.1 216.619 115.092 216.757C115.067 217.179 114.704 217.501 114.282 217.476L107.305 217.062C107.017 217.045 106.797 216.797 106.814 216.509L106.832 216.219C106.832 216.219 106.538 215.325 107.313 214.292C107.313 214.292 108.146 215.187 109.544 213.945L109.975 213.263L112.67 215.491L114.22 215.775C114.559 215.838 114.864 215.807 115.023 216.113Z" fill="#2F2E41"/>
<path d="M117.546 216.314L119.799 216.448L121.387 207.822L118.062 207.625L117.546 216.314Z" fill="#FFB6B6"/>
<path d="M125.268 216.721C125.331 216.843 125.345 217.227 125.337 217.364C125.312 217.786 124.949 218.108 124.527 218.083L117.55 217.669C117.262 217.652 117.042 217.405 117.059 217.117L117.077 216.826C117.077 216.826 116.783 215.933 117.558 214.899C117.558 214.899 118.391 215.794 119.789 214.553L120.22 213.871L122.915 216.098L124.465 216.383C124.804 216.445 125.11 216.414 125.268 216.721Z" fill="#2F2E41"/>
<path d="M106.904 161.245L122.557 162.593L123.932 166.45L124.437 191.022L121.487 212.452L116.605 212.163L117.811 191.843L114.863 179.127L111.49 211.23L106.413 211.558L105.66 189.279L105.031 168.056L106.904 161.245Z" fill="#2F2E41"/>
<path d="M114.137 133.565L119.559 134.097L120.038 136.642C120.038 136.642 126.615 138.92 126.049 141.404C125.482 143.887 122.734 154.841 122.734 154.841C122.734 154.841 124.612 162.085 123.099 162.834C121.586 163.583 106.557 161.853 106.557 161.853C106.557 161.853 105.517 158.644 106.168 158.264C106.82 157.883 105.502 137.668 105.945 137.274C106.388 136.881 113.41 135.2 113.41 135.2L114.137 133.565Z" fill="#FB8C00"/>
<path d="M102.233 153.834L101.641 156.735L105.62 167.459L107.994 166.341L106.068 156.369L105.873 152.581L102.233 153.834Z" fill="#FFB6B6"/>
<path d="M107.6 137.582C107.6 137.582 105.363 136.401 103.467 140.064C101.571 143.727 101.506 151.904 101.506 151.904C101.506 151.904 100.842 152.494 101.235 152.937C101.628 153.38 102.481 152.443 101.608 153.725C101.148 154.4 99.9063 154.116 101.148 154.4C102.39 154.683 101.985 154.073 101.541 154.843C101.308 155.248 100.471 155.199 101.295 155.457C102.119 155.716 106.348 155.607 106.348 155.607C106.348 155.607 107.825 155.006 107.014 154.538C106.202 154.07 105.789 153.963 106.217 153.82C106.645 153.677 107.69 153.739 107.101 153.075C106.511 152.411 106.093 152.386 106.511 152.411C106.929 152.435 107.459 151.456 107.459 151.456L107.6 137.582Z" fill="#FB8C00"/>
<path d="M105.776 169.23C105.358 167.675 105.766 166.213 106.69 165.964C107.613 165.716 108.701 166.775 109.12 168.329C109.539 169.884 109.13 171.346 108.207 171.595C107.283 171.844 106.195 170.785 105.776 169.23Z" fill="#FFB6B6"/>
<path d="M131.416 154.573L132.934 157.116L143.1 162.359L144.101 159.934L135.958 153.862L133.262 151.195L131.416 154.573Z" fill="#FFB6B6"/>
<path d="M124.433 138.946C124.433 138.946 121.983 139.581 123.051 143.565C124.119 147.549 129.58 153.635 129.58 153.635C129.58 153.635 129.487 154.518 130.076 154.581C130.665 154.643 130.664 153.376 130.883 154.912C130.998 155.72 129.889 156.348 130.998 155.72C132.106 155.093 131.396 154.915 131.587 155.783C131.687 156.24 131.036 156.767 131.819 156.403C132.602 156.039 135.653 153.109 135.653 153.109C135.653 153.109 136.34 151.67 135.425 151.871C134.51 152.072 134.133 152.271 134.353 151.877C134.573 151.483 135.387 150.824 134.503 150.731C133.62 150.638 133.294 150.901 133.62 150.638C133.945 150.374 133.677 149.293 133.677 149.293L124.433 138.946Z" fill="#FB8C00"/>
<path d="M144.408 163.561C143.051 162.694 142.368 161.338 142.882 160.532C143.397 159.727 144.914 159.776 146.272 160.643C147.629 161.509 148.312 162.865 147.797 163.671C147.283 164.477 145.765 164.427 144.408 163.561Z" fill="#FFB6B6"/>
<path d="M116.677 132.691C113.905 132.527 111.79 130.146 111.955 127.373C112.119 124.601 114.5 122.487 117.273 122.651C120.045 122.816 122.16 125.197 121.995 127.969C121.831 130.741 119.45 132.856 116.677 132.691Z" fill="#FFB6B6"/>
<path d="M121.225 123.87C121.013 123.13 120.33 122.649 119.561 122.62C119.529 122.619 119.496 122.617 119.464 122.614C119.078 122.575 118.715 122.421 118.34 122.321C117.642 122.134 116.894 122.139 116.198 122.333C115.981 122.393 115.763 122.472 115.539 122.459C115.315 122.445 115.078 122.308 115.036 122.087C115.011 122.283 114.987 122.48 114.962 122.676C114.899 122.512 114.835 122.348 114.772 122.185L114.588 122.811L114.151 122.253C114.179 122.489 114.029 122.717 113.835 122.856C113.641 122.994 113.408 123.064 113.184 123.144C112.216 123.49 111.287 124.15 110.956 125.124C110.747 125.739 110.798 126.408 110.851 127.055C110.897 127.627 110.95 128.22 111.23 128.721C111.409 129.043 111.679 129.32 111.779 129.675C111.872 130.005 111.807 130.373 111.949 130.685C112.092 130.999 112.412 131.191 112.73 131.326C113.047 131.461 113.386 131.563 113.653 131.781C113.921 131.999 114.21 132.598 114.82 132.603L115.038 132.246C115.25 132.093 114.495 132.179 114.502 131.919C114.51 131.658 115.426 131.551 115.311 131.317C115.135 130.958 114.886 130.64 114.684 130.295C114.447 129.891 114.27 129.426 114.387 128.957C114.433 128.775 114.53 128.606 114.669 128.48C115.071 128.117 115.483 128.312 115.89 128.391C116.171 128.446 116.511 128.422 116.672 128.186C116.861 127.91 116.691 127.534 116.735 127.203C116.78 126.851 117.065 126.578 117.368 126.394C117.671 126.21 118.01 126.083 118.286 125.86C118.562 125.638 118.513 125.759 118.419 125.417C120.278 126.992 120.14 124.455 121.428 124.848C121.385 124.517 121.317 124.19 121.225 123.87L121.225 123.87Z" fill="#2F2E41"/>
<path d="M284.457 125.943C289.342 125.943 293.302 121.982 293.302 117.097C293.302 112.212 289.342 108.252 284.457 108.252C279.571 108.252 275.611 112.212 275.611 117.097C275.611 121.982 279.571 125.943 284.457 125.943Z" fill="#FB8C00"/>
<path d="M251.306 140.4L244.375 126.792L251.327 138.701L251.39 133.83L246.627 123.994L251.407 132.542L251.521 123.783L246.343 115.911L251.538 122.406L251.916 106.416L251.918 106.35L251.918 106.417L251.858 126.705L257.574 118.492L251.875 128.425L252.1 138.218L252.124 137.959L258.715 129.295L252.116 138.876L252.145 140.1L252.156 140.12L252.147 140.22L252.446 153.181C252.015 153.199 251.579 153.206 251.139 153.203L251.152 152.195L245.139 142.27L251.164 151.231L251.306 140.4Z" fill="#3F3D56"/>
<path d="M219.018 148.174L212.088 134.567L219.039 146.475L219.102 141.605L214.34 131.768L219.12 140.317L219.233 131.557L214.056 123.685L219.25 130.18L219.629 114.19L219.631 114.124L219.631 114.192L219.571 134.479L225.287 126.267L219.587 136.2L219.813 145.992L219.836 145.733L226.427 137.069L219.829 146.65L219.857 147.875L219.868 147.894L219.86 147.994L220.159 160.955C219.728 160.973 219.292 160.981 218.852 160.977L218.865 159.969L212.851 150.044L218.877 159.005L219.018 148.174Z" fill="#CBCBCB"/>
<path d="M279.094 138.277L272.164 124.669L279.115 136.578L279.179 131.707L274.416 121.871L279.196 130.419L279.31 121.66L274.132 113.788L279.327 120.283L279.705 104.293L279.707 104.227L279.707 104.294L279.647 124.582L285.363 116.369L279.664 126.302L279.889 136.095L279.913 135.836L286.504 127.172L279.905 136.753L279.933 137.977L279.944 137.997L279.936 138.097L280.235 151.058C279.804 151.076 279.368 151.083 278.928 151.08L278.941 150.072L272.928 140.147L278.953 149.108L279.094 138.277Z" fill="#3F3D56"/>
<path d="M159.794 185.036C163.83 182.06 168.064 179.36 172.465 176.956C184.774 170.163 199.911 164.356 217.119 159.857C218.302 159.547 219.494 159.243 220.697 158.947C223.25 158.315 225.846 157.713 228.484 157.142C229.136 157.001 229.789 156.861 230.444 156.722C234.116 155.95 237.86 155.237 241.678 154.584C241.755 154.57 241.831 154.558 241.91 154.546C242.806 154.391 243.706 154.241 244.611 154.096C262.68 151.16 282.262 149.545 302.72 149.52C302.889 149.519 303.06 149.519 303.229 149.519V220.263H137.868C137.868 207.437 145.845 195.409 159.794 185.036Z" fill="#F1F1F1"/>
<path d="M192.65 193.106C199.697 187.866 208.72 183.174 219.284 179.217C220.457 178.776 221.649 178.345 222.86 177.925C223.029 177.866 223.2 177.807 223.37 177.748C224.912 177.218 226.484 176.702 228.085 176.2C230.792 175.355 233.574 174.556 236.434 173.803C238.48 173.262 240.563 172.747 242.682 172.257C243.363 172.098 244.047 171.944 244.733 171.794C246.294 171.446 247.873 171.114 249.471 170.797C265.807 167.542 284.023 165.725 303.23 165.725V220.264H175.747C175.747 210.376 181.898 201.102 192.65 193.106Z" fill="white"/>
<path d="M225.86 201.262C241.256 189.812 270.139 182.104 303.229 182.104V220.264H214.032C214.032 213.346 218.336 206.857 225.86 201.262Z" fill="#F1F1F1"/>
<path opacity="0.2" d="M159.794 185.036L192.65 193.106L225.86 201.262L303.229 220.264H137.868C137.868 207.437 145.845 195.409 159.794 185.036Z" fill="black"/>
<path d="M165.98 213.825L163.712 213.824L162.633 205.077H165.98L165.98 213.825Z" fill="#FFB7B7"/>
<path d="M166.558 216.022L159.246 216.022V215.929C159.246 215.174 159.546 214.45 160.08 213.917C160.613 213.383 161.337 213.083 162.092 213.083H162.092L166.559 213.083L166.558 216.022Z" fill="#2F2E41"/>
<path d="M186.017 212.153L183.826 212.742L180.516 204.573L183.749 203.705L186.017 212.153Z" fill="#FFB7B7"/>
<path d="M187.144 214.126L180.082 216.022L180.058 215.933C179.862 215.204 179.964 214.427 180.341 213.773C180.718 213.119 181.34 212.642 182.069 212.446L182.069 212.446L186.382 211.288L187.144 214.126Z" fill="#2F2E41"/>
<path d="M156.537 173.256C155.226 174.942 159.346 188.986 159.533 189.173C159.72 189.36 159.346 190.484 159.346 190.484C159.345 190.686 159.411 190.884 159.533 191.045C159.72 191.233 159.533 191.42 159.533 191.794C159.533 192.169 159.533 192.169 159.908 192.918C160.132 193.45 160.197 194.035 160.095 194.603L162.529 208.834C162.349 208.912 162.198 209.044 162.097 209.212C161.996 209.38 161.951 209.575 161.967 209.771C161.967 210.52 165.712 210.894 167.023 210.707C168.334 210.52 166.087 193.854 166.087 193.854C166.087 193.854 166.087 189.547 166.461 189.173C166.836 188.798 166.461 188.798 166.461 188.049C166.461 187.3 165.9 186.177 166.087 185.615C166.274 185.053 166.461 177.001 166.461 177.001C166.461 177.001 170.768 185.053 170.768 186.177C170.768 187.3 172.079 189.173 172.079 189.173L180.693 206.745C180.693 206.745 180.131 207.868 180.693 208.804C181.254 209.741 183.689 208.992 186.123 208.055C188.557 207.119 185.187 205.621 185.187 205.621L179.944 190.671C179.956 190.105 180.019 189.541 180.131 188.986C180.318 188.049 179.569 188.424 179.007 188.049C178.446 187.675 178.633 187.675 179.007 186.926C179.382 186.177 178.446 184.491 178.446 184.491L176.011 170.635C176.011 170.635 157.848 171.571 156.537 173.256Z" fill="#2F2E41"/>
<path d="M162.57 139.502C165.259 139.502 167.439 137.322 167.439 134.633C167.439 131.944 165.259 129.765 162.57 129.765C159.881 129.765 157.702 131.944 157.702 134.633C157.702 137.322 159.881 139.502 162.57 139.502Z" fill="#FFB8B8"/>
<path d="M160.756 140.987C160.756 140.987 154.114 144.03 153.553 145.528C152.991 147.027 157.096 160.898 157.096 160.898C157.096 160.898 157.345 166.731 156.596 168.978C155.847 171.225 155.972 171.572 155.972 171.572V173.257C155.972 174.193 161.964 173.444 164.96 172.508C167.956 171.572 175.634 171.759 176.383 171.572C177.132 171.384 175.13 168.978 175.13 168.978C177.752 168.791 175.13 163.304 175.13 163.304C175.13 163.304 174.862 145.544 174.113 143.109C173.364 140.675 166.43 140.23 166.43 140.23L162.9 141.424L160.756 140.987Z" fill="#FF6584"/>
<path d="M168.47 133.352C168.721 132.134 168.483 130.866 167.807 129.822C167.406 129.209 166.882 128.687 166.267 128.287C165.653 127.888 164.962 127.622 164.239 127.504C162.809 127.3 161.35 127.547 160.067 128.211C159.29 128.592 158.449 129.104 157.635 128.824L157.874 129.253L157.269 129.26L157.49 129.762L156.913 129.844L157.359 130.113C156.762 131.176 156.36 132.338 156.171 133.543C156.057 134.02 156.094 134.52 156.278 134.974C156.496 135.402 157.06 135.651 157.422 135.356C157.648 135.172 157.725 134.847 157.884 134.593C158.043 134.339 158.408 134.162 158.598 134.391L159.086 133.414L159.477 133.733C160.419 132.904 161.505 132.257 162.682 131.824C162.825 131.749 162.983 131.708 163.144 131.704C163.306 131.699 163.466 131.732 163.613 131.799C164.049 132.078 163.986 132.794 164.288 133.233C164.78 133.947 165.99 133.651 166.455 134.385C166.592 134.677 166.685 134.988 166.73 135.307C166.813 135.619 167.014 135.946 167.314 135.967C167.948 135.312 168.191 134.405 168.47 133.352Z" fill="#2F2E41"/>
<path d="M180.22 172.014C179.972 171.846 179.763 171.625 179.609 171.367C179.455 171.11 179.359 170.821 179.329 170.522C179.298 170.224 179.333 169.922 179.432 169.638C179.531 169.355 179.69 169.096 179.9 168.881L176.626 162.357L180.393 162.803L182.924 168.93C183.262 169.306 183.451 169.792 183.454 170.298C183.458 170.804 183.275 171.293 182.942 171.673C182.609 172.053 182.148 172.298 181.646 172.361C181.145 172.424 180.637 172.3 180.22 172.014L180.22 172.014Z" fill="#FFB8B8"/>
<path d="M177.524 167.333L173.707 154.978L169.351 145.532C169.167 145.134 169.076 144.698 169.085 144.259C169.094 143.82 169.203 143.389 169.403 142.998C169.603 142.607 169.889 142.267 170.24 142.003C170.591 141.739 170.997 141.558 171.428 141.474C172.112 141.344 172.819 141.463 173.422 141.809C174.025 142.155 174.485 142.705 174.718 143.36L182.662 166.034C182.705 166.157 182.721 166.288 182.71 166.418C182.698 166.548 182.659 166.674 182.595 166.788C182.532 166.902 182.444 167.001 182.339 167.078C182.234 167.156 182.113 167.21 181.986 167.237L178.594 167.96C178.53 167.974 178.464 167.981 178.398 167.981C178.202 167.981 178.012 167.918 177.854 167.801C177.697 167.684 177.581 167.52 177.524 167.333Z" fill="#FF6584"/>
<path d="M153.937 176.282C154.143 176.063 154.299 175.802 154.393 175.517C154.487 175.232 154.518 174.929 154.482 174.631C154.447 174.333 154.347 174.046 154.188 173.791C154.03 173.536 153.818 173.318 153.567 173.154L155.339 166.073L151.76 167.33L150.626 173.861C150.378 174.302 150.3 174.818 150.407 175.312C150.514 175.806 150.799 176.244 151.207 176.542C151.615 176.841 152.118 176.979 152.622 176.931C153.125 176.883 153.593 176.652 153.937 176.282V176.282Z" fill="#FFB8B8"/>
<path d="M154.837 171.947C154.773 171.961 154.707 171.968 154.642 171.969L151.174 172.003C151.043 172.004 150.914 171.978 150.794 171.925C150.675 171.873 150.568 171.795 150.481 171.698C150.393 171.601 150.328 171.487 150.288 171.362C150.249 171.238 150.236 171.106 150.252 170.977L153.058 147.116C153.142 146.426 153.471 145.789 153.984 145.32C154.497 144.85 155.161 144.58 155.856 144.558C156.295 144.546 156.731 144.634 157.131 144.815C157.531 144.996 157.885 145.265 158.165 145.603C158.446 145.941 158.646 146.338 158.75 146.765C158.855 147.191 158.861 147.636 158.769 148.065L156.578 158.233L155.549 171.123C155.534 171.319 155.457 171.504 155.329 171.652C155.201 171.801 155.028 171.904 154.837 171.947Z" fill="#FF6584"/>
<g filter="url(#filter0_d_2485_12)">
<rect x="32" y="32" width="283" height="83" fill="white"/>
</g>
<path d="M74.2475 78.2303H83.1414C83.5614 78.2303 83.9137 78.088 84.1983 77.8034C84.4819 77.5197 84.6237 77.1679 84.6237 76.7479V73.7833L87.5884 76.7479V67.854L84.6237 70.8187V67.854C84.6237 67.434 84.4819 67.0817 84.1983 66.7971C83.9137 66.5135 83.5614 66.3717 83.1414 66.3717H74.2475C73.8275 66.3717 73.4752 66.5135 73.1906 66.7971C72.9069 67.0817 72.7651 67.434 72.7651 67.854V76.7479C72.7651 77.1679 72.9069 77.5197 73.1906 77.8034C73.4752 78.088 73.8275 78.2303 74.2475 78.2303ZM65.3535 90.0889V63.407C65.3535 62.5918 65.6441 61.8936 66.2251 61.3125C66.8052 60.7324 67.5029 60.4424 68.3182 60.4424H92.0354C92.8506 60.4424 93.5488 60.7324 94.1299 61.3125C94.71 61.8936 95 62.5918 95 63.407V81.1949C95 82.0102 94.71 82.7084 94.1299 83.2894C93.5488 83.8695 92.8506 84.1596 92.0354 84.1596H71.2828L65.3535 90.0889ZM68.3182 82.9367L70.0599 81.1949H92.0354V63.407H68.3182V82.9367Z" fill="#FB8C00"/>
<circle cx="243.736" cy="74.4318" r="9.65734" fill="#0A8100"/>
<path d="M248.001 79.2609C246.883 79.2609 245.779 79.0173 244.688 78.5301C243.597 78.043 242.605 77.3521 241.711 76.4575C240.816 75.5633 240.126 74.5708 239.639 73.4799C239.151 72.3889 238.908 71.2846 238.907 70.1669C238.907 70.0059 238.961 69.8718 239.068 69.7645C239.175 69.6572 239.31 69.6035 239.471 69.6035H241.643C241.769 69.6035 241.88 69.6461 241.979 69.7312C242.077 69.8163 242.135 69.9168 242.153 70.0327L242.502 71.9105C242.52 72.0536 242.515 72.1743 242.488 72.2727C242.462 72.3711 242.412 72.456 242.341 72.5275L241.04 73.842C241.219 74.1729 241.431 74.4925 241.677 74.8008C241.922 75.1091 242.193 75.4065 242.488 75.693C242.766 75.9702 243.056 76.2274 243.36 76.4645C243.664 76.7017 243.986 76.9184 244.326 77.1148L245.587 75.854C245.667 75.7735 245.773 75.7132 245.902 75.6732C246.032 75.6331 246.16 75.6218 246.284 75.6394L248.135 76.0149C248.261 76.0507 248.363 76.1156 248.444 76.2097C248.524 76.3037 248.565 76.4087 248.565 76.5246V78.6975C248.565 78.8585 248.511 78.9926 248.404 79.0999C248.296 79.2072 248.162 79.2609 248.001 79.2609Z" fill="white"/>
<circle cx="278.343" cy="74.4316" r="9.65734" transform="rotate(134.591 278.343 74.4316)" fill="#FF0000"/>
<path d="M271.91 74.0812C272.694 73.2852 273.643 72.6697 274.756 72.2348C275.869 71.8 277.058 71.5781 278.322 71.5693C279.587 71.5603 280.779 71.7653 281.897 72.1842C283.016 72.6031 283.974 73.2048 284.77 73.9893C284.885 74.1023 284.943 74.2346 284.944 74.3864C284.945 74.5381 284.889 74.6713 284.776 74.7859L283.25 76.3334C283.163 76.4225 283.054 76.4722 282.924 76.4825C282.794 76.4928 282.682 76.4636 282.587 76.395L281.005 75.3251C280.89 75.2374 280.808 75.1494 280.756 75.0613C280.705 74.9731 280.679 74.8785 280.678 74.7773L280.656 72.9279C280.295 72.823 279.918 72.7498 279.526 72.7084C279.134 72.6669 278.732 72.6508 278.321 72.6601C277.929 72.6629 277.541 72.6893 277.159 72.7393C276.777 72.7894 276.396 72.8664 276.018 72.9706L276.031 74.7536C276.032 74.8674 276.001 74.9846 275.938 75.1052C275.875 75.2258 275.794 75.3244 275.694 75.401L274.127 76.4555C274.014 76.5195 273.895 76.5472 273.772 76.5384C273.648 76.5297 273.545 76.4847 273.463 76.4033L271.915 74.8778C271.801 74.7648 271.743 74.6325 271.742 74.4807C271.741 74.329 271.797 74.1958 271.91 74.0812Z" fill="white"/>
<path d="M105.536 73.368C105.536 72.2587 105.776 71.272 106.256 70.408C106.736 69.5333 107.402 68.856 108.256 68.376C109.12 67.8853 110.096 67.64 111.184 67.64C112.517 67.64 113.658 67.992 114.608 68.696C115.557 69.4 116.192 70.36 116.512 71.576H113.504C113.28 71.1067 112.96 70.7493 112.544 70.504C112.138 70.2587 111.674 70.136 111.152 70.136C110.309 70.136 109.626 70.4293 109.104 71.016C108.581 71.6027 108.32 72.3867 108.32 73.368C108.32 74.3493 108.581 75.1333 109.104 75.72C109.626 76.3067 110.309 76.6 111.152 76.6C111.674 76.6 112.138 76.4773 112.544 76.232C112.96 75.9867 113.28 75.6293 113.504 75.16H116.512C116.192 76.376 115.557 77.336 114.608 78.04C113.658 78.7333 112.517 79.08 111.184 79.08C110.096 79.08 109.12 78.84 108.256 78.36C107.402 77.8693 106.736 77.192 106.256 76.328C105.776 75.464 105.536 74.4773 105.536 73.368ZM122.251 79.128C121.377 79.128 120.587 78.9413 119.883 78.568C119.19 78.1947 118.641 77.6613 118.235 76.968C117.841 76.2747 117.643 75.464 117.643 74.536C117.643 73.6187 117.846 72.8133 118.251 72.12C118.657 71.416 119.211 70.8773 119.915 70.504C120.619 70.1307 121.409 69.944 122.283 69.944C123.158 69.944 123.947 70.1307 124.651 70.504C125.355 70.8773 125.91 71.416 126.315 72.12C126.721 72.8133 126.923 73.6187 126.923 74.536C126.923 75.4533 126.715 76.264 126.299 76.968C125.894 77.6613 125.334 78.1947 124.619 78.568C123.915 78.9413 123.126 79.128 122.251 79.128ZM122.251 76.76C122.774 76.76 123.217 76.568 123.579 76.184C123.953 75.8 124.139 75.2507 124.139 74.536C124.139 73.8213 123.958 73.272 123.595 72.888C123.243 72.504 122.806 72.312 122.283 72.312C121.75 72.312 121.307 72.504 120.955 72.888C120.603 73.2613 120.427 73.8107 120.427 74.536C120.427 75.2507 120.598 75.8 120.939 76.184C121.291 76.568 121.729 76.76 122.251 76.76ZM133.815 69.976C134.86 69.976 135.692 70.3173 136.311 71C136.94 71.672 137.255 72.6 137.255 73.784V79H134.535V74.152C134.535 73.5547 134.38 73.0907 134.071 72.76C133.761 72.4293 133.345 72.264 132.823 72.264C132.3 72.264 131.884 72.4293 131.575 72.76C131.265 73.0907 131.111 73.5547 131.111 74.152V79H128.375V70.072H131.111V71.256C131.388 70.8613 131.761 70.552 132.231 70.328C132.7 70.0933 133.228 69.976 133.815 69.976ZM144.596 69.976C145.641 69.976 146.473 70.3173 147.092 71C147.721 71.672 148.036 72.6 148.036 73.784V79H145.316V74.152C145.316 73.5547 145.161 73.0907 144.852 72.76C144.543 72.4293 144.127 72.264 143.604 72.264C143.081 72.264 142.665 72.4293 142.356 72.76C142.047 73.0907 141.892 73.5547 141.892 74.152V79H139.156V70.072H141.892V71.256C142.169 70.8613 142.543 70.552 143.012 70.328C143.481 70.0933 144.009 69.976 144.596 69.976ZM158.353 74.392C158.353 74.648 158.337 74.9147 158.305 75.192H152.113C152.156 75.7467 152.332 76.1733 152.641 76.472C152.961 76.76 153.351 76.904 153.809 76.904C154.492 76.904 154.967 76.616 155.233 76.04H158.145C157.996 76.6267 157.724 77.1547 157.329 77.624C156.945 78.0933 156.46 78.4613 155.873 78.728C155.287 78.9947 154.631 79.128 153.905 79.128C153.031 79.128 152.252 78.9413 151.569 78.568C150.887 78.1947 150.353 77.6613 149.969 76.968C149.585 76.2747 149.393 75.464 149.393 74.536C149.393 73.608 149.58 72.7973 149.953 72.104C150.337 71.4107 150.871 70.8773 151.553 70.504C152.236 70.1307 153.02 69.944 153.905 69.944C154.769 69.944 155.537 70.1253 156.209 70.488C156.881 70.8507 157.404 71.368 157.777 72.04C158.161 72.712 158.353 73.496 158.353 74.392ZM155.553 73.672C155.553 73.2027 155.393 72.8293 155.073 72.552C154.753 72.2747 154.353 72.136 153.873 72.136C153.415 72.136 153.025 72.2693 152.705 72.536C152.396 72.8027 152.204 73.1813 152.129 73.672H155.553ZM159.253 74.536C159.253 73.608 159.439 72.7973 159.813 72.104C160.197 71.4107 160.725 70.8773 161.397 70.504C162.079 70.1307 162.858 69.944 163.733 69.944C164.853 69.944 165.786 70.2373 166.533 70.824C167.29 71.4107 167.786 72.2373 168.021 73.304H165.109C164.863 72.6213 164.389 72.28 163.685 72.28C163.183 72.28 162.783 72.4773 162.485 72.872C162.186 73.256 162.037 73.8107 162.037 74.536C162.037 75.2613 162.186 75.8213 162.485 76.216C162.783 76.6 163.183 76.792 163.685 76.792C164.389 76.792 164.863 76.4507 165.109 75.768H168.021C167.786 76.8133 167.29 77.6347 166.533 78.232C165.775 78.8293 164.842 79.128 163.733 79.128C162.858 79.128 162.079 78.9413 161.397 78.568C160.725 78.1947 160.197 77.6613 159.813 76.968C159.439 76.2747 159.253 75.464 159.253 74.536ZM174.46 76.68V79H173.068C172.076 79 171.303 78.76 170.748 78.28C170.194 77.7893 169.916 76.9947 169.916 75.896V72.344H168.828V70.072H169.916V67.896H172.652V70.072H174.444V72.344H172.652V75.928C172.652 76.1947 172.716 76.3867 172.844 76.504C172.972 76.6213 173.186 76.68 173.484 76.68H174.46Z" fill="#001B33"/>
<defs>
<filter id="filter0_d_2485_12" x="0.93873" y="0.93873" width="367.713" height="167.713" filterUnits="userSpaceOnUse" color-interpolation-filters="sRGB">
<feFlood flood-opacity="0" result="BackgroundImageFix"/>
<feColorMatrix in="SourceAlpha" type="matrix" values="0 0 0 0 0 0 0 0 0 0 0 0 0 0 0 0 0 0 127 0" result="hardAlpha"/>
<feOffset dx="11.295" dy="11.295"/>
<feGaussianBlur stdDeviation="21.1781"/>
<feComposite in2="hardAlpha" operator="out"/>
<feColorMatrix type="matrix" values="0 0 0 0 0 0 0 0 0 0 0 0 0 0 0 0 0 0 0.25 0"/>
<feBlend mode="normal" in2="BackgroundImageFix" result="effect1_dropShadow_2485_12"/>
<feBlend mode="normal" in="SourceGraphic" in2="effect1_dropShadow_2485_12" result="shape"/>
</filter>
</defs>
</svg>
