<svg width="26" height="25" viewBox="0 0 26 25" fill="none" xmlns="http://www.w3.org/2000/svg">
<path d="M24.5917 0.513001H14.4033C13.3298 2.00186 12.1132 3.40269 10.8289 4.74143C11.6048 5.60478 12.4057 6.52177 13.2404 7.50502C13.2404 7.50502 13.2404 7.50503 13.2404 7.50503L14.1683 8.59802L15.1079 9.70475L13.6861 9.41129L12.2819 9.12148L12.2819 9.12147C10.6036 8.77503 9.02826 8.38499 7.54072 7.95318C6.83107 8.61376 6.11136 9.27056 5.40012 9.91964C4.8661 10.407 4.33685 10.89 3.82021 11.3669C3.9991 12.2604 4.52163 13.3079 5.28847 14.1917L5.2885 14.1917C6.12356 15.1543 7.19615 15.8711 8.28729 16.0924L8.60083 16.1559L8.91832 16.2203L8.98932 16.5364L9.05945 16.8486L9.05945 16.8486C9.47791 18.712 11.0111 20.3985 13.1142 21.445C14.9049 22.3359 17.0396 22.7237 19.0504 22.4044C18.9303 22.1075 18.7634 21.8243 18.5567 21.5835C16.9483 19.841 15.6335 17.8488 14.6739 15.7157C13.5196 15.6924 12.7101 16.1718 11.5308 16.9778L11.118 17.2599L10.8359 16.8471L10.2786 16.0317L9.99649 15.6189L10.4093 15.3368C11.442 14.6308 12.5364 13.957 13.9137 13.7771C13.8977 13.7296 13.8819 13.682 13.8662 13.6344C12.7399 13.2961 11.8289 13.5496 10.4656 14.0286L9.99392 14.1943L9.82817 13.7226L9.50078 12.7909L9.33502 12.3192L9.80674 12.1534C10.7931 11.8068 11.8214 11.4912 12.9359 11.5056C12.9359 11.5056 12.936 11.5056 12.9361 11.5056L24.5917 0.513001ZM24.5917 0.513001V3.50903C22.9495 4.13691 21.2369 5.04034 19.6176 6.14483C18.1014 5.6929 16.4348 5.2767 14.5614 4.89076L13.293 4.62943L12.0087 4.36481L12.7908 5.41734L13.5632 6.45686C14.3528 7.51966 15.1075 8.45307 15.8521 9.28957C15.5727 9.57687 15.3024 9.8706 15.043 10.1704C13.8565 9.39629 12.5666 9.20547 11.4571 9.17897L10.9572 9.16702L10.9453 9.66692L10.9217 10.6542L10.9098 11.1541L11.4097 11.166C12.1255 11.1831 12.7883 11.2673 13.4015 11.531L24.5917 0.513001ZM7.5952 4.17544C8.27952 4.90193 8.98006 5.66718 9.70335 6.47989C6.17668 5.56993 3.17473 4.44158 0.5 3.11765V0.500027L0.757199 0.50004C2.43489 2.47266 4.1429 4.01326 6.99829 5.06803L7.83001 5.37526L7.66255 4.50457C7.64108 4.39296 7.61865 4.28327 7.5952 4.17544ZM24.54 13.6267C23.523 13.055 22.6048 12.4944 21.7426 11.8961L20.6508 11.1385L20.9724 12.4279L21.0552 12.7598L17.5882 8.24347L17.4982 8.31257L17.5736 8.2186C17.3555 7.9783 17.136 7.72875 16.9144 7.46879C17.8888 7.71402 18.7964 7.96989 19.6505 8.23751L18.7543 8.25409L19.4379 9.05831C20.3297 10.1075 21.1318 10.8329 22.0028 11.388C22.7794 11.8829 23.5933 12.2311 24.54 12.5569V13.6267ZM3.78713 15.4943C4.25656 16.0354 4.79749 16.5312 5.39718 16.9444L4.73356 17.2948C3.21968 16.3364 2.21695 14.7007 1.74993 13.3235C1.89867 13.1782 2.04878 13.0329 2.20015 12.8875C2.55328 13.8089 3.10279 14.7055 3.78713 15.4943L3.78713 15.4943ZM10.7199 22.3273C9.08981 21.1879 7.82761 19.6547 7.20155 17.8499C7.22898 17.8589 7.2565 17.8677 7.28408 17.8763C7.85546 19.6763 9.11732 21.1994 10.7199 22.3273ZM18.4224 24.477C18.5349 24.4689 18.6474 24.4591 18.7598 24.4476C18.7553 24.4491 18.7507 24.4505 18.7462 24.4519C18.6384 24.4618 18.5305 24.4702 18.4224 24.477Z" stroke="#001B33"/>
</svg>
