<svg width="26" height="25" viewBox="0 0 26 25" fill="none" xmlns="http://www.w3.org/2000/svg">
<path d="M0 0V3.42678C3.15948 5.01978 6.76176 6.33644 11.1263 7.34161C9.45047 5.41133 7.90307 3.73843 6.4108 2.22591C6.74728 2.89471 6.99245 3.66777 7.17155 4.59901C4.34169 3.55367 2.68516 2.02107 0.989371 5.28191e-05H5.28191e-05L0 0ZM14.146 0.0130007C12.9667 1.67899 11.5986 3.23832 10.1448 4.72959C11.0144 5.68932 11.9149 6.71616 12.8592 7.82861L13.7871 8.92162L12.383 8.6318C10.6139 8.26662 8.96168 7.85297 7.40799 7.39325C6.02136 8.6893 4.61534 9.94835 3.2667 11.1978L3.28467 11.1954C3.42668 12.252 4.02455 13.4979 4.91081 14.5193C5.79692 15.5408 6.96063 16.3335 8.18793 16.5824L8.50147 16.646L8.5716 16.9582C9.03244 19.0103 10.6974 20.8009 12.8915 21.8926C14.932 22.9078 17.4063 23.3044 19.6922 22.7903C19.5721 22.2449 19.3108 21.6916 18.9299 21.2507C17.2858 19.4708 15.9554 17.4243 15.0076 15.2335C13.5034 15.1016 12.5308 15.6887 11.2487 16.565L10.6914 15.7495C11.8811 14.9364 13.0548 14.2399 14.6048 14.2305C14.4829 13.9032 14.3694 13.5729 14.2645 13.2398C12.8508 12.7285 11.7614 13.0434 10.2999 13.5568L9.9725 12.6251C10.953 12.2805 11.9098 11.9924 12.9296 12.0055C13.3382 12.0106 13.7446 12.0655 14.1398 12.1688C14.2634 11.9846 14.3908 11.8029 14.5219 11.624C13.5693 10.8679 12.5091 10.6921 11.4216 10.6661L11.4451 9.67882C12.6286 9.7071 13.9594 9.92943 15.1275 10.8454C15.5643 10.3145 16.0386 9.80059 16.5406 9.30593C15.7054 8.3952 14.8591 7.3627 13.9645 6.15866L13.1921 5.11914L14.4605 5.38047C16.4168 5.78349 18.1424 6.21896 19.7035 6.6928C21.4574 5.47274 23.3277 4.49474 25.0917 3.85644V0.0130007H14.146ZM15.5889 6.63858C16.1409 7.33934 16.6753 7.97299 17.2035 8.55469L17.1916 8.54793L22.1218 14.9704L21.4575 12.3069C22.5438 13.0606 23.7126 13.7524 25.04 14.4742V12.1975C22.8811 11.4874 21.5565 10.7788 19.8189 8.73448C20.9901 8.71281 21.9865 8.75668 22.8708 8.8573C20.8105 8.0223 18.4733 7.29088 15.5889 6.63852L15.5889 6.63858ZM2.43292 11.9757C2.00696 12.3777 1.58862 12.7794 1.18068 13.1817C1.644 14.7595 2.81929 16.7908 4.71802 17.8684L6.4118 16.9742C5.55757 16.5282 4.79571 15.8938 4.16481 15.1666C3.3298 14.2042 2.71502 13.0822 2.43297 11.9757H2.43292ZM6.42095 16.9791L6.58515 17.5569C7.46211 20.6439 10.0463 22.9984 13.1806 24.1749C14.9743 24.8482 16.9364 25.1277 18.8369 24.9456C19.3739 24.809 19.6648 24.3586 19.7443 23.7901C17.2561 24.3077 14.6352 23.8633 12.4516 22.7769C10.1508 21.6322 8.31344 19.7596 7.68571 17.4717C7.24628 17.3562 6.82339 17.1884 6.42089 16.9792L6.42095 16.9791Z" fill="#FB8C00"/>
</svg>
