<svg width="181" height="101" viewBox="0 0 181 101" fill="none" xmlns="http://www.w3.org/2000/svg">
<path d="M167.61 35.0888C170.947 35.0888 173.653 32.347 173.653 28.9648C173.653 25.5826 170.947 22.8408 167.61 22.8408C164.273 22.8408 161.567 25.5826 161.567 28.9648C161.567 32.347 164.273 35.0888 167.61 35.0888Z" fill="#FB8C00"/>
<path d="M144.962 45.0979L140.227 35.6769L144.976 43.9216L145.019 40.5494L141.766 33.7392L145.031 39.6578L145.109 33.5934L141.571 28.1429L145.12 32.6397L145.379 21.5694L145.38 21.5234L145.38 21.5702L145.339 35.6164L149.244 29.9304L145.351 36.8074L145.505 43.5873L145.521 43.4081L150.024 37.4096L145.515 44.0427L145.535 44.8907L145.542 44.904L145.537 44.9733L145.741 53.9468C145.446 53.9593 145.149 53.9644 144.848 53.9621L144.857 53.264L140.749 46.3926L144.865 52.5965L144.962 45.0979Z" fill="#3F3D56"/>
<path d="M122.903 50.4808L118.169 41.0597L122.918 49.3044L122.961 45.9322L119.707 39.122L122.973 45.0407L123.05 38.9762L119.513 33.5258L123.062 38.0225L123.32 26.9522L123.322 26.9062L123.322 26.953L123.281 40.9992L127.186 35.3132L123.292 42.1902L123.446 48.9701L123.462 48.7909L127.965 42.7924L123.457 49.4255L123.477 50.2735L123.484 50.2868L123.478 50.3561L123.683 59.3296C123.388 59.3421 123.09 59.3472 122.79 59.3449L122.798 58.6468L118.69 51.7754L122.807 57.9793L122.903 50.4808Z" fill="#CBCBCB"/>
<path d="M163.946 43.6282L159.212 34.2072L163.961 42.4518L164.004 39.0797L160.75 32.2694L164.016 38.1881L164.093 32.1237L160.556 26.6732L164.105 31.17L164.364 20.0997L164.365 20.0537L164.365 20.1005L164.324 34.1466L168.229 28.4606L164.335 35.3377L164.49 42.1176L164.506 41.9383L169.008 35.9398L164.5 42.573L164.52 43.4209L164.527 43.4343L164.522 43.5035L164.726 52.4771C164.431 52.4896 164.134 52.4947 163.833 52.4923L163.842 51.7942L159.733 44.9229L163.85 51.1268L163.946 43.6282Z" fill="#3F3D56"/>
<path d="M82.4418 76.0021C85.1998 73.9418 88.092 72.0729 91.0987 70.408C99.508 65.7055 109.849 61.6846 121.606 58.5697C122.414 58.3549 123.229 58.145 124.05 57.9399C125.794 57.5024 127.568 57.0858 129.37 56.6901C129.815 56.5928 130.262 56.4959 130.709 56.3994C133.218 55.8649 135.776 55.3715 138.384 54.9191C138.436 54.9095 138.489 54.901 138.542 54.8926C139.155 54.7852 139.77 54.6814 140.388 54.5813C152.732 52.5485 166.111 51.4302 180.088 51.4133C180.203 51.4121 180.32 51.4121 180.435 51.4121V100.392H67.4625C67.4625 91.5115 72.9124 83.1838 82.4418 76.0021Z" fill="#F1F1F1"/>
<path d="M104.889 81.5892C109.703 77.9615 115.867 74.7127 123.085 71.973C123.886 71.6677 124.7 71.3698 125.528 71.079C125.643 71.038 125.76 70.997 125.877 70.956C126.93 70.5892 128.004 70.2321 129.098 69.8847C130.947 69.2992 132.848 68.7459 134.801 68.2247C136.2 67.8503 137.623 67.4936 139.07 67.1546C139.535 67.0444 140.002 66.9375 140.471 66.8337C141.538 66.5932 142.617 66.3632 143.708 66.1437C154.869 63.8901 167.313 62.6318 180.436 62.6318V100.392H93.3408C93.3408 93.5457 97.543 87.1253 104.889 81.5892Z" fill="white"/>
<path d="M127.577 87.236C138.096 79.3088 157.829 73.9717 180.435 73.9717V100.392H119.497C119.497 95.6024 122.437 91.1097 127.577 87.236Z" fill="#F1F1F1"/>
<path opacity="0.2" d="M82.4418 76.002L104.889 81.5888L127.577 87.2359L180.435 100.392H67.4625C67.4625 91.5114 72.9124 83.1836 82.4418 76.002Z" fill="black"/>
<path d="M74.8626 31.3161L70.6346 5.59275L0.872223 0.772461V100.392H37.6191L58.4755 45.8831L63.9378 39.3044L74.8626 31.3161Z" fill="#FEB961"/>
<path opacity="0.1" d="M59.2149 26.1995C52.7778 26.01 46.6461 24.2547 40.7919 22.3337C34.9376 20.4126 29.1373 18.2865 22.8538 17.2685C18.8121 16.6142 14.191 16.5212 10.9343 18.3521C7.8015 20.1128 6.78838 23.1539 6.24409 25.9744C5.83453 28.0969 5.59382 30.3315 6.71563 32.3182C7.49523 33.6979 8.8784 34.8572 9.83494 36.1786C13.1644 40.7771 10.8112 46.4465 7.20333 50.9357C5.51119 53.0418 3.54871 55.0513 2.24278 57.2932C0.936859 59.535 0.334193 62.1059 1.47576 64.3906C2.60834 66.6571 5.30641 68.3594 8.22993 69.5569C14.1668 71.9893 21.1634 72.6855 27.9895 73.0792C43.0867 73.9532 58.2656 73.5741 73.4113 73.1959C79.0149 73.0564 84.6383 72.9143 90.1557 72.1825C93.2166 71.776 96.3772 71.1308 98.5984 69.5733C101.42 67.5957 102.119 64.2484 100.229 61.7687C97.058 57.6103 88.2902 56.5741 86.0735 52.115C84.8538 49.659 86.1068 46.9204 87.8797 44.6421C91.6825 39.7555 98.0577 35.4677 98.3936 29.8786C98.6244 26.0419 95.5599 22.1997 90.8212 20.3843C85.8544 18.4815 78.9655 18.7212 75.3019 21.8707C71.5296 25.1187 64.8994 26.3663 59.2149 26.1995Z" fill="#FB8C00"/>
<path opacity="0.5" d="M36.9826 100.015C36.0313 99.85 35.6969 95.4689 35.9245 88.5228C36.0654 84.0676 36.4429 78.5552 37.037 72.4252C37.08 71.9854 37.125 71.5439 37.1689 71.098C37.219 70.5981 37.2704 70.0939 37.323 69.5856L37.3285 69.5434C37.3354 69.4706 37.3436 69.3985 37.3508 69.3268C37.5526 67.4106 37.7732 65.4465 38.0128 63.4344C38.0164 63.3938 38.0213 63.3541 38.0262 63.3144L38.0384 63.2122C38.0964 62.7312 38.1565 62.2497 38.2158 61.7602C38.2225 61.7095 38.2277 61.657 38.2344 61.6063C38.243 61.5353 38.2521 61.4666 38.2598 61.397C38.2635 61.3751 38.2647 61.3526 38.2689 61.3329C38.2733 61.291 38.279 61.2499 38.2845 61.2124C38.3468 60.7303 38.4066 60.243 38.4692 59.7666C38.5714 58.9869 38.6731 58.2146 38.7744 57.4498C38.7919 57.3155 38.8101 57.1827 38.8291 57.0512C38.8798 56.6661 38.9315 56.2834 38.9843 55.9032C39.0051 55.758 39.0257 55.6117 39.0447 55.4681C39.0606 55.358 39.0751 55.2471 39.0902 55.1383C39.2574 53.9511 39.4269 52.7854 39.5988 51.6412C39.599 51.6373 39.598 51.6335 39.596 51.6302C40.2503 47.2752 40.9316 43.2557 41.6141 39.7193C41.6186 39.7007 41.6207 39.6815 41.6252 39.6629L41.6972 39.2878C43.4572 30.2454 45.1862 24.4986 46.3101 24.697C47.4654 24.8967 47.713 31.3401 47.1455 41.0535C47.1389 41.1822 47.1306 41.309 47.1218 41.4383C47.1218 41.4632 47.1204 41.488 47.1176 41.5127C47.0911 42.0151 47.0592 42.5282 47.0219 43.052C47.0205 43.0826 47.0179 43.1136 47.0154 43.1445C46.937 44.353 46.8449 45.604 46.7389 46.8973C46.7241 47.0712 46.7124 47.2479 46.6949 47.4248C46.5322 49.4229 46.3454 51.5076 46.1249 53.6639C46.1124 53.7964 46.0985 53.9282 46.0851 54.0621C45.8655 56.2217 45.6216 58.4493 45.3526 60.7276C45.335 60.872 45.3177 61.0174 45.3014 61.1626C45.2978 61.1938 45.2939 61.224 45.2892 61.2555C45.2211 61.8206 45.1524 62.3883 45.0831 62.9584C45.0624 63.1175 45.0481 63.275 45.0238 63.4339C44.9738 63.8371 44.9238 64.2403 44.868 64.6391C44.8645 64.675 44.8598 64.7112 44.8548 64.7462C44.8499 64.7813 44.8473 64.8029 44.8429 64.8309C44.8351 64.9005 44.826 64.9692 44.8169 65.038C44.7928 65.2248 44.7697 65.4113 44.745 65.596C44.7035 65.9189 44.6612 66.2386 44.6194 66.5604L44.6058 66.6571C44.6071 66.6611 44.6081 66.6651 44.6089 66.6692C44.4361 67.965 44.2598 69.2405 44.0798 70.4955C44.0196 70.9188 43.959 71.3395 43.8982 71.7575C43.8531 72.0663 43.8088 72.3736 43.7626 72.678C43.4237 74.9523 43.0778 77.1353 42.7276 79.2098C40.6056 91.7382 38.3448 100.252 36.9826 100.015Z" fill="#FB8C00"/>
<path opacity="0.5" d="M37.0392 91.6839C36.4551 91.5904 36.3567 88.4379 36.6704 83.4196C36.8703 80.2015 37.2406 76.2148 37.757 71.7778L37.8719 70.8161C37.9148 70.4547 37.9592 70.0898 38.005 69.7215C38.0067 69.7112 38.0079 69.7008 38.0086 69.6903L38.0289 69.5336C38.2 68.1434 38.3856 66.7207 38.5856 65.2656C38.5884 65.2357 38.5928 65.2078 38.597 65.1788C38.6012 65.1497 38.603 65.1295 38.6071 65.1051C38.6545 64.755 38.7031 64.4057 38.7521 64.0529L38.7685 63.9403L38.789 63.7894C38.7919 63.7735 38.7935 63.7568 38.7955 63.7422C38.7976 63.7277 38.8047 63.6828 38.8089 63.6538C38.8592 63.3006 38.9091 62.9502 38.9586 62.6026C39.0414 62.0376 39.1235 61.4777 39.2051 60.9231L39.2473 60.6349C39.2915 60.3544 39.33 60.0788 39.3718 59.8024L39.4198 59.487C39.4329 59.4068 39.4438 59.327 39.4553 59.2449C39.5885 58.3848 39.7227 57.5393 39.8579 56.7083C39.8579 56.7056 39.8572 56.7029 39.8559 56.7006C40.3687 53.539 40.893 50.6238 41.4015 48.0562C41.4049 48.0425 41.407 48.028 41.4105 48.0143L41.4636 47.7419C42.7785 41.1726 43.9924 36.9827 44.6821 37.0943C45.3921 37.2088 45.3834 41.851 44.7902 48.8732L44.7662 49.1519C44.765 49.1697 44.7637 49.1875 44.7614 49.2056C44.7305 49.5693 44.6978 49.9393 44.6632 50.3156L44.657 50.3824C44.5766 51.2575 44.488 52.1624 44.3911 53.0969C44.3783 53.2237 44.3657 53.3516 44.3507 53.4789C44.2003 54.924 44.0307 56.4345 43.8428 57.9953L43.8084 58.2826C43.6189 59.8461 43.4118 61.4553 43.1871 63.1102C43.1733 63.2151 43.1595 63.32 43.1447 63.4252C43.1413 63.4482 43.1376 63.4702 43.1353 63.4929L42.9649 64.7264L42.9162 65.071C42.8751 65.3636 42.8339 65.6562 42.7919 65.9455C42.7894 65.9718 42.7855 65.9972 42.7815 66.0227C42.7776 66.0482 42.7758 66.0638 42.7719 66.0846L42.7508 66.2334C42.731 66.369 42.7122 66.5043 42.6921 66.6388L42.5991 67.3409L42.5882 67.4113L42.5904 67.42C42.4505 68.3602 42.3098 69.2847 42.1682 70.1935C42.1208 70.5009 42.0726 70.8062 42.0234 71.1094C41.9882 71.3344 41.9524 71.5572 41.9162 71.7779C41.6493 73.4266 41.3814 75.0116 41.1127 76.5163C39.4845 85.6212 37.8761 91.8192 37.0392 91.6839Z" fill="#FB8C00"/>
<path d="M66.1535 60.5773C66.0767 60.2722 65.822 60.5058 65.7843 60.5295C65.6412 60.4617 65.4911 60.4102 65.3368 60.3763C64.5927 60.1995 63.5475 60.2452 62.726 60.3261C62.7229 60.3258 62.7199 60.3266 62.7173 60.3283C61.9932 60.3992 61.4468 60.501 61.4468 60.501L61.0374 60.6128L60.8843 60.6524C60.9176 60.5575 60.9814 60.4766 61.0653 60.4227C61.176 60.3789 60.5673 60.4886 60.2788 60.5423L60.2669 60.5454L60.1332 60.5707C59.5474 60.8807 58.1749 60.3704 58.1749 60.3704L57.8643 59.7122C58.1982 59.0864 57.8125 57.8383 57.8125 57.8383C57.8125 57.8383 57.7444 57.4039 57.9897 56.7184C58.2351 56.0328 57.6836 55.7817 57.6836 55.7817L58.177 54.8724C58.1159 54.7534 58.0787 54.6233 58.0675 54.4896C58.0563 54.3559 58.0713 54.2213 58.1117 54.0936C58.1374 54.0207 58.175 53.9527 58.2229 53.8924L58.2216 53.8869L58.2299 53.8743C58.5862 53.4151 58.6589 52.1219 58.6589 52.1219C58.6589 52.1219 58.5189 51.9309 58.8584 51.2268L58.8567 51.2202C58.9021 51.1269 58.9569 51.0254 59.0211 50.9109C59.0192 50.9033 59.0305 50.8934 59.035 50.884C59.614 49.8908 59.1976 49.5326 59.1976 49.5326L57.9581 48.6115C58.086 48.1753 55.6096 45.9235 55.6096 45.9235C55.6096 45.9235 55.2402 45.4239 55.2348 44.8556C55.2393 44.7202 55.2095 44.5859 55.1481 44.4656C55.1128 44.3978 55.0612 44.3403 54.9979 44.2983C54.9592 44.2732 54.9159 44.2563 54.8705 44.2486L54.8044 44.2598L54.8667 44.1831C54.8927 44.1543 54.9171 44.1235 54.9429 44.0935C55.0163 44.1025 55.089 44.1081 55.1622 44.1113C55.8747 44.1567 56.5869 44.0195 57.2333 43.7126C57.8797 43.4057 58.4396 42.9388 58.8614 42.3549C58.8832 42.3271 58.9032 42.2974 58.9223 42.2681C58.9413 42.2387 58.9753 42.1914 59.0007 42.1511C59.0123 42.1329 59.0241 42.1159 59.0334 42.0983C59.0428 42.0808 59.0714 42.0349 59.0896 42.0023C59.1032 42.0244 59.1165 42.0454 59.1312 42.0672C59.1895 42.1554 59.2539 42.2392 59.3242 42.3178C59.3303 42.3252 59.337 42.332 59.3443 42.3383C59.3447 42.3416 59.3456 42.3449 59.3467 42.3481C59.3584 42.3626 59.372 42.3754 59.3845 42.3884C59.4722 42.4768 59.571 42.553 59.6783 42.6153C59.7046 42.631 59.7319 42.6449 59.76 42.6571C59.8009 42.6775 59.8435 42.6941 59.8874 42.7068C59.8943 42.7103 59.9015 42.7132 59.909 42.7152C59.9167 42.7185 59.9247 42.7211 59.9328 42.723V42.723C59.9482 42.6654 59.9622 42.6071 59.9751 42.549C60.0899 42.0366 60.0981 41.5056 59.9992 40.9898C59.9849 40.9276 59.9744 40.8646 59.9677 40.8011C59.9618 40.7528 59.9638 40.7039 59.9737 40.6563C59.9926 40.5628 60.0398 40.4777 60.1088 40.4128C60.2213 40.3126 60.3439 40.2246 60.4745 40.1504L60.5049 40.1297L60.5423 40.1049L60.6141 40.0525L60.6254 40.0426C60.6466 40.0266 60.6652 40.009 60.6851 39.9922C60.6906 39.9854 60.6967 39.9792 60.7033 39.9735C60.7255 39.9522 60.7457 39.929 60.764 39.9042L60.7725 39.8927C60.7894 39.8712 60.8044 39.8482 60.8173 39.824C60.8237 39.8131 60.8263 39.8007 60.8328 39.7897C60.8414 39.7734 60.8486 39.7563 60.8544 39.7387L60.8706 39.6937C60.8731 39.6802 60.8767 39.6668 60.8812 39.6537C60.9209 39.4628 60.9106 39.2646 60.8512 39.079C60.7678 38.8117 60.6229 38.5696 60.5575 38.2964C60.4033 37.6432 60.7093 36.9023 60.5055 36.2666C60.3277 35.7161 59.8115 35.386 59.3044 35.1468C58.7974 34.9076 58.2497 34.7033 57.8946 34.2651C57.6292 33.9366 57.4961 33.5085 57.246 33.1679C56.7216 32.4543 55.6594 32.2504 54.862 32.7095C54.3848 32.9856 54.0252 33.4456 53.5742 33.7662C53.2759 33.9774 52.9441 34.1238 52.6475 34.3369C52.2974 34.5896 52.0102 34.9216 51.8087 35.3065C51.7728 35.374 51.7403 35.4407 51.7104 35.5137L51.683 35.5825C51.6627 35.6344 51.6425 35.6862 51.626 35.7394C51.618 35.7624 51.6108 35.7841 51.6042 35.8079C51.5809 35.8814 51.5613 35.9561 51.5457 36.0316C51.5302 36.102 51.5192 36.1724 51.5085 36.2439C51.4512 36.6502 51.4571 37.0657 51.3652 37.4623C51.3454 37.5523 51.3193 37.6408 51.2872 37.7271C51.2428 37.847 51.1859 37.963 51.1303 38.0799C51.1154 38.1118 51.1004 38.1436 51.0849 38.1732C51.0794 38.1883 51.0727 38.2028 51.0649 38.2168C51.055 38.2415 51.0428 38.2657 51.0318 38.2906C51.0209 38.3156 51.0187 38.3208 51.0131 38.3351C51.0076 38.3493 50.9921 38.3883 50.9839 38.4149C50.9756 38.4415 50.9729 38.4399 50.9684 38.4538C50.9554 38.4933 50.9448 38.5333 50.9342 38.5734L50.9361 38.581C50.9054 38.7144 50.905 38.8531 50.935 38.9867C50.9502 39.0527 50.9762 39.1157 51.0118 39.173C51.021 39.1877 51.0311 39.2019 51.042 39.2153C51.0671 39.2463 51.0967 39.2732 51.1299 39.2951C51.126 39.3345 51.1203 39.3756 51.1175 39.4148C51.1104 39.5052 51.106 39.5972 51.1035 39.6875C51.103 39.7494 51.1041 39.8038 51.1064 39.8673C51.1119 40.1018 51.1366 40.3355 51.1801 40.5659V40.5659L51.1202 40.6198C51.0142 40.7124 50.9028 40.7984 50.7866 40.8774V40.8774L50.7736 40.8808C50.6719 40.9327 49.9675 41.2827 49.695 41.3043L48.7228 41.38C48.7228 41.38 48.4843 41.3451 48.2192 41.2913C48.0211 41.2585 47.8286 41.1973 47.6474 41.1096C47.4204 40.961 45.9878 40.4767 45.7293 40.5447C45.6194 40.5553 45.5094 40.526 45.419 40.4619C45.3163 40.3852 45.2186 40.3019 45.1264 40.2126C45.1264 40.2126 45.0983 40.2059 45.0534 40.1919C44.9875 40.1356 44.9444 40.092 44.9444 40.092C44.9444 40.092 44.5276 39.9831 44.0966 39.8454L44.0208 40.2145C44.0163 40.2331 44.0131 40.2526 44.0089 40.2723C43.2988 43.7995 42.5607 47.8081 41.8314 52.1429C41.8329 52.1464 41.8338 52.1501 41.8341 52.1538C41.6406 53.2912 41.4487 54.4518 41.2585 55.6357L41.2067 55.9637L41.1366 56.3965L40.9568 57.5381L40.8938 57.9354C40.7752 58.6953 40.6564 59.4639 40.5375 60.241C40.4646 60.7173 40.3919 61.1978 40.3196 61.6825C40.3146 61.7222 40.3078 61.7636 40.3018 61.8036C40.2979 61.8244 40.2953 61.8461 40.2916 61.868C40.2825 61.9368 40.2713 62.0061 40.2614 62.0762C40.2533 62.1261 40.246 62.1792 40.2379 62.2291C40.167 62.7134 40.0971 63.1975 40.0272 63.6722L39.956 63.7361L40.0126 63.7738C40.0066 63.8138 40.0004 63.8527 39.996 63.8946C39.7061 65.8895 39.4323 67.8418 39.1746 69.7514L39.146 69.9662L39.1395 70.0086C39.0721 70.513 39.0067 71.0134 38.9434 71.5098C38.8867 71.9531 38.8301 72.3926 38.7737 72.8281C37.9975 78.9144 37.4202 84.3771 37.078 88.7854C37.0246 88.8469 36.9685 88.9162 36.913 88.9923C36.9696 88.9206 37.0235 88.8472 37.0764 88.7928C37.121 88.7414 37.1686 88.6929 37.219 88.6475C37.3287 88.5463 37.4235 88.4296 37.5004 88.3009C37.5357 88.2452 37.5697 88.1886 37.6021 88.1302C37.7826 87.7772 37.9343 87.4099 38.0558 87.0318C38.0787 86.9839 38.1055 86.9379 38.1361 86.8946L38.18 86.8273L38.1867 86.8174C38.2111 86.782 38.2368 86.7427 38.2665 86.7012L38.2716 86.6941L38.3159 86.6325L38.321 86.6254L38.3684 86.5584C38.5142 86.3575 38.6941 86.1188 38.8657 85.8926L38.9282 85.8124L39.1384 85.539L39.2427 85.406L39.4733 85.1133C39.4748 85.1081 39.4766 85.1029 39.4786 85.0979C39.496 85.0573 39.5363 84.9665 39.5931 84.8411C39.5941 84.8383 39.5958 84.8358 39.5982 84.834C39.6045 84.8178 39.6117 84.802 39.6196 84.7865C39.6997 84.6213 39.8058 84.4133 39.9316 84.2014C39.9471 84.1764 39.9621 84.1492 39.9797 84.1237L40.026 84.0476L40.1035 83.9309C40.1797 83.8165 40.2625 83.7068 40.3515 83.6023C40.4644 83.4651 40.5693 83.3212 40.6656 83.1715L40.6865 83.1404C40.7001 83.1171 40.7157 83.0921 40.7325 83.068C40.7447 83.0506 40.7559 83.0325 40.766 83.0139L40.8013 82.9581L40.8594 82.865L40.8961 82.8054L40.9829 82.6665L41.0787 82.5043L41.0931 82.4795C41.1418 82.3947 41.1913 82.3085 41.2421 82.2231L41.3005 82.1218C41.3243 82.0796 41.3478 82.0362 41.3719 81.995C41.4128 81.925 41.4521 81.8577 41.4931 81.7831L41.5808 81.6252C41.6089 81.5725 41.6377 81.5231 41.6645 81.4743C41.7081 81.3966 41.7493 81.323 41.7875 81.2514L41.7961 81.2352L41.8961 81.0532C41.8961 81.0532 41.8961 81.0532 41.9006 81.0439C41.9255 81.0013 41.9466 80.9621 41.9667 80.9231L41.9862 80.8866C42.0065 80.8534 42.0234 80.8199 42.0383 80.7927C42.0974 80.6854 42.1309 80.622 42.1309 80.622L42.8189 79.2499L43.5125 77.8227L43.544 77.7609C43.544 77.7609 43.6994 77.3107 43.8769 76.9257L43.9006 76.8742C43.9604 76.7394 44.0331 76.611 44.1176 76.4907C44.1858 76.3943 44.2449 76.2916 44.2941 76.184C44.2995 76.1826 44.3008 76.1695 44.3056 76.1612C44.5097 75.7403 44.7507 75.1059 44.8271 74.8986L44.8527 74.8314C44.9317 74.7209 45.0005 74.6033 45.0582 74.48C45.1294 74.3349 45.177 74.1789 45.1991 74.0183C45.2231 73.873 45.2645 73.7312 45.3225 73.5961C45.3225 73.5942 45.322 73.5924 45.3211 73.5907L45.3323 73.5622L45.3733 73.4653C45.4533 73.4605 45.5328 73.4501 45.6113 73.434C45.9691 73.356 46.3117 73.2186 46.6252 73.0272C46.6344 73.022 46.6433 73.0162 46.6518 73.0098V73.0098C46.735 72.9662 46.7969 72.9292 46.8297 72.909L46.8585 72.8911L47.2774 71.7226L47.2878 71.6954C47.2878 71.6954 47.5557 71.2638 47.8026 70.812C47.8293 70.7631 47.855 70.7146 47.8809 70.6671C48.0557 70.3399 48.2037 70.0244 48.211 69.8757C48.232 69.5033 48.6498 68.6496 48.6498 68.6496C48.6498 68.6496 49.3359 67.0648 49.6081 66.4631C49.619 66.4381 49.63 66.4132 49.6399 66.3931L49.677 66.3125C49.6913 66.3179 49.7052 66.3244 49.7186 66.332C49.7562 66.3543 49.7916 66.3803 49.8243 66.4095C49.8276 66.4135 49.8313 66.4172 49.8352 66.4207L49.8565 66.3639C49.8714 66.3274 49.8908 66.2723 49.9183 66.2034C49.9585 66.226 49.9959 66.2535 50.0296 66.2853L50.0429 66.297C50.0429 66.297 51.5012 62.5575 51.6284 61.5764C51.6627 61.3697 51.7201 61.1676 51.7994 60.9741C52.097 60.2086 52.6854 59.2618 52.9647 58.8296L53.048 58.7043C53.0909 58.6373 53.1171 58.6002 53.1171 58.6002L53.1775 58.6755C53.1791 58.6821 53.1808 58.6886 53.1902 58.6943C53.3367 58.8836 53.6434 59.3075 53.5759 59.4636C53.4906 59.6674 53.5806 61.4789 53.5806 61.4789C53.5806 61.4789 53.3023 62.3571 53.8993 63.4409C54.4963 64.5248 55.8688 64.6018 56.1463 64.5044C56.3244 64.4408 58.0876 64.701 59.3409 64.902L59.6497 64.9514L59.9606 65.0003L60.4461 65.0808L60.4736 65.0853C60.5136 65.0936 60.5544 65.1006 60.5936 65.1056L60.6085 65.0691L60.6152 65.0499L60.736 65.0734L60.6124 65.039C60.6407 64.9641 60.6883 64.8294 60.7438 64.6485C60.7457 64.6365 60.7489 64.6247 60.7533 64.6134L60.7705 64.5542L60.7992 64.4536C60.8015 64.4402 60.8055 64.4286 60.8084 64.4174L60.8365 64.31C60.8386 64.3046 60.8403 64.2991 60.8415 64.2935C60.8796 64.1438 60.9171 63.978 60.947 63.8002C60.9525 63.7767 60.9575 63.7509 60.9617 63.7265L61.2338 63.6305L61.4216 63.5644L61.5273 63.5277L61.6639 63.4773L61.7329 63.4734L64.4389 62.9805L64.6369 62.9455C64.8956 62.9026 65.1426 62.8053 65.362 62.66C65.5815 62.5147 65.7686 62.3244 65.9114 62.1015C66.0541 61.8786 66.1494 61.6279 66.1911 61.3654C66.2328 61.1029 66.22 60.8345 66.1535 60.5773V60.5773Z" fill="url(#paint0_linear_2380_12)"/>
<path d="M60.3956 65.2257C60.3956 65.2257 61.7163 61.925 59.9476 60.7448L56.925 62.6022L57.4048 63.777C57.4048 63.777 59.244 65.0729 60.3956 65.2257Z" fill="#65617D"/>
<path opacity="0.1" d="M56.925 62.6022L57.4048 63.777C57.4048 63.777 58.7025 64.6877 59.7988 65.0726C59.9934 65.1431 60.1944 65.1941 60.3988 65.2249C60.3988 65.2249 60.4071 65.2076 60.4199 65.1717C60.4214 65.1676 60.4226 65.1634 60.4236 65.1591C60.5774 64.7366 60.6952 64.3016 60.7759 63.8587C60.805 63.6916 60.8302 63.5138 60.8496 63.3352C60.9084 62.6571 60.8646 61.9182 60.5199 61.3434C60.3941 61.13 60.2271 60.9446 60.0288 60.7983C60.012 60.7863 59.9949 60.7733 59.976 60.7619C59.9681 60.7552 59.9597 60.7492 59.9508 60.7439L59.8841 60.7845L58.8616 61.4126L56.925 62.6022Z" fill="black"/>
<path d="M41.096 57.6185L40.8843 57.9376L40.9469 57.5406L41.096 57.6185Z" fill="#65617D"/>
<path opacity="0.1" d="M41.096 57.6185L40.8843 57.9376L40.9469 57.5406L41.096 57.6185Z" fill="black"/>
<path d="M60.3692 60.9139C60.3692 60.9139 59.3408 62.8588 60.4572 63.6335C60.4572 63.6335 60.9043 63.6483 61.5468 63.6043C63.0266 63.501 65.537 63.0843 65.962 61.4436C66.5691 59.094 61.2439 60.6701 61.2439 60.6701L60.8393 60.783L60.3692 60.9139Z" fill="#FBBEBE"/>
<path opacity="0.1" d="M60.3692 60.9136C60.3692 60.9136 59.3408 62.8585 60.4572 63.6332C60.4572 63.6332 60.9043 63.648 61.5468 63.604L61.7238 63.5407C61.4661 63.5167 61.2168 63.4357 60.9932 63.3034C60.7043 63.1231 60.4519 62.8051 60.5122 62.2513C60.544 61.9354 60.595 61.6219 60.665 61.3124C60.7043 61.13 60.7627 60.9524 60.8393 60.7827L60.3692 60.9136Z" fill="black"/>
<path d="M58.7293 64.5842L59.1976 64.4188L60.7727 63.8597L61.5759 63.5738C61.3185 63.5498 61.0695 63.4687 60.8464 63.3362C60.5572 63.1548 60.304 62.8382 60.3643 62.2844C60.3965 61.9682 60.4474 61.6543 60.5168 61.3444C60.6373 60.8472 60.7734 60.6349 60.8682 60.5964C60.963 60.5579 60.3762 60.6632 60.0944 60.7163L60.0836 60.7191C60.0032 60.7329 59.9509 60.7441 59.9509 60.7441L59.8809 60.7855L58.8863 61.3784L58.8581 61.4125C58.6438 61.6742 57.3754 63.3409 58.7293 64.5842Z" fill="#E7EFFD"/>
<path d="M46.4693 68.3997L45.7796 72.673C45.7796 72.673 45.5688 73.0537 45.3913 73.4433C45.3888 73.4507 45.3856 73.4578 45.3817 73.4644L45.3398 73.5627C45.3349 73.5715 45.3307 73.5808 45.3273 73.5904C45.3282 73.592 45.3287 73.5939 45.3287 73.5958C45.2516 73.7598 45.1965 73.9335 45.1648 74.1124C45.1475 74.239 45.1134 74.3627 45.0633 74.48C45.0008 74.6272 44.9233 74.7675 44.8322 74.8986C44.8286 74.9051 44.8244 74.9112 44.8197 74.917C44.8197 74.917 44.5462 75.6553 44.3108 76.1612C44.306 76.1694 44.3036 76.1782 44.2993 76.184C44.2402 76.3166 44.1695 76.4437 44.0883 76.5636C44.018 76.6611 43.9569 76.765 43.9058 76.8741L43.882 76.9257C43.694 77.3238 43.5176 77.8226 43.5176 77.8226L42.8174 79.2189L42.102 80.6331L42.0336 80.7673L41.9815 80.8611L41.962 80.8976L41.8959 81.0184C41.8959 81.0184 41.8905 81.0198 41.8914 81.0277L41.7914 81.2097L41.7828 81.2259C41.7429 81.2957 41.7042 81.3698 41.6598 81.4488C41.633 81.4977 41.6041 81.5471 41.5761 81.5998L41.4883 81.7576C41.4485 81.8274 41.4081 81.8949 41.3672 81.9696C41.3431 82.0107 41.3195 82.0541 41.2957 82.0964L41.2374 82.1977C41.1866 82.2831 41.1371 82.3693 41.0884 82.4541L41.0739 82.4788L40.9781 82.6411L40.8914 82.78L40.8547 82.8396L40.7966 82.9327L40.7613 82.9884C40.7511 83.0071 40.74 83.0251 40.7278 83.0425C40.7126 83.0686 40.6968 83.0925 40.6818 83.115L40.6609 83.146C40.5633 83.3037 40.4555 83.4545 40.3382 83.5977C40.2238 83.7341 40.1185 83.8781 40.023 84.0287V84.0287L39.9767 84.1048C39.959 84.1303 39.944 84.1575 39.9285 84.1825C39.8038 84.3942 39.6977 84.6022 39.6165 84.7676C39.6086 84.7831 39.6015 84.7989 39.5952 84.8151C39.5928 84.8169 39.591 84.8194 39.5901 84.8223C39.5327 84.9455 39.4929 85.0385 39.4756 85.0791L39.466 85.1002L39.2353 85.3929L39.131 85.5259L38.9208 85.7993L38.8583 85.8795C38.6857 86.1059 38.5068 86.3444 38.361 86.5452L38.3136 86.6123L38.3085 86.6194L38.2643 86.681L38.2592 86.6881C38.2295 86.7296 38.2037 86.7689 38.1794 86.8043L38.1727 86.8142L38.1287 86.8815C38.1022 86.9205 38.0792 86.962 38.06 87.0053C37.9369 87.3874 37.7821 87.7583 37.5974 88.114C37.565 88.1725 37.531 88.229 37.4957 88.2848C37.4228 88.4041 37.3343 88.5129 37.2326 88.608C37.1768 88.6567 37.1244 88.7092 37.0757 88.7651C37.4179 84.3569 37.9952 78.8941 38.7714 72.8079C38.8269 72.3718 38.8835 71.9323 38.9412 71.4895C39.0066 70.9926 39.072 70.4922 39.1372 69.9884L39.1437 69.9459L39.1723 69.7312C39.427 67.8246 39.7008 65.8724 39.9937 63.8744C39.9987 63.8347 40.0049 63.7958 40.0104 63.7536L39.9538 63.7158L40.025 63.6519C40.0937 63.1682 40.1658 62.6929 40.2356 62.2088C40.2438 62.1589 40.251 62.1058 40.2591 62.0559C40.269 61.9858 40.2803 61.9165 40.2894 61.8477C40.2931 61.8258 40.2956 61.8042 40.2996 61.7834C40.3053 61.7423 40.3121 61.7009 40.3173 61.6623C40.3904 61.1774 40.463 60.6969 40.5353 60.2207L42.9781 61.8835L43.0802 61.9515L44.7799 63.0901L44.8831 63.1578L45.4124 63.5124L45.6984 63.704L45.8363 63.7953L47.5387 64.9356L47.561 64.9508L47.6409 65.0035L46.4693 68.3997Z" fill="#3F3D56"/>
<path d="M49.8763 41.7497L50.5621 45.5925C50.5621 45.5925 54.1332 46.2993 54.0854 45.7128C54.068 45.4844 54.3922 45.016 54.7978 44.5289C55.4365 43.759 56.2764 42.9394 56.2764 42.9394C56.2764 42.9394 51.8385 38.87 51.7158 39.9922C51.6709 40.4022 51.4144 40.747 51.1062 41.019C50.7375 41.3278 50.3223 41.5745 49.8763 41.7497V41.7497Z" fill="#FBBEBE"/>
<path opacity="0.1" d="M51.7157 39.9913C51.6708 40.4013 51.7239 40.4796 51.4168 40.7513C51.6153 41.8812 51.9484 43.1941 52.9747 43.8663C53.5233 44.2278 54.1476 44.4544 54.7977 44.528C55.4365 43.7581 56.2763 42.9385 56.2763 42.9385C56.2763 42.9385 51.8384 38.8691 51.7157 39.9913Z" fill="black"/>
<path d="M51.7742 37.8384C51.4722 38.312 51.2652 38.8412 51.165 39.396C51.0647 39.9507 51.0732 40.5201 51.1899 41.0716C51.3067 41.6231 51.5294 42.1459 51.8453 42.6103C52.1613 43.0746 52.5643 43.4712 53.0313 43.7777C53.4984 44.0841 54.0203 44.2942 54.5674 44.3961C55.1144 44.498 55.6759 44.4896 56.2197 44.3715C56.7634 44.2533 57.2789 44.0277 57.7366 43.7074C58.1943 43.3872 58.5853 42.9787 58.8873 42.5051L58.9189 42.4527C59.5214 41.4922 59.723 40.3282 59.4792 39.2166C59.2354 38.1051 58.5663 37.1372 57.6189 36.5257C56.6716 35.9142 55.5237 35.7094 54.4278 35.9562C53.3318 36.203 52.3776 36.8812 51.775 37.8417L51.7742 37.8384Z" fill="#FBBEBE"/>
<path opacity="0.1" d="M46.4264 67.3275C46.336 67.5431 46.1007 67.562 45.6174 67.1757C45.3963 67.01 45.1634 66.8612 44.9206 66.7304C44.8751 66.7049 44.8272 66.6789 44.7798 66.6504C44.283 66.3793 43.6549 66.0654 42.9717 65.7017L42.9281 65.6792C42.6242 65.5167 42.3061 65.3439 41.9869 65.162L41.7963 65.0529C41.358 64.7994 40.9133 64.5254 40.4802 64.2286L40.4612 64.2172C40.302 64.1093 40.1432 63.9989 39.9866 63.8926C39.9916 63.8529 39.9978 63.814 40.0033 63.7718L39.9467 63.734L40.0179 63.6702C40.0866 63.1864 40.1587 62.7111 40.2285 62.227C40.2366 62.1772 40.2439 62.124 40.252 62.0742C40.2619 62.004 40.2732 61.9347 40.2823 61.866C40.2859 61.8441 40.2885 61.8224 40.2925 61.8016L40.4589 61.9286C40.7293 62.1359 41.0044 62.3431 41.281 62.5476L41.3052 62.5659C41.4615 62.6803 41.6168 62.7951 41.7734 62.9107C41.7788 62.9093 41.7861 62.9202 41.7926 62.9232C41.9658 63.0496 42.1413 63.1719 42.3163 63.2874L42.4178 63.3532C42.605 63.476 42.7897 63.589 42.9733 63.6976C43.4048 63.9517 43.8244 64.1763 44.2043 64.3575C44.2411 64.376 44.2766 64.3936 44.3142 64.4107C44.6503 64.573 44.9571 64.7103 45.2195 64.8125L45.339 64.8631L45.487 64.9215C45.8316 65.0583 46.0387 65.1282 46.0387 65.1282C46.0387 65.1282 46.0926 65.2738 46.1613 65.4914C46.201 65.6174 46.2469 65.7674 46.2898 65.9241C46.4231 66.4348 46.544 67.0466 46.4264 67.3275Z" fill="black"/>
<path d="M46.4265 67.3274C46.3087 67.4477 46.0769 67.4075 45.6765 67.0858C45.4465 66.9136 45.2037 66.7595 44.9504 66.6249L44.9372 66.6178L44.8099 66.5459C44.3308 66.2854 43.7349 65.9853 43.0885 65.64C43.0738 65.6335 43.0596 65.6259 43.046 65.6172C42.6898 65.4298 42.3184 65.2231 41.9431 65.0103C41.8803 64.9753 41.817 64.9381 41.7523 64.9001C41.3483 64.6644 40.9399 64.4113 40.5409 64.1406L40.5228 64.1278L40.007 63.7767L39.9504 63.7389L40.0216 63.6751C40.0904 63.1913 40.1624 62.716 40.2323 62.2319C40.2404 62.1821 40.2477 62.1289 40.2558 62.0791C40.2657 62.0089 40.2769 61.9396 40.286 61.8709C40.2897 61.8489 40.2923 61.8273 40.2962 61.8065C40.3019 61.7654 40.3087 61.724 40.3139 61.6854C40.6085 61.9109 40.9112 62.1413 41.2152 62.3678C41.2184 62.3692 41.2213 62.3712 41.2236 62.3738L41.3656 62.4815C41.528 62.6014 41.6897 62.7191 41.8518 62.838C41.9935 62.9446 42.1427 63.0446 42.2879 63.1422C42.3131 63.1601 42.3391 63.1767 42.3651 63.1933C42.3911 63.2098 42.4328 63.2386 42.4659 63.2604C43.04 63.6303 43.6356 63.9648 44.2494 64.262C44.2851 64.2807 44.3216 64.2981 44.3582 64.3154C44.6823 64.4715 44.9786 64.6034 45.2305 64.7094C45.2775 64.7275 45.3227 64.7473 45.3662 64.7652L45.5142 64.8236C45.8745 64.9633 46.0922 65.0386 46.0922 65.0386C46.0922 65.0386 46.1814 65.2835 46.28 65.6156C46.3204 65.7531 46.362 65.9043 46.4 66.0598C46.528 66.5813 46.6075 67.1431 46.4265 67.3274Z" fill="#5F5D7E"/>
<path opacity="0.1" d="M55.2523 48.5369L47.5383 64.9332L46.8721 66.351L46.7741 66.5592C46.6594 66.3853 46.5345 66.2184 46.4001 66.0595C46.3643 66.0176 46.3265 65.9726 46.2853 65.9273C46.0344 65.6328 45.7334 65.3864 45.3967 65.1997C45.348 65.175 45.2987 65.1528 45.2503 65.1339L45.1708 65.1055C45.0949 65.0809 45.0168 65.064 44.9376 65.0552C44.6622 65.0045 44.398 64.904 44.1576 64.7585V64.7585L44.0509 64.6999C43.4586 64.3381 42.895 63.9301 42.3651 63.4796C42.3317 63.4521 42.2997 63.4254 42.2702 63.3993C42.0986 63.2561 41.995 63.1641 41.995 63.1641C41.995 63.1641 41.8877 63.0847 41.7162 62.9695C41.5764 62.8705 41.3965 62.7446 41.2053 62.6194C40.9053 62.4088 40.5862 62.2277 40.2524 62.0785C40.2623 62.0084 40.2735 61.939 40.2826 61.8703C40.2863 61.8484 40.2888 61.8267 40.2928 61.8059C40.2985 61.7648 40.3053 61.7235 40.3105 61.6848C40.3836 61.1999 40.4563 60.7194 40.5285 60.2433C40.6476 59.4669 40.7663 58.6984 40.8848 57.9377L40.9478 57.5404L41.1276 56.3988L41.1977 55.966L41.2495 55.638C41.4409 54.4561 41.6328 53.2955 41.8251 52.1561L47.2647 43.9917L48.0092 43.3633L48.7268 42.7606L49.3543 42.7799L49.4477 42.7814L50.0567 42.8009L50.0643 42.7989L50.2114 42.8039L50.5135 42.8131L51.1291 44.668L51.1332 44.6844L51.1465 44.7369L51.4973 45.0445L51.7162 45.2384L51.7921 45.2479L52.1132 45.2871L52.2102 45.2981L52.2458 45.3028L52.5268 45.3373L53.3244 45.435L53.6358 45.9369L53.8323 46.2611L53.9393 46.435L54.0312 46.558L55.2523 48.5369Z" fill="black"/>
<path d="M55.3673 48.356L47.5603 64.9488L46.8866 66.3778L46.8698 66.3519C46.6938 66.0897 46.4958 65.8435 46.2778 65.6162C46.2387 65.575 46.1961 65.5336 46.1538 65.4933C45.95 65.2904 45.7156 65.1218 45.4594 64.9939C45.4101 64.9717 45.3614 64.9516 45.3125 64.9352C45.2758 64.9218 45.2385 64.9104 45.2006 64.9012C45.1519 64.8894 45.1025 64.8807 45.0528 64.8754C44.767 64.8223 44.4932 64.7166 44.2449 64.5638L44.1369 64.5043C43.7326 64.2613 43.3436 63.9931 42.972 63.7014C42.7734 63.5466 42.5958 63.4027 42.4521 63.2838L42.3572 63.2035C42.3312 63.1822 42.3076 63.1615 42.2854 63.1417C42.1715 63.0453 42.1048 62.9857 42.1048 62.9857C42.1048 62.9857 41.6805 62.6691 41.219 62.3738C41.2166 62.3713 41.2137 62.3692 41.2106 62.3679C40.9701 62.2057 40.7187 62.061 40.4582 61.9347C40.4011 61.909 40.342 61.8881 40.2816 61.872C40.2853 61.8501 40.2878 61.8285 40.2918 61.8076C40.2975 61.7665 40.3043 61.7252 40.3095 61.6865C40.3826 61.2017 40.4552 60.7211 40.5275 60.245C40.6466 59.4686 40.7653 58.7001 40.8838 57.9394L40.9468 57.5421L41.1266 56.4005L41.1967 55.9677L41.2484 55.6397C41.4399 54.4579 41.6318 53.2972 41.8241 52.1578C41.8238 52.1541 41.8228 52.1504 41.8213 52.1469L47.3756 43.8083L48.0131 43.2706L48.8374 42.5761L49.4406 42.5948L49.5342 42.5974L50.0264 42.6133L50.142 42.616L50.2786 42.6203L50.626 42.6317L51.2644 44.5541L51.3652 44.6445L51.3815 44.6589L51.4024 44.678L51.7083 44.9483L51.8325 45.0583L52.2284 45.1073L52.7214 45.1673L53.442 45.2557L53.8457 45.9096L53.9176 46.0262L54.0221 46.1948L54.0727 46.2772L54.1051 46.3283L55.3673 48.356Z" fill="#E7EFFD"/>
<path opacity="0.1" d="M53.0008 46.0532C53.0008 46.0532 51.6013 46.4888 51.4904 46.6957C51.3794 46.9027 51.1109 47.3915 51.1109 47.3915L50.926 49.0097C50.926 49.0097 50.2793 50.7556 50.0769 51.0736C49.8745 51.3916 48.6407 54.4905 48.6407 54.4905L46.5649 59.1434L43.8143 65.221L42.1099 66.1013L41.6746 64.6564L46.7177 53.9152L47.6938 51.7858C47.6938 51.7858 49.649 48.0855 49.8863 47.7236C50.1236 47.3616 50.891 46.5141 50.891 46.5141C50.891 46.5141 51.2765 45.4824 50.6038 44.7362C49.931 43.99 50.692 44.7308 50.692 44.7308L51.3967 44.6556L51.6937 45.0867C51.6937 45.0867 53.0316 45.4732 53.0008 46.0532Z" fill="black"/>
<path d="M53.1479 46.0204C53.1479 46.0204 51.7484 46.456 51.6374 46.663C51.5265 46.8699 51.258 47.3588 51.258 47.3588L51.0795 48.9753C51.0795 48.9753 50.4275 50.7226 50.2213 51.0392C50.0151 51.3559 48.7853 54.4572 48.7853 54.4572L46.7103 59.1088L43.96 65.1875L42.2553 66.0666L41.8241 64.6288L46.8661 53.8879L47.8431 51.7572C47.8431 51.7572 49.7983 48.0569 50.0302 47.6963C50.2621 47.3357 51.0348 46.4869 51.0348 46.4869C51.0348 46.4869 51.4204 45.4552 50.7479 44.71C50.0754 43.9649 50.8369 44.7033 50.8369 44.7033L51.5416 44.6281L51.8386 45.0592C51.8386 45.0592 53.1754 45.4413 53.1479 46.0204Z" fill="#FB8C00"/>
<path opacity="0.1" d="M54.6852 44.7732C54.6852 44.7732 54.7463 44.9426 54.3905 45.5683C54.0347 46.1939 53.5824 47.8312 53.5824 47.8312C53.5824 47.8312 52.7239 45.7234 51.87 45.334L54.6852 44.7732Z" fill="black"/>
<path d="M54.7989 44.5917C54.7989 44.5917 54.861 44.7608 54.5049 45.3854C54.1489 46.0099 53.6971 47.6494 53.6971 47.6494C53.6971 47.6494 52.8386 45.5416 51.9834 45.1514L54.7989 44.5917Z" fill="#E7EFFD"/>
<path opacity="0.1" d="M50.7504 41.5063L51.8105 45.2941C51.8105 45.2941 48.9573 45.1844 48.4953 45.3109C48.0333 45.4375 49.85 41.9897 49.85 41.9897L50.7504 41.5063Z" fill="black"/>
<path d="M50.7769 41.266L51.837 45.0539C51.837 45.0539 48.9838 44.9442 48.5218 45.0707C48.0598 45.1973 49.8754 41.7498 49.8754 41.7498L50.7769 41.266Z" fill="#E7EFFD"/>
<path opacity="0.1" d="M54.5997 44.7128C54.5997 44.7128 54.9546 44.7537 54.9602 45.3184C54.9658 45.8832 55.326 46.3736 55.326 46.3736C55.326 46.3736 57.765 48.5954 57.6374 49.028L58.8587 49.9363C58.8587 49.9363 59.2684 50.2905 58.7052 51.2738C58.1421 52.2571 58.3261 52.5042 58.3261 52.5042C58.3261 52.5042 58.2507 53.7866 57.8978 54.246C57.545 54.7055 57.8387 55.2376 57.8387 55.2376L52.8335 58.9361C52.8335 58.9361 51.4693 60.9201 51.346 61.8851C51.2228 62.8501 49.7676 66.5608 49.7676 66.5608C49.7676 66.5608 49.5366 66.3235 49.4356 66.5151C49.3345 66.7067 48.384 68.897 48.384 68.897C48.384 68.897 47.9724 69.7432 47.9474 70.1132C47.9223 70.4831 47.0308 71.9184 47.0308 71.9184L46.6139 73.1039C46.6139 73.1039 45.2253 74.0201 44.4734 73.2699C43.7216 72.5197 44.338 68.0556 44.338 68.0556L45.7024 63.6881L47.2613 59.5137L48.6198 56.8823L51.7692 51.1477L53.5637 47.1698C53.5637 47.1698 54.2216 44.8351 54.5997 44.7128Z" fill="black"/>
<path d="M54.7989 44.5914C54.7989 44.5914 55.1536 44.6313 55.1581 45.1916C55.1626 45.752 55.5228 46.247 55.5228 46.247C55.5228 46.247 57.9629 48.4686 57.8353 48.9012L59.0565 49.8095C59.0565 49.8095 59.4662 50.1636 58.9031 51.147C58.34 52.1303 58.524 52.3774 58.524 52.3774C58.524 52.3774 58.4485 53.6598 58.0957 54.1192C57.7428 54.5786 58.0366 55.1107 58.0366 55.1107L53.0281 58.8055C53.0281 58.8055 51.6749 60.7971 51.545 61.7627C51.415 62.7283 49.9662 66.4373 49.9662 66.4373C49.9662 66.4373 49.7353 66.2 49.6342 66.3916C49.5332 66.5831 48.5827 68.7734 48.5827 68.7734C48.5827 68.7734 48.1711 69.6197 48.1463 69.9907C48.1215 70.3618 47.2295 71.7949 47.2295 71.7949L46.8118 72.9817C46.8118 72.9817 45.4239 73.8965 44.671 73.1466C43.9181 72.3967 44.5431 67.9304 44.5431 67.9304L45.911 63.5631L47.4699 59.3888L48.8252 56.7582L51.9746 51.0236L53.7691 47.0457C53.7691 47.0457 54.4262 44.7077 54.7989 44.5914Z" fill="#65617D"/>
<path opacity="0.1" d="M56.925 62.6022L57.4048 63.777C57.4048 63.777 58.7025 64.6877 59.7988 65.0727L60.4198 65.1717L60.5401 65.193L60.4171 65.1608C59.822 64.9828 59.4331 64.7246 59.1964 64.4189C58.2372 63.197 59.6799 61.2323 60.0245 60.7994C60.0583 60.7558 60.08 60.728 60.0899 60.7173L60.0953 60.7159L60.0792 60.7201C60.0455 60.7368 60.0107 60.7509 59.9749 60.7622C59.9448 60.7717 59.9142 60.7796 59.8833 60.7859V60.7859L58.8862 61.3783L58.858 61.4123L56.925 62.6022Z" fill="black"/>
<path d="M57.6939 54.712L58.0358 55.107L57.5454 56.0098C57.5454 56.0098 58.0854 56.2568 57.8441 56.9355C57.6028 57.6142 57.6641 58.0445 57.6641 58.0445C57.6641 58.0445 58.0422 59.2805 57.7093 59.8967L58.0175 60.5544C58.0175 60.5544 59.3716 61.0556 59.9488 60.7478C59.9488 60.7478 56.9209 64.3028 60.3968 65.2287C60.3968 65.2287 56.2784 64.5471 56.0003 64.647C55.7223 64.7469 54.3717 64.6747 53.7844 63.6023C53.1972 62.5299 53.4756 61.661 53.4756 61.661C53.4756 61.661 53.3918 59.8654 53.4777 59.6637C53.5636 59.4621 53.026 58.8102 53.026 58.8102L53.7496 54.8171L57.6939 54.712Z" fill="#65617D"/>
<path opacity="0.1" d="M50.7763 41.2675L50.7779 41.2741L50.6781 41.5434L50.2817 42.6187L50.213 42.8019L50.1153 43.0706L49.9418 43.5489L49.0727 45.018L48.9276 45.2629L47.5425 47.6018L44.4871 52.7704L41.9476 55.2915C41.9476 55.2915 41.5768 55.6204 41.1979 55.9631L41.2497 55.6352C41.4412 54.4533 41.6331 53.2926 41.8253 52.1533C41.825 52.1495 41.8241 52.1458 41.8226 52.1423C42.5552 47.8067 43.2933 43.7981 44.0001 40.2717C44.0282 40.2766 44.0557 40.2839 44.0826 40.2935C44.4777 40.4347 44.9345 40.5612 45.1089 40.6104L45.1816 40.63C45.2738 40.7194 45.3715 40.8026 45.4741 40.8793C45.6364 40.9993 45.8281 41.1081 45.9554 41.0752C46.212 41.0088 47.6243 41.4809 47.8499 41.6334C47.9492 41.6877 48.0556 41.7277 48.1658 41.752C48.4899 41.8394 48.9094 41.8997 48.9094 41.8997L49.8341 41.8224L49.8703 41.82L49.881 41.8172C50.1273 41.7872 50.5863 41.425 50.7255 41.3074L50.7655 41.2749L50.7763 41.2675Z" fill="black"/>
<path d="M50.7784 41.2658L50.6422 41.555L50.148 42.6021L50.0682 42.773L50.0615 42.7829L49.7621 43.4184L48.8148 45.0195L48.6666 45.2699L47.6034 47.0676L44.3077 52.6409L41.7682 55.162L41.2537 55.6225C41.4451 54.4406 41.637 53.28 41.8293 52.1406C41.829 52.1369 41.828 52.1332 41.8265 52.1297C42.5591 47.794 43.2972 43.7855 44.0041 40.2591C44.0083 40.2394 44.0114 40.2199 44.0159 40.2013C44.49 40.364 45.0095 40.4975 45.0095 40.4975C45.0095 40.4975 45.051 40.5392 45.1158 40.5958C45.2295 40.6971 45.3525 40.7869 45.4832 40.8642C45.5718 40.9255 45.6788 40.953 45.7854 40.9421C46.042 40.8757 47.4543 41.3478 47.68 41.5003C47.8377 41.58 48.0064 41.6349 48.1804 41.6632C48.4604 41.7259 48.7392 41.7656 48.7392 41.7656L49.6992 41.6872C49.9534 41.6657 50.5899 41.3519 50.7436 41.2737C50.7528 41.2723 50.7618 41.2699 50.7706 41.2667C50.7706 41.2667 50.7706 41.2667 50.7706 41.2667L50.777 41.265L50.7784 41.2658Z" fill="#65617D"/>
<path opacity="0.1" d="M39.2656 70.0988L39.1284 70.0089L39.135 69.9665C39.1754 70.0136 39.2191 70.0578 39.2656 70.0988Z" fill="black"/>
<path opacity="0.1" d="M39.3693 71.4374L38.7654 72.8332C38.8209 72.3971 38.8774 71.9576 38.9351 71.5148L39.3693 71.4374Z" fill="black"/>
<path d="M41.8491 62.837L41.7728 62.9127L41.7159 62.9693L40.5375 64.1457L40.5193 64.1329L40.0035 63.7818L39.9469 63.744L40.0181 63.6801L41.2063 62.6247L41.2824 62.5573L41.3651 62.4846C41.5264 62.6002 41.687 62.7182 41.8491 62.837Z" fill="#3F3D56"/>
<path opacity="0.1" d="M57.9217 51.7917C57.9217 51.7917 57.0712 51.6623 56.6518 51.9898C56.2324 52.3174 57.9217 51.7917 57.9217 51.7917Z" fill="black"/>
<path opacity="0.1" d="M57.0602 57.667C57.0602 57.667 57.2639 59.4783 56.5853 59.6749C55.9066 59.8715 57.0602 57.667 57.0602 57.667Z" fill="black"/>
<path opacity="0.1" d="M42.8298 60.4526C42.7977 60.3024 42.7065 55.8608 42.053 55.8202L42.8298 60.4526Z" fill="black"/>
<path opacity="0.1" d="M51.774 37.8387C51.3952 38.4322 51.1671 39.1115 51.1099 39.8162L51.1396 39.8295C51.3944 39.929 51.6831 39.739 51.9614 39.6856C52.1321 39.6531 52.3087 39.6755 52.4662 39.7499C52.6238 39.8242 52.7545 39.9467 52.84 40.1001C52.9203 40.2651 52.9537 40.4495 52.9363 40.6327C52.919 40.8158 52.8516 40.9904 52.7417 41.1367C53.1642 40.7257 53.457 40.1874 53.8778 39.7744C54.2987 39.3615 54.9465 39.0878 55.4101 39.3779C55.6094 39.5034 55.7898 39.7316 56.0284 39.6757C56.1707 39.6389 56.281 39.5113 56.4154 39.4428C57.0842 39.1206 57.9077 40.0456 58.1386 40.5882C58.3637 41.1124 58.562 41.8765 58.9172 42.4475C59.2156 41.9719 59.4187 41.4413 59.5148 40.8861C59.6109 40.3309 59.5983 39.7618 59.4776 39.2114C59.3569 38.6611 59.1304 38.1402 58.8113 37.6784C58.4921 37.2167 58.0864 36.8233 57.6173 36.5205C57.1482 36.2177 56.625 36.0116 56.0774 35.9139C55.5299 35.8162 54.9688 35.8288 54.4261 35.951C53.8835 36.0732 53.3699 36.3026 52.9147 36.6261C52.4596 36.9496 52.0718 37.3609 51.7734 37.8365L51.774 37.8387Z" fill="black"/>
<path d="M56.4736 39.3549C56.339 39.4223 56.2309 39.554 56.0867 39.5878C55.8505 39.6489 55.6676 39.4155 55.4683 39.29C55.0052 38.9974 54.3572 39.27 53.9371 39.6862C53.5171 40.1025 53.2238 40.6386 52.8002 41.0499C52.9105 40.9038 52.9783 40.7291 52.9956 40.5459C53.013 40.3627 52.9794 40.1781 52.8985 40.0133C52.813 39.8598 52.6823 39.7374 52.5247 39.663C52.3672 39.5887 52.1906 39.5662 52.0199 39.5987C51.7416 39.6521 51.4551 39.8416 51.1989 39.7413C50.9428 39.641 50.8656 39.28 50.9375 38.9865C51.0094 38.6929 51.1835 38.4312 51.2887 38.1465C51.4884 37.6079 51.4314 37.0216 51.5532 36.4611C51.7011 35.7836 52.0901 35.1853 52.6458 34.7804C52.9374 34.5699 53.27 34.422 53.5639 34.212C54.0109 33.8936 54.3665 33.4358 54.8385 33.1622C55.6281 32.7039 56.6765 32.9032 57.1919 33.6086C57.4385 33.9444 57.5673 34.3689 57.8281 34.6928C58.1786 35.1264 58.7197 35.3277 59.2176 35.5623C59.7155 35.7969 60.2236 36.1174 60.3978 36.6676C60.5976 37.2963 60.2934 38.0309 60.4446 38.6767C60.5127 38.9468 60.6502 39.1873 60.7307 39.4519C60.8112 39.7165 60.8223 40.0387 60.6469 40.2681C60.4209 40.5654 59.9392 40.6505 59.8634 41.0149C59.8498 41.1256 59.8578 41.2379 59.8869 41.3455C59.995 41.9177 59.9706 42.5074 59.8157 43.0683C58.8549 42.7973 58.5588 41.335 58.2023 40.5035C57.966 39.9577 57.1436 39.0324 56.4736 39.3549Z" fill="#7C5C5C"/>
<path opacity="0.1" d="M55.1782 54.7176C55.1782 54.7176 52.9772 58.1717 53.0515 58.7035C53.1258 59.2353 55.1782 54.7176 55.1782 54.7176Z" fill="black"/>
<g opacity="0.1">
<path d="M60.0022 40.6865C60.0735 40.3314 60.5376 40.2404 60.7688 39.9592C60.7527 40.0702 60.7092 40.1752 60.6424 40.2645C60.4767 40.4822 60.1736 40.5874 59.9934 40.7703C59.9936 40.7422 59.9965 40.7141 60.0022 40.6865V40.6865Z" fill="black"/>
<path d="M52.9642 40.6994C53.3751 40.2925 53.666 39.7652 54.0802 39.3621C54.4943 38.959 55.1488 38.6755 55.6114 38.9659C55.8107 39.0914 55.9922 39.3193 56.2297 39.2637C56.3731 39.2266 56.4821 39.0982 56.6167 39.0307C57.2866 38.7083 58.109 39.6336 58.341 40.1759C58.6893 40.9885 58.9795 42.3999 59.8879 42.7182C59.868 42.8399 59.8429 42.95 59.8111 43.0654C58.8504 42.7945 58.5543 41.3322 58.1977 40.5007C57.9657 39.9584 57.139 39.0342 56.4734 39.3556C56.3388 39.423 56.2307 39.5547 56.0864 39.5885C55.8503 39.6496 55.6674 39.4162 55.4681 39.2907C55.005 38.9981 54.3569 39.2707 53.9369 39.6869C53.5169 40.1032 53.2235 40.6393 52.8 41.0506C52.877 40.9457 52.9328 40.8263 52.9642 40.6994V40.6994Z" fill="black"/>
<path d="M51.0798 38.6583C51.0079 38.9518 51.0803 39.3117 51.3413 39.4131C51.6023 39.5145 51.8839 39.3239 52.1622 39.2705C52.3331 39.2381 52.5097 39.2606 52.6674 39.3349C52.8251 39.4091 52.956 39.5315 53.0419 39.6848C53.1181 39.8419 53.1517 40.0168 53.1392 40.1914C53.1267 40.366 53.0685 40.5341 52.9706 40.6783C53.0283 40.454 53.0022 40.216 52.8975 40.0099C52.812 39.8565 52.6813 39.734 52.5238 39.6597C52.3662 39.5853 52.1897 39.5629 52.0189 39.5954C51.7406 39.6487 51.4541 39.8382 51.198 39.7379C50.9418 39.6376 50.8647 39.2766 50.9366 38.9831C50.9842 38.8133 51.0495 38.6492 51.1314 38.4935C51.1111 38.5474 51.0939 38.6024 51.0798 38.6583V38.6583Z" fill="black"/>
<path d="M51.6923 36.1346C51.5737 36.6942 51.6361 37.2791 51.4278 37.82C51.3877 37.9294 51.3372 38.0345 51.2867 38.1396C51.4845 37.6026 51.4278 37.0174 51.5458 36.4602C51.5995 36.2093 51.6878 35.9672 51.808 35.7412C51.7593 35.869 51.7207 36.0006 51.6923 36.1346V36.1346Z" fill="black"/>
</g>
<path d="M66.327 61.2612C66.3498 61.2553 66.3635 61.2316 66.3576 61.2083C66.3518 61.185 66.3285 61.1709 66.3057 61.1768C66.2829 61.1827 66.2692 61.2064 66.275 61.2297C66.2809 61.253 66.3042 61.2671 66.327 61.2612Z" fill="#E6E8EC"/>
<path d="M153.115 93.8626H63.2356V93.6572H153.115C153.171 93.6572 153.216 93.7032 153.216 93.7599C153.216 93.8166 153.171 93.8626 153.115 93.8626Z" fill="#3F3D56"/>
<path d="M85.4244 93.6569H79.7934C78.9518 93.6569 78.267 92.963 78.267 92.11V75.3604C78.267 74.5074 78.9518 73.8135 79.7934 73.8135H85.4244C86.266 73.8135 86.9507 74.5074 86.9507 75.3604V92.11C86.9507 92.963 86.266 93.6569 85.4244 93.6569H85.4244Z" fill="#3F3D56"/>
<path d="M140.591 93.6891H134.96C134.118 93.6891 133.434 92.9952 133.434 92.1422V75.3926C133.434 74.5396 134.118 73.8457 134.96 73.8457H140.591C141.433 73.8457 142.117 74.5396 142.117 75.3926V92.1422C142.117 92.9952 141.433 93.6891 140.591 93.6891Z" fill="#3F3D56"/>
<path d="M86.7593 52.037L78.4672 63.972C77.4666 65.4122 77.0699 67.1955 77.3639 68.9315L79.8841 83.8109C80.4254 87.0067 83.1598 89.3427 86.3595 89.3427H135.086C138.559 89.3427 141.432 86.604 141.644 83.0914L142.617 66.9933C142.732 65.0769 142.026 63.2031 140.679 61.8529L129.048 50.1932C127.771 48.9133 126.033 48.2189 124.238 48.2713L91.9421 49.2147C89.8721 49.2752 87.9515 50.3211 86.7593 52.037L86.7593 52.037V52.037Z" fill="black"/>
<path d="M88.022 54.156L86.4365 57.1603C85.4262 59.0746 86.8993 61.3353 89.1405 61.3101L128.834 60.8633C131.272 60.8359 132.645 58.1726 131.187 56.2994L128.688 53.0887C128.111 52.3483 127.197 51.9194 126.234 51.937L90.6252 52.5903C89.5211 52.6106 88.5197 53.2128 88.022 54.156H88.022V54.156Z" fill="white"/>
<path d="M137.709 60.4253C137.453 60.4253 137.203 60.3289 137.011 60.153C136.794 59.9536 136.669 59.6689 136.669 59.3718L136.669 58.7114L136.8 55.668C136.824 55.1028 137.28 54.6602 137.838 54.6602H141.971C142.355 54.6602 142.707 54.8738 142.888 55.2179L143.38 56.1535C143.536 56.4494 143.545 56.7931 143.404 57.0966C143.264 57.4002 142.998 57.6132 142.674 57.681L139.558 58.3343C139.236 58.4017 138.982 58.6435 138.896 58.9653L138.712 59.649C138.599 60.067 138.238 60.3769 137.812 60.4201C137.778 60.4236 137.743 60.4253 137.709 60.4253H137.709V60.4253Z" fill="black"/>
<path d="M81.8912 60.4201C81.4656 60.3769 81.1041 60.067 80.9915 59.649L80.8075 58.9653C80.721 58.6435 80.4671 58.4017 80.145 58.3343L77.0297 57.681C76.7058 57.6132 76.4394 57.4002 76.299 57.0966C76.1586 56.7931 76.1673 56.4494 76.3229 56.1535L76.8153 55.2179C76.9964 54.8738 77.3479 54.6602 77.7327 54.6602H81.8649C82.4231 54.6602 82.8793 55.1028 82.9035 55.668L83.0342 58.7114L83.0342 59.3718C83.0342 59.6689 82.9095 59.9536 82.6922 60.153C82.5004 60.3289 82.2507 60.4253 81.9942 60.4253C81.9599 60.4253 81.9255 60.4236 81.8912 60.4201L81.8912 60.4201V60.4201Z" fill="black"/>
<path d="M91.6654 69.9899C92.0269 67.7323 90.5141 65.6052 88.2863 65.2388C86.0586 64.8725 83.9596 66.4056 83.5981 68.6632C83.2365 70.9208 84.7494 73.048 86.9772 73.4143C89.2049 73.7807 91.3039 72.2475 91.6654 69.9899Z" fill="white"/>
<path d="M134.711 73.5539C136.967 73.5539 138.797 71.6998 138.797 69.4127C138.797 67.1256 136.967 65.2715 134.711 65.2715C132.454 65.2715 130.624 67.1256 130.624 69.4127C130.624 71.6998 132.454 73.5539 134.711 73.5539Z" fill="white"/>
<path d="M82.1913 47.2022C82.5676 47.4156 82.888 47.7173 83.1256 48.082L85.8089 49.699L90.3681 51.863C90.3681 51.863 91.4433 47.9896 92.7279 47.7422C94.0125 47.4948 96.1318 50.3655 96.1318 50.3655C96.1318 50.3655 92.4374 56.4275 90.8281 55.806C89.2188 55.1844 85.6231 52.1658 85.6231 52.1658L85.1534 51.779L82.166 49.7649C81.7354 49.7384 81.3174 49.6077 80.9468 49.3838C80.0125 48.8368 79.5336 47.9049 79.8772 47.3023C80.2208 46.6998 81.2566 46.6549 82.1913 47.2022V47.2022V47.2022Z" fill="#A0616A"/>
<path d="M91.078 48.8831L93.4095 46.1016L94.8181 46.3072C96.5458 46.5594 97.5063 48.4692 96.6924 50.0342L95.8809 51.5946L91.078 48.8831V48.8831V48.8831Z" fill="#E6E6E6"/>
<path d="M83.4962 52.5244L79.3926 46.7915C79.3318 46.7069 79.3467 46.5883 79.4264 46.5215L80.4109 45.6977C80.4535 45.662 80.5095 45.6463 80.5642 45.6545C80.6189 45.6627 80.6681 45.694 80.6989 45.7409L84.7762 51.942C84.8098 51.9929 84.8182 52.0556 84.7995 52.1138C84.7808 52.1722 84.7374 52.2178 84.6804 52.239L83.7225 52.5943C83.6521 52.6205 83.5734 52.6029 83.5201 52.5519C83.5115 52.5436 83.5034 52.5345 83.4962 52.5244V52.5244V52.5244Z" fill="#3F3D56"/>
<path d="M83.8227 52.1742L79.5757 46.5954C79.5127 46.513 79.5171 46.4057 79.5855 46.3511L80.4301 45.6776C80.4667 45.6484 80.5171 45.6385 80.5684 45.6505C80.6196 45.6625 80.6675 45.6951 80.6998 45.7405L84.9595 51.7455C84.9946 51.7948 85.0074 51.8528 84.9948 51.9046C84.982 51.9565 84.9455 51.9947 84.8946 52.0094L84.0374 52.2565C83.9744 52.2747 83.9003 52.2522 83.847 52.2013C83.8383 52.193 83.8302 52.1839 83.8228 52.1742L83.8227 52.1742Z" fill="#E6E6E6"/>
<path d="M82.128 87.058L80.2813 91.0963L77.2684 89.7174L79.601 86.6641L82.128 87.058Z" fill="#A0616A"/>
<path d="M79.018 89.815L81.2534 89.5195C81.2534 89.5195 82.8084 93.2623 81.6421 93.4593C80.4758 93.6563 71.3399 94.5427 71.3399 93.3608C71.3399 92.1789 75.1303 90.7015 75.1303 90.7015L77.7545 88.8301L79.018 89.815H79.018V89.815Z" fill="#2F2E41"/>
<path d="M96.6098 61.0548C96.6098 61.0548 99.3312 65.1916 93.4997 67.7524L87.2795 76.8138L82.1284 88.1405L79.0183 86.9586L84.461 69.8208L87.5711 62.1383L89.029 59.7744L96.6098 61.0548V61.0548V61.0548Z" fill="#2F2E41"/>
<path d="M74.9873 76.2995L73.7494 80.5699L70.5686 79.657L72.4306 76.2881L74.9873 76.2995Z" fill="#A0616A"/>
<path d="M72.313 79.4921L74.4808 78.8652C74.4808 78.8652 76.5643 82.3342 75.4395 82.7036C74.3147 83.073 65.4081 85.3171 65.2359 84.1481C65.0636 82.9792 68.5972 80.9506 68.5972 80.9506L70.9198 78.707L72.313 79.4921L72.313 79.4921H72.313Z" fill="#2F2E41"/>
<path d="M90.6816 60.2285L75.7443 63.5135C74.5917 63.7669 73.6981 64.6904 73.4705 65.8631L71.3798 76.6369L75.9555 78.142L78.0105 68.5229L91.2719 68.0022L90.6816 60.2285V60.2285Z" fill="#2F2E41"/>
<path d="M94.4354 42.0265L92.5884 45.6932L97.5017 46.4678L97.4482 41.5381L94.4354 42.0265Z" fill="#A0616A"/>
<path d="M95.4615 43.5306C97.3504 43.5306 98.8816 41.9789 98.8816 40.0646C98.8816 38.1504 97.3504 36.5986 95.4615 36.5986C93.5726 36.5986 92.0413 38.1504 92.0413 40.0646C92.0413 41.9789 93.5726 43.5306 95.4615 43.5306Z" fill="#A0616A"/>
<path d="M97.6785 62.238L98.2426 52.9788C98.7306 50.7625 98.5681 48.45 97.7751 46.3261L97.5813 44.1152L93.1106 44.4107L91.2154 47.5133L89.4173 54.851L89.0286 59.7757L97.6785 62.238L97.6785 62.238V62.238Z" fill="#E6E6E6"/>
<path d="M84.5966 55.0731C85.0236 55.0122 85.4588 55.0557 85.8658 55.2002L88.9675 54.8412L93.8892 53.767C93.8892 53.767 92.4313 50.0242 93.306 49.0393C94.1808 48.0544 97.5824 49.0393 97.5824 49.0393C97.5824 49.0393 98.2628 56.1308 96.6105 56.6233C94.9583 57.1158 90.2931 56.9188 90.2931 56.9188L89.6882 56.899L86.1072 57.1285C85.7486 57.3715 85.3378 57.5239 84.9092 57.573C83.8387 57.7108 82.9008 57.2628 82.8145 56.5724C82.728 55.882 83.5257 55.2108 84.5966 55.0731V55.0731L84.5966 55.0731Z" fill="#A0616A"/>
<path d="M92.6746 50.9599L92.869 47.3156L94.113 46.6152C95.6389 45.7562 97.5442 46.6871 97.8311 48.432L98.1173 50.1719L92.6746 50.9599L92.6746 50.9599V50.9599Z" fill="#E6E6E6"/>
<path d="M98.1285 42.1946C98.1285 42.1946 98.4474 40.5785 97.4906 40.4708C96.5338 40.3631 95.577 38.4239 95.577 38.4239C95.577 38.4239 92.2756 37.8403 92.1692 39.2408C92.0629 40.6414 92.1037 40.3301 92.1037 40.3301C92.1037 40.3301 91.3188 39.995 91.6377 38.5944C91.7288 38.1942 91.9501 37.8293 92.2198 37.512C93.0864 36.4925 94.4178 36.0108 95.7369 36.1649C96.2956 36.2302 97.9589 36.7675 98.2802 37.1338C99.1307 38.1035 99.5105 41.1172 98.1285 42.1946V42.1946Z" fill="#3F3D56"/>
<path d="M86.8518 83.2845C86.2518 83.2845 85.7225 82.9664 85.4345 82.4322C85.145 81.895 85.1686 81.268 85.4977 80.7548L85.5466 80.787L85.4977 80.7548L86.5644 79.0917C86.8637 78.6252 87.3701 78.3467 87.9192 78.3467H134.315C134.789 78.3467 135.236 78.5556 135.544 78.92L136.714 80.3075C137.128 80.7976 137.22 81.4662 136.955 82.0526C136.691 82.6389 136.131 83.0054 135.495 83.0089L86.8615 83.2845H86.8518L86.8518 83.2845V83.2845Z" fill="#3F3D56"/>
<path d="M142.361 63.2076C143.215 63.7733 144.194 63.7856 144.55 63.235C144.905 62.6845 144.501 61.7798 143.647 61.214C143.309 60.9833 142.921 60.8379 142.516 60.7901L138.87 58.4395L137.818 60.197L141.524 62.3277C141.73 62.6845 142.017 62.9862 142.361 63.2076V63.2076V63.2076Z" fill="#FFB6B6"/>
<path d="M131.991 57.4146L140.936 62.1L141.714 59.9312L135.647 55.1147L135.243 48.0877C135.193 47.2296 134.769 46.4518 134.078 45.9536C133.387 45.4557 132.522 45.3043 131.706 45.5385C130.253 45.9555 129.387 47.498 129.775 48.9767L131.991 57.4146V57.4146V57.4146Z" fill="#E6E6E6"/>
<path d="M134.152 44.84L134.57 42.191L131.747 41.0254L131.329 45.0519L134.152 44.84Z" fill="#FFB6B6"/>
<path d="M125.262 59.913C125.262 59.913 124.452 65.0462 127.693 65.6622C130.935 66.2782 138.331 66.6889 138.331 66.6889L147.853 78.3926L149.778 76.2367L141.572 63.4036L134.987 59.1943L125.262 59.913V59.913Z" fill="#2F2E41"/>
<path d="M126.035 59.082C126.035 59.082 124.145 63.9148 127.178 65.2289C130.211 66.5429 137.342 68.5697 137.342 68.5697L144.133 82.0884L146.473 80.407L141.21 66.0754L135.683 60.5187L126.035 59.082V59.082V59.082Z" fill="#2F2E41"/>
<path d="M134.683 44.4109L131.036 43.7949L128.564 45.1892C127.126 47.3099 127.007 54.0361 126.667 56.5865L124.654 61.3506L131.036 60.4266L136.203 59.9133L134.481 48.5175L134.683 44.4109L134.683 44.4109V44.4109Z" fill="#E6E6E6"/>
<path d="M133.439 43.0429C135.029 43.0429 136.318 41.7367 136.318 40.1255C136.318 38.5142 135.029 37.208 133.439 37.208C131.849 37.208 130.56 38.5142 130.56 40.1255C130.56 41.7367 131.849 43.0429 133.439 43.0429Z" fill="#FFB6B6"/>
<path d="M133.209 36.2024C133.293 36.2516 133.404 36.1771 133.431 36.0832C133.458 35.9892 133.427 35.8895 133.396 35.7969C133.344 35.6415 133.292 35.4861 133.24 35.3307C133.13 35 133.013 34.6578 132.775 34.4061C132.415 34.0262 131.842 33.9296 131.327 33.9996C130.666 34.0895 130.013 34.4526 129.705 35.0529C129.398 35.6533 129.528 36.491 130.084 36.8655C129.292 37.7857 129.016 38.8112 129.06 40.0316C129.103 41.2519 130.415 42.3751 131.271 43.2348C131.462 43.1174 131.636 42.5672 131.531 42.3673C131.426 42.1674 131.577 41.9359 131.446 41.7517C131.316 41.5676 131.207 41.8608 131.339 41.6777C131.422 41.5622 131.098 41.2964 131.221 41.2273C131.818 40.8929 132.017 40.1388 132.392 39.5613C132.844 38.8648 133.618 38.3931 134.437 38.3149C134.888 38.2717 135.365 38.3498 135.735 38.6153C136.105 38.8808 136.344 39.3552 136.258 39.8062C136.481 39.5776 136.591 39.2427 136.549 38.9247C136.508 38.6067 136.315 38.3126 136.041 38.1508C136.208 37.5939 136.065 36.9532 135.679 36.5222C135.294 36.0912 133.729 36.1646 133.166 36.2781" fill="#2F2E41"/>
<path d="M133.122 38.332C132.376 38.4136 131.837 39.0684 131.383 39.673C131.12 40.0215 130.846 40.4064 130.852 40.8445C130.859 41.2875 131.151 41.6674 131.291 42.0873C131.519 42.7734 131.297 43.5898 130.753 44.06C131.29 44.1633 131.871 43.7552 131.964 43.2093C132.071 42.5739 131.596 41.9605 131.652 41.3183C131.702 40.7524 132.142 40.3169 132.516 39.8938C132.89 39.4707 133.242 38.9093 133.069 38.3686" fill="#2F2E41"/>
<path d="M140.075 63.7545C140.928 64.3202 141.908 64.3324 142.263 63.7819C142.618 63.2314 142.214 62.3267 141.36 61.7609C141.022 61.5302 140.635 61.3848 140.23 61.337L136.584 58.9863L135.532 60.7439L139.238 62.8746C139.443 63.2314 139.73 63.5331 140.075 63.7545V63.7545Z" fill="#FFB6B6"/>
<path d="M129.704 57.9615L138.65 62.6469L139.428 60.4781L133.36 55.6615L132.956 48.6346C132.907 47.7765 132.482 46.9987 131.791 46.5005C131.1 46.0025 130.236 45.8511 129.42 46.0853C127.967 46.5024 127.101 48.0449 127.489 49.5236L129.704 57.9615V57.9615V57.9615Z" fill="#E6E6E6"/>
<path d="M144.455 80.2744L144.662 80.3943C144.662 80.3943 146.081 79.573 146.79 80.3943C147.499 81.2156 148.005 83.2689 148.005 83.2689C148.005 83.2689 150.943 85.7329 149.221 85.7329C147.925 85.7329 144.849 84.2785 143.407 83.5594C142.947 83.3298 142.732 82.7844 142.911 82.2972C143.061 81.8911 143.254 81.465 143.447 81.3183C143.649 81.1643 143.776 80.8307 143.852 80.5355C143.921 80.268 144.218 80.1373 144.455 80.2744H144.455V80.2744Z" fill="#2F2E41"/>
<path d="M148.406 76.3731L148.613 76.493C148.613 76.493 150.032 75.6716 150.741 76.493C151.45 77.3143 151.956 79.3676 151.956 79.3676C151.956 79.3676 154.894 81.8315 153.172 81.8315C151.876 81.8315 148.8 80.3771 147.358 79.658C146.898 79.4284 146.683 78.883 146.862 78.3958C147.012 77.9897 147.205 77.5636 147.398 77.4169C147.6 77.2629 147.727 76.9293 147.803 76.6341C147.872 76.3667 148.169 76.2359 148.406 76.3731H148.406V76.3731Z" fill="#2F2E41"/>
<defs>
<linearGradient id="paint0_linear_2380_12" x1="45.8395" y1="91.108" x2="59.5242" y2="33.2816" gradientUnits="userSpaceOnUse">
<stop stop-color="#808080" stop-opacity="0.25"/>
<stop offset="0.54" stop-color="#808080" stop-opacity="0.12"/>
<stop offset="1" stop-color="#808080" stop-opacity="0.1"/>
</linearGradient>
</defs>
</svg>
