<svg width="169" height="98" viewBox="0 0 169 98" fill="none" xmlns="http://www.w3.org/2000/svg">
<g filter="url(#filter0_d_63_17815)">
<path d="M46.712 89.6084H12.132C7.91558 89.6084 4.48523 86.178 4.48523 81.9615V7.64677C4.48523 3.43035 7.91558 0 12.132 0H46.712C50.9283 0 54.3587 3.43035 54.3587 7.64677V81.9615C54.3587 86.178 50.9283 89.6084 46.712 89.6084Z" fill="#3F3D56"/>
<path d="M54.3583 27.335C54.1799 27.335 54.0348 27.48 54.0348 27.6585V38.0103C54.0348 38.1887 54.1799 38.3338 54.3583 38.3338C54.5367 38.3338 54.6818 38.1887 54.6818 38.0103V27.6585C54.6818 27.48 54.5367 27.335 54.3583 27.335Z" fill="#3F3D56"/>
<path d="M53.6306 7.64711V81.9605C53.6306 85.6306 50.7741 88.6327 47.1623 88.8656H47.1607C47.1073 88.8688 47.0539 88.872 46.9989 88.8737C46.9035 88.8785 46.8081 88.8801 46.711 88.8801C46.711 88.8801 46.3552 88.8542 45.705 88.8057C45.0483 88.7572 44.0923 88.6844 42.9002 88.589C42.5428 88.5615 42.1659 88.5307 41.768 88.4984C40.9755 88.4337 40.1052 88.3625 39.172 88.2817C38.7999 88.2509 38.415 88.217 38.0219 88.183C36.013 88.0099 33.7631 87.8077 31.3903 87.5781C30.9891 87.5408 30.5848 87.502 30.1772 87.4616C30.0704 87.4503 29.962 87.4406 29.8537 87.4292C28.1618 87.2626 5.21289 82.8275 5.21289 81.9605V7.64711C5.21289 3.82501 8.31036 0.727539 12.1325 0.727539H16.2635C16.9234 0.727539 17.454 1.2419 17.5106 1.90021C17.5154 1.94389 17.5203 1.98755 17.5284 2.03123C17.6481 2.69278 18.2546 3.15376 18.9275 3.15376H39.916C40.5889 3.15376 41.1954 2.69278 41.3151 2.03123C41.3232 1.98755 41.3281 1.94389 41.3329 1.90021C41.3895 1.2419 41.9201 0.727539 42.58 0.727539H46.711C50.5331 0.727539 53.6306 3.82501 53.6306 7.64711H53.6306Z" fill="white"/>
<path d="M4.32349 19.5713C4.14508 19.5713 4 19.7164 4 19.8948V22.4827C4 22.6612 4.14508 22.8062 4.32349 22.8062C4.50191 22.8062 4.64699 22.6612 4.64699 22.4827V19.8948C4.64699 19.7164 4.50191 19.5713 4.32349 19.5713Z" fill="#3F3D56"/>
<path d="M4.32349 27.335C4.14508 27.335 4 27.48 4 27.6585V32.6726C4 32.8511 4.14508 32.9961 4.32349 32.9961C4.50191 32.9961 4.64699 32.851 4.64699 32.6726V27.6585C4.64699 27.48 4.50191 27.335 4.32349 27.335Z" fill="#3F3D56"/>
<path d="M4.32349 34.4521C4.14508 34.4521 4 34.5972 4 34.7756V39.7898C4 39.9682 4.14508 40.1133 4.32349 40.1133C4.50191 40.1133 4.64699 39.9682 4.64699 39.7898V34.7756C4.64699 34.5972 4.50191 34.4521 4.32349 34.4521Z" fill="#3F3D56"/>
<path d="M16.1514 1.86035H9.96486C9.93127 1.86035 9.90405 1.88757 9.90405 1.92115V2.60829C9.90405 2.64187 9.93127 2.66909 9.96486 2.66909H16.1514C16.185 2.66909 16.2122 2.64187 16.2122 2.60829V1.92115C16.2122 1.88757 16.185 1.86035 16.1514 1.86035Z" fill="#E6E6E6"/>
<path d="M43.6037 2.66898C43.961 2.66898 44.2506 2.37932 44.2506 2.02199C44.2506 1.66467 43.961 1.375 43.6037 1.375C43.2463 1.375 42.9567 1.66467 42.9567 2.02199C42.9567 2.37932 43.2463 2.66898 43.6037 2.66898Z" fill="#E6E6E6"/>
<path d="M45.3815 2.66898C45.7388 2.66898 46.0285 2.37932 46.0285 2.02199C46.0285 1.66467 45.7388 1.375 45.3815 1.375C45.0242 1.375 44.7345 1.66467 44.7345 2.02199C44.7345 2.37932 45.0242 2.66898 45.3815 2.66898Z" fill="#E6E6E6"/>
<path d="M47.1604 2.66898C47.5177 2.66898 47.8074 2.37932 47.8074 2.02199C47.8074 1.66467 47.5177 1.375 47.1604 1.375C46.8031 1.375 46.5134 1.66467 46.5134 2.02199C46.5134 2.37932 46.8031 2.66898 47.1604 2.66898Z" fill="#E6E6E6"/>
<path d="M38.2436 86.0543L39.6997 86.1405L40.7256 80.5654L38.5764 80.4381L38.2436 86.0543Z" fill="#FFB6B6"/>
<path d="M43.2342 86.3174C43.275 86.3964 43.2843 86.6443 43.279 86.733C43.2628 87.006 43.0284 87.2141 42.7555 87.1979L38.246 86.9304C38.0597 86.9193 37.9178 86.7595 37.9288 86.5733L37.9399 86.3855C37.9399 86.3855 37.7503 85.8081 38.2509 85.1399C38.2509 85.1399 38.7894 85.7183 39.693 84.916L39.9715 84.4753L41.7133 85.9148L42.7151 86.0989C42.9343 86.1391 43.1319 86.1194 43.2342 86.3174Z" fill="#2F2E41"/>
<path d="M44.8654 86.4469L46.3216 86.5331L47.3474 80.958L45.1983 80.8307L44.8654 86.4469Z" fill="#FFB6B6"/>
<path d="M49.856 86.7099C49.8968 86.789 49.9061 87.0368 49.9008 87.1256C49.8846 87.3986 49.6502 87.6067 49.3773 87.5905L44.8678 87.323C44.6816 87.3119 44.5396 87.152 44.5506 86.9658L44.5618 86.7781C44.5618 86.7781 44.3721 86.2006 44.8727 85.5325C44.8727 85.5325 45.4112 86.1109 46.3148 85.3086L46.5933 84.8679L48.3351 86.3074L49.337 86.4914C49.5561 86.5317 49.7538 86.5119 49.856 86.7099Z" fill="#2F2E41"/>
<path d="M37.9865 50.8534L48.1039 51.7248L48.9927 54.2179L49.3189 70.0997L47.4125 83.951L44.257 83.7638L45.0361 70.6303L43.1312 62.4115L40.9511 83.161L37.6695 83.3731L37.1828 68.973L36.7763 55.2557L37.9865 50.8534Z" fill="#2F2E41"/>
<path d="M42.6616 32.9629L46.1665 33.3064L46.4757 34.9517C46.4757 34.9517 50.7271 36.4241 50.3607 38.0292C49.9943 39.6344 48.2184 46.7147 48.2184 46.7147C48.2184 46.7147 49.4322 51.3963 48.4543 51.8806C47.4765 52.3649 37.7624 51.2463 37.7624 51.2463C37.7624 51.2463 37.09 49.1728 37.5114 48.9266C37.9327 48.6804 37.0808 35.6145 37.367 35.3604C37.6533 35.1062 42.1921 34.0197 42.1921 34.0197L42.6616 32.9629Z" fill="#FB8C00"/>
<path d="M34.9677 46.0635L34.5853 47.9388L37.157 54.8702L38.6913 54.1478L37.4467 47.7019L37.3207 45.254L34.9677 46.0635Z" fill="#FFB6B6"/>
<path d="M38.4367 35.5591C38.4367 35.5591 36.9905 34.7955 35.7653 37.1632C34.5402 39.5309 34.4978 44.8158 34.4978 44.8158C34.4978 44.8158 34.0684 45.1971 34.3226 45.4833C34.5768 45.7696 35.1281 45.1642 34.5636 45.993C34.2665 46.429 33.4639 46.2459 34.2665 46.429C35.0692 46.6122 34.8075 46.2178 34.5207 46.7153C34.3696 46.9775 33.8291 46.9454 34.3616 47.1126C34.894 47.2797 37.6271 47.2091 37.6271 47.2091C37.6271 47.2091 38.5821 46.8206 38.0577 46.5184C37.5333 46.2161 37.2662 46.1469 37.5429 46.0544C37.8195 45.9619 38.4951 46.002 38.1138 45.5727C37.7325 45.1433 37.4623 45.1273 37.7325 45.1433C38.0027 45.1593 38.3455 44.5263 38.3455 44.5263L38.4367 35.5591Z" fill="#FB8C00"/>
<path d="M37.258 56.0145C36.9872 55.0096 37.2515 54.0646 37.8482 53.9039C38.4449 53.7431 39.1482 54.4274 39.4189 55.4324C39.6897 56.4373 39.4254 57.3823 38.8287 57.543C38.232 57.7038 37.5288 57.0194 37.258 56.0145Z" fill="#FFB6B6"/>
<path d="M53.8297 46.5415L54.8108 48.1849L61.3817 51.5742L62.0287 50.0066L56.7655 46.082L55.023 44.358L53.8297 46.5415Z" fill="#FFB6B6"/>
<path d="M49.3163 36.4409C49.3163 36.4409 47.7331 36.8509 48.4232 39.4259C49.1133 42.0009 52.6432 45.9347 52.6432 45.9347C52.6432 45.9347 52.5828 46.5057 52.9636 46.546C53.3443 46.5862 53.3437 45.7675 53.485 46.7603C53.5593 47.2826 52.8428 47.688 53.5593 47.2826C54.2759 46.8772 53.8167 46.7621 53.9401 47.3229C54.005 47.6184 53.5841 47.9589 54.0902 47.7237C54.5962 47.4885 56.5682 45.595 56.5682 45.595C56.5682 45.595 57.0121 44.6645 56.4209 44.7944C55.8297 44.9244 55.5858 45.0532 55.7279 44.7984C55.87 44.5437 56.3962 44.1182 55.8251 44.0578C55.2541 43.9974 55.0436 44.1676 55.2541 43.9974C55.4646 43.8272 55.2913 43.1286 55.2913 43.1286L49.3163 36.4409Z" fill="#FB8C00"/>
<path d="M62.2271 52.3503C61.3499 51.7901 60.9084 50.9138 61.241 50.393C61.5737 49.8722 62.5544 49.9041 63.4317 50.4642C64.3089 51.0244 64.7504 51.9007 64.4178 52.4215C64.0851 52.9423 63.1044 52.9104 62.2271 52.3503Z" fill="#FFB6B6"/>
<path d="M44.3036 32.3981C42.5116 32.2918 41.145 30.753 41.2513 28.9611C41.3576 27.1692 42.8965 25.8028 44.6886 25.9091C46.4806 26.0154 47.8472 27.5542 47.7409 29.3461C47.6346 31.138 46.0957 32.5044 44.3036 32.3981Z" fill="#FFB6B6"/>
<path d="M47.2433 26.6968C47.106 26.2188 46.6648 25.9076 46.1677 25.8892C46.1466 25.8884 46.1256 25.8869 46.1049 25.8849C45.8555 25.8598 45.6206 25.7602 45.3784 25.6956C44.9271 25.5751 44.4435 25.5778 43.9936 25.7032C43.8537 25.7422 43.713 25.7933 43.568 25.7848C43.4231 25.7762 43.2699 25.6873 43.2429 25.5447C43.227 25.6714 43.211 25.7982 43.1951 25.9249C43.1541 25.8192 43.113 25.7134 43.0719 25.6076L42.9531 26.0127L42.6709 25.6515C42.689 25.8044 42.5917 25.9516 42.4665 26.0413C42.3413 26.1309 42.1907 26.1757 42.0457 26.2276C41.4199 26.4515 40.8196 26.878 40.6058 27.5073C40.4707 27.9048 40.5034 28.3371 40.5376 28.7556C40.5679 29.1255 40.602 29.5084 40.7829 29.8325C40.8988 30.0403 41.0731 30.2197 41.1376 30.4487C41.1978 30.6622 41.1561 30.9 41.2477 31.102C41.3397 31.3049 41.5471 31.4289 41.7521 31.5161C41.9571 31.6033 42.1766 31.6693 42.3492 31.8101C42.5219 31.9509 42.709 32.3381 43.1032 32.3413L43.2441 32.1105C43.3809 32.012 42.8931 32.0676 42.898 31.8991C42.9029 31.7306 43.4951 31.6614 43.4207 31.5101C43.3067 31.2781 43.146 31.0726 43.0151 30.8496C42.8622 30.5888 42.7476 30.2878 42.8236 29.9851C42.8532 29.8674 42.9156 29.7582 43.0057 29.6767C43.2653 29.4418 43.5317 29.5676 43.7948 29.619C43.9762 29.6545 44.1962 29.639 44.3005 29.4865C44.4225 29.3081 44.3127 29.0653 44.3406 28.851C44.3702 28.6238 44.5541 28.447 44.7499 28.3281C44.9457 28.2093 45.1649 28.1272 45.3433 27.9834C45.5216 27.8396 45.4901 27.9178 45.4292 27.697C46.6312 28.7151 46.542 27.0751 47.3745 27.3288C47.3468 27.1152 47.3027 26.9038 47.2433 26.6968L47.2433 26.6968Z" fill="#2F2E41"/>
<path d="M152.746 28.0357C155.904 28.0357 158.463 25.4761 158.463 22.3186C158.463 19.1612 155.904 16.6016 152.746 16.6016C149.589 16.6016 147.029 19.1612 147.029 22.3186C147.029 25.4761 149.589 28.0357 152.746 28.0357Z" fill="#FB8C00"/>
<path d="M131.319 37.3802L126.84 28.5851L131.333 36.2819L131.374 33.1339L128.296 26.7761L131.385 32.3015L131.458 26.64L128.112 21.5517L131.469 25.7497L131.714 15.415L131.715 15.3721L131.715 15.4157L131.677 28.5286L135.371 23.2204L131.687 29.6405L131.833 35.9699L131.848 35.8026L136.108 30.2026L131.843 36.395L131.862 37.1867L131.869 37.1991L131.864 37.2638L132.057 45.6411C131.778 45.6527 131.496 45.6575 131.212 45.6553L131.22 45.0036L127.334 38.5888L131.228 44.3805L131.319 37.3802Z" fill="#3F3D56"/>
<path d="M110.451 42.4056L105.971 33.6105L110.464 41.3073L110.505 38.1593L107.427 31.8015L110.517 37.3269L110.59 31.6654L107.243 26.5771L110.601 30.7751L110.845 20.4404L110.847 20.3975L110.847 20.4411L110.808 33.554L114.503 28.2458L110.819 34.6659L110.965 40.9953L110.98 40.828L115.24 35.228L110.975 41.4204L110.993 42.212L111 42.2245L110.995 42.2892L111.188 50.6665C110.909 50.6781 110.628 50.6829 110.343 50.6807L110.352 50.029L106.465 43.6142L110.36 49.4059L110.451 42.4056Z" fill="#CBCBCB"/>
<path d="M149.28 36.0081L144.801 27.213L149.294 34.9099L149.335 31.7618L146.257 25.404L149.346 30.9295L149.42 25.268L146.073 20.1797L149.431 24.3776L149.675 14.0429L149.676 14L149.676 14.0436L149.638 27.1565L153.332 21.8483L149.648 28.2684L149.794 34.5978L149.809 34.4305L154.069 28.8306L149.804 35.023L149.823 35.8146L149.83 35.8271L149.825 35.8917L150.018 44.269C149.739 44.2807 149.457 44.2854 149.173 44.2832L149.181 43.6315L145.295 37.2167L149.189 43.0084L149.28 36.0081Z" fill="#3F3D56"/>
<path d="M72.1714 66.2305C74.7806 64.3071 77.5169 62.5624 80.3614 61.0081C88.3172 56.6181 98.1008 52.8643 109.224 49.9564C109.988 49.7559 110.759 49.5599 111.536 49.3685C113.186 48.96 114.864 48.5711 116.569 48.2017C116.99 48.1109 117.412 48.0204 117.836 47.9303C120.209 47.4314 122.629 46.9707 125.097 46.5484C125.146 46.5394 125.196 46.5315 125.246 46.5236C125.826 46.4234 126.408 46.3265 126.992 46.233C138.671 44.3353 151.328 43.2913 164.551 43.2755C164.66 43.2744 164.771 43.2744 164.88 43.2744V88.9996H58C58 80.7094 63.1559 72.935 72.1714 66.2305Z" fill="#F1F1F1"/>
<path d="M93.4082 71.4467C97.9627 68.0601 103.794 65.0272 110.623 62.4695C111.381 62.1845 112.151 61.9064 112.934 61.6349C113.043 61.5966 113.153 61.5584 113.264 61.5201C114.26 61.1777 115.276 60.8443 116.311 60.52C118.06 59.9734 119.859 59.4568 121.707 58.9703C123.03 58.6208 124.376 58.2878 125.746 57.9713C126.186 57.8684 126.628 57.7686 127.071 57.6717C128.08 57.4472 129.101 57.2325 130.134 57.0275C140.692 54.9237 152.466 53.749 164.88 53.749V89.0002H82.4825C82.4825 82.6089 86.4582 76.615 93.4082 71.4467Z" fill="white"/>
<path d="M114.873 76.7179C124.824 69.3174 143.493 64.335 164.88 64.335V88.9996H107.228C107.228 84.5284 110.01 80.3343 114.873 76.7179Z" fill="#F1F1F1"/>
<path opacity="0.2" d="M72.1714 66.2305L93.4078 71.4461L114.873 76.718L164.88 88.9996H58C58 80.7094 63.1559 72.935 72.1714 66.2305Z" fill="black"/>
<path d="M76.17 84.8375L74.7043 84.8372L74.0068 79.1836H76.1703L76.17 84.8375Z" fill="#FFB7B7"/>
<path d="M76.5438 86.258L71.8174 86.2578V86.198C71.8174 85.7101 72.0113 85.2422 72.3562 84.8972C72.7012 84.5522 73.1691 84.3584 73.657 84.3584H73.6572L76.5439 84.3585L76.5438 86.258Z" fill="#2F2E41"/>
<path d="M89.1207 83.7574L87.7049 84.1376L85.5654 78.8577L87.655 78.2969L89.1207 83.7574Z" fill="#FFB7B7"/>
<path d="M89.8493 85.0328L85.2844 86.258L85.2689 86.2003C85.1425 85.7291 85.2084 85.2269 85.4521 84.8043C85.6959 84.3816 86.0975 84.0731 86.5687 83.9466L86.5688 83.9466L89.3569 83.1982L89.8493 85.0328Z" fill="#2F2E41"/>
<path d="M70.0665 58.6163C69.2193 59.7056 71.882 68.7828 72.003 68.9038C72.124 69.0249 71.882 69.751 71.882 69.751C71.8814 69.8821 71.9239 70.0096 72.003 70.1141C72.124 70.2351 72.003 70.3562 72.003 70.5982C72.003 70.8403 72.003 70.8403 72.2451 71.3244C72.39 71.6681 72.4321 72.0465 72.3661 72.4137L73.9395 81.6119C73.8231 81.662 73.7255 81.7473 73.6603 81.8559C73.5952 81.9645 73.5658 82.0909 73.5764 82.2171C73.5764 82.7012 75.997 82.9433 76.8442 82.8222C77.6914 82.7012 76.239 71.9295 76.239 71.9295C76.239 71.9295 76.239 69.1459 76.4811 68.9038C76.7232 68.6617 76.4811 68.6618 76.4811 68.1776C76.4811 67.6935 76.118 66.9673 76.239 66.6042C76.3601 66.2412 76.4811 61.0369 76.4811 61.0369C76.4811 61.0369 79.2648 66.2412 79.2648 66.9673C79.2648 67.6935 80.112 68.9038 80.112 68.9038L85.6793 80.2612C85.6793 80.2612 85.3163 80.9874 85.6793 81.5925C86.0424 82.1977 87.6158 81.7136 89.1892 81.1084C90.7626 80.5033 88.584 79.535 88.584 79.535L85.1952 69.872C85.2032 69.5061 85.2437 69.1415 85.3162 68.7828C85.4373 68.1776 84.9531 68.4197 84.5901 68.1776C84.227 67.9356 84.348 67.9356 84.5901 67.4514C84.8321 66.9673 84.227 65.878 84.227 65.878L82.6536 56.9219C82.6536 56.9219 70.9137 57.527 70.0665 58.6163Z" fill="#2F2E41"/>
<path d="M73.9661 36.7994C75.704 36.7994 77.1129 35.3905 77.1129 33.6526C77.1129 31.9147 75.704 30.5059 73.9661 30.5059C72.2282 30.5059 70.8193 31.9147 70.8193 33.6526C70.8193 35.3905 72.2282 36.7994 73.9661 36.7994Z" fill="#FFB8B8"/>
<path d="M72.7937 37.7595C72.7937 37.7595 68.5007 39.7266 68.1377 40.6948C67.7746 41.6631 70.4275 50.629 70.4275 50.629C70.4275 50.629 70.5885 54.3988 70.1044 55.8512C69.6203 57.3035 69.7013 57.5276 69.7013 57.5276V58.6169C69.7013 59.2221 73.5743 58.7379 75.5108 58.1328C77.4472 57.5276 82.4095 57.6487 82.8936 57.5276C83.3777 57.4066 82.084 55.8512 82.084 55.8512C83.7784 55.7301 82.084 52.1839 82.084 52.1839C82.084 52.1839 81.9108 40.7045 81.4267 39.1312C80.9426 37.5578 76.4609 37.2705 76.4609 37.2705L74.1794 38.0419L72.7937 37.7595Z" fill="#FF6584"/>
<path d="M77.7795 32.825C77.9414 32.0376 77.7875 31.2181 77.351 30.5431C77.0917 30.147 76.7527 29.8092 76.3557 29.5513C75.9586 29.2934 75.5122 29.121 75.0449 29.0451C74.1203 28.913 73.1774 29.0727 72.3479 29.5019C71.8457 29.7483 71.3023 30.0788 70.7765 29.8984L70.931 30.1755L70.5398 30.1801L70.6827 30.5043L70.3093 30.5576L70.5981 30.7309C70.2121 31.4184 69.9519 32.1694 69.8298 32.9484C69.7563 33.2563 69.7804 33.5796 69.8988 33.8732C70.0402 34.1494 70.4048 34.3107 70.6383 34.1203C70.7847 34.0007 70.8345 33.7911 70.9373 33.627C71.04 33.4629 71.276 33.3485 71.3984 33.4961L71.7141 32.865L71.9668 33.0708C72.5753 32.5353 73.2776 32.117 74.0383 31.837C74.1307 31.7887 74.2329 31.7622 74.3372 31.7593C74.4414 31.7565 74.5449 31.7775 74.6398 31.8206C74.9218 32.0013 74.881 32.4638 75.0763 32.7478C75.394 33.2095 76.1764 33.0178 76.4773 33.4924C76.5656 33.6811 76.6254 33.8818 76.6546 34.0881C76.7083 34.2897 76.838 34.5015 77.0323 34.5146C77.4422 34.0918 77.5988 33.5056 77.7795 32.825Z" fill="#2F2E41"/>
<path d="M85.3741 57.8138C85.2134 57.705 85.0785 57.5623 84.9789 57.3957C84.8793 57.2292 84.8175 57.0428 84.7977 56.8497C84.778 56.6566 84.8008 56.4616 84.8645 56.2783C84.9283 56.095 85.0315 55.9279 85.1669 55.7888L83.0508 51.5723L85.4853 51.8605L87.1215 55.8204C87.3402 56.0633 87.4621 56.3779 87.4643 56.7046C87.4664 57.0314 87.3486 57.3476 87.1333 57.5933C86.9179 57.839 86.6198 57.9972 86.2956 58.0378C85.9714 58.0785 85.6435 57.9988 85.3741 57.8138L85.3741 57.8138Z" fill="#FFB8B8"/>
<path d="M83.6313 54.7876L81.1644 46.8021L78.3489 40.6971C78.2301 40.4394 78.1713 40.158 78.1772 39.8743C78.183 39.5905 78.2532 39.3118 78.3825 39.0592C78.5118 38.8066 78.6968 38.5866 78.9236 38.416C79.1504 38.2453 79.4129 38.1284 79.6915 38.0741C80.133 37.9902 80.5901 38.067 80.9799 38.2906C81.3698 38.5142 81.6669 38.8699 81.8175 39.2934L86.952 53.9483C86.9799 54.0279 86.9905 54.1125 86.9831 54.1966C86.9757 54.2806 86.9505 54.3621 86.9092 54.4356C86.8679 54.5092 86.8114 54.5731 86.7435 54.6231C86.6755 54.6731 86.5977 54.7081 86.5152 54.7257L84.3229 55.1932C84.2813 55.202 84.2389 55.2065 84.1965 55.2066C84.0698 55.2066 83.9465 55.1658 83.8447 55.0904C83.7429 55.0149 83.6681 54.9088 83.6313 54.7876Z" fill="#FF6584"/>
<path d="M68.3863 60.5717C68.5194 60.4305 68.6199 60.2617 68.6807 60.0775C68.7416 59.8932 68.7613 59.6978 68.7384 59.505C68.7156 59.3123 68.6508 59.1269 68.5486 58.962C68.4463 58.797 68.3092 58.6564 68.1467 58.5502L69.292 53.9736L66.979 54.7861L66.246 59.0075C66.0857 59.2922 66.0353 59.6258 66.1045 59.9452C66.1737 60.2645 66.3576 60.5474 66.6214 60.7402C66.8852 60.933 67.2106 61.0224 67.5358 60.9913C67.8611 60.9602 68.1637 60.8109 68.3863 60.5717V60.5717Z" fill="#FFB8B8"/>
<path d="M68.9677 57.7697C68.9262 57.7789 68.8839 57.7838 68.8414 57.7842L66.5999 57.8062C66.5156 57.8071 66.432 57.7899 66.3548 57.7559C66.2776 57.7219 66.2085 57.6719 66.1521 57.6091C66.0957 57.5464 66.0534 57.4723 66.0278 57.3919C66.0023 57.3115 65.9942 57.2266 66.0041 57.1428L67.8178 41.7208C67.8724 41.2747 68.0847 40.8627 68.4164 40.5595C68.7481 40.2562 69.1774 40.0816 69.6266 40.0671C69.9103 40.0593 70.1921 40.1161 70.4506 40.2332C70.7091 40.3503 70.9377 40.5246 71.119 40.7429C71.3003 40.9612 71.4296 41.2179 71.4972 41.4935C71.5648 41.7692 71.5688 42.0566 71.5091 42.334L70.0932 48.9062L69.4278 57.2375C69.4183 57.3638 69.3685 57.4837 69.2856 57.5796C69.2028 57.6754 69.0913 57.742 68.9677 57.7697Z" fill="#FF6584"/>
</g>
<defs>
<filter id="filter0_d_63_17815" x="0" y="0" width="168.88" height="97.6084" filterUnits="userSpaceOnUse" color-interpolation-filters="sRGB">
<feFlood flood-opacity="0" result="BackgroundImageFix"/>
<feColorMatrix in="SourceAlpha" type="matrix" values="0 0 0 0 0 0 0 0 0 0 0 0 0 0 0 0 0 0 127 0" result="hardAlpha"/>
<feOffset dy="4"/>
<feGaussianBlur stdDeviation="2"/>
<feComposite in2="hardAlpha" operator="out"/>
<feColorMatrix type="matrix" values="0 0 0 0 0 0 0 0 0 0 0 0 0 0 0 0 0 0 0.25 0"/>
<feBlend mode="normal" in2="BackgroundImageFix" result="effect1_dropShadow_63_17815"/>
<feBlend mode="normal" in="SourceGraphic" in2="effect1_dropShadow_63_17815" result="shape"/>
</filter>
</defs>
</svg>
